<svg width="22" height="22" viewBox="0 0 22 22" fill="none" xmlns="http://www.w3.org/2000/svg">
<path fill-rule="evenodd" clip-rule="evenodd" d="M0.199951 6.71398C0.199951 3.11625 3.11619 0.200012 6.71392 0.200012H15.286C15.2867 0.200012 15.2875 0.200012 15.2882 0.200012C18.8849 0.201213 21.8 3.11699 21.8 6.71398V15.286C21.8 18.8838 18.8837 21.8 15.286 21.8H6.71392C3.11619 21.8 0.199951 18.8838 0.199951 15.286V6.71398ZM15.286 1.80001H6.71392C3.99984 1.80001 1.79995 3.9999 1.79995 6.71398V15.286C1.79995 18.0001 3.99984 20.2 6.71392 20.2H15.286C18.0001 20.2 20.2 18.0001 20.2 15.286V6.71398C20.2 3.9999 18.0001 1.80001 15.286 1.80001Z" fill="white"/>
<path d="M6.71396 8.14301C7.5032 8.14301 8.14301 7.5032 8.14301 6.71396C8.14301 5.92472 7.5032 5.28491 6.71396 5.28491C5.92472 5.28491 5.28491 5.92472 5.28491 6.71396C5.28491 7.5032 5.92472 8.14301 6.71396 8.14301Z" fill="white"/>
<path d="M15.2882 16.7173C16.0774 16.7173 16.7172 16.0775 16.7172 15.2883C16.7172 14.499 16.0774 13.8592 15.2882 13.8592C14.4989 13.8592 13.8591 14.499 13.8591 15.2883C13.8591 16.0775 14.4989 16.7173 15.2882 16.7173Z" fill="white"/>
<path d="M11.0011 12.4302C11.7903 12.4302 12.4301 11.7904 12.4301 11.0011C12.4301 10.2119 11.7903 9.57208 11.0011 9.57208C10.2118 9.57208 9.57202 10.2119 9.57202 11.0011C9.57202 11.7904 10.2118 12.4302 11.0011 12.4302Z" fill="white"/>
</svg>
