<svg width="851" height="509" viewBox="0 0 851 509" fill="none" xmlns="http://www.w3.org/2000/svg">
<g clip-path="url(#clip0_76_2)">
<path d="M464.976 103.872C459.948 134.29 468.767 164.453 483.87 191.456C510.6 237.652 560.721 269.248 613.945 274.762C570.187 272.918 527.451 253.646 496.42 222.522C472.243 198.973 456.688 166.906 453.153 133.27C451.896 121.809 455.078 120.337 456.57 108.837L468.511 101.674L464.996 103.872H464.976Z" fill="black"/>
<path d="M261.683 224.17L371.156 159.645L378.128 155.524L375.673 159.645C375.673 159.645 354.05 207.333 404.053 269.032C454.056 330.731 526.528 328.828 526.528 328.828L483.418 353.476L446.318 375.907L442.528 377.712L419.844 376.103C419.844 376.103 397.238 370.746 348.727 384.09C336.511 378.497 299.922 362.66 271.994 319.722C244.066 276.784 253.532 237.083 261.683 224.17Z" fill="#C3E1FF"/>
<path d="M527.645 325.865L442.351 377.014L443.361 378.697L528.656 327.547L527.645 325.865Z" fill="black"/>
<path d="M309.506 5.14162C252.983 7.63393 207.83 24.7661 208.655 43.3897V54.6738C209.48 73.2974 255.968 86.3673 312.492 83.875C314.456 83.7965 316.4 83.6788 318.344 83.561C372.119 80.166 414.168 63.6029 413.363 45.6073V34.3428C412.538 15.7192 366.03 2.64931 309.506 5.14162Z" fill="#6F95BD"/>
<path d="M311.744 57.6614C349.202 55.9291 379.136 45.2214 378.605 33.7451C378.073 22.2687 347.277 14.3697 309.819 16.102C272.362 17.8343 242.428 28.542 242.959 40.0183C243.491 51.4947 274.287 59.3937 311.744 57.6614Z" fill="black"/>
<path d="M295.562 50.4545C281.657 50.4545 264.766 48.0996 258.913 41.231C257.323 39.3667 256.851 37.1491 257.578 34.8138C259.778 27.6901 272.288 20.8804 283.503 17.8386L288.845 18.0937C276.57 21.4299 261.172 29.8096 259.444 35.4025C258.913 37.0902 259.228 38.5817 260.406 39.9554C267.928 48.7864 298.292 49.9639 311.215 47.2165C323.745 44.5672 325.395 41.1525 325.591 40.1713C325.788 39.2293 325.179 38.6994 324.982 38.5621C322.979 37.1295 317.833 35.8146 310.9 36.109C304.792 36.3838 301.591 38.2088 301.336 38.8957C301.473 39.0527 302.927 39.6807 305.637 39.5629C308.249 39.4452 309.86 38.7387 310.017 38.3854L311.961 38.3462C312 39.0723 311.627 40.1124 309.663 40.8189C308.583 41.2114 307.189 41.4665 305.716 41.5254C304.243 41.5842 302.848 41.4665 301.788 41.1525C299.843 40.603 299.411 39.6218 299.372 38.8957C299.313 37.7575 300.491 36.6192 302.652 35.7361C304.144 35.1082 306.796 34.3428 310.802 34.1662C317.323 33.8914 323.333 34.9904 326.121 36.9921C327.28 37.8163 327.81 39.2097 327.516 40.603C327.005 43.0757 323.824 46.5689 311.627 49.1593C307.856 49.9639 302.023 50.4741 295.562 50.4741V50.4545Z" fill="#6F95BD"/>
<path d="M302.789 59.6389C272.504 59.6389 247.935 53.3002 242.671 43.6842C242.023 42.5263 241.67 41.29 241.611 40.0536C241.493 37.6202 242.514 35.2064 244.655 32.8711C253.375 23.3532 279.653 16.1118 310.056 14.8558C349.022 13.227 380.014 21.744 380.603 34.2448V34.8924C380.564 36.1876 380.19 37.4436 379.542 38.6799C373.925 49.3164 345.585 58.0689 312.138 59.4622C308.976 59.5996 305.853 59.6585 302.809 59.6585L302.789 59.6389ZM319.012 16.622C316.085 16.622 313.12 16.6809 310.115 16.7986C280.655 18.0153 254.337 25.1783 246.089 34.1859C244.321 36.1091 243.457 38.0519 243.555 39.9555C243.594 40.9171 243.869 41.8198 244.38 42.7422C249.761 52.5348 278.848 58.8931 312.04 57.4802C344.289 56.1457 372.57 47.6483 377.794 37.7379C378.325 36.7763 378.6 35.8147 378.619 34.8531V34.3233C378.109 24.2167 351.653 16.6416 319.012 16.6416V16.622Z" fill="black"/>
<path d="M298.547 73.3956C253.493 73.3956 216.982 63.4656 209.205 48.4332C208.282 46.667 207.771 44.8223 207.673 42.9384C207.26 33.4794 217.748 24.197 237.231 16.7986C256.38 9.53753 282.03 4.8669 309.467 3.65018C367.424 1.099 413.48 14.3259 414.344 33.7934V34.7746C414.285 36.7174 413.775 38.621 412.832 40.4657C404.524 57.1465 362.338 70.864 312.55 73.062C307.817 73.2778 303.143 73.3759 298.567 73.3759L298.547 73.3956ZM323.352 5.31826C318.835 5.31826 314.22 5.41639 309.565 5.63226C282.324 6.82935 256.891 11.4607 237.938 18.6433C219.594 25.61 209.283 34.4214 209.656 42.8599C209.735 44.4691 210.147 45.9998 210.953 47.5305C219.064 63.1908 262.704 73.3367 312.452 71.1191C361.591 68.9408 403.051 55.6943 411.064 39.6022C411.889 37.993 412.321 36.3838 412.38 34.7746V33.8915C411.614 17.3677 372.825 5.33789 323.352 5.33789V5.31826Z" fill="black"/>
<path d="M298.37 84.6796C247.247 84.6796 208.458 72.061 207.673 54.2224V42.8991L209.637 42.8598C209.715 44.469 210.128 45.9997 210.933 47.5304C219.044 63.1908 262.684 73.3563 312.432 71.1191C361.572 68.9604 403.032 55.6942 411.045 39.6022C411.87 37.993 412.302 36.3837 412.361 34.7745L414.325 34.8138V45.1363C415.189 64.5449 370.469 81.8144 312.511 84.3852C307.699 84.6011 302.966 84.6992 298.351 84.6992L298.37 84.6796ZM209.637 49.2182V54.1831C210.442 72.1984 256.557 84.8758 312.452 82.4031C368.347 79.9108 413.186 63.2104 412.38 45.1559V41.3095C403.11 57.6174 361.513 70.9228 312.531 73.0815C262.056 75.2991 219.162 65.3298 209.637 49.2182Z" fill="black"/>
<path d="M207.673 54.2421C207.653 53.7907 207.653 53.359 207.673 52.9076L209.637 53.0057C209.637 53.3786 209.637 53.7711 209.637 54.1439L207.673 54.2421Z" fill="black"/>
<path d="M414.345 33.8523H412.381V34.7943H414.345V33.8523Z" fill="black"/>
<path d="M306.828 4.64901L304.892 4.97729L306.777 16.083L308.714 15.7547L306.828 4.64901Z" fill="black"/>
<path d="M317.362 83.1685L316.243 71.9433L313.964 58.481L315.889 58.1473L318.187 71.6882L319.326 82.9723L317.362 83.1685Z" fill="black"/>
<path d="M402.757 59.9331L401.814 50.6508L371.333 46.3726L371.608 44.4298L403.621 48.9238L404.701 59.7369L402.757 59.9331Z" fill="black"/>
<path d="M232.674 73.7488H230.71V62.19L258.187 52.0245L258.874 53.8692L232.674 63.5441V73.7488Z" fill="black"/>
<path d="M412.943 30.5603L379.45 32.4255L379.559 34.3849L413.053 32.5197L412.943 30.5603Z" fill="black"/>
<path d="M242.653 40.0344L208.591 41.9313L208.7 43.8907L242.762 41.9938L242.653 40.0344Z" fill="black"/>
<path d="M388.452 12.4461L365.458 21.3164L366.165 23.1472L389.159 14.2769L388.452 12.4461Z" fill="black"/>
<path d="M229.767 20.1131L229.475 22.0537L257.266 26.2337L257.559 24.2931L229.767 20.1131Z" fill="black"/>
<path d="M361.513 164.865C355.935 161.195 351.83 154.445 349.336 145.535C344.819 129.482 345.526 106.365 352.243 81.4416C352.439 80.6566 352.655 79.8716 352.891 79.067C353.186 77.968 353.519 76.8691 353.853 75.7701C354.757 72.8068 355.719 69.8827 356.721 67.0372C359.019 60.6004 361.591 54.4775 364.4 48.7276C367.994 41.3095 371.961 34.5391 376.125 28.5928C379.562 23.7064 383.117 19.389 386.731 15.6799C387.398 15.0127 388.046 14.3651 388.714 13.7371C388.832 13.639 388.93 13.5212 389.048 13.4428C389.971 12.5596 390.914 11.7158 391.857 10.9112C392.78 10.1262 393.683 9.40011 394.606 8.71325C395.019 8.39926 395.431 8.10489 395.844 7.81053C396.236 7.53578 396.61 7.26104 397.002 7.00592C402.796 3.19878 408.551 1.15783 413.952 1.27558C415.287 1.2952 416.603 1.4522 417.899 1.74656L420.001 1.92318L425.873 2.45305H425.991C426.246 2.47267 426.502 2.45305 426.737 2.45305C428.191 2.45305 429.585 2.61004 430.979 2.92403C437.068 4.29775 441.939 8.57588 445.474 15.0323C453.939 30.4768 454.763 58.4024 446.515 89.0559C446.024 90.9398 445.474 92.8237 444.904 94.7077C441.958 104.461 438.325 113.645 434.24 122.005L414.187 133.819L397.749 143.514L370.39 159.645L361.945 164.63L361.533 164.865H361.513Z" fill="#6F95BD"/>
<path d="M414.705 91.3573C424.369 60.8776 422.028 32.9472 409.475 28.9731C396.922 24.999 378.911 46.486 369.246 76.9658C359.581 107.445 361.923 135.376 374.476 139.35C387.029 143.324 405.04 121.837 414.705 91.3573Z" fill="black"/>
<path d="M381.231 110.191C379.935 110.191 378.619 109.779 377.421 108.994C375.241 107.542 368.485 101.125 372.767 79.6165C376.479 60.9928 389.205 38.3462 398.102 30.516L402.443 29.7114C393.958 37.1687 378.266 62.0526 374.691 79.9893C371.47 96.1207 374.554 104.697 378.521 107.346C380.23 108.484 382.155 108.504 383.824 107.405C391.7 102.165 395.706 89.2717 396.197 85.4253C396.747 81.0098 395.981 77.654 394.312 77.2615C392.819 76.8887 390.148 80.5584 389.166 83.6591C388.321 86.328 388.734 87.4466 388.891 87.5644C389.107 87.5251 390.246 86.6224 391.091 83.9731L392.957 84.5618C391.896 87.8784 390.069 89.8408 388.38 89.4483C388.007 89.3698 387.497 89.1147 387.123 88.4671C386.475 87.3289 386.534 85.4253 387.281 83.0704C388.263 79.9893 391.464 74.573 394.763 75.358C397.572 76.0252 398.868 79.9893 398.141 85.6804C397.611 89.9389 393.467 103.362 384.924 109.053C383.785 109.819 382.528 110.191 381.251 110.191H381.231Z" fill="#6F95BD"/>
<path d="M361.886 165.788L361.375 165.454C355.719 161.765 351.339 154.857 348.708 145.496C343.994 128.756 345.055 105.207 351.614 80.8921C351.811 80.1071 352.027 79.3221 352.262 78.4979C352.557 77.4185 352.871 76.3392 353.205 75.2402C354.109 72.2573 355.091 69.294 356.092 66.4092C358.39 59.992 360.983 53.7907 363.811 48.0014C367.366 40.6619 371.333 33.8326 375.614 27.7294C379.051 22.8429 382.645 18.4666 386.318 14.6987C387.006 14.0119 387.654 13.3642 388.341 12.7363C389.264 11.8532 390.226 10.9897 391.189 10.1655C392.132 9.36086 393.055 8.61513 393.997 7.92827C394.41 7.61428 394.822 7.31991 395.254 7.00592L395.549 6.79005C395.844 6.57418 396.138 6.37794 396.433 6.18169C402.639 1.96243 408.629 -0.137389 414.305 -1.79338e-05C415.7 0.0196065 417.094 0.196227 418.449 0.490594C419.078 0.627965 419.686 0.804586 420.295 0.981206C421.042 1.23632 421.709 1.53069 422.397 1.86431C422.986 2.15867 423.595 2.45304 424.164 2.80628C424.439 2.96328 424.714 3.1399 425.009 3.33614C425.952 3.96413 426.855 4.65098 427.778 5.49483C428.053 5.73033 428.308 5.98545 428.544 6.24056C428.74 6.43681 428.937 6.63305 429.153 6.86855C429.585 7.31991 429.997 7.7909 430.39 8.32076C431.176 9.24311 431.922 10.3225 432.668 11.5392C433.14 12.2653 433.592 13.0699 434.083 14.0119L434.2 14.2474C434.436 14.7183 434.652 15.1697 434.868 15.6211C435.123 16.1509 435.359 16.72 435.595 17.2891C435.83 17.8386 436.047 18.4077 436.263 18.9965C436.498 19.5656 436.695 20.1739 436.891 20.8215C437.087 21.4299 437.284 22.0383 437.461 22.6662C437.618 23.2354 437.775 23.8045 437.932 24.3932C438.03 24.7857 438.128 25.1782 438.227 25.5903C438.325 25.9632 438.443 26.4145 438.541 26.8855L438.894 28.6321C439.012 29.2404 439.13 29.8488 439.228 30.4572L439.268 30.7319C439.739 33.5775 440.092 36.6192 440.289 39.7199C440.328 40.4068 440.367 40.9759 440.387 41.545C440.426 41.9571 440.446 42.4085 440.446 42.8991C440.466 43.2916 440.485 43.7626 440.485 44.2335V44.9204C440.544 46.7062 440.524 48.5117 440.485 50.3564C440.466 51.004 440.446 51.6712 440.407 52.3188C440.348 53.7318 440.269 55.1448 440.151 56.597C440.112 57.3034 440.053 58.0688 439.975 58.8342C439.857 60.3256 439.7 61.876 439.503 63.4459C439.444 63.9954 439.385 64.5253 439.307 65.0944L439.13 66.3896C438.639 69.8239 438.05 73.2974 437.362 76.7513L437.264 77.2615C437.127 77.968 436.97 78.6941 436.813 79.4006L436.714 79.8323C436.557 80.5585 436.38 81.3042 436.204 82.0499C436.007 82.933 435.791 83.8357 435.556 84.7385C435.379 85.4842 435.182 86.2103 434.986 86.9757L434.868 87.427C434.338 89.4483 433.768 91.45 433.14 93.491C432.767 94.7273 432.374 95.9833 431.981 97.2C431.726 98.0242 431.451 98.8681 431.137 99.6923C430.94 100.34 430.685 101.046 430.449 101.714L430.213 102.381C429.978 103.028 429.742 103.656 429.506 104.304C429.29 104.893 429.074 105.482 428.839 106.09C428.642 106.659 428.407 107.228 428.171 107.817C427.66 109.132 427.169 110.368 426.639 111.585C426.325 112.33 426.03 113.037 425.716 113.704C425.421 114.371 425.186 114.921 424.95 115.451C424.695 116.059 424.439 116.667 424.125 117.276C423.536 118.61 422.868 119.945 422.22 121.279L422.102 121.534C422.043 121.652 421.984 121.77 421.945 121.888L421.572 122.633C420.629 124.537 419.745 126.225 418.901 127.736C417.86 129.62 416.819 131.464 415.739 133.231C415.562 133.525 415.385 133.8 415.209 134.074V134.349L414.718 134.644L361.925 165.748L361.886 165.788ZM413.853 1.96243C408.727 1.96243 403.248 3.92488 397.552 7.83015C397.258 8.02639 396.983 8.22264 396.708 8.39926L396.393 8.61513C396.001 8.88987 395.588 9.18424 395.176 9.49823C394.253 10.1851 393.369 10.8916 392.465 11.6569C391.542 12.4419 390.6 13.2858 389.696 14.1492C389.028 14.7772 388.38 15.4248 387.732 16.0724C384.138 19.7618 380.603 24.0596 377.244 28.848C373.042 34.8727 369.114 41.5842 365.598 48.8453C362.789 54.5756 360.217 60.7181 357.958 67.0568C356.956 69.9024 355.994 72.8264 355.11 75.7505C354.776 76.869 354.442 77.9484 354.167 79.0081C353.932 79.8127 353.716 80.5977 353.519 81.3631C347.058 105.364 345.997 128.54 350.613 144.946C353.028 153.561 356.937 159.939 361.965 163.433L413.48 133.093C413.677 132.799 413.853 132.504 414.03 132.21C415.091 130.463 416.112 128.638 417.153 126.774C417.997 125.283 418.862 123.615 419.804 121.711L420.158 121.024C420.158 121.024 420.256 120.808 420.315 120.651L420.433 120.416C421.081 119.081 421.729 117.766 422.338 116.412C422.632 115.804 422.888 115.235 423.143 114.646C423.379 114.116 423.614 113.567 423.85 113.037C424.223 112.213 424.498 111.545 424.793 110.859C425.323 109.583 425.814 108.386 426.305 107.13C426.56 106.502 426.776 105.953 426.973 105.364C427.209 104.755 427.425 104.167 427.641 103.578C427.896 102.93 428.112 102.302 428.348 101.674L428.583 101.007C428.819 100.36 429.035 99.6727 429.251 99.0055C429.546 98.1812 429.821 97.357 430.076 96.5524C430.469 95.3357 430.862 94.0993 431.235 92.863C431.844 90.8613 432.413 88.8596 432.943 86.8775L433.061 86.4262C433.258 85.6804 433.454 84.9543 433.631 84.2086C433.866 83.3059 434.083 82.4424 434.279 81.5593C434.456 80.7939 434.632 80.0678 434.79 79.3614L434.888 78.9296C435.045 78.2231 435.182 77.5167 435.34 76.8298L435.438 76.3196C436.125 72.9049 436.714 69.4706 437.186 66.0756L437.362 64.7804C437.441 64.2309 437.5 63.7207 437.559 63.1712C437.755 61.6208 437.912 60.1097 438.03 58.5987C438.109 57.8529 438.168 57.1072 438.207 56.4007C438.325 54.9485 438.403 53.5552 438.462 52.1618C438.502 51.5142 438.521 50.8666 438.541 50.2386C438.58 48.4332 438.6 46.6474 438.56 44.9008V44.2139C438.541 43.7822 438.521 43.3308 438.502 42.8991C438.502 42.4281 438.482 42.016 438.443 41.6235C438.423 41.0151 438.384 40.4656 438.344 39.9162C438.148 36.7566 437.814 33.7933 437.343 31.0067L437.304 30.7319C437.205 30.1432 437.107 29.5544 436.989 28.9657L436.636 27.2388C436.538 26.807 436.439 26.3949 436.341 25.9828C436.243 25.551 436.164 25.1782 436.066 24.8446C435.909 24.2755 435.752 23.7063 435.595 23.1569C435.418 22.5681 435.222 21.9598 435.045 21.371C434.848 20.7627 434.672 20.1936 434.436 19.6245C434.24 19.0357 434.024 18.5059 433.788 17.976C433.572 17.4265 433.336 16.8967 433.101 16.3864C432.865 15.8566 432.629 15.3856 432.394 14.895L432.295 14.6791C431.883 13.8745 431.47 13.168 431.058 12.5204C430.351 11.3626 429.664 10.3617 428.917 9.4786C428.544 8.98799 428.171 8.55625 427.778 8.14414C427.582 7.92827 427.385 7.73202 427.189 7.53578C426.953 7.28066 426.737 7.08442 426.521 6.88817C425.677 6.12282 424.852 5.47521 424.007 4.92572C423.752 4.76873 423.497 4.59211 423.241 4.45474C422.691 4.12112 422.161 3.84638 421.611 3.59126C421.002 3.29689 420.374 3.02215 419.745 2.80628C419.235 2.64929 418.665 2.49229 418.096 2.37454C416.878 2.0998 415.601 1.94281 414.344 1.92318C414.207 1.92318 414.069 1.92318 413.932 1.92318L413.853 1.96243Z" fill="black"/>
<path d="M378.01 140.943C377.087 140.943 376.184 140.845 375.3 140.649C371.784 139.844 368.878 137.509 366.658 133.702C360.275 122.751 360.57 101.046 367.424 78.439C376.989 46.824 395.411 24.5502 409.316 27.6901C412.832 28.4947 415.739 30.83 417.958 34.6372C424.341 45.5876 424.046 67.2923 417.212 89.8997C408.256 119.513 391.542 140.943 378.01 140.943ZM406.586 29.3582C394.115 29.3582 377.873 50.6508 369.31 79.0081C362.632 101.125 362.259 122.202 368.367 132.72C370.311 136.037 372.786 138.078 375.752 138.745C388.459 141.649 406.233 119.474 415.346 89.3502C422.023 67.2334 422.397 46.1568 416.289 35.638C414.344 32.3215 411.87 30.2806 408.924 29.6133C408.177 29.4367 407.411 29.3582 406.626 29.3582H406.586Z" fill="black"/>
<path d="M410.966 136.861L413.362 133.289C413.578 132.975 413.774 132.642 413.971 132.328C415.228 130.248 416.21 128.521 417.113 126.833C417.958 125.342 418.822 123.673 419.765 121.77C419.922 121.515 420 121.299 420.098 121.103C420.256 120.828 420.334 120.671 420.393 120.534C421.061 119.16 421.709 117.825 422.318 116.491C422.612 115.883 422.868 115.313 423.103 114.725C423.339 114.175 423.575 113.645 423.81 113.096C424.184 112.291 424.459 111.604 424.734 110.937C425.264 109.662 425.755 108.464 426.246 107.209C426.501 106.581 426.717 106.031 426.914 105.462C427.149 104.854 427.365 104.265 427.581 103.676C427.837 103.028 428.053 102.401 428.288 101.773L428.524 101.105C428.76 100.458 428.976 99.7708 429.192 99.1036C429.486 98.2794 429.761 97.4551 430.017 96.6505C430.409 95.4338 430.802 94.1975 431.175 92.9611C431.784 90.9594 432.354 88.9577 432.884 86.9757L432.982 86.5832C433.179 85.8178 433.375 85.0721 433.552 84.3067C433.788 83.404 434.004 82.5405 434.2 81.6574C434.396 80.8725 434.554 80.1267 434.73 79.381L434.809 79.0081C434.966 78.3016 435.103 77.5755 435.261 76.8887L435.359 76.3981C436.046 72.9834 436.635 69.5491 437.107 66.1541L437.283 64.8589C437.362 64.3094 437.421 63.7992 437.48 63.2497C437.676 61.6993 437.833 60.1883 437.951 58.6772C438.03 57.9314 438.089 57.1857 438.128 56.4792C438.246 55.027 438.324 53.6337 438.383 52.2403C438.423 51.5927 438.442 50.9451 438.462 50.3171C438.501 48.5117 438.521 46.7259 438.482 44.9793V44.2924C438.462 43.8607 438.442 43.4093 438.423 42.9776C438.423 42.5066 438.403 42.0945 438.364 41.702C438.344 41.0936 438.305 40.5442 438.265 39.9947C438.069 36.8155 437.735 33.8718 437.264 31.0852C437.146 30.3983 437.028 29.6918 436.891 29.0442L436.537 27.3173C436.439 26.8855 436.341 26.4734 436.243 26.0613C436.164 25.6296 436.066 25.2763 435.968 24.9427C435.81 24.3343 435.653 23.7849 435.496 23.2354C435.319 22.627 435.162 22.0383 434.946 21.4692C434.75 20.8216 434.554 20.2524 434.337 19.6833C434.141 19.0946 433.925 18.5451 433.709 18.0545C433.473 17.4658 433.257 16.9555 433.022 16.4453C432.786 15.8958 432.531 15.4052 432.275 14.9146L432.177 14.6987C431.765 13.9137 431.372 13.2073 430.959 12.5793C430.252 11.4214 429.565 10.4402 428.819 9.53748C428.445 9.04687 428.072 8.61513 427.68 8.20302C427.483 7.98715 427.287 7.79091 427.09 7.59466C426.855 7.33954 426.639 7.1433 426.423 6.94705C425.578 6.1817 424.753 5.53409 423.909 4.98461C423.653 4.82761 423.398 4.65099 423.143 4.51362C422.593 4.18 422.062 3.90526 421.513 3.65014C420.904 3.35577 420.275 3.08103 419.647 2.86516C419.136 2.70817 418.567 2.55117 417.997 2.43342L418.292 0.490601L431.372 1.66807C437.735 3.10066 442.842 7.33954 446.632 14.2866C455.431 30.3198 455.843 58.9715 447.752 89.0362C447.261 90.9202 446.711 92.8238 446.141 94.7077C443.234 104.304 439.601 113.586 435.359 122.28L435.182 122.535L434.436 121.829L433.964 121.593L434.711 122.849L410.946 136.841L410.966 136.861ZM434.161 14.267C434.396 14.7183 434.612 15.1697 434.828 15.6603C435.084 16.1902 435.339 16.7397 435.555 17.348C435.771 17.8583 436.007 18.447 436.203 19.0357C436.439 19.6048 436.635 20.2132 436.832 20.8608C437.048 21.4299 437.225 22.0579 437.401 22.7055C437.558 23.255 437.716 23.8241 437.873 24.4325C437.991 24.8446 438.089 25.2371 438.167 25.6296C438.265 26.0024 438.383 26.4538 438.482 26.9248L438.835 28.6713C438.973 29.3386 439.09 30.0647 439.208 30.7908C439.68 33.6363 440.033 36.6585 440.229 39.7788C440.269 40.4657 440.308 41.0348 440.328 41.6039C440.367 42.016 440.387 42.4674 440.387 42.958C440.406 43.3505 440.426 43.8214 440.426 44.2924V44.9793C440.485 46.7651 440.465 48.5902 440.426 50.4349C440.406 51.0825 440.387 51.7497 440.347 52.3973C440.288 53.8103 440.21 55.2233 440.092 56.6755C440.053 57.382 439.994 58.1473 439.915 58.9127C439.797 60.4041 439.64 61.9545 439.444 63.5244C439.385 64.0739 439.326 64.6038 439.247 65.1729L439.071 66.4681C438.58 69.9024 437.991 73.3759 437.283 76.8298L437.185 77.3204C437.048 78.0269 436.891 78.753 436.734 79.4791L436.655 79.852C436.478 80.5977 436.321 81.3631 436.125 82.1284C435.928 83.0115 435.712 83.9143 435.477 84.817C435.3 85.5627 435.103 86.3281 434.887 87.0934L434.789 87.4859C434.259 89.5072 433.689 91.5089 433.061 93.5499C432.688 94.7862 432.295 96.0422 431.902 97.2589C431.647 98.0831 431.372 98.927 431.058 99.7512C430.861 100.399 430.606 101.105 430.37 101.773L430.135 102.44C429.899 103.087 429.663 103.715 429.427 104.363C429.211 104.952 428.995 105.56 428.76 106.149C428.563 106.718 428.328 107.287 428.092 107.876C427.581 109.191 427.09 110.407 426.56 111.644C426.246 112.389 425.951 113.096 425.637 113.763C425.342 114.43 425.107 114.98 424.871 115.51C424.616 116.118 424.36 116.726 424.046 117.335C423.457 118.669 422.789 120.004 422.141 121.338C422.082 121.515 421.945 121.75 421.807 122.005C421.748 122.162 421.611 122.457 421.454 122.731C420.531 124.615 419.647 126.303 418.783 127.814C418.233 128.835 417.624 129.914 416.956 131.052L433.67 121.201C437.814 112.684 441.369 103.578 444.216 94.1779C444.786 92.3135 445.336 90.4296 445.807 88.5653C453.781 58.9519 453.408 30.8693 444.864 15.2678C441.349 8.831 436.675 4.92573 431.018 3.65014L424.38 3.06141C424.557 3.17915 424.734 3.2969 424.93 3.41465C425.873 4.04263 426.776 4.72949 427.699 5.57334C427.974 5.80883 428.229 6.06395 428.465 6.31907C428.662 6.51531 428.858 6.71156 429.074 6.94705C429.506 7.39842 429.919 7.8694 430.311 8.39927C431.097 9.34124 431.843 10.401 432.59 11.6177C433.061 12.3438 433.513 13.168 434.004 14.0904L434.102 14.3259L434.161 14.267Z" fill="black"/>
<path d="M414.992 134.369L414.187 133.839H413.186V133.525L413.343 133.27C413.559 132.956 413.755 132.622 413.952 132.308C415.208 130.228 416.19 128.501 417.094 126.813C417.938 125.322 418.803 123.654 419.745 121.75L420.138 120.965C420.236 120.808 420.295 120.671 420.354 120.514C421.022 119.14 421.67 117.806 422.279 116.471C422.573 115.863 422.829 115.294 423.064 114.705C423.3 114.156 423.536 113.626 423.771 113.076C424.145 112.272 424.42 111.585 424.695 110.918C425.225 109.642 425.716 108.445 426.207 107.189C426.462 106.561 426.678 106.011 426.875 105.442C427.11 104.834 427.326 104.245 427.542 103.656C427.798 103.009 428.014 102.381 428.249 101.753L428.485 101.086C428.721 100.438 428.937 99.7512 429.153 99.084C429.447 98.2597 429.722 97.4355 429.978 96.6309C430.37 95.4142 430.763 94.1778 431.136 92.9415C431.745 90.9398 432.315 88.9381 432.845 86.956L432.943 86.5635C433.14 85.7982 433.336 85.0525 433.513 84.2871C433.749 83.3844 433.965 82.5209 434.161 81.6378C434.357 80.8528 434.515 80.1071 434.691 79.3614L434.77 78.9885C434.927 78.282 435.064 77.5559 435.222 76.8691L435.32 76.3784C436.007 72.9638 436.596 69.5295 437.068 66.1345L437.245 64.8393C437.323 64.2898 437.382 63.7795 437.441 63.2301C437.637 61.6797 437.794 60.1686 437.912 58.6575C437.991 57.9118 438.05 57.1661 438.089 56.4596C438.207 55.0074 438.285 53.6141 438.344 52.2207C438.384 51.5731 438.403 50.9255 438.423 50.2975C438.462 48.4921 438.482 46.7062 438.443 44.9597V44.2728C438.423 43.8411 438.403 43.3897 438.384 42.958C438.384 42.487 438.364 42.0749 438.325 41.6824C438.305 41.074 438.266 40.5245 438.227 39.975C438.03 36.7959 437.696 33.8522 437.225 31.0655L437.186 30.8104C437.087 30.2217 436.989 29.6133 436.871 29.0246L436.518 27.2976C436.42 26.8659 436.321 26.4538 436.223 26.0417C436.145 25.6099 436.046 25.2567 435.948 24.9231C435.791 24.3147 435.634 23.7652 435.477 23.2157C435.3 22.627 435.104 22.0187 434.927 21.4299C434.731 20.8216 434.554 20.2524 434.318 19.6833C434.122 19.0946 433.906 18.5647 433.67 18.0349C433.454 17.4854 433.218 16.9555 432.983 16.4453C432.747 15.8958 432.492 15.4052 432.236 14.9146L432.138 14.6987C431.726 13.9137 431.333 13.2073 430.92 12.5793C430.233 11.4607 429.506 10.4402 428.76 9.53749C428.387 9.04687 428.014 8.63476 427.621 8.22265C427.425 8.00678 427.228 7.81053 427.032 7.61429C426.796 7.35917 426.58 7.16292 426.364 6.96668C425.519 6.20132 424.695 5.55372 423.85 5.00423C423.595 4.84724 423.339 4.67062 423.084 4.53324C422.534 4.19963 422.004 3.92489 421.454 3.66977L422.298 1.90356C422.888 2.19793 423.497 2.4923 424.066 2.84554C424.341 3.00254 424.616 3.17916 424.911 3.3754C425.853 4.00338 426.757 4.69024 427.68 5.53409C427.955 5.76959 428.21 6.0247 428.446 6.27982C428.642 6.47607 428.839 6.67231 429.055 6.90781C429.487 7.35917 429.899 7.83016 430.292 8.36002C431.078 9.32162 431.844 10.401 432.57 11.5784C433.042 12.3045 433.513 13.1288 433.984 14.0511L434.082 14.2866C434.318 14.738 434.534 15.1893 434.75 15.6799C435.006 16.2098 435.241 16.7789 435.477 17.348C435.713 17.8975 435.929 18.4666 436.145 19.0554C436.38 19.6245 436.577 20.2328 436.773 20.8804C436.97 21.4888 437.166 22.0971 437.343 22.7251C437.5 23.2942 437.657 23.8634 437.814 24.4521C437.932 24.8642 438.03 25.2567 438.109 25.6492C438.207 26.022 438.325 26.4734 438.423 26.9444L438.776 28.691C438.894 29.2993 439.012 29.9273 439.11 30.5357L439.15 30.7908C439.621 33.6363 439.974 36.6585 440.171 39.7788C440.21 40.4657 440.249 41.0348 440.269 41.6039C440.308 42.016 440.328 42.4674 440.328 42.958C440.348 43.3505 440.367 43.8214 440.367 44.2924V44.9793C440.426 46.7651 440.407 48.5902 440.367 50.4349C440.348 51.0825 440.328 51.7497 440.289 52.3973C440.23 53.8103 440.151 55.2233 440.033 56.6755C439.994 57.382 439.935 58.1473 439.857 58.9127C439.739 60.4041 439.582 61.9545 439.385 63.5244C439.326 64.0739 439.267 64.6038 439.189 65.1729L439.012 66.4681C438.521 69.9024 437.932 73.3759 437.225 76.8298L437.127 77.3204C436.989 78.0269 436.832 78.753 436.675 79.4791L436.596 79.852C436.42 80.5977 436.263 81.3631 436.066 82.1284C435.87 83.0115 435.654 83.9142 435.418 84.817C435.241 85.5627 435.045 86.3281 434.829 87.0934L434.731 87.4859C434.2 89.5072 433.631 91.5089 433.002 93.5499C432.629 94.7862 432.236 96.0422 431.844 97.2589C431.588 98.0831 431.313 98.927 430.999 99.7512C430.803 100.399 430.547 101.105 430.312 101.773L430.076 102.44C429.84 103.087 429.605 103.715 429.369 104.363C429.153 104.952 428.937 105.56 428.701 106.149C428.505 106.718 428.269 107.287 428.033 107.876C427.523 109.191 427.032 110.407 426.501 111.644C426.187 112.389 425.893 113.096 425.578 113.763C425.284 114.43 425.048 114.98 424.812 115.51C424.557 116.118 424.302 116.726 423.988 117.335C423.398 118.669 422.731 120.004 422.082 121.338C422.043 121.456 421.965 121.613 421.866 121.789V121.829L421.415 122.692C420.472 124.596 419.588 126.283 418.744 127.795C417.84 129.463 416.799 131.268 415.582 133.289C415.326 133.702 415.11 134.035 414.894 134.388L414.992 134.369Z" fill="black"/>
<path d="M431.215 3.61083L426.108 3.13985L426.167 1.1774C428.053 1.11852 429.801 1.27552 431.529 1.66801L431.215 3.61083Z" fill="black"/>
<path d="M375.111 140.415L369.429 159.364L371.311 159.928L376.993 140.978L375.111 140.415Z" fill="black"/>
<path d="M446.731 89.7428L433.749 88.1924L416.466 87.0935L416.584 85.1506L433.926 86.23L446.967 87.7999L446.731 89.7428Z" fill="black"/>
<path d="M396.766 143.612L395.431 128.521L397.355 128.167L397.375 128.305L398.711 143.435L396.766 143.612Z" fill="black"/>
<path d="M363.728 124.262L348.833 144.643L350.419 145.8L365.314 125.419L363.728 124.262Z" fill="black"/>
<path d="M352.659 80.1774L352.421 82.1254L367.043 83.9089L367.281 81.9609L352.659 80.1774Z" fill="black"/>
<path d="M388.013 15.2548L386.064 15.5032L388.947 38.0846L390.896 37.8362L388.013 15.2548Z" fill="black"/>
<path d="M413.326 0.709057L405.479 28.2876L407.369 28.8242L415.215 1.2457L413.326 0.709057Z" fill="black"/>
<path d="M418.823 37.4239L417.192 36.3249L432.669 13.4821L445.808 13.7568L445.769 15.7192L433.71 15.4641L418.823 37.4239Z" fill="black"/>
<path d="M324.708 419.297L328.832 426.204L338.24 433.308L355.287 441.492L374.593 447.536L403.503 453.581L434.751 455.955L466.351 455.563L494.004 451.069L506.653 447.418L520.734 440.314L526.037 435.035L528.237 429.913L529.749 413.625L522.914 403.204C522.914 403.204 502.391 380.99 417.409 375.926C417.409 375.926 362.986 373.258 334.881 390.213C330.286 393.765 325.827 400.359 325.827 400.359L323.942 415.195L324.688 419.336L324.708 419.297Z" fill="#6F95BD"/>
<path d="M122.023 375.887L45.761 329.652C43.9345 328.553 42.8543 326.532 42.9525 324.412C43.0311 322.41 42.0884 320.527 40.4582 319.388L14.6317 301.295C10.8412 298.645 5.63657 299.43 2.80841 303.08C-0.196504 306.946 0.608735 312.52 4.55637 315.385L126.796 404.186C126.796 404.186 127.503 396.159 129.584 392.136C129.584 392.136 122.534 378.674 122.003 375.907L122.023 375.887Z" fill="#C3E1FF"/>
<path d="M127.62 405.991L3.96712 316.17C1.84601 314.62 0.451569 312.343 0.0980499 309.733C-0.25547 307.123 0.412289 304.552 2.02277 302.472C5.1848 298.41 10.959 297.527 15.1815 300.49L41.0081 318.584C42.9328 319.918 44.013 322.116 43.9148 324.471C43.8363 326.237 44.7397 327.905 46.252 328.828L122.887 375.279L122.966 375.711C123.378 377.85 128.504 387.956 130.449 391.665L130.684 392.117L130.449 392.568C128.485 396.375 127.758 404.186 127.758 404.264L127.601 405.991H127.62ZM9.64308 300.706C7.3452 300.706 5.0866 301.726 3.57432 303.689C2.29773 305.337 1.74781 307.398 2.04241 309.478C2.33701 311.558 3.43685 313.364 5.12588 314.6L126.01 402.4C126.324 399.888 127.07 395.198 128.504 392.136C127.208 389.664 122.102 379.753 121.178 376.515L45.27 330.496C43.1489 329.201 41.8723 326.865 41.9901 324.373C42.0687 322.705 41.2831 321.135 39.9083 320.173L14.0817 302.08C12.7462 301.138 11.1946 300.686 9.68236 300.686L9.64308 300.706Z" fill="black"/>
<path d="M709.69 222.895C701.245 240.871 685.121 254.058 662.908 259.514C657.527 260.849 651.811 261.732 645.743 262.104C586.116 265.833 516.708 220.559 490.724 160.98C464.721 101.4 491.981 50.0816 551.608 46.3334C554.554 46.1568 557.52 46.0783 560.505 46.1371H560.584C591.693 46.6866 624.689 59.7565 652.342 80.5977C652.342 80.5977 652.381 80.6173 652.401 80.6566C652.695 80.8724 652.99 81.1079 653.265 81.3238C653.559 81.5593 653.834 81.8144 654.129 82.0499C637.906 70.4519 620.564 62.5628 603.693 58.4417C570.148 50.2583 538.449 56.9502 521.088 79.1847C493.945 113.9 512.014 173.323 561.467 211.925C606.05 246.719 660.905 252.724 691.15 228.115C694.469 225.446 697.474 222.385 700.145 218.97C710.024 206.312 713.913 190.377 712.44 173.363C711.635 163.707 709.081 153.699 704.957 143.73C705.527 144.966 706.096 146.202 706.646 147.458C719.059 175.914 719.314 202.485 709.69 222.895Z" fill="#6F95BD"/>
<path d="M638.849 263.302C580.577 263.302 514.92 218.911 489.82 161.372C476.544 130.954 476.662 100.87 490.154 78.8119C502.292 58.9519 524.092 47.0791 551.549 45.3522C554.711 45.1559 557.657 45.0971 560.524 45.1559C590.672 45.6858 624.217 58.2455 652.675 79.6165H652.97L653.166 80.009C653.363 80.166 653.559 80.3034 653.736 80.4604C654.03 80.6959 654.187 80.8332 654.325 80.951L654.737 81.2846L653.559 82.8546C637.965 71.7079 620.642 63.6029 603.457 59.4033C568.911 50.9844 538.41 58.5987 521.853 79.7931C508.93 96.3169 505.965 119.062 513.487 143.808C521.048 168.692 538.312 192.595 562.056 211.14C605.932 245.384 659.962 252.194 690.521 227.35C693.762 224.739 696.747 221.717 699.359 218.362C708.767 206.312 712.95 190.77 711.458 173.441C710.672 163.943 708.178 154.072 704.053 144.103L705.86 143.318C706.469 144.632 707.019 145.849 707.549 147.066C719.628 174.756 720.708 201.838 710.574 223.307C701.834 241.891 685.003 255.099 663.143 260.456C657.624 261.83 651.791 262.713 645.801 263.066C643.503 263.203 641.186 263.282 638.849 263.282V263.302ZM558.58 47.0988C556.341 47.0988 554.083 47.1773 551.667 47.3146C524.878 49.0023 503.627 60.5611 491.824 79.8324C478.685 101.341 478.606 130.758 491.627 160.587C516.433 217.439 581.284 261.339 638.829 261.339C641.127 261.339 643.405 261.261 645.683 261.123C651.556 260.77 657.271 259.907 662.672 258.552C683.942 253.332 700.322 240.518 708.806 222.463C715.955 207.293 717.369 189.2 713.088 170.066C713.225 171.145 713.323 172.205 713.422 173.265C714.973 191.084 710.652 207.097 700.931 219.559C698.22 223.032 695.137 226.172 691.778 228.861C660.531 254.294 605.48 247.484 560.878 212.67C536.799 193.87 519.32 169.614 511.621 144.358C503.902 118.983 506.986 95.6105 520.321 78.5568C537.369 56.7344 568.616 48.8453 603.929 57.4605C610.783 59.1286 617.677 61.4246 624.453 64.2702C603.379 53.5356 581.127 47.452 560.564 47.0791C559.896 47.0791 559.228 47.0791 558.56 47.0791L558.58 47.0988Z" fill="black"/>
<path d="M699.726 219.586C727.083 185.047 709.373 125.504 660.17 86.5931C610.967 47.6817 548.902 44.1367 521.545 78.675C494.188 113.213 511.898 172.756 561.101 211.667C610.304 250.579 672.369 254.124 699.726 219.586Z" fill="#C3E1FF"/>
<path d="M644.485 244.285C642.521 244.285 640.538 244.227 638.534 244.109C612.158 242.598 584.426 231.353 560.485 212.396C510.933 173.225 493.12 112.939 520.753 78.0269C534.187 61.0714 556.164 52.5347 582.698 54.0654C609.074 55.5765 636.806 66.8213 660.747 85.7786C710.299 124.949 728.112 185.235 700.479 220.147C688.066 235.827 668.328 244.285 644.485 244.285ZM576.747 55.8709C553.513 55.8709 534.325 64.0739 522.285 79.2632C495.32 113.331 512.996 172.362 561.683 210.865C585.33 229.547 612.649 240.675 638.633 242.146C664.498 243.638 685.906 235.376 698.927 218.931C725.893 184.863 708.217 125.832 659.529 87.3289C635.883 68.6464 608.564 57.5193 582.58 56.0475C580.616 55.9297 578.652 55.8709 576.747 55.8709Z" fill="black"/>
<path d="M496.062 413.837C496.909 402.151 467.004 390.466 429.269 387.737C391.534 385.007 360.258 392.268 359.411 403.954C358.565 415.639 388.469 427.325 426.204 430.054C463.939 432.783 495.216 425.523 496.062 413.837Z" fill="black"/>
<path d="M422.259 421.259C408.079 421.259 381.978 416.981 375.398 407.228C374.024 405.187 373.808 402.93 374.79 400.712C377.775 393.903 390.992 388.545 402.482 386.779L407.706 387.446C395.137 389.369 378.953 396.14 376.596 401.497C375.889 403.126 376.027 404.637 377.028 406.129C383.51 415.745 413.52 420.376 426.698 419.12C439.464 417.903 441.467 414.704 441.781 413.762C442.096 412.84 441.526 412.251 441.349 412.094C439.523 410.426 434.554 408.542 427.621 408.052C421.513 407.62 418.135 409.072 417.801 409.72C417.958 409.955 419.47 410.701 422.004 410.878C424.596 411.074 426.286 410.544 426.502 410.21L428.446 410.407C428.387 411.133 427.916 412.114 425.873 412.605C424.754 412.879 423.34 412.958 421.867 412.86C420.394 412.762 419.038 412.467 417.997 412.055C416.132 411.29 415.798 410.269 415.857 409.543C415.935 408.405 417.212 407.404 419.47 406.757C421.042 406.305 423.732 405.834 427.759 406.129C434.259 406.58 440.112 408.366 442.665 410.662C443.726 411.623 444.099 413.056 443.647 414.41C442.842 416.804 439.287 419.925 426.875 421.102C425.559 421.22 423.988 421.298 422.259 421.298V421.259Z" fill="#6F95BD"/>
<path d="M430.646 455.563L428.682 455.543L428.859 444.259L428.112 430.62L430.076 430.502L430.823 444.22L430.646 455.563Z" fill="black"/>
<path d="M496.142 412.175L496.027 414.134L529.515 416.087L529.63 414.128L496.142 412.175Z" fill="black"/>
<path d="M441.683 431.935C436.675 431.935 431.49 431.758 426.187 431.366C391.798 428.893 363.516 418.983 358.96 407.816C358.449 406.58 358.233 405.324 358.312 404.088C358.469 401.654 359.765 399.378 362.161 397.298C371.902 388.839 398.829 384.62 429.192 386.838C468.099 389.664 497.913 401.635 497.068 414.116L496.989 414.763C496.793 416.059 496.302 417.256 495.497 418.394C489.782 426.754 468.237 431.954 441.664 431.954L441.683 431.935ZM413.814 388.231C390.698 388.231 371.058 392.176 363.477 398.789C361.493 400.516 360.433 402.341 360.295 404.225C360.236 405.187 360.393 406.109 360.806 407.09C365.028 417.432 393.212 427.029 426.344 429.423C458.534 431.758 487.602 426.538 493.906 417.275C494.534 416.373 494.927 415.45 495.065 414.508L495.124 413.978C495.811 402.969 465.585 391.449 429.055 388.82C423.87 388.447 418.744 388.27 413.795 388.27L413.814 388.231Z" fill="black"/>
<path d="M446.24 445.731C440.859 445.731 435.36 445.574 429.782 445.279C428.211 445.201 426.62 445.103 425.029 444.985C393.487 442.767 364.479 436.036 345.428 426.518C334.528 421.063 327.516 414.94 325.179 408.758C324.453 406.855 324.158 405.01 324.296 403.126C324.845 395.178 332.917 388.29 347.628 383.168L347.805 383.109C367.13 376.456 395.706 373.67 426.227 375.455C427.425 375.514 428.643 375.593 429.86 375.671C434.299 375.985 438.698 376.378 442.941 376.849C468.531 379.714 491.55 385.582 507.811 393.333L508.027 393.431C521.736 400.006 529.514 407.443 530.535 414.96C530.672 415.823 530.692 416.686 530.633 417.511L530.515 418.512C530.24 420.415 529.514 422.26 528.355 423.987C526.234 427.244 522.659 430.247 517.73 432.936L517.494 433.053C502.509 441.139 476.112 445.731 446.22 445.731H446.24ZM348.119 385.071C334.489 389.84 326.731 396.297 326.24 403.244C326.122 404.853 326.377 406.423 327.006 408.052C329.186 413.762 335.844 419.532 346.312 424.752C365.127 434.172 393.88 440.825 425.166 443.023C426.757 443.14 428.309 443.238 429.88 443.317C466.175 445.299 499.484 440.668 516.807 431.209L517.042 431.091C521.559 428.599 524.82 425.851 526.744 422.907C527.746 421.416 528.374 419.866 528.591 418.256L528.708 417.354C528.748 416.686 528.708 415.96 528.61 415.234C527.707 408.523 520.165 401.438 507.399 395.276L507.183 395.178C491.098 387.466 468.217 381.637 442.744 378.792C438.522 378.321 434.142 377.928 429.743 377.614C428.544 377.536 427.327 377.457 426.129 377.398C395.765 375.632 367.386 378.38 348.296 384.993L348.119 385.052V385.071Z" fill="black"/>
<path d="M444.963 456.936C439.955 456.936 434.849 456.799 429.624 456.544C427.68 456.446 425.716 456.328 423.752 456.191C403.582 454.778 384.178 451.481 367.66 446.673C365.736 446.104 363.87 445.535 362.063 444.946C360.924 444.573 359.804 444.2 358.705 443.788C357.428 443.337 356.132 442.885 354.914 442.414C350.024 440.55 345.565 438.529 341.657 436.448C328.911 429.58 322.449 421.926 322.979 414.351C322.999 414.077 323.038 413.802 323.078 413.527L324.295 403.106L326.259 403.283C326.141 404.892 326.397 406.462 327.025 408.091C329.205 413.802 335.863 419.571 346.331 424.791C365.146 434.211 393.899 440.864 425.186 443.062C426.777 443.18 428.328 443.278 429.899 443.356C466.194 445.338 499.503 440.707 516.826 431.248L517.062 431.13C521.579 428.638 524.839 425.89 526.764 422.947C527.765 421.455 528.394 419.905 528.61 418.296L530.554 418.551L529.376 428.814C528.217 445.397 492.276 456.976 444.983 456.976L444.963 456.936ZM325.513 409.583L325.042 413.645C325.002 413.998 324.963 414.214 324.943 414.469C324.472 421.239 330.58 428.245 342.6 434.721C346.41 436.782 350.809 438.744 355.621 440.589C356.839 441.06 358.096 441.512 359.372 441.963C360.452 442.355 361.572 442.728 362.672 443.101C364.459 443.69 366.325 444.259 368.23 444.828C384.61 449.597 403.857 452.874 423.89 454.267C425.854 454.405 427.778 454.523 429.723 454.621C483.301 457.348 526.194 445.927 527.412 428.618L527.844 424.772C525.684 427.735 522.286 430.483 517.749 432.955L517.513 433.073C499.837 442.61 466.253 447.301 429.782 445.299C428.21 445.221 426.62 445.122 425.029 445.005C393.487 442.787 364.479 436.056 345.428 426.538C335.019 421.338 328.164 415.489 325.513 409.602V409.583Z" fill="black"/>
<path d="M325.061 413.527L323.097 413.37L323.156 413.017L325.1 413.331L325.061 413.527Z" fill="black"/>
<path d="M528.729 417.37L528.622 418.306L530.573 418.528L530.68 417.593L528.729 417.37Z" fill="black"/>
<path d="M427.155 376.356L425.193 376.462L425.801 387.71L427.762 387.604L427.155 376.356Z" fill="black"/>
<path d="M518.142 442.179L516.178 442.159L516.296 432.838L486.502 425.105L486.993 423.202L518.279 431.307L518.142 442.179Z" fill="black"/>
<path d="M345.605 436.566L343.66 436.331L344.976 424.85L373.454 417.884L373.906 419.787L346.763 426.42L345.605 436.566Z" fill="black"/>
<path d="M325.335 402.231L325.221 404.19L359.278 406.17L359.392 404.211L325.335 402.231Z" fill="black"/>
<path d="M507.38 393.322L483.529 399.534L484.025 401.433L507.876 395.221L507.38 393.322Z" fill="black"/>
<path d="M644.328 244.207C617.618 244.207 587.392 233.413 560.858 212.71C536.78 193.909 519.3 169.654 511.601 144.397C503.883 119.022 506.966 95.6497 520.302 78.596C537.349 56.7736 568.596 48.8845 603.909 57.4997C621.271 61.7386 638.77 69.922 654.541 81.1472L655.13 81.3827V81.5593L656.093 82.2461C657.507 83.2862 658.94 84.346 660.354 85.4646C681.035 101.616 696.747 121.593 705.821 143.259L705.88 143.376C710.083 153.542 712.616 163.609 713.441 173.304C714.993 191.123 710.672 207.136 700.95 219.598C698.24 223.071 695.156 226.211 691.798 228.9C679.13 239.203 662.554 244.207 644.368 244.207H644.328ZM576.747 56.0475C553.572 56.0475 533.971 64.2898 521.873 79.8127C508.95 96.3365 505.984 119.081 513.506 143.828C521.068 168.712 538.331 192.614 562.076 211.159C605.952 245.404 659.981 252.214 690.541 227.369C693.782 224.759 696.767 221.737 699.379 218.381C708.787 206.332 712.97 190.789 711.477 173.461C710.692 163.962 708.197 154.091 704.073 144.122L703.936 143.887V143.808C694.999 122.555 679.523 102.911 659.176 87.0149C657.762 85.9159 656.368 84.8758 654.953 83.8357L654.286 83.3451L653.598 82.8545C638.004 71.7078 620.682 63.6029 603.497 59.4033C594.246 57.1464 585.271 56.0475 576.786 56.0475H576.747Z" fill="black"/>
<path d="M607.071 217.557C603.713 217.557 600.256 217.302 596.741 216.752C561.467 211.414 522.423 173.009 511.091 142.238L512.937 141.551C523.857 171.184 562.98 209.648 597.035 214.81C621.664 218.538 636.61 208.667 644.839 199.738C656.8 186.727 659.746 170.321 657.428 160.567C650.495 131.562 627.006 122.516 619.248 122.496H619.189C609.899 122.496 602.593 128.01 600.59 136.567C598.528 145.358 605.422 154.327 611.078 156.643C613.572 157.663 615.772 157.722 617.5 156.839C618.836 156.152 619.778 154.916 620.132 153.346C620.918 149.99 618.993 145.319 613.906 143.239L614.652 141.414C620.76 143.906 623.019 149.656 622.057 153.797C621.566 155.936 620.269 157.624 618.404 158.585C616.852 159.39 614.181 160.018 610.351 158.468C603.909 155.838 596.348 146.065 598.685 136.115C600.904 126.637 608.957 120.514 619.189 120.514H619.248C627.438 120.514 652.125 129.953 659.333 160.096C662.319 172.597 656.957 189.435 646.292 201.033C636.355 211.827 622.685 217.518 607.091 217.518L607.071 217.557Z" fill="black"/>
<path d="M654.895 83.7966C654.149 83.2078 653.422 82.6584 652.676 82.1089L653.835 80.5193C654.581 81.0688 655.347 81.6575 656.093 82.2462L654.875 83.7769L654.895 83.7966Z" fill="black"/>
<path d="M432.217 389.036L432.139 387.073H432.158L432.217 389.036Z" fill="black"/>
<path d="M374.711 393.078H374.691V391.116L374.711 393.078Z" fill="black"/>
<path d="M196.125 248.132V247.131L195.457 246.444L196.125 247.111L196.105 246.169H196.125V247.131L196.832 247.838L196.557 248.112L196.125 248.132Z" fill="black"/>
<path d="M385.493 348.648L386.357 348.197L387.3 347.883L385.493 348.648Z" fill="black"/>
<path d="M377.284 420.67L375.929 419.257L377.559 420.297L376.675 419.846L377.559 420.317L377.284 420.67Z" fill="black"/>
<path d="M377.598 420.219L376.891 419.983H375.653L375.752 419.532L376.871 419.924L377.617 419.983H377.048L377.617 420.16L377.598 420.219Z" fill="black"/>
<path d="M221.519 247.366L209.814 254.294L209.735 254.333H209.696C160.969 281.552 147.064 310.498 158.887 357.107C141.859 310.165 157.611 266.716 195.476 247.465H195.535C196.183 247.308 196.792 247.17 197.44 247.033H197.46C205.395 246.385 213.447 246.523 221.519 247.366Z" fill="black"/>
<path d="M157.964 357.44C141.113 311.009 155.981 266.481 194.966 246.621L195.339 246.483L197.441 246.052C205.218 245.424 213.369 245.522 221.617 246.385L224.563 246.699L210.108 255.236C162.167 282.004 148.066 310.498 159.83 356.871L157.945 357.44H157.964ZM195.732 248.446C164.131 264.616 148.832 297.468 154.095 334.224C151.935 299.882 168.766 276.077 209.205 253.489L218.396 248.053C211.287 247.465 204.275 247.445 197.519 247.995L195.712 248.426L195.732 248.446Z" fill="black"/>
<path d="M349.611 455.268C347.706 457.309 345.703 459.252 343.562 461.097C330.678 472.302 313.631 479.917 293.166 482.546C255.182 487.413 213.742 474.068 180.138 449.322C177.388 447.301 174.697 445.22 172.066 443.042C158.573 431.915 146.612 418.904 137.028 404.5C134.357 400.477 131.863 396.336 129.584 392.117C127.483 388.251 125.558 384.306 123.83 380.283C95.784 315.424 126.128 256.021 191.607 247.622C193.1 247.425 196.989 247.131 196.989 247.131C196.969 247.131 195.496 247.465 195.477 247.465C140.799 259.75 117.545 312.716 143.568 370.922C144.472 372.943 145.414 374.945 146.436 376.908C146.514 377.124 146.612 377.32 146.73 377.516C158.887 401.399 177.722 422.358 199.915 438.352C200.661 438.921 201.427 439.451 202.193 439.981C234.049 462.294 272.406 474.422 307.424 470.438C314.77 469.594 321.663 468.083 328.027 465.964C328.046 465.964 328.086 465.944 328.105 465.944C336.099 463.295 343.287 459.684 349.611 455.268Z" fill="#6F95BD"/>
<path d="M277.297 484.528C244.635 484.528 209.833 472.4 179.568 450.107C176.642 447.968 173.991 445.888 171.457 443.788C157.571 432.347 145.729 419.296 136.223 405.029C133.513 400.948 130.999 396.768 128.74 392.568C126.599 388.643 124.655 384.62 122.946 380.656C108.805 347.942 109.021 314.561 123.535 289.068C136.91 265.598 161.048 250.526 191.49 246.621C192.943 246.424 196.557 246.15 196.891 246.13C196.93 246.13 196.95 246.13 196.989 246.13L197.067 248.093C197.067 248.093 197.028 248.093 196.969 248.093L196.439 248.23C196.027 248.328 195.811 248.367 195.693 248.387C171.241 253.882 152.19 268.011 142.076 288.185C130.35 311.578 131.195 340.799 144.472 370.471C145.493 372.767 146.396 374.651 147.319 376.397C147.418 376.672 147.496 376.81 147.575 376.947L147.712 377.241C159.496 400.261 177.742 421.102 200.485 437.508C201.231 438.077 201.997 438.607 202.743 439.117C235.68 462.176 273.781 473.225 307.307 469.398C314.495 468.574 321.369 467.082 327.713 464.963L327.909 464.904C335.627 462.333 342.737 458.801 349.042 454.385L356.662 449.067L350.318 455.857C348.315 457.996 346.312 459.939 344.191 461.764C330.835 473.382 313.218 480.878 293.284 483.449C288.02 484.116 282.678 484.45 277.277 484.45L277.297 484.528ZM183.418 249.977C157.532 255.295 137.048 269.326 125.244 290.069C111.025 315.012 110.848 347.765 124.753 379.91C126.442 383.835 128.367 387.78 130.468 391.665C132.707 395.806 135.202 399.947 137.873 403.97C147.26 418.08 158.986 430.973 172.714 442.296C175.228 444.377 177.84 446.418 180.747 448.537C215.608 474.206 256.537 486.255 293.068 481.585C312.276 479.112 329.264 471.988 342.246 460.979C337.906 463.314 333.29 465.296 328.439 466.905L328.243 466.964C321.801 469.103 314.848 470.614 307.562 471.439C273.565 475.305 234.973 464.138 201.663 440.805C200.897 440.275 200.112 439.726 199.346 439.156C176.288 422.535 157.788 401.379 145.886 378.007L145.807 377.85C145.709 377.653 145.611 377.477 145.532 377.261C144.648 375.593 143.725 373.67 142.684 371.334C129.172 341.093 128.328 311.283 140.328 287.361C149.008 270.052 164.072 257.061 183.418 249.996V249.977Z" fill="black"/>
<path d="M359.039 442.865C356.328 447.301 353.166 451.441 349.612 455.268C343.287 459.684 336.099 463.295 328.106 465.944C328.086 465.944 328.047 465.964 328.027 465.964C321.664 468.083 314.77 469.594 307.425 470.438C272.407 474.422 234.05 462.294 202.194 439.981C201.428 439.451 200.662 438.921 199.916 438.352C177.722 422.358 158.888 401.399 146.731 377.536C146.613 377.32 146.515 377.124 146.436 376.908C145.415 374.945 144.472 372.943 143.569 370.922C117.546 312.716 140.799 259.75 195.477 247.465C157.611 266.716 141.86 310.165 158.888 357.107C159.575 359.01 160.321 360.914 161.107 362.817C162.109 365.231 163.189 367.625 164.348 369.98C165.251 371.845 166.194 373.689 167.195 375.514C176.878 393.294 190.449 409.072 206.338 421.907C208.714 423.83 211.13 425.674 213.585 427.421C217.218 430.051 220.97 432.543 224.799 434.859C234.993 441.04 245.795 446.104 256.872 449.813H256.891C276.453 456.387 296.859 458.801 316.341 456.014C331.386 453.855 344.485 448.812 355.268 441.492C356.486 441.963 357.762 442.414 359.039 442.865Z" fill="#6F95BD"/>
<path d="M294.05 472.165C263.588 472.165 230.613 461.077 201.644 440.785C200.878 440.255 200.092 439.706 199.326 439.137C176.269 422.515 157.768 401.36 145.866 377.987L145.788 377.83C145.69 377.634 145.591 377.457 145.513 377.241C144.629 375.573 143.706 373.65 142.665 371.315C129.153 341.073 128.308 311.264 140.308 287.342C150.698 266.638 170.22 252.135 195.241 246.503L202.881 244.796L195.909 248.348C157.807 267.717 143.293 311.303 159.791 356.773L159.85 356.95C160.518 358.775 161.244 360.6 161.991 362.444C162.992 364.858 164.073 367.252 165.212 369.548C166.174 371.511 167.097 373.316 168.04 375.043C177.369 392.195 190.822 408.13 206.947 421.141C209.382 423.104 211.798 424.948 214.155 426.616C217.788 429.246 221.539 431.738 225.31 434.015C235.503 440.197 246.168 445.181 257.029 448.831L257.205 448.89C277.14 455.582 297.526 457.721 316.204 455.052C330.816 452.952 343.759 448.125 354.718 440.687L355.15 440.393L355.621 440.569C356.839 441.04 358.096 441.492 359.372 441.924L360.512 442.336L359.883 443.376C357.173 447.791 353.971 452.03 350.338 455.935L350.181 456.073C343.68 460.606 336.374 464.237 328.42 466.866L328.223 466.925C321.782 469.064 314.829 470.575 307.543 471.399C303.124 471.91 298.606 472.145 294.05 472.145V472.165ZM147.732 377.3C159.516 400.32 177.762 421.161 200.505 437.567C201.251 438.136 202.017 438.666 202.763 439.176C235.7 462.235 273.801 473.283 307.327 469.457C314.515 468.632 321.389 467.141 327.732 465.022L327.929 464.963C335.608 462.411 342.698 458.879 348.983 454.503C352.204 451.01 355.091 447.281 357.585 443.356C356.859 443.101 356.132 442.826 355.425 442.571C344.309 450.009 331.228 454.856 316.518 456.975C297.605 459.684 276.944 457.545 256.773 450.774L256.596 450.715C245.539 447.026 234.678 441.963 224.328 435.663C220.518 433.367 216.708 430.836 213.055 428.186C210.678 426.499 208.223 424.634 205.768 422.633C189.467 409.465 175.837 393.314 166.39 375.946C165.428 374.18 164.485 372.355 163.523 370.373C162.384 368.057 161.284 365.624 160.262 363.151C159.477 361.228 158.711 359.324 158.023 357.421L157.965 357.244C142.194 313.599 154.449 271.681 188.387 250.349C167.47 256.845 151.228 270.092 142.135 288.185C130.41 311.578 131.254 340.799 144.531 370.471C145.552 372.767 146.456 374.651 147.379 376.397C147.496 376.672 147.555 376.81 147.634 376.947L147.771 377.241L147.732 377.3Z" fill="black"/>
<path d="M180.138 449.322C159.772 452.56 137.146 439.019 129.389 418.825C127.464 413.802 126.639 408.837 126.776 404.146C126.914 399.849 127.876 395.767 129.585 392.116C131.863 396.336 134.357 400.476 137.028 404.499C137.402 407.541 138.187 410.642 139.385 413.762C144.865 428.049 157.768 438.999 172.066 443.042C174.698 445.22 177.389 447.3 180.138 449.322Z" fill="#6F95BD"/>
<path d="M174.128 450.774C155.156 450.774 135.575 437.606 128.485 419.179C126.56 414.155 125.657 409.092 125.814 404.127C125.951 399.692 126.933 395.512 128.721 391.704L129.545 389.938L130.469 391.665C132.707 395.806 135.202 399.947 137.873 403.97L138.01 404.166V404.401C138.403 407.365 139.169 410.407 140.328 413.429C145.532 427.009 157.807 437.999 172.361 442.12L172.714 442.316C175.228 444.396 177.84 446.437 180.747 448.557L182.632 449.95L180.315 450.323C178.272 450.656 176.21 450.813 174.128 450.813V450.774ZM129.703 394.354C128.524 397.415 127.876 400.712 127.758 404.166C127.621 408.876 128.485 413.684 130.311 418.472C137.559 437.312 158.377 450.421 177.604 448.655C175.503 447.065 173.519 445.515 171.614 443.925C156.57 439.608 143.883 428.186 138.482 414.116C137.303 411.015 136.498 407.914 136.105 404.853C133.827 401.419 131.686 397.906 129.722 394.373L129.703 394.354Z" fill="black"/>
<path d="M195.005 444.141H194.986V442.179L195.005 444.141Z" fill="black"/>
<path d="M172.066 443.042C157.768 439 144.865 428.049 139.385 413.763C138.187 410.642 137.401 407.542 137.028 404.5C146.613 418.904 158.573 431.915 172.066 443.042Z" fill="black"/>
<path d="M195.005 444.141H194.986V442.179L195.005 444.141Z" fill="black"/>
<path d="M385.493 348.648L386.357 348.197L387.3 347.883L385.493 348.648Z" fill="black"/>
<path d="M709.71 222.895C699.536 251.645 673.69 271.74 636.669 274.919C629.52 275.528 622.253 275.488 614.947 274.841C611.922 274.566 608.878 274.193 605.834 273.703H605.775C550.371 265.009 494.652 222.718 472.302 168.653C452.191 119.945 464.917 75.6719 500.309 54.7522C500.309 54.7326 500.367 54.7326 500.387 54.713C511.621 48.0799 525.133 43.8018 540.59 42.4673C578.456 39.2293 619.562 54.4186 652.361 80.5977C624.708 59.7565 591.713 46.6866 560.603 46.1371H560.525C557.539 46.0782 554.574 46.1567 551.628 46.3333C492.001 50.0816 464.741 101.4 490.744 160.98C516.728 220.559 586.135 265.833 645.762 262.104C651.831 261.732 657.546 260.848 662.927 259.514C685.14 254.058 701.265 240.871 709.71 222.895Z" fill="#6F95BD"/>
<path d="M626.377 276.332C622.567 276.332 618.718 276.156 614.848 275.822C611.706 275.528 608.603 275.155 605.657 274.684C548.583 265.735 493.395 222.286 471.378 169.045C451.581 121.083 462.698 75.9271 499.68 53.9869L499.915 53.8496C511.581 46.981 525.231 42.8206 540.492 41.5058C577.474 38.3462 618.462 52.3189 652.97 79.852L651.772 81.4023C623.569 60.149 590.338 47.6679 560.583 47.138C557.677 47.0791 554.789 47.138 551.686 47.3342C524.897 49.022 503.647 60.5808 491.843 79.852C478.704 101.36 478.626 130.778 491.647 160.607C517.434 219.735 586.528 264.813 645.703 261.143C651.575 260.79 657.29 259.926 662.691 258.572C683.962 253.352 700.341 240.537 708.826 222.483L710.633 223.228C699.89 253.587 672.963 272.8 636.747 275.901C633.349 276.195 629.873 276.332 626.377 276.332ZM500.76 55.6354C464.603 77.0457 453.801 121.26 473.205 168.28C494.966 220.932 549.546 263.89 605.932 272.741C608.898 273.212 611.942 273.585 615.045 273.879C622.351 274.527 629.598 274.546 636.59 273.958C665.814 271.446 688.852 258.258 701.893 237.064C692.485 248.426 679.169 256.551 663.163 260.476C657.644 261.849 651.811 262.732 645.821 263.086C585.899 266.834 515.942 221.207 489.84 161.372C476.563 130.954 476.681 100.87 490.174 78.8119C502.311 58.9519 524.112 47.0791 551.568 45.3522C554.731 45.1559 557.677 45.0971 560.544 45.1559C573.33 45.3914 586.704 47.766 600.06 52.0637C580.164 44.8419 559.876 41.8001 540.668 43.4486C525.742 44.7438 512.387 48.7865 500.996 55.498L500.74 55.6354H500.76Z" fill="black"/>
<path d="M376.086 156.289C366.07 183.273 370.057 208.039 379.661 230.862C397.042 272.133 435.713 306.063 477.546 320.841C493.18 326.355 509.245 329.22 524.8 328.788H524.82L614.947 274.841C611.923 274.566 608.879 274.193 605.834 273.703H605.776C547.445 271.799 486.247 228.821 463.661 171.459C454.783 148.891 453.075 127.186 457.474 108.307L443.549 116.511L434.515 121.848H434.495L434.24 122.005L414.188 133.819L397.749 143.514L370.39 159.645L361.945 164.63L361.533 164.865L253.906 228.292" fill="#C3E1FF"/>
<path d="M521.657 329.829C507.301 329.829 492.355 327.12 477.212 321.783C433.494 306.338 395.765 271.642 378.757 231.255C367.876 205.409 366.403 181.585 374.259 158.507L254.397 229.135L253.395 227.448L458.967 106.306L458.436 108.543C453.939 127.834 456.06 149.46 464.584 171.106C486.639 227.134 547.366 270.818 605.815 272.721C608.898 273.192 611.942 273.585 615.045 273.86L618.05 274.134L525.114 329.77H524.839C523.798 329.789 522.738 329.809 521.697 329.809L521.657 329.829ZM376.872 156.976C368.328 180.251 369.526 204.31 380.544 230.509C397.356 270.406 434.633 304.67 477.86 319.938C493.808 325.57 509.5 328.219 524.525 327.827L611.883 275.528C609.762 275.292 607.68 274.998 605.658 274.684C546.522 272.761 485.048 228.547 462.718 171.832C454.371 150.637 452.073 129.423 456.001 110.309L376.852 156.976H376.872Z" fill="black"/>
<path d="M464.498 103.034L456.089 107.987L457.086 109.677L465.495 104.724L464.498 103.034Z" fill="black"/>
<path d="M342.128 435.565C329.087 446.045 307.857 452.874 283.896 452.874C274.351 452.874 265.218 451.795 256.891 449.813H256.871C245.794 446.104 234.992 441.04 224.799 434.859C220.969 432.543 217.218 430.051 213.585 427.421C211.13 425.675 208.714 423.83 206.338 421.907C190.449 409.072 176.878 393.294 167.195 375.514C166.193 373.689 165.251 371.845 164.347 369.98C163.189 367.625 162.108 365.231 161.107 362.817C160.321 360.914 159.575 359.01 158.887 357.126C147.064 310.498 160.969 281.552 209.696 254.353H209.735L209.814 254.294L221.519 247.367H221.539L225.722 244.913L238.901 237.142L260.897 224.17C258.658 228.468 256.852 233.041 255.516 237.849C254.514 241.381 253.788 245.031 253.297 248.779C253.061 248.779 252.825 248.779 252.59 248.74C252.806 248.799 253.041 248.858 253.277 248.917C253.061 250.605 252.904 252.332 252.806 254.078C251.883 268.149 254.436 283.534 260.878 299.43C276.295 337.423 310.135 368.744 347.942 384.09C334.213 388.859 325.788 395.453 325.258 403.185L324.06 413.527C324.02 413.821 323.981 414.096 323.961 414.39C323.451 421.809 330.227 429.148 342.128 435.565Z" fill="#C3E1FF"/>
<path d="M283.896 453.855C274.488 453.855 265.356 452.815 256.773 450.794L256.557 450.735C245.5 447.045 234.639 441.982 224.289 435.683C220.478 433.387 216.668 430.855 213.015 428.206C210.639 426.518 208.184 424.654 205.729 422.652C189.428 409.484 175.798 393.333 166.351 375.966C165.388 374.199 164.446 372.374 163.483 370.392C162.344 368.077 161.244 365.643 160.223 363.17C159.437 361.247 158.672 359.344 157.984 357.44L157.925 357.205C145.945 309.851 160.341 280.767 209.244 253.47L263.372 221.56L261.781 224.602C259.562 228.861 257.775 233.394 256.479 238.084C255.516 241.46 254.79 245.11 254.279 248.878L254.22 249.29C254.024 250.84 253.886 252.449 253.788 254.098C252.845 268.482 255.536 283.593 261.781 299.018C276.472 335.206 309.624 367.429 348.295 383.129L350.711 384.11L348.256 384.973C334.528 389.742 326.711 396.218 326.24 403.204L325.042 413.586C325.002 413.939 324.963 414.155 324.944 414.41C324.472 421.18 330.58 428.186 342.6 434.662L343.896 435.369L342.737 436.291C329.088 447.261 307.091 453.816 283.896 453.816V453.855ZM257.107 448.851C265.572 450.872 274.587 451.893 283.876 451.893C305.991 451.893 326.947 445.868 340.341 435.703C328.459 429.03 322.469 421.651 322.98 414.312C322.999 414.037 323.038 413.762 323.078 413.488L324.295 403.067C324.806 395.61 332.034 389.036 345.251 384.031C306.56 367.606 274.783 336.285 259.974 299.803C253.611 284.104 250.862 268.698 251.824 254.019C251.922 252.233 252.079 250.487 252.295 248.799H252.472L252.492 248.681H252.315C252.826 244.776 253.572 241.067 254.554 237.593C255.595 233.845 256.93 230.195 258.56 226.702L210.109 255.256C162.167 282.023 148.066 310.518 159.83 356.891C160.498 358.755 161.225 360.619 161.991 362.464C162.992 364.878 164.072 367.272 165.212 369.568C166.174 371.531 167.097 373.336 168.04 375.063C177.369 392.215 190.822 408.15 206.947 421.161C209.382 423.123 211.798 424.968 214.154 426.636C217.788 429.266 221.539 431.758 225.31 434.034C235.523 440.236 246.207 445.22 257.107 448.871V448.851Z" fill="black"/>
<path d="M355.267 441.492C344.485 448.812 331.385 453.855 316.341 456.014C296.858 458.801 276.452 456.387 256.891 449.813C265.218 451.795 274.351 452.874 283.896 452.874C307.856 452.874 329.087 446.045 342.128 435.565C345.997 437.645 350.397 439.627 355.267 441.492Z" fill="black"/>
<path d="M300.177 458.114C285.938 458.114 271.149 455.621 256.596 450.735L257.146 448.851C265.611 450.872 274.626 451.893 283.915 451.893C306.678 451.893 328.223 445.495 341.539 434.8L342.05 434.388L342.619 434.702C346.449 436.762 350.829 438.725 355.641 440.569L357.389 441.237L355.837 442.296C344.642 449.911 331.405 454.836 316.498 456.975C311.176 457.741 305.735 458.114 300.177 458.114ZM274.331 453.482C288.649 456.387 302.868 456.936 316.223 455.033C330.128 453.031 342.56 448.557 353.166 441.708C349.199 440.118 345.526 438.45 342.246 436.723C328.557 447.458 306.816 453.836 283.915 453.836C280.675 453.836 277.493 453.718 274.331 453.482Z" fill="black"/>
<path d="M709.004 490.789C709.004 500.836 674.712 509 632.408 509C619.249 509 606.876 508.215 596.054 506.822C595.092 506.704 594.149 506.567 593.226 506.449C588.866 505.821 584.801 505.095 581.049 504.31C580.362 504.153 579.694 503.996 579.026 503.839C578.123 503.486 577.259 503.093 576.454 502.681C572.663 500.699 569.776 498.03 568.008 494.635L563.354 488.277C563.354 488.277 563.354 488.257 563.314 488.257C562.175 487.119 561.233 485.883 560.486 484.489C560.526 484.489 560.565 484.45 560.604 484.411C567.282 480.152 580.519 476.64 597.409 474.579C605.717 473.558 614.909 472.891 624.63 472.656C627.184 472.597 629.776 472.558 632.408 472.558C643.858 472.558 654.719 473.146 664.46 474.226C667.406 474.54 670.235 474.913 672.945 475.325C677.207 475.953 681.174 476.679 684.807 477.483C684.925 477.523 685.023 477.542 685.122 477.562C699.832 480.878 709.004 485.588 709.004 490.789Z" fill="black"/>
<path d="M770.437 498.403C814.931 498.403 851 490.548 851 480.859C851 471.169 814.931 463.314 770.437 463.314C725.943 463.314 689.874 471.169 689.874 480.859C689.874 490.548 725.943 498.403 770.437 498.403Z" fill="black"/>
<path d="M740.388 413.841C740.388 414.155 740.388 414.489 740.388 414.803V415.078C740.25 417.609 739.681 420.317 738.738 423.124C738.502 423.771 738.267 424.438 737.992 425.106C734.849 432.916 728.82 441.453 720.414 450.048C714.777 455.857 708.06 461.646 700.479 467.259C695.707 470.791 690.581 474.245 685.14 477.562C684.492 477.954 683.844 478.347 683.196 478.739C681.311 479.878 679.386 480.977 677.442 482.095C676.577 482.586 675.694 483.037 674.829 483.528C673.789 484.097 672.748 484.627 671.707 485.196C658.155 492.3 644.662 497.697 632.073 501.327C619.484 504.958 607.798 506.822 597.841 506.842C597.252 506.842 596.662 506.842 596.073 506.822C589.494 506.685 583.72 505.703 579.045 503.839C578.142 503.486 577.278 503.093 576.472 502.681C572.682 500.699 569.795 498.03 568.027 494.635L563.373 488.277C563.373 488.277 563.373 488.257 563.333 488.257C562.194 487.119 561.252 485.883 560.505 484.489C560.446 484.391 560.387 484.293 560.328 484.175C559.111 481.84 558.463 479.289 558.364 476.522C558.325 475.913 558.325 475.305 558.364 474.677C558.639 468.378 561.507 461.195 566.574 453.679C576.924 438.234 596.446 421.318 621.409 407.365H621.428C623.275 406.325 625.16 405.305 627.065 404.304C653.009 390.724 678.757 383.345 698.319 382.697C712.028 382.246 722.731 385.111 728.348 391.45C729.311 392.49 730.096 393.628 730.744 394.864L731.098 395.355L735.419 401.242C735.792 401.615 736.126 401.988 736.44 402.38L736.519 402.479L737.579 403.911L737.795 404.225C738.011 404.578 738.227 404.951 738.424 405.324H738.443C738.758 405.952 739.033 406.58 739.268 407.208C740.054 409.269 740.427 411.486 740.427 413.841H740.388Z" fill="#6F95BD"/>
<path d="M656.32 459.795C687.636 443.269 707.997 420.363 701.796 408.632C695.596 396.902 665.183 400.789 633.867 417.315C602.552 433.841 582.191 456.747 588.392 468.478C594.592 480.208 625.004 476.321 656.32 459.795Z" fill="black"/>
<path d="M594.836 474.441C594.522 474.441 594.228 474.441 593.933 474.441L591.399 471.635C603.203 472.067 632.82 464.59 649.927 453.325C666.11 442.669 670.706 433.426 669.743 428.756C669.37 427.009 668.192 425.871 666.404 425.557C656.801 423.908 643.524 430.973 640.028 433.603C635.511 436.998 633.841 440.079 634.529 441.394C634.823 441.943 636.061 442.139 637.769 441.884C639.517 441.629 641.599 440.942 643.21 440.098C646.097 438.587 646.725 437.351 646.725 437.116C646.548 437.076 645.017 436.978 642.326 438.391L641.422 436.664C642.994 435.84 644.467 435.33 645.684 435.212C647.55 435.055 648.257 435.801 648.493 436.272C648.748 436.743 648.984 437.763 647.746 439.176C646.961 440.079 645.704 440.982 644.133 441.825C642.326 442.767 640.008 443.533 638.044 443.807C634.627 444.318 633.291 443.238 632.781 442.277C631.445 439.706 633.704 435.879 638.85 432.013C642.679 429.148 656.368 421.808 666.738 423.614C669.331 424.065 671.118 425.792 671.668 428.343C672.827 433.878 667.995 443.768 651.007 454.954C633.743 466.317 607.583 474.441 594.856 474.441H594.836Z" fill="#6F95BD"/>
<path d="M590.103 497.166C580.165 497.166 571.877 495.322 566.064 491.495C564.827 490.71 563.648 489.748 562.607 488.689C561.291 487.354 560.25 485.941 559.426 484.371C554.28 474.598 558.542 460.724 571.406 445.299C584.093 430.11 603.674 415.156 626.555 403.185C649.416 391.194 672.866 383.619 692.585 381.814C712.598 380.008 726.424 384.385 731.57 394.158C732.257 395.472 732.748 396.768 733.043 398.102C738.365 418.845 708.866 452.069 664.44 475.344C637.416 489.513 610.332 497.147 590.103 497.147V497.166ZM701.148 383.384C698.496 383.384 695.707 383.521 692.781 383.776C673.318 385.542 650.143 393.059 627.498 404.931C604.853 416.804 585.468 431.581 572.957 446.574C560.624 461.332 556.46 474.441 561.193 483.469C561.92 484.881 562.843 486.137 564.021 487.315C564.964 488.277 566.005 489.12 567.144 489.846C583.956 500.915 624.493 494.085 663.537 473.617C706.47 451.108 736.166 418.158 731.157 398.573C730.882 397.376 730.45 396.257 729.842 395.08C725.835 387.426 715.76 383.384 701.148 383.384Z" fill="black"/>
<path d="M605.599 476.443C596.505 476.443 589.867 473.97 587.176 468.848C580.558 456.23 600.807 433.014 633.291 416C648.63 407.953 664.263 402.675 677.304 401.085C690.659 399.476 699.792 401.988 703.033 408.15C706.273 414.312 703.131 423.241 694.214 433.308C685.514 443.121 672.257 452.972 656.918 460.998C637.612 471.125 618.954 476.443 605.599 476.443ZM684.63 402.576C682.43 402.576 680.054 402.733 677.54 403.028C664.735 404.578 649.357 409.798 634.214 417.726C603.242 433.956 582.915 456.485 588.924 467.926C594.934 479.367 625.023 475.481 655.995 459.252C671.137 451.324 684.178 441.649 692.722 431.993C700.951 422.731 704.054 414.351 701.265 409.052C699.046 404.833 693.114 402.576 684.61 402.576H684.63Z" fill="black"/>
<path d="M597.566 507.548C588.728 507.548 581.461 506.115 576.001 503.27C571.955 501.17 568.97 498.324 567.124 494.812L562.528 488.551L564.021 487.295C564.944 488.237 565.985 489.101 567.124 489.827C569.559 491.417 572.466 492.653 575.805 493.516C580.302 494.694 585.625 495.224 591.595 495.106C611.962 494.733 638.181 486.903 663.537 473.598L663.792 473.46C664.008 473.342 664.244 473.225 664.46 473.087L664.735 472.93H664.794C665.579 472.518 666.345 472.106 667.111 471.674L668.054 471.144C668.565 470.87 669.075 470.575 669.586 470.301C678.227 465.453 686.319 460.194 693.625 454.66C705.723 445.534 715.642 435.762 722.299 426.44C723.576 424.654 724.754 422.829 725.815 421.043C726.993 419.081 728.015 417.059 728.899 415.038L729.193 414.351C729.625 413.272 730.018 412.173 730.372 411.074C731.805 406.443 732.061 402.223 731.118 398.554C730.863 397.356 730.43 396.238 729.802 395.06L731.452 394.02L739.151 404.48C739.563 405.265 739.858 405.913 740.113 406.58C741.056 409.092 741.468 411.859 741.311 414.842C741.174 417.432 740.604 420.239 739.602 423.163L739.465 423.535C739.268 424.085 739.072 424.634 738.836 425.204C735.694 433.053 729.547 441.786 721.043 450.46C715.484 456.171 708.866 461.901 701.383 467.475L701.01 467.769C695.569 471.772 689.717 475.658 683.648 479.308C681.743 480.446 679.818 481.545 677.854 482.664C677.344 482.958 676.833 483.233 676.303 483.527L675.242 484.116C674.535 484.509 673.828 484.882 673.121 485.254L672.1 485.804C645.762 499.6 618.679 507.528 597.782 507.548H597.527H597.566ZM567.91 492.574L568.813 493.791C570.541 497.068 573.232 499.639 576.924 501.543C582.109 504.231 589.062 505.585 597.586 505.585H597.841C618.424 505.566 645.193 497.716 671.255 484.057L672.276 483.508C672.983 483.135 673.671 482.762 674.378 482.389L675.458 481.801C675.969 481.526 676.479 481.251 676.97 480.957C678.915 479.858 680.839 478.759 682.725 477.621C688.617 474.088 694.273 470.34 699.576 466.454L699.91 466.179C707.471 460.567 714.149 454.817 719.707 449.087C728.015 440.589 734.025 432.072 737.088 424.477C737.304 423.928 737.501 423.398 737.697 422.888L737.835 422.535C738.758 419.787 739.308 417.158 739.426 414.763C739.563 412.055 739.21 409.543 738.365 407.306C738.129 406.698 737.874 406.129 737.579 405.54L733.494 400.006C734.025 403.538 733.632 407.463 732.336 411.663C731.982 412.801 731.57 413.959 731.098 415.117L730.784 415.823C729.881 417.923 728.8 420.023 727.602 422.044C726.522 423.889 725.304 425.753 723.989 427.598C717.213 437.076 707.137 446.987 694.902 456.23C687.517 461.803 679.347 467.121 670.646 472.008C670.136 472.302 669.625 472.577 669.095 472.871L668.152 473.401C667.288 473.872 666.424 474.343 665.54 474.814L665.304 474.932C665.128 475.03 664.951 475.128 664.774 475.207L664.519 475.344C638.889 488.787 612.355 496.696 591.694 497.068C585.566 497.166 580.067 496.637 575.373 495.42C572.643 494.713 570.149 493.752 567.949 492.555L567.91 492.574Z" fill="black"/>
<path d="M590.103 497.166C580.165 497.166 571.877 495.322 566.063 491.495L567.144 489.866C583.936 500.934 624.473 494.105 663.537 473.637C706.47 451.127 736.165 418.178 731.157 398.593L733.062 398.102C738.385 418.865 708.885 452.089 664.46 475.364C637.435 489.532 610.352 497.166 590.122 497.166H590.103Z" fill="black"/>
<path d="M737.6 405.658L734.595 401.576L736.087 400.3C737.403 401.635 738.444 403.047 739.269 404.617L737.6 405.658Z" fill="black"/>
<path d="M587.122 468.657L559.868 483.027L560.785 484.762L588.038 470.392L587.122 468.657Z" fill="black"/>
<path d="M676.598 482.389L669.292 471.714L658.745 458.29L660.297 457.074L670.863 470.556L678.228 481.271L676.598 482.389Z" fill="black"/>
<path d="M596.977 507.077L590.397 495.989L610.568 474.323L612.001 475.658L592.833 496.244L598.666 506.076L596.977 507.077Z" fill="black"/>
<path d="M592.874 448.178L566.146 452.791L566.481 454.725L593.208 450.112L592.874 448.178Z" fill="black"/>
<path d="M622.065 406.636L620.442 407.741L628.65 419.773L630.273 418.668L622.065 406.636Z" fill="black"/>
<path d="M697.775 381.805L681.011 401.047L682.492 402.335L699.256 383.093L697.775 381.805Z" fill="black"/>
<path d="M727.998 390.46L699.99 405.667L700.928 407.392L728.936 392.184L727.998 390.46Z" fill="black"/>
<path d="M737.207 425.498L729.469 416.51L701.443 422.319L701.05 420.415L730.196 414.351L738.7 424.203L737.207 425.498Z" fill="black"/>
<path d="M835.917 386.19C834.64 392.274 831.812 399.005 827.648 406.089C819.203 420.513 805.141 436.448 787.151 450.99C785.521 452.344 783.851 453.639 782.142 454.935C770.3 464.001 758.221 471.419 746.732 476.992C735.223 482.566 724.283 486.294 714.738 487.943C710.633 488.669 706.784 489.003 703.249 488.924C701.128 488.885 699.105 488.689 697.239 488.355C693.684 487.747 690.62 486.608 688.087 484.901C686.535 483.861 685.16 482.605 684.021 481.133L678.483 475.776L678.326 475.599H678.286C678.286 475.599 678.267 475.599 678.267 475.579C676.99 474.657 675.89 473.597 674.928 472.341C672.532 469.202 671.353 465.375 671.275 460.959C671.157 455.484 672.689 449.185 675.733 442.336C676.637 440.255 677.697 438.116 678.895 435.938C684.355 425.988 692.525 415.273 702.935 404.715C703.268 404.362 703.622 403.989 703.995 403.636C709.101 398.514 714.738 393.431 720.826 388.506C722.319 387.289 723.812 386.111 725.344 384.934C725.501 384.797 725.658 384.679 725.835 384.561C748.597 367.135 772.205 355.772 790.98 351.965C804.1 349.316 814.843 350.336 821.265 355.595C822.267 356.42 823.17 357.342 823.956 358.362L829.495 363.7L829.573 363.759L833.049 367.115C836.742 371.943 837.566 378.517 835.897 386.19H835.917Z" fill="#6F95BD"/>
<path d="M833.049 367.115L829.573 363.759C830.909 364.701 832.067 365.82 833.049 367.115Z" fill="#6F95BD"/>
<path d="M763.766 433.762C791.14 412.811 806.788 387.289 798.715 376.757C790.641 366.226 761.905 374.672 734.53 395.623C707.156 416.574 691.508 442.096 699.581 452.628C707.654 463.159 736.391 454.713 763.766 433.762Z" fill="black"/>
<path d="M726.993 431.797C726.993 431.797 726.836 431.797 726.758 431.797C724.185 431.758 722.182 430.365 721.278 427.971C719.314 422.809 722.437 412.526 737.108 399.142C752.427 385.15 777.782 372.63 789.35 371.177L792.846 373.297C781.553 374.71 753.507 386.838 738.424 400.575C724.48 413.311 721.455 422.908 723.105 427.245C723.714 428.873 725.029 429.776 726.777 429.796C726.856 429.796 726.915 429.796 726.993 429.796C736.46 429.796 748.008 421.063 750.935 418.021C754.745 414.077 755.884 410.858 755.039 409.72C754.686 409.229 753.468 409.249 751.877 409.74C750.267 410.25 748.303 411.251 746.908 412.291C744.375 414.175 743.962 415.45 744.002 415.666C744.1 415.627 745.475 415.627 748.008 413.743L749.187 415.313C747.792 416.353 746.437 417.06 745.298 417.354C743.511 417.805 742.705 417.177 742.391 416.746C742.077 416.314 741.684 415.372 742.666 413.802C743.275 412.821 744.355 411.741 745.75 410.701C747.34 409.524 749.462 408.425 751.308 407.856C754.548 406.855 755.982 407.679 756.63 408.542C758.319 410.819 756.728 414.862 752.349 419.395C749.128 422.731 737.206 431.758 726.993 431.758V431.797Z" fill="#6F95BD"/>
<path d="M695.079 481.133C692.408 481.133 690.031 480.937 687.831 480.525C685.671 480.133 683.668 479.544 681.861 478.798L681.664 478.72C680.29 478.131 679.013 477.424 677.894 476.6H677.854L677.56 476.325C676.263 475.383 675.144 474.284 674.103 472.97L673.887 472.675C671.55 469.476 670.332 465.552 670.254 460.999C670.116 455.445 671.648 449.047 674.79 441.963C675.753 439.785 676.833 437.606 678.011 435.487C683.57 425.361 691.936 414.489 702.208 404.048C702.581 403.656 702.935 403.283 703.327 402.93C708.512 397.729 714.188 392.607 720.198 387.76L720.493 387.544C721.887 386.406 723.301 385.287 724.755 384.169L725.206 383.816C747.242 366.958 771.144 355.007 790.784 351.023C804.63 348.217 815.393 349.551 821.874 354.85C822.935 355.694 823.897 356.675 824.722 357.774C825.625 358.991 826.313 360.148 826.804 361.326C828.905 366.036 829.141 371.884 827.511 378.733L825.606 378.281C827.138 371.864 826.941 366.428 825.017 362.111C824.585 361.071 823.976 360.05 823.17 358.971C822.444 358.009 821.58 357.146 820.657 356.381C814.627 351.455 804.434 350.258 791.177 352.946C771.812 356.871 748.205 368.685 726.424 385.346L725.972 385.7C724.401 386.897 722.928 388.054 721.455 389.271L721.16 389.487C715.308 394.236 709.769 399.221 704.682 404.343C704.29 404.696 703.995 405.01 703.681 405.344C693.468 415.705 685.219 426.44 679.759 436.409C678.62 438.47 677.56 440.609 676.617 442.728C673.592 449.558 672.139 455.661 672.257 460.92C672.335 465.218 673.494 468.848 675.694 471.733L675.91 472.028C676.715 473.028 677.599 473.872 678.601 474.618H678.66L679.249 475.089C680.113 475.737 681.154 476.325 682.273 476.816L682.489 476.894C684.198 477.64 686.103 478.19 688.205 478.582C690.66 479.034 693.35 479.21 696.453 479.151C699.635 479.073 703.131 478.661 706.863 477.935C707.55 477.817 708.257 477.679 708.944 477.522C709.475 477.405 709.985 477.287 710.496 477.169L710.908 477.071L711.36 478.975L710.967 479.073C710.437 479.21 709.907 479.328 709.376 479.446C708.65 479.603 707.923 479.74 707.236 479.858C703.426 480.604 699.831 481.016 696.532 481.094C696.061 481.094 695.589 481.094 695.118 481.094L695.079 481.133Z" fill="black"/>
<path d="M710.614 458.271C704.938 458.271 700.696 456.642 698.241 453.443C694.097 448.046 695.629 438.921 702.542 427.774C709.298 416.902 720.395 405.245 733.809 394.982C762.228 373.238 791.118 364.878 799.583 375.926C808.048 386.975 792.414 412.644 763.995 434.388C750.581 444.651 736.421 452.325 724.146 455.994C719.039 457.525 714.483 458.271 710.594 458.271H710.614ZM787.151 372.963C774.542 372.963 754.47 381.657 735.007 396.532C721.769 406.658 710.83 418.119 704.211 428.795C697.848 439.058 696.237 447.595 699.792 452.246C703.347 456.897 712.028 457.564 723.596 454.11C735.655 450.519 749.58 442.944 762.817 432.818C789.901 412.114 805.691 387.112 798.031 377.104C795.871 374.298 792.081 372.963 787.151 372.963Z" fill="black"/>
<path d="M704.231 489.925C703.897 489.925 703.563 489.925 703.23 489.925C701.069 489.886 698.987 489.69 697.063 489.336C693.37 488.708 690.169 487.492 687.557 485.745C685.887 484.626 684.434 483.292 683.256 481.742L677.815 476.502L679.072 475.01C680.015 475.717 681.095 476.325 682.274 476.836L682.49 476.914C684.198 477.66 686.104 478.209 688.205 478.602C690.66 479.053 693.351 479.23 696.454 479.171C699.635 479.092 703.131 478.68 706.863 477.954C707.55 477.836 708.257 477.699 708.945 477.542C709.475 477.424 709.986 477.307 710.496 477.189L710.909 477.091C711.577 476.934 712.264 476.757 712.932 476.58V476.541L713.56 476.404C713.56 476.404 713.56 476.404 713.58 476.404L714.169 476.227C714.169 476.227 714.208 476.227 714.228 476.227C715.112 475.992 715.897 475.756 716.683 475.501L718.843 474.814C719.118 474.736 719.334 474.657 719.55 474.598C720.218 474.382 720.788 474.186 721.357 473.99L721.966 473.774C723.086 473.362 724.126 472.97 725.128 472.597L725.835 474.422C724.814 474.814 723.793 475.187 722.791 475.56L722.005 475.835C721.416 476.031 720.827 476.247 720.218 476.443C719.924 476.541 719.649 476.639 719.374 476.718L718.608 476.973C718.608 476.973 718.549 476.973 718.529 476.973L718.215 477.071L717.253 477.365C716.428 477.621 715.622 477.856 714.798 478.072C714.601 478.131 714.405 478.19 714.228 478.229L713.56 478.464L713.521 478.406C712.794 478.602 712.048 478.798 711.321 478.955L710.928 479.053C710.398 479.19 709.868 479.308 709.338 479.426C708.611 479.583 707.884 479.72 707.197 479.838C703.387 480.584 699.793 480.996 696.493 481.074C693.252 481.153 690.405 480.957 687.832 480.486C686.378 480.231 685.004 479.877 683.727 479.446L684.709 480.407C685.848 481.879 687.144 483.076 688.637 484.077C691.014 485.667 693.959 486.785 697.396 487.374C699.223 487.708 701.207 487.904 703.269 487.923C706.725 488.002 710.536 487.668 714.562 486.942L714.915 488.865C711.144 489.533 707.55 489.886 704.231 489.886V489.925Z" fill="black"/>
<path d="M787.072 452.325L776.898 441.885L777.723 441.217C788.231 432.661 797.52 423.595 805.298 414.234C816.041 401.301 823.052 388.879 825.586 378.301L825.684 376.358L827.157 377.752L836.899 385.778V386.288C835.563 392.549 832.735 399.339 828.473 406.6C819.694 421.593 805.219 437.626 787.74 451.775L787.052 452.344L787.072 452.325ZM779.805 442.061L787.229 449.675C804.218 435.821 818.26 420.199 826.804 405.599C830.83 398.73 833.54 392.352 834.836 386.583L827.137 380.244C824.25 390.782 817.259 402.91 806.83 415.47C799.17 424.674 790.077 433.623 779.805 442.042V442.061Z" fill="black"/>
<path d="M836.88 386.406L834.955 385.994C836.605 378.34 835.701 372.198 832.284 367.743L827.511 363.171C828.925 367.527 828.925 372.747 827.511 378.733L825.606 378.281C827.138 371.864 826.942 366.428 825.017 362.111C824.585 361.071 823.976 360.05 823.171 358.971L824.644 357.676L833.757 366.448C837.646 371.511 838.667 378.183 836.88 386.426V386.406Z" fill="black"/>
<path d="M827.511 378.733L825.606 378.281C827.138 371.864 826.941 366.428 825.017 362.111L826.804 361.306C828.905 366.036 829.161 371.884 827.511 378.733Z" fill="black"/>
<path d="M695.079 481.133C692.408 481.133 690.031 480.937 687.832 480.525C685.593 480.113 683.531 479.504 681.704 478.72L682.49 476.914C684.198 477.66 686.103 478.209 688.205 478.602C690.66 479.053 693.351 479.23 696.454 479.171C699.635 479.092 703.131 478.68 706.863 477.954C707.55 477.836 708.257 477.699 708.945 477.542C709.475 477.424 709.986 477.307 710.496 477.189L710.909 477.091C711.576 476.934 712.264 476.757 712.932 476.58V476.541L713.56 476.404C713.56 476.404 713.56 476.404 713.58 476.404L714.169 476.227C714.169 476.227 714.208 476.227 714.228 476.227C715.112 475.992 715.897 475.756 716.683 475.501L718.843 474.814C719.118 474.736 719.334 474.657 719.55 474.598C720.218 474.382 720.788 474.186 721.357 473.99L721.966 473.774C723.086 473.362 724.126 472.97 725.128 472.597L725.835 474.422C724.814 474.814 723.793 475.187 722.791 475.56L722.005 475.835C721.416 476.031 720.827 476.247 720.218 476.443C719.923 476.541 719.649 476.639 719.374 476.718L718.627 476.973C718.627 476.973 718.549 477.012 718.509 477.012L717.252 477.385C716.428 477.64 715.622 477.876 714.797 478.092C714.601 478.15 714.405 478.209 714.228 478.249L713.56 478.484L713.521 478.425C712.794 478.621 712.048 478.818 711.321 478.975L710.928 479.073C710.398 479.21 709.868 479.328 709.338 479.446C708.611 479.603 707.884 479.74 707.197 479.858C703.387 480.603 699.793 481.016 696.493 481.094C696.022 481.094 695.55 481.094 695.079 481.094V481.133Z" fill="black"/>
<path d="M832.382 367.841L828.827 364.407L830.084 362.896C831.557 363.956 832.794 365.153 833.855 366.526L832.382 367.822V367.841Z" fill="black"/>
<path d="M698.164 453.281L674.337 471.576L675.534 473.132L699.36 454.837L698.164 453.281Z" fill="black"/>
<path d="M777.703 442.689L765.291 431.464L766.627 430.031L770.162 433.23L779.019 441.237L777.703 442.689Z" fill="black"/>
<path d="M714.345 489.003L707.942 481.487L709.435 480.211L715.111 486.883C734.79 483.351 758.967 471.439 781.553 454.169C783.026 453.051 784.401 451.991 785.697 450.912L778.273 443.297C776.761 444.514 775.209 445.75 773.638 446.947C758.692 458.369 742.862 467.612 727.877 473.637L726.836 474.029C726.64 474.108 726.384 474.206 726.149 474.304L725.697 474.461H725.638H725.501V473.499L724.813 472.773L725.108 472.498L725.442 472.459C725.658 472.381 725.854 472.302 726.07 472.224L727.131 471.812C741.939 465.846 757.592 456.72 772.401 445.397C774.188 444.023 775.975 442.61 777.704 441.217L778.391 440.648L788.565 451.088L787.74 451.775C786.168 453.09 784.519 454.385 782.712 455.759C759.674 473.382 734.947 485.47 714.875 488.944L714.325 489.042L714.345 489.003Z" fill="black"/>
<path d="M707.942 481.487L705.821 478.975L721.415 455.15V454.405L722.496 454.483L722.417 455.406L722.574 455.464H723.379V456.446H722.908L708.257 478.818L709.435 480.211L707.942 481.487Z" fill="black"/>
<path d="M700.315 432.488L675.392 441.351L676.05 443.199L700.974 434.336L700.315 432.488Z" fill="black"/>
<path d="M721.519 387.889L720.107 389.253L729.977 399.454L731.389 398.09L721.519 387.889Z" fill="black"/>
<path d="M790.132 351.446L777.194 372.709L778.872 373.728L791.81 352.466L790.132 351.446Z" fill="black"/>
<path d="M820.65 354.78L796.238 374.017L797.454 375.558L821.867 356.321L820.65 354.78Z" fill="black"/>
<path d="M826.194 377.595L799.697 388.024L800.417 389.85L826.913 379.421L826.194 377.595Z" fill="black"/>
<path d="M263.254 391.979L255.496 382.991L221.873 402.223L215.686 395.06L220.753 345.999L234.521 338.13L259.189 366.742L267.261 362.13L275.45 371.609L267.378 376.221L275.136 385.209L263.274 391.999L263.254 391.979ZM247.326 373.493L233.146 357.048L232.282 357.538L229.571 382.481L230.239 383.246L247.326 373.473V373.493Z" fill="black"/>
<path d="M345.055 343.939L339.025 337.266C331.621 329.044 331.641 322.528 339.359 312.971L348.845 301.393C352.066 297.252 352.479 294.877 349.709 291.816C346.508 288.264 342.58 287.499 334.253 292.405C324.963 297.9 324.472 302.119 329.127 307.28L329.952 308.183L318.835 314.737L318.01 313.835C309.86 304.788 309.172 292.601 326.043 282.651C341.303 273.624 353.284 276.372 361.258 285.203C368.721 293.484 366.521 301.079 359.608 308.693L351.084 317.995C347.431 322.293 346.272 325.001 349.592 328.69L361.749 319.702L381.546 308.006L390.011 317.406L345.035 343.978L345.055 343.939Z" fill="black"/>
<path d="M428.328 258.945C416.819 244.05 417.683 229.155 432.982 219.932C448.223 210.728 464.308 215.418 475.817 230.293C487.385 245.247 486.403 260.122 471.163 269.307C455.843 278.55 439.896 273.899 428.328 258.945ZM464.406 237.181C456.433 226.879 450.069 224.955 441.055 230.372C431.981 235.847 431.765 241.754 439.739 252.057C447.712 262.36 453.997 264.342 463.071 258.866C472.066 253.43 472.361 247.484 464.406 237.181Z" fill="black"/>
</g>
<defs>
<clipPath id="clip0_76_2">
<rect width="851" height="509" fill="white"/>
</clipPath>
</defs>
</svg>
