<svg width="524" height="491" viewBox="0 0 524 491" fill="none" xmlns="http://www.w3.org/2000/svg">
<mask id="mask0_35_1272" style="mask-type:alpha" maskUnits="userSpaceOnUse" x="0" y="0" width="524" height="491">
<path d="M0 0H524V491H0V0Z" fill="#D9D9D9"/>
</mask>
<g mask="url(#mask0_35_1272)">
<mask id="path-2-inside-1_35_1272" fill="white">
<path d="M183.89 65.6405C180.72 65.6405 177.84 65.6205 174.76 64.9805C173.6 64.7405 172.49 64.9105 171.37 64.6005C170.25 64.2905 169.6 63.1205 168.67 62.6405C167.62 62.1005 166.41 62.1405 165.23 61.6105C164.82 61.4305 164.03 61.5505 163.7 61.2405C163.39 60.9505 163.63 60.2205 163.37 59.9005C162.01 58.2105 159.86 57.9405 158.55 56.6805C158.21 56.3505 158.3 55.6505 157.89 55.2305C157.48 54.8105 157.31 54.9505 156.79 54.6405C156.11 54.2405 155.04 54.0605 154.44 53.6005C154.07 53.3205 153.83 52.6905 153.44 52.4805C152.82 52.1605 152.3 52.3405 151.69 52.1105C150.28 51.5805 150.07 51.2205 148.32 51.2405C143.4 51.3105 137.93 51.8705 133.06 51.2605C131.1 51.0105 129.56 49.7805 127.79 48.9105C126.96 48.5105 126.43 48.0405 125.7 47.6205C124.36 46.8505 123.98 46.9405 123.75 45.3305C123.57 44.0905 124.15 43.1605 122.96 42.3105C122.58 42.0305 120.65 41.3605 120.19 41.2705C119.14 41.0605 117.98 41.3505 116.95 41.1305C115.92 40.9105 114.9 39.8905 113.96 39.5005C112.02 38.6905 109.62 37.9405 107.7 37.6805C105.12 37.3405 102.24 37.7105 99.63 37.7005C97.25 37.6905 95.62 38.0705 93.46 38.7305C92.13 39.1405 91.56 39.3905 89.89 39.3905C88.31 39.3905 87.58 39.0905 86.31 38.7305C85.04 38.3705 83.73 38.6005 82.45 38.3505C81.68 38.2005 80.31 37.1905 79.53 37.0305C78.22 36.7705 76.78 37.1505 75.48 36.8905C73.92 36.5705 72.92 35.9805 71.24 36.0005C68.42 36.0405 65.59 36.0205 62.77 36.0005C60.87 35.9905 59.89 36.4305 58.11 36.7705C56.62 37.0605 55.06 36.5605 53.6 36.9905C53.52 37.4605 53.41 37.9205 53.29 38.3805C52.2 38.4605 50.76 39.1705 49.72 39.4705C48.26 39.8905 47.59 40.2605 45.83 40.2405C45.15 40.2405 43.9 40.0405 43.25 40.2005C42.66 40.3405 42.49 40.9205 41.95 41.0205C41.26 41.1505 40.57 40.9905 39.88 41.0705C38.66 41.2205 38.95 41.4105 38.02 41.7305C36.67 42.1905 35.26 42.8105 33.97 43.2205C32.59 43.6605 31.18 43.7205 29.72 44.2705C28.26 44.8205 28.01 45.2405 26.78 46.1805C25.49 47.1705 24.6 46.8905 23 47.2105C21.99 47.4105 21.17 47.8605 20.07 47.9005C19.37 47.9305 18.52 47.6605 17.84 47.8205C17.11 47.9905 16.94 48.5805 16.23 48.7505C15.58 48.9105 14.32 48.7205 13.65 48.7105C12.37 48.6905 11.22 48.5005 10.43 49.7205C9.59002 51.0105 10.43 52.1005 8.80002 53.1705C7.83002 53.8105 6.80002 53.8305 5.80002 54.4005C4.68002 55.0405 3.96002 55.5905 2.64002 55.9005C0.0400195 56.5105 -2.57998 57.5705 -4.97998 58.8605V503.781H528.95V126.44H525.5C524.76 126.44 524.03 126.44 523.29 126.44C522.55 126.44 522.27 126.28 521.72 126.15C519.9 125.73 517.84 126.38 516 126.03C515.55 125.94 515.43 125.71 514.84 125.68C514.4 125.66 513.96 125.68 513.52 125.68C512.54 125.68 511.3 125.49 510.35 125.71C510 125.79 509.82 126.02 509.39 126.06C509.16 126.08 508.84 125.98 508.61 126.03C508.39 126.08 508.31 126.31 508.17 126.34C507.26 126.55 506.19 126.42 505.24 126.42C504.75 126.42 504.21 126.36 503.73 126.42C503.25 126.48 503.06 126.72 502.63 126.82C501.67 127.05 500.57 126.63 499.6 126.88C499.04 127.03 498.66 127.1 498.09 127.16C497.64 127.21 497.5 127.43 497.13 127.51C496.19 127.73 495.13 127.4 494.18 127.57C493.73 127.66 493.61 127.9 493.02 127.92C492.57 127.93 492.21 127.91 491.78 128C491.38 128.09 491.12 128.31 490.57 128.29C489.93 128.271 489.71 128.54 489.22 128.63C488.79 128.71 488.36 128.6 487.93 128.65C487.38 128.72 487.3 128.86 486.82 129.05C486.54 129.16 486 129.37 485.7 129.44C485.52 129.48 485.29 129.36 485.1 129.41C484.88 129.47 484.63 129.67 484.46 129.71C483.4 130 482.19 129.52 481.14 129.77C480.47 129.93 480.72 130.12 480.03 129.98C479.57 129.89 479.01 129.62 478.52 129.5C478.03 129.38 477.57 129.43 477.1 129.33C477.02 129.31 476.82 129.06 476.66 129.02C476.35 128.95 475.99 129.13 475.68 129.05C474.74 128.83 473.91 128.44 472.94 128.22C472.92 127.72 472.5 127.06 472.23 126.68C471.91 126.23 471.47 126.24 471.08 125.95C470.88 125.8 470.76 125.48 470.55 125.35C470.29 125.2 470.09 125.38 469.86 125.29C469.55 125.16 469.43 125.02 469.13 124.89C469.05 124.86 468.06 124.48 467.99 124.49C467.77 124.49 467.67 124.8 467.53 124.82C467.16 124.88 466.87 124.91 466.48 124.9C465.86 124.9 465.22 124.94 464.6 124.91C463.69 124.86 463.01 124.52 462.05 124.53C461.27 124.53 460.49 124.53 459.71 124.53C458.4 124.53 456.92 124.35 455.65 124.61C455.52 124.64 455.41 124.88 455.21 124.92C454.88 125 454.49 124.92 454.14 124.98C453.66 125.07 452.95 125.44 452.47 125.57C451.42 125.85 449.74 125.75 448.87 126.49C447.93 127.29 448.03 127.22 446.43 127.06C445.21 126.94 444.11 127.11 442.95 127.34C442.24 127.48 441.57 127.64 440.88 127.82C440.19 128 439.56 127.76 438.89 127.88C438.13 128.02 437.76 128.32 436.93 128.28C436.03 128.24 434.95 128.11 434.09 127.92C433.88 127.87 433.78 127.63 433.65 127.61C433.28 127.53 432.97 127.58 432.59 127.54C432.13 127.48 431.5 127.34 431.08 127.16C429.96 126.68 428.83 126.21 427.7 125.64C426.87 125.22 425.84 124.47 424.98 124.22C423.68 123.84 422.33 123.76 420.92 123.76C419.98 123.76 419.29 123.64 418.39 123.47C417.6 123.32 416.83 123.45 416.03 123.39C415.37 123.35 414.82 123.07 414.17 123C413.67 122.94 413.13 123.03 412.63 123C412.02 122.98 411.71 122.85 411.14 122.71C410.18 122.47 409.22 122.32 408.59 121.41C407.96 120.5 407.32 119.47 406.35 118.76C405.6 118.21 404.59 117.811 403.75 117.4C403.19 117.131 402.77 117.08 402.19 116.89C402 116.83 401.81 116.64 401.56 116.58C401.14 116.48 400.63 116.72 400.21 116.61C399.57 116.45 399.32 116.21 398.53 116.21C397.84 116.21 397.15 116.21 396.46 116.21C395.82 116.21 395.22 116.24 394.61 116.13C394 116.02 393.48 115.84 392.78 115.83C392.24 115.83 391.78 115.87 391.25 115.76C390.7 115.64 389.96 115.18 389.3 115.07C389.05 115.03 388.79 115.13 388.54 115.1C388.17 115.05 387.97 114.85 387.71 114.8C386.91 114.63 386.07 114.76 385.23 114.72C384.23 114.67 383.55 114.26 382.52 114.33C381.32 114.4 380.26 114.96 379.14 115.1C377.58 115.3 375.79 115.1 374.22 115.1C373.52 115.1 373.15 115.27 372.57 115.39C372.12 115.48 371.62 115.35 371.2 115.45C370.87 115.53 370.83 115.79 370.49 115.87C370.28 115.92 369.93 115.84 369.74 115.84C369.15 115.84 368.75 116.04 368.2 116.14C367.51 116.27 367.01 116.54 366.35 116.61C365.69 116.68 365.25 116.63 364.69 117.02C364.3 117.29 363.78 117.54 363.41 117.81C363.25 117.93 363.13 118.23 362.96 118.31C362.74 118.41 362.36 118.39 362.18 118.47C361.89 118.61 361.8 118.82 361.54 118.96C361.19 119.15 360.88 119.11 360.53 119.27C360.09 119.46 359.87 120 359.47 120.28C359.03 120.6 358.75 120.59 358.33 121.02C357.89 121.47 357.66 121.67 357.12 121.87C356.28 122.18 355.52 122.08 354.66 122.23C353.8 122.38 353.29 122.63 352.4 122.63C351.43 122.63 350.46 122.63 349.49 122.63C348.37 122.63 347.44 122.32 346.38 122.25C346.01 122.22 345.62 122.25 345.25 122.25C344.68 122.25 344.46 122.06 344.04 121.96C343.75 121.89 343.59 121.89 343.29 121.87C342.55 121.82 342.17 121.77 341.48 121.59C340.79 121.41 339.95 121.51 339.22 121.51C337.37 121.51 335.51 121.51 333.66 121.51C332.88 121.51 332.1 121.5 331.32 121.51C330.29 121.52 330.09 121.19 329.15 120.75C328.44 120.42 327.85 120.24 327.17 120.01C326.36 119.73 325.73 119.75 324.83 119.65C323.93 119.55 323.23 119.24 322.28 119.25C321.45 119.25 321.09 119.25 320.4 118.87C319.37 118.32 317.81 117.72 316.64 117.74L183.89 65.6405Z"/>
</mask>
<path d="M183.89 65.6405C180.72 65.6405 177.84 65.6205 174.76 64.9805C173.6 64.7405 172.49 64.9105 171.37 64.6005C170.25 64.2905 169.6 63.1205 168.67 62.6405C167.62 62.1005 166.41 62.1405 165.23 61.6105C164.82 61.4305 164.03 61.5505 163.7 61.2405C163.39 60.9505 163.63 60.2205 163.37 59.9005C162.01 58.2105 159.86 57.9405 158.55 56.6805C158.21 56.3505 158.3 55.6505 157.89 55.2305C157.48 54.8105 157.31 54.9505 156.79 54.6405C156.11 54.2405 155.04 54.0605 154.44 53.6005C154.07 53.3205 153.83 52.6905 153.44 52.4805C152.82 52.1605 152.3 52.3405 151.69 52.1105C150.28 51.5805 150.07 51.2205 148.32 51.2405C143.4 51.3105 137.93 51.8705 133.06 51.2605C131.1 51.0105 129.56 49.7805 127.79 48.9105C126.96 48.5105 126.43 48.0405 125.7 47.6205C124.36 46.8505 123.98 46.9405 123.75 45.3305C123.57 44.0905 124.15 43.1605 122.96 42.3105C122.58 42.0305 120.65 41.3605 120.19 41.2705C119.14 41.0605 117.98 41.3505 116.95 41.1305C115.92 40.9105 114.9 39.8905 113.96 39.5005C112.02 38.6905 109.62 37.9405 107.7 37.6805C105.12 37.3405 102.24 37.7105 99.63 37.7005C97.25 37.6905 95.62 38.0705 93.46 38.7305C92.13 39.1405 91.56 39.3905 89.89 39.3905C88.31 39.3905 87.58 39.0905 86.31 38.7305C85.04 38.3705 83.73 38.6005 82.45 38.3505C81.68 38.2005 80.31 37.1905 79.53 37.0305C78.22 36.7705 76.78 37.1505 75.48 36.8905C73.92 36.5705 72.92 35.9805 71.24 36.0005C68.42 36.0405 65.59 36.0205 62.77 36.0005C60.87 35.9905 59.89 36.4305 58.11 36.7705C56.62 37.0605 55.06 36.5605 53.6 36.9905C53.52 37.4605 53.41 37.9205 53.29 38.3805C52.2 38.4605 50.76 39.1705 49.72 39.4705C48.26 39.8905 47.59 40.2605 45.83 40.2405C45.15 40.2405 43.9 40.0405 43.25 40.2005C42.66 40.3405 42.49 40.9205 41.95 41.0205C41.26 41.1505 40.57 40.9905 39.88 41.0705C38.66 41.2205 38.95 41.4105 38.02 41.7305C36.67 42.1905 35.26 42.8105 33.97 43.2205C32.59 43.6605 31.18 43.7205 29.72 44.2705C28.26 44.8205 28.01 45.2405 26.78 46.1805C25.49 47.1705 24.6 46.8905 23 47.2105C21.99 47.4105 21.17 47.8605 20.07 47.9005C19.37 47.9305 18.52 47.6605 17.84 47.8205C17.11 47.9905 16.94 48.5805 16.23 48.7505C15.58 48.9105 14.32 48.7205 13.65 48.7105C12.37 48.6905 11.22 48.5005 10.43 49.7205C9.59002 51.0105 10.43 52.1005 8.80002 53.1705C7.83002 53.8105 6.80002 53.8305 5.80002 54.4005C4.68002 55.0405 3.96002 55.5905 2.64002 55.9005C0.0400195 56.5105 -2.57998 57.5705 -4.97998 58.8605V503.781H528.95V126.44H525.5C524.76 126.44 524.03 126.44 523.29 126.44C522.55 126.44 522.27 126.28 521.72 126.15C519.9 125.73 517.84 126.38 516 126.03C515.55 125.94 515.43 125.71 514.84 125.68C514.4 125.66 513.96 125.68 513.52 125.68C512.54 125.68 511.3 125.49 510.35 125.71C510 125.79 509.82 126.02 509.39 126.06C509.16 126.08 508.84 125.98 508.61 126.03C508.39 126.08 508.31 126.31 508.17 126.34C507.26 126.55 506.19 126.42 505.24 126.42C504.75 126.42 504.21 126.36 503.73 126.42C503.25 126.48 503.06 126.72 502.63 126.82C501.67 127.05 500.57 126.63 499.6 126.88C499.04 127.03 498.66 127.1 498.09 127.16C497.64 127.21 497.5 127.43 497.13 127.51C496.19 127.73 495.13 127.4 494.18 127.57C493.73 127.66 493.61 127.9 493.02 127.92C492.57 127.93 492.21 127.91 491.78 128C491.38 128.09 491.12 128.31 490.57 128.29C489.93 128.271 489.71 128.54 489.22 128.63C488.79 128.71 488.36 128.6 487.93 128.65C487.38 128.72 487.3 128.86 486.82 129.05C486.54 129.16 486 129.37 485.7 129.44C485.52 129.48 485.29 129.36 485.1 129.41C484.88 129.47 484.63 129.67 484.46 129.71C483.4 130 482.19 129.52 481.14 129.77C480.47 129.93 480.72 130.12 480.03 129.98C479.57 129.89 479.01 129.62 478.52 129.5C478.03 129.38 477.57 129.43 477.1 129.33C477.02 129.31 476.82 129.06 476.66 129.02C476.35 128.95 475.99 129.13 475.68 129.05C474.74 128.83 473.91 128.44 472.94 128.22C472.92 127.72 472.5 127.06 472.23 126.68C471.91 126.23 471.47 126.24 471.08 125.95C470.88 125.8 470.76 125.48 470.55 125.35C470.29 125.2 470.09 125.38 469.86 125.29C469.55 125.16 469.43 125.02 469.13 124.89C469.05 124.86 468.06 124.48 467.99 124.49C467.77 124.49 467.67 124.8 467.53 124.82C467.16 124.88 466.87 124.91 466.48 124.9C465.86 124.9 465.22 124.94 464.6 124.91C463.69 124.86 463.01 124.52 462.05 124.53C461.27 124.53 460.49 124.53 459.71 124.53C458.4 124.53 456.92 124.35 455.65 124.61C455.52 124.64 455.41 124.88 455.21 124.92C454.88 125 454.49 124.92 454.14 124.98C453.66 125.07 452.95 125.44 452.47 125.57C451.42 125.85 449.74 125.75 448.87 126.49C447.93 127.29 448.03 127.22 446.43 127.06C445.21 126.94 444.11 127.11 442.95 127.34C442.24 127.48 441.57 127.64 440.88 127.82C440.19 128 439.56 127.76 438.89 127.88C438.13 128.02 437.76 128.32 436.93 128.28C436.03 128.24 434.95 128.11 434.09 127.92C433.88 127.87 433.78 127.63 433.65 127.61C433.28 127.53 432.97 127.58 432.59 127.54C432.13 127.48 431.5 127.34 431.08 127.16C429.96 126.68 428.83 126.21 427.7 125.64C426.87 125.22 425.84 124.47 424.98 124.22C423.68 123.84 422.33 123.76 420.92 123.76C419.98 123.76 419.29 123.64 418.39 123.47C417.6 123.32 416.83 123.45 416.03 123.39C415.37 123.35 414.82 123.07 414.17 123C413.67 122.94 413.13 123.03 412.63 123C412.02 122.98 411.71 122.85 411.14 122.71C410.18 122.47 409.22 122.32 408.59 121.41C407.96 120.5 407.32 119.47 406.35 118.76C405.6 118.21 404.59 117.811 403.75 117.4C403.19 117.131 402.77 117.08 402.19 116.89C402 116.83 401.81 116.64 401.56 116.58C401.14 116.48 400.63 116.72 400.21 116.61C399.57 116.45 399.32 116.21 398.53 116.21C397.84 116.21 397.15 116.21 396.46 116.21C395.82 116.21 395.22 116.24 394.61 116.13C394 116.02 393.48 115.84 392.78 115.83C392.24 115.83 391.78 115.87 391.25 115.76C390.7 115.64 389.96 115.18 389.3 115.07C389.05 115.03 388.79 115.13 388.54 115.1C388.17 115.05 387.97 114.85 387.71 114.8C386.91 114.63 386.07 114.76 385.23 114.72C384.23 114.67 383.55 114.26 382.52 114.33C381.32 114.4 380.26 114.96 379.14 115.1C377.58 115.3 375.79 115.1 374.22 115.1C373.52 115.1 373.15 115.27 372.57 115.39C372.12 115.48 371.62 115.35 371.2 115.45C370.87 115.53 370.83 115.79 370.49 115.87C370.28 115.92 369.93 115.84 369.74 115.84C369.15 115.84 368.75 116.04 368.2 116.14C367.51 116.27 367.01 116.54 366.35 116.61C365.69 116.68 365.25 116.63 364.69 117.02C364.3 117.29 363.78 117.54 363.41 117.81C363.25 117.93 363.13 118.23 362.96 118.31C362.74 118.41 362.36 118.39 362.18 118.47C361.89 118.61 361.8 118.82 361.54 118.96C361.19 119.15 360.88 119.11 360.53 119.27C360.09 119.46 359.87 120 359.47 120.28C359.03 120.6 358.75 120.59 358.33 121.02C357.89 121.47 357.66 121.67 357.12 121.87C356.28 122.18 355.52 122.08 354.66 122.23C353.8 122.38 353.29 122.63 352.4 122.63C351.43 122.63 350.46 122.63 349.49 122.63C348.37 122.63 347.44 122.32 346.38 122.25C346.01 122.22 345.62 122.25 345.25 122.25C344.68 122.25 344.46 122.06 344.04 121.96C343.75 121.89 343.59 121.89 343.29 121.87C342.55 121.82 342.17 121.77 341.48 121.59C340.79 121.41 339.95 121.51 339.22 121.51C337.37 121.51 335.51 121.51 333.66 121.51C332.88 121.51 332.1 121.5 331.32 121.51C330.29 121.52 330.09 121.19 329.15 120.75C328.44 120.42 327.85 120.24 327.17 120.01C326.36 119.73 325.73 119.75 324.83 119.65C323.93 119.55 323.23 119.24 322.28 119.25C321.45 119.25 321.09 119.25 320.4 118.87C319.37 118.32 317.81 117.72 316.64 117.74L183.89 65.6405Z" fill="#6F60AA" stroke="black" stroke-width="2" mask="url(#path-2-inside-1_35_1272)"/>
</g>
</svg>
