<svg width="218" height="146" viewBox="0 0 218 146" fill="none" xmlns="http://www.w3.org/2000/svg">
<path d="M157.029 54.2841C156.86 56.1739 156.314 58.2233 155.39 60.2461C154.324 62.5883 152.893 64.5979 151.254 66.0617C151.228 66.3146 151.215 66.5541 151.202 66.807C153.049 65.2766 154.675 63.0541 155.858 60.4724C156.886 58.21 157.458 55.921 157.588 53.8184C157.393 53.9647 157.211 54.1111 157.029 54.2841Z" fill="#161E26"/>
<path d="M159.983 52.3535C159.762 52.4467 159.54 52.5398 159.319 52.6596C159.671 55.228 159.15 58.4486 157.706 61.6159C156.106 65.1292 153.7 67.7775 151.307 69.0285C151.333 69.2813 151.372 69.5209 151.424 69.7604C154.051 68.4828 156.653 65.6615 158.357 61.922C159.553 59.3136 160.126 56.6653 160.126 54.3231C160.126 53.6311 160.074 52.979 159.983 52.3535Z" fill="#2C3C4C"/>
<path d="M162.037 51.9948C162.037 51.9948 161.907 51.9814 161.842 51.9814C161.608 51.9814 161.361 51.9948 161.113 52.048C162.193 54.7628 161.868 58.9149 160.021 62.9739C158.005 67.3788 154.74 70.4397 151.813 71.0252C151.943 71.318 152.099 71.5975 152.255 71.8503C155.403 71.0651 158.785 67.9111 160.853 63.3731C162.05 60.7514 162.622 58.0898 162.622 55.721C162.622 54.3503 162.427 53.086 162.037 51.9948Z" fill="#435971"/>
<path d="M164.352 52.8861C164.105 52.6732 163.845 52.5002 163.546 52.3538C163.26 52.2207 162.974 52.1276 162.661 52.061C164.574 54.5363 164.548 59.5002 162.336 64.331C159.969 69.5078 155.897 72.8215 152.685 72.409C153.049 72.8215 153.465 73.1409 153.946 73.3672C154.011 73.3938 154.089 73.4337 154.154 73.4603C157.484 72.9147 161.153 69.6276 163.338 64.8101C164.548 62.1884 165.12 59.5002 165.12 57.1314C165.12 55.5477 164.86 54.0972 164.352 52.8861Z" fill="#597797"/>
<path d="M118.995 118.774C118.942 118.894 118.89 119.014 118.838 119.134C119.086 118.695 119.32 118.242 119.528 117.776C119.58 117.67 119.619 117.577 119.658 117.47C119.411 117.896 119.203 118.322 118.995 118.774ZM119.333 104.269C119.138 104.242 118.942 104.215 118.734 104.202C118.969 104.362 119.177 104.575 119.359 104.814C119.541 104.868 119.723 104.921 119.905 104.987C119.736 104.721 119.541 104.482 119.333 104.269Z" fill="black"/>
<path d="M123.209 112.946C123.04 114.902 122.468 116.978 121.557 118.987C120.478 121.356 119.008 123.392 117.356 124.869C117.33 125.122 117.317 125.362 117.317 125.601C119.19 124.058 120.829 121.822 122.026 119.214C123.053 116.978 123.652 114.649 123.769 112.48C123.587 112.613 123.391 112.759 123.209 112.946ZM119.333 104.269C119.138 104.242 118.943 104.215 118.735 104.202C118.969 104.362 119.177 104.575 119.359 104.814C119.541 104.868 119.723 104.921 119.905 104.987C119.736 104.721 119.541 104.482 119.333 104.269Z" fill="#161E26"/>
<path d="M126.228 111.709C126.215 111.509 126.189 111.296 126.15 111.11C125.929 111.19 125.708 111.283 125.474 111.403C125.5 111.522 125.513 111.655 125.526 111.775C125.786 114.397 125.2 117.444 123.874 120.359C122.547 123.26 120.635 125.682 118.502 127.146C118.15 127.386 117.799 127.598 117.461 127.785C117.487 128.038 117.539 128.291 117.604 128.53C118.033 128.317 118.463 128.051 118.905 127.758C121.142 126.214 123.132 123.686 124.524 120.665C125.903 117.644 126.514 114.45 126.228 111.709Z" fill="#2C3C4C"/>
<path d="M128.738 113.091C128.647 112.24 128.491 111.454 128.23 110.749C128.165 110.736 128.087 110.736 128.022 110.736C127.775 110.736 127.528 110.762 127.281 110.802C127.554 111.494 127.736 112.306 127.827 113.198C128.087 115.793 127.515 118.827 126.188 121.715C124.172 126.12 120.92 129.181 118.006 129.766C118.123 130.072 118.267 130.339 118.436 130.591C121.57 129.806 124.952 126.626 127.008 122.114C128.399 119.067 129.011 115.873 128.738 113.091Z" fill="#435971"/>
<path d="M131.235 114.49C131.131 113.439 130.91 112.494 130.559 111.682C130.298 111.442 130.012 111.243 129.7 111.096C129.414 110.963 129.115 110.87 128.803 110.817C129.518 111.735 129.986 113.026 130.142 114.61C130.403 117.191 129.817 120.199 128.503 123.074C127.19 125.948 125.304 128.33 123.209 129.794C121.674 130.845 120.179 131.311 118.865 131.138C119.203 131.551 119.632 131.883 120.113 132.11C120.205 132.15 120.309 132.19 120.4 132.216C121.505 132.03 122.663 131.524 123.821 130.726C126.097 129.155 128.113 126.614 129.505 123.553C130.91 120.492 131.521 117.285 131.235 114.49Z" fill="#597797"/>
<path d="M65.677 60.2316C65.4559 59.7658 65.2218 59.3 64.9746 58.8608C65.0266 58.9806 65.0787 59.1004 65.1307 59.2202C65.3518 59.6992 65.586 60.165 65.8461 60.6175C65.7941 60.4844 65.7291 60.3646 65.677 60.2316Z" fill="black"/>
<path d="M67.3149 66.327C65.65 64.8498 64.1931 62.8137 63.1135 60.4449C62.1899 58.4221 61.6176 56.346 61.4485 54.3764C61.2664 54.2034 61.0843 54.057 60.8892 53.9106C61.0062 56.0799 61.6046 58.4221 62.6322 60.6711C63.8289 63.2795 65.4809 65.5019 67.354 67.059C67.354 66.8194 67.341 66.5799 67.3149 66.327Z" fill="#161E26"/>
<path d="M66.1573 68.6022C64.024 67.125 62.1249 64.7163 60.7981 61.8018C59.4583 58.9007 58.873 55.8531 59.1461 53.2314C59.1592 53.0984 59.1722 52.9786 59.1982 52.8455C58.964 52.7257 58.7429 52.6326 58.5088 52.5527C58.4828 52.739 58.4567 52.952 58.4307 53.1516C58.1576 55.9064 58.7559 59.087 60.1477 62.1212C61.5266 65.1421 63.5167 67.6573 65.767 69.2011C66.2093 69.5071 66.6516 69.7733 67.0938 69.9862C67.1459 69.7467 67.1979 69.5071 67.2239 69.2543C66.8727 69.068 66.5215 68.8551 66.1573 68.6022Z" fill="#2C3C4C"/>
<path d="M58.4706 63.1726C57.1568 60.2715 56.5715 57.2505 56.8316 54.6422C56.9227 53.7505 57.1178 52.9387 57.3909 52.2467C57.1308 52.2068 56.8836 52.1802 56.6365 52.1802C56.5715 52.1802 56.5064 52.1802 56.4414 52.1935C56.1812 52.8988 56.0121 53.684 55.9211 54.549C55.6479 57.3171 56.2593 60.5243 57.6511 63.5585C59.7193 68.0966 63.1013 71.2639 66.2492 72.049C66.4053 71.7962 66.5613 71.5167 66.6914 71.2239C63.7647 70.6517 60.4868 67.5776 58.4706 63.1726Z" fill="#435971"/>
<path d="M56.1546 64.5298C54.8408 61.6552 54.2555 58.6476 54.5287 56.0659C54.6847 54.4822 55.14 53.178 55.8684 52.2598C55.5563 52.313 55.2441 52.4195 54.9579 52.5525C54.6457 52.6989 54.3465 52.8986 54.0864 53.1381C53.7482 53.9632 53.5271 54.9081 53.423 55.9461C53.1368 58.7275 53.7612 61.948 55.153 65.0088C57.3513 69.7997 61.0065 73.1001 64.3234 73.6591C64.4015 73.6324 64.4795 73.6058 64.5576 73.5659C65.0388 73.3397 65.4681 73.007 65.8323 72.5944C62.6194 73.0203 58.522 69.7199 56.1546 64.5298Z" fill="#597797"/>
<path d="M119.332 104.268C119.137 104.241 118.942 104.215 118.734 104.201C118.968 104.361 119.176 104.574 119.358 104.814C119.541 104.867 119.723 104.92 119.905 104.987C119.736 104.72 119.541 104.481 119.332 104.268ZM112.816 95.7908C88.2051 99.7965 64.219 101.633 44.8115 101.021C45.0457 102.884 45.5269 104.681 46.2033 106.397C48.2065 106.437 50.2617 106.464 52.356 106.464C70.5407 106.464 91.8732 104.587 113.622 101.047C120.62 99.9163 127.553 98.6254 134.317 97.1881C134.252 95.4847 134.525 93.555 135.163 91.5854C127.891 93.1425 120.373 94.5664 112.816 95.7908ZM159.981 52.3401C159.981 52.3401 160.046 52.3401 160.085 52.3135C160.046 52.3135 160.02 52.3268 159.981 52.3401ZM153.53 87.1672C152.138 87.5398 151.305 89.0037 151.669 90.4143C151.969 91.6121 153.022 92.4105 154.18 92.4105C154.401 92.4105 154.622 92.3839 154.843 92.3307C159.227 91.1596 166.394 89.1368 174.355 86.4352V80.8858C168.267 82.9751 161.347 85.0778 153.53 87.1672Z" fill="#6F95BD"/>
<path d="M153.529 87.1675C161.347 85.0781 168.267 82.9755 174.354 80.8861V46.9906C174.354 39.3385 170.348 32.2852 163.844 28.4925L119.787 2.79468C113.4 -0.931561 105.57 -0.931561 99.183 2.79468L55.1261 28.4925C48.6353 32.2852 44.6289 39.3385 44.6289 46.9906V98.2398C44.6289 99.1713 44.6939 100.103 44.811 101.021C64.2184 101.633 88.2046 99.7968 112.815 95.7911C120.373 94.5668 127.891 93.1428 135.162 91.5858C135.396 90.8538 135.67 90.1219 136.008 89.3899C138.739 83.4013 143.812 79.9013 147.324 81.5781C150.823 83.2683 151.461 89.4831 148.716 95.4717C145.985 101.46 140.912 104.96 137.4 103.284C135.474 102.365 134.421 100.076 134.317 97.1884C127.553 98.6257 120.62 99.9166 113.622 101.048C91.8727 104.588 70.5402 106.464 52.3555 106.464C50.2612 106.464 48.206 106.438 46.2028 106.398C47.9329 110.643 50.9897 114.276 55.009 116.671L99.053 142.768C105.505 146.588 113.465 146.588 119.917 142.768L163.974 116.671C170.4 112.852 174.354 105.839 174.354 98.2398V86.4356C166.394 89.1371 159.226 91.1599 154.843 92.331C154.622 92.3842 154.401 92.4109 154.179 92.4109C153.022 92.4109 151.968 91.6124 151.669 90.4147C151.305 89.004 152.137 87.5401 153.529 87.1675ZM67.2232 69.2549C67.1972 69.5078 67.1452 69.7473 67.0931 69.9869C66.9891 70.426 66.846 70.8386 66.6899 71.2245C66.5598 71.5173 66.4037 71.7967 66.2476 72.0496C66.1176 72.2492 65.9745 72.4355 65.8314 72.5952C65.4672 73.0078 65.0379 73.3405 64.5566 73.5667C64.4786 73.6066 64.4006 73.6332 64.3225 73.6599C62.8396 74.2587 60.9925 73.8728 59.1064 72.5686C57.0122 71.118 55.1391 68.7492 53.8383 65.888C52.5246 63.0268 51.9522 60.0458 52.2124 57.4773C52.4075 55.5343 53.0579 54.0439 54.0855 53.1389C54.3456 52.8994 54.6448 52.6997 54.957 52.5534C55.2432 52.4203 55.5553 52.3138 55.8675 52.2606C56.0496 52.2207 56.2447 52.194 56.4399 52.194C56.5049 52.1807 56.5699 52.1807 56.635 52.1807C56.8821 52.1807 57.1293 52.2073 57.3894 52.2473C57.7536 52.3005 58.1309 52.407 58.5081 52.5534C58.7422 52.6332 58.9633 52.7264 59.1975 52.8461C59.6007 53.0324 60.004 53.272 60.4072 53.5515C60.5763 53.6712 60.7324 53.791 60.8885 53.9108C61.0836 54.0572 61.2657 54.2035 61.4478 54.3766C62.7746 55.5344 63.9973 57.0781 64.9729 58.8614C65.22 59.3005 65.4542 59.7663 65.6753 60.2321C65.7273 60.3652 65.7924 60.4849 65.8444 60.618C66.6899 62.5743 67.1712 64.5306 67.3143 66.3272C67.3403 66.58 67.3533 66.8195 67.3533 67.0591C67.3923 67.831 67.3403 68.5762 67.2232 69.2549ZM109.368 41.2682C102.903 41.2682 97.6611 37.8081 97.6611 33.5495C97.6611 29.2909 102.903 25.8309 109.368 25.8309C115.833 25.8309 121.075 29.2776 121.075 33.5495C121.075 37.8214 115.833 41.2682 109.368 41.2682ZM97.7392 132.721C94.2271 134.398 89.1671 130.898 86.4225 124.909C83.6909 118.92 84.3153 112.692 87.8273 111.015C91.3264 109.339 96.3994 112.839 99.131 118.827C101.876 124.816 101.251 131.044 97.7392 132.721ZM119.332 104.268C119.54 104.481 119.735 104.721 119.904 104.987C119.722 104.92 119.54 104.867 119.358 104.814C119.176 104.574 118.968 104.361 118.734 104.202C118.942 104.215 119.137 104.242 119.332 104.268ZM130.818 124.43C128.255 130.059 123.637 133.466 120.399 132.215C120.307 132.189 120.203 132.149 120.112 132.109C119.631 131.882 119.202 131.55 118.864 131.137C118.695 130.964 118.564 130.791 118.434 130.592C118.265 130.339 118.122 130.073 118.005 129.766C117.836 129.394 117.693 128.981 117.602 128.529C117.537 128.289 117.485 128.036 117.459 127.784C117.407 127.597 117.394 127.398 117.368 127.198C117.316 126.679 117.303 126.147 117.316 125.601C117.316 125.362 117.329 125.122 117.355 124.869C117.485 123.019 117.992 121.05 118.838 119.133C118.89 119.014 118.942 118.894 118.994 118.774C119.202 118.322 119.41 117.896 119.657 117.47C120.633 115.66 121.855 114.09 123.208 112.945C123.39 112.759 123.585 112.612 123.768 112.479C123.937 112.346 124.093 112.226 124.262 112.107C124.665 111.827 125.081 111.588 125.472 111.401C125.706 111.282 125.927 111.188 126.148 111.109C126.538 110.962 126.915 110.856 127.28 110.803C127.527 110.763 127.774 110.736 128.021 110.736C128.086 110.736 128.164 110.736 128.229 110.749C128.424 110.749 128.619 110.776 128.801 110.816C129.114 110.869 129.413 110.962 129.699 111.095C130.011 111.242 130.297 111.441 130.558 111.681C131.585 112.573 132.249 114.076 132.444 116.019C132.704 118.588 132.131 121.582 130.818 124.43ZM151.591 70.4127C151.526 70.1998 151.461 69.9869 151.422 69.7606C151.37 69.5211 151.331 69.2815 151.305 69.0287C151.201 68.3234 151.175 67.5781 151.201 66.8062C151.214 66.5534 151.227 66.3138 151.253 66.061C151.422 64.1579 151.968 62.1085 152.892 60.0857C153.984 57.7036 155.441 55.7074 157.028 54.2834C157.21 54.1104 157.392 53.964 157.587 53.8176C158.147 53.3518 158.732 52.9659 159.317 52.6598C159.539 52.54 159.76 52.4469 159.981 52.3537C159.981 52.3537 160.046 52.3138 160.085 52.3138C160.111 52.3005 160.15 52.2739 160.189 52.2739C160.501 52.1541 160.813 52.0876 161.113 52.0477C161.36 51.9944 161.607 51.9811 161.841 51.9811C161.906 51.9811 161.971 51.9811 162.036 51.9944C162.257 51.9944 162.465 52.021 162.66 52.061C162.973 52.1275 163.259 52.2207 163.545 52.3537C163.844 52.5001 164.104 52.6731 164.351 52.8861C166.875 54.9887 167.07 60.4184 164.664 65.6884C162.062 71.3709 157.405 74.7911 154.153 73.4603C154.088 73.4336 154.01 73.3937 153.945 73.3671C153.464 73.1409 153.048 72.8215 152.684 72.4089C152.527 72.2359 152.397 72.0496 152.254 71.85C152.098 71.5971 151.942 71.3177 151.812 71.0249C151.734 70.8253 151.656 70.6256 151.591 70.4127Z" fill="#6F95BD"/>
<path d="M26.4067 72.9153C25.4051 72.9153 24.4555 72.3297 24.0263 71.3316C23.4409 69.9875 24.0263 68.4172 25.34 67.8183C25.9644 67.5388 26.5888 67.2594 27.2262 66.9799C28.5399 66.3944 30.0748 67.0198 30.6472 68.3772C31.2195 69.7347 30.6081 71.2917 29.2814 71.8772C28.67 72.1567 28.0586 72.4229 27.4603 72.7024C27.1221 72.862 26.7579 72.9286 26.4067 72.9286V72.9153Z" fill="white"/>
<path d="M31.9737 105.52C31.8827 105.52 31.8046 105.52 31.7136 105.52C12.3712 103.523 1.96506 98.6793 0.781367 91.1204C-0.129169 85.2382 4.85276 79.0766 15.5971 72.8219C16.8458 72.0899 18.4328 72.5424 19.1482 73.82C19.8636 75.0975 19.4213 76.7211 18.1726 77.453C9.87372 82.2839 5.39909 86.9683 5.91939 90.282C6.46571 93.8219 13.672 98.2934 32.2339 100.21C33.6647 100.356 34.7053 101.66 34.5623 103.124C34.4322 104.495 33.3005 105.52 31.9737 105.52Z" fill="white"/>
<path d="M138.232 96.3497C136.932 96.6425 135.631 96.9219 134.317 97.1881C127.553 98.6254 120.62 99.9163 113.622 101.047C91.8731 104.587 70.5406 106.464 52.3559 106.464C50.2616 106.464 48.2064 106.437 46.2032 106.397C44.6423 106.344 43.0944 106.291 41.5855 106.224C40.1547 106.158 39.049 104.907 39.1141 103.443C39.1661 101.979 40.4408 100.861 41.8196 100.901C42.8082 100.941 43.7968 100.981 44.8114 101.021C64.2188 101.633 88.205 99.7965 112.815 95.7908C120.373 94.5664 127.891 93.1425 135.163 91.5854C135.826 91.439 136.489 91.2927 137.14 91.1463C138.532 90.8535 139.923 91.7584 140.223 93.1957C140.535 94.633 139.637 96.0436 138.232 96.3497Z" fill="white"/>
<path d="M174.355 86.4357C166.395 89.1373 159.227 91.1601 154.844 92.3312C154.623 92.3844 154.402 92.411 154.18 92.411C153.023 92.411 151.969 91.6126 151.67 90.4148C151.306 89.0042 152.138 87.5403 153.53 87.1677C161.348 85.0783 168.268 82.9756 174.355 80.8863C203.336 70.9186 213.482 61.3501 212.754 56.6391C212.143 52.6467 203.571 47.8292 181.366 46.2588C179.923 46.1657 178.843 44.8881 178.947 43.4242C179.038 41.9603 180.274 40.8691 181.718 40.9489C204.442 42.5459 216.617 47.5497 217.892 55.8007C219.856 68.4034 194.543 79.5954 174.355 86.4357Z" fill="white"/>
</svg>
