<svg width="299" height="162" viewBox="0 0 299 162" fill="none" xmlns="http://www.w3.org/2000/svg">
<path d="M154.12 143.493C154.12 153.704 119.283 162 76.305 162C62.9367 162 50.3665 161.203 39.3726 159.787C38.3949 159.667 37.4371 159.527 36.4994 159.408C32.0699 158.77 27.9397 158.032 24.1287 157.234C23.4304 157.074 22.752 156.915 22.0736 156.755C21.1558 156.396 20.2779 155.997 19.4598 155.579C15.609 153.564 12.6759 150.852 10.8801 147.402L6.15136 140.94C6.15136 140.94 6.15138 140.92 6.11147 140.92C4.95422 139.764 3.99648 138.507 3.23828 137.091C3.27819 137.091 3.31809 137.051 3.35799 137.012C10.1419 132.684 23.59 129.114 40.7493 127.02C49.1893 125.983 58.5272 125.305 68.4037 125.066C70.9976 125.006 73.6313 124.966 76.305 124.966C87.9374 124.966 98.9712 125.564 108.868 126.661C111.861 126.98 114.734 127.359 117.487 127.778C121.817 128.416 125.847 129.154 129.539 129.972C129.658 130.011 129.758 130.031 129.858 130.051C144.803 133.422 154.12 138.208 154.12 143.493Z" fill="black"/>
<path d="M216.533 151.23C261.735 151.23 298.379 143.248 298.379 133.401C298.379 123.554 261.735 115.572 216.533 115.572C171.331 115.572 134.687 123.554 134.687 133.401C134.687 143.248 171.331 151.23 216.533 151.23Z" fill="black"/>
<path d="M186.006 65.2948C186.006 65.6139 186.006 65.9529 186.006 66.272V66.5512C185.866 69.1239 185.287 71.8761 184.33 74.728C184.09 75.3861 183.851 76.0642 183.571 76.7422C180.379 84.6796 174.253 93.355 165.714 102.09C159.987 107.993 153.163 113.877 145.462 119.58C140.613 123.17 135.406 126.68 129.879 130.051C129.22 130.449 128.562 130.848 127.903 131.247C125.988 132.404 124.033 133.521 122.057 134.657C121.179 135.156 120.281 135.615 119.404 136.113C118.346 136.692 117.289 137.23 116.231 137.808C102.464 145.028 88.7562 150.512 75.9665 154.202C63.1769 157.891 51.305 159.786 41.189 159.806C40.5904 159.806 39.9919 159.806 39.3933 159.786C32.7091 159.646 26.843 158.649 22.0943 156.754C21.1765 156.395 20.2986 155.997 19.4805 155.578C15.6296 153.564 12.6966 150.851 10.9009 147.401L6.1721 140.939C6.1721 140.939 6.17206 140.92 6.13215 140.92C4.9749 139.763 4.01723 138.506 3.25902 137.09C3.19917 136.991 3.13925 136.891 3.0794 136.771C1.84233 134.398 1.18389 131.806 1.08413 128.994C1.04422 128.375 1.04422 127.757 1.08413 127.119C1.36347 120.717 4.2766 113.418 9.42439 105.78C19.9395 90.0843 39.7724 72.8932 65.1322 58.7136H65.1522C67.0278 57.6566 68.9432 56.6195 70.8786 55.6024C97.2361 41.8017 123.394 34.303 143.267 33.6449C157.194 33.1862 168.068 36.0979 173.775 42.5396C174.752 43.5966 175.55 44.7533 176.209 46.0097L176.568 46.5083L180.958 52.4913C181.337 52.8702 181.676 53.2491 181.995 53.648L182.075 53.7477L183.152 55.2036L183.372 55.5226C183.591 55.8816 183.811 56.2605 184.01 56.6395H184.03C184.349 57.2776 184.629 57.9158 184.868 58.554C185.666 60.6481 186.045 62.9017 186.045 65.2948H186.006Z" fill="#6F95BD"/>
<path d="M100.599 111.996C132.414 95.202 153.098 71.9235 146.799 60.0024C140.5 48.0813 109.603 52.0318 77.7888 68.8261C45.9743 85.6204 25.2899 108.899 31.5888 120.82C37.8877 132.741 68.7847 128.791 100.599 111.996Z" fill="black"/>
<path d="M38.1367 126.881C37.8175 126.881 37.5182 126.881 37.2189 126.881L34.645 124.029C46.6366 124.467 76.7253 116.869 94.104 105.422C110.545 94.5925 115.214 85.1992 114.236 80.4527C113.857 78.6778 112.66 77.5211 110.844 77.202C101.087 75.5268 87.5994 82.7063 84.0479 85.3787C79.4588 88.8289 77.7627 91.96 78.4611 93.2962C78.7604 93.8546 80.0174 94.054 81.7533 93.7948C83.5291 93.5355 85.6441 92.8375 87.2802 91.9799C90.2132 90.4443 90.8517 89.1879 90.8517 88.9486C90.6722 88.9087 89.1158 88.809 86.3823 90.2449L85.4645 88.4899C87.0607 87.6523 88.5572 87.1337 89.7943 87.0141C91.6898 86.8545 92.408 87.6124 92.6475 88.091C92.9069 88.5696 93.1463 89.6067 91.8893 91.0426C91.0912 91.96 89.8142 92.8774 88.218 93.7349C86.3823 94.6922 84.0279 95.47 82.0326 95.7492C78.5609 96.2677 77.2041 95.1708 76.6853 94.1936C75.3285 91.5811 77.6231 87.6921 82.8507 83.7633C86.7415 80.8516 100.649 73.3929 111.184 75.2276C113.817 75.6863 115.633 77.4413 116.192 80.034C117.369 85.6579 112.46 95.7093 95.2014 107.077C77.663 118.624 51.086 126.881 38.1567 126.881H38.1367Z" fill="#6F95BD"/>
<path d="M33.3276 149.974C23.2316 149.974 14.8116 148.1 8.90556 144.211C7.64855 143.413 6.45137 142.436 5.39387 141.359C4.05704 140.003 2.99956 138.567 2.16155 136.971C-3.06605 127.04 1.26369 112.94 14.3327 97.2645C27.2221 81.8285 47.1149 66.6317 70.3598 54.4663C93.5847 42.281 117.408 34.5829 137.441 32.7482C157.773 30.9134 171.819 35.3608 177.047 45.2925C177.745 46.6287 178.244 47.9449 178.543 49.3011C183.95 70.381 153.981 104.145 108.849 127.798C81.3936 142.197 53.8789 149.955 33.3276 149.955V149.974ZM146.14 34.3436C143.446 34.3436 140.613 34.4832 137.64 34.7425C117.867 36.5374 94.323 44.1756 71.3175 56.2413C48.3121 68.3069 28.6188 83.3242 15.909 98.5608C3.37869 113.558 -0.851317 126.88 3.95728 136.054C4.69553 137.49 5.63331 138.766 6.83047 139.963C7.7882 140.94 8.84568 141.798 10.0029 142.536C27.0824 153.784 68.2648 146.843 107.931 126.043C151.547 103.168 181.716 69.683 176.628 49.7797C176.348 48.5632 175.909 47.4264 175.291 46.2298C171.221 38.452 160.985 34.3436 146.14 34.3436Z" fill="black"/>
<path d="M49.0702 128.914C39.8321 128.914 33.0881 126.401 30.3546 121.196C23.6306 108.373 44.2018 84.7798 77.2035 67.489C92.7866 59.3123 108.669 53.9476 121.917 52.3322C135.485 50.6968 144.763 53.2495 148.055 59.5117C151.348 65.7739 148.155 74.8481 139.097 85.0789C130.258 95.0505 116.79 105.062 101.207 113.219C81.5931 123.51 62.6381 128.914 49.0702 128.914ZM129.36 53.8478C127.125 53.8478 124.711 54.0074 122.157 54.3065C109.148 55.882 93.5248 61.1869 78.1413 69.244C46.6759 85.7371 26.0248 108.632 32.1304 120.259C38.2359 131.886 68.8034 127.937 100.269 111.444C115.652 103.387 128.901 93.5548 137.58 83.7427C145.94 74.3295 149.093 65.8138 146.26 60.4291C144.005 56.1413 137.979 53.8478 129.34 53.8478H129.36Z" fill="black"/>
<path d="M40.91 160.524C31.9313 160.524 24.5488 159.068 19.002 156.176C14.8917 154.042 11.8589 151.151 9.98337 147.581L5.31445 141.219L6.83082 139.943C7.76859 140.9 8.82612 141.777 9.98337 142.515C12.4575 144.131 15.4105 145.387 18.8024 146.265C23.3716 147.461 28.7788 148 34.8444 147.88C55.5353 147.501 82.1722 139.544 107.931 126.022L108.19 125.883C108.41 125.763 108.649 125.643 108.869 125.504L109.148 125.344H109.208C110.006 124.925 110.784 124.506 111.562 124.068L112.52 123.529C113.039 123.25 113.558 122.951 114.076 122.672C122.856 117.746 131.076 112.401 138.499 106.777C150.789 97.5033 160.865 87.5716 167.629 78.0986C168.926 76.2837 170.124 74.429 171.201 72.6142C172.398 70.6199 173.436 68.5657 174.334 66.5116L174.633 65.8135C175.072 64.7167 175.471 63.5998 175.83 62.483C177.287 57.7764 177.546 53.4886 176.588 49.7592C176.329 48.5427 175.89 47.4059 175.251 46.2093L176.927 45.1523L184.749 55.7821C185.168 56.5798 185.467 57.2379 185.727 57.916C186.684 60.4687 187.103 63.2807 186.944 66.3121C186.804 68.9446 186.225 71.7965 185.208 74.7681L185.068 75.147C184.869 75.7054 184.669 76.2638 184.43 76.8421C181.237 84.8194 174.992 93.6942 166.353 102.509C160.706 108.313 153.982 114.136 146.38 119.8L146.001 120.099C140.474 124.167 134.528 128.116 128.363 131.826C126.427 132.982 124.472 134.099 122.477 135.236C121.958 135.535 121.439 135.814 120.9 136.113L119.823 136.712C119.105 137.111 118.386 137.49 117.668 137.868L116.63 138.427C89.8739 152.447 62.3591 160.504 41.1295 160.524H40.8701H40.91ZM10.7815 145.307L11.6993 146.544C13.4551 149.874 16.1886 152.487 19.9397 154.421C25.2072 157.154 32.2705 158.53 40.9299 158.53H41.1893C62.0997 158.51 89.2952 150.532 115.772 136.652L116.81 136.093C117.528 135.715 118.227 135.336 118.945 134.957L120.042 134.358C120.561 134.079 121.08 133.8 121.579 133.501C123.554 132.384 125.509 131.267 127.425 130.111C133.411 126.521 139.157 122.712 144.544 118.763L144.883 118.484C152.565 112.78 159.349 106.936 164.996 101.113C173.436 92.4776 179.541 83.8223 182.654 76.1042C182.873 75.5458 183.073 75.0074 183.272 74.4888L183.412 74.1299C184.35 71.3378 184.908 68.6654 185.028 66.2324C185.168 63.4802 184.809 60.9274 183.951 58.6539C183.711 58.0357 183.452 57.4573 183.153 56.859L179.003 51.235C179.541 54.8248 179.142 58.8135 177.825 63.0813C177.466 64.238 177.047 65.4147 176.568 66.5913L176.249 67.3093C175.331 69.4432 174.234 71.5771 173.017 73.6313C171.919 75.5059 170.682 77.4005 169.345 79.2752C162.462 88.9078 152.226 98.9791 139.796 108.372C132.293 114.036 123.993 119.441 115.154 124.407C114.635 124.706 114.116 124.985 113.578 125.284L112.62 125.823C111.742 126.301 110.864 126.78 109.966 127.259L109.727 127.378C109.547 127.478 109.368 127.578 109.188 127.657L108.929 127.797C82.8905 141.458 55.9344 149.495 34.9441 149.874C28.7189 149.974 23.1322 149.435 18.3635 148.199C15.59 147.481 13.0561 146.504 10.8214 145.287L10.7815 145.307Z" fill="black"/>
<path d="M33.3273 149.974C23.2313 149.974 14.8113 148.1 8.90527 144.211L10.0026 142.555C27.0622 153.803 68.2446 146.863 107.93 126.062C151.547 103.187 181.715 69.7027 176.628 49.7994L178.563 49.3008C183.97 70.4007 154.001 104.165 108.868 127.817C81.4133 142.216 53.8986 149.974 33.3473 149.974H33.3273Z" fill="black"/>
<path d="M183.172 56.9792L180.12 52.831L181.636 51.5347C182.973 52.8908 184.03 54.3267 184.868 55.9222L183.172 56.9792Z" fill="black"/>
<path d="M30.2991 121.001L2.61182 135.604L3.543 137.368L31.2303 122.765L30.2991 121.001Z" fill="black"/>
<path d="M121.199 134.956L113.777 124.107L103.062 110.466L104.638 109.229L115.373 122.93L122.855 133.819L121.199 134.956Z" fill="black"/>
<path d="M40.3116 160.046L33.6274 148.778L54.1189 126.76L55.5754 128.116L36.1016 149.037L42.0276 159.028L40.3116 160.046Z" fill="black"/>
<path d="M36.1418 100.19L8.98926 104.878L9.32887 106.843L36.4814 102.155L36.1418 100.19Z" fill="black"/>
<path d="M65.7986 57.9734L64.1499 59.0967L72.4886 71.3241L74.1373 70.2008L65.7986 57.9734Z" fill="black"/>
<path d="M142.714 32.7396L125.683 52.2944L127.188 53.6039L144.219 34.049L142.714 32.7396Z" fill="black"/>
<path d="M173.419 41.5337L144.965 56.9883L145.918 58.7406L174.372 43.286L173.419 41.5337Z" fill="black"/>
<path d="M182.773 77.1417L174.912 68.0077L146.44 73.9109L146.041 71.9764L175.65 65.814L184.29 75.8255L182.773 77.1417Z" fill="black"/>
<path d="M283.055 37.194C281.758 43.3764 278.885 50.217 274.655 57.4165C266.075 72.0747 251.789 88.2687 233.512 103.047C231.856 104.423 230.16 105.739 228.424 107.055C216.393 116.269 204.122 123.807 192.45 129.471C180.757 135.135 169.644 138.924 159.947 140.6C155.777 141.338 151.866 141.677 148.275 141.597C146.12 141.557 144.065 141.358 142.169 141.019C138.558 140.4 135.445 139.244 132.871 137.508C131.295 136.451 129.898 135.175 128.741 133.679L123.114 128.235L122.955 128.055H122.915C122.915 128.055 122.895 128.055 122.895 128.035C121.598 127.098 120.48 126.021 119.503 124.745C117.069 121.554 115.871 117.665 115.792 113.178C115.672 107.614 117.228 101.212 120.321 94.2516C121.239 92.1376 122.316 89.9638 123.533 87.7501C129.08 77.6389 137.38 66.7499 147.955 56.0205C148.294 55.6615 148.654 55.2825 149.033 54.9236C154.22 49.7184 159.947 44.5531 166.132 39.5474C167.649 38.3109 169.165 37.1143 170.721 35.9177C170.881 35.7781 171.041 35.6584 171.22 35.5388C194.345 17.8292 218.328 6.28207 237.403 2.41308C250.732 -0.279255 261.646 0.757774 268.17 6.10256C269.188 6.94017 270.106 7.87751 270.904 8.91456L276.53 14.3391L276.61 14.3989L280.142 17.8093C283.893 22.7153 284.731 29.3962 283.035 37.194H283.055Z" fill="#6F95BD"/>
<path d="M280.142 17.8092L276.61 14.3989C277.967 15.3562 279.144 16.493 280.142 17.8092Z" fill="#6F95BD"/>
<path d="M209.753 85.54C237.564 64.2487 253.46 38.3123 245.259 27.6095C237.057 16.9067 207.863 25.4904 180.053 46.7817C152.242 68.073 136.345 94.0093 144.547 104.712C152.749 115.415 181.942 106.831 209.753 85.54Z" fill="black"/>
<path d="M172.396 83.5431C172.396 83.5431 172.236 83.5431 172.157 83.5431C169.543 83.5032 167.508 82.0873 166.59 79.6542C164.595 74.4091 167.767 63.9589 182.672 50.3576C198.235 36.1381 223.994 23.4143 235.746 21.9385L239.297 24.0923C227.825 25.5283 199.332 37.8532 184.009 51.8134C169.842 64.7566 166.769 74.5088 168.445 78.9163C169.064 80.5716 170.401 81.489 172.177 81.5089C172.256 81.5089 172.316 81.5089 172.396 81.5089C182.013 81.5089 193.745 72.6342 196.718 69.543C200.589 65.5344 201.746 62.2637 200.888 61.107C200.529 60.6084 199.292 60.6283 197.676 61.1269C196.04 61.6454 194.045 62.6625 192.628 63.7195C190.054 65.6341 189.635 66.9304 189.675 67.1498C189.775 67.1099 191.171 67.1099 193.745 65.1953L194.943 66.7908C193.526 67.8478 192.149 68.5657 190.992 68.8649C189.176 69.3236 188.358 68.6854 188.039 68.2467C187.72 67.8079 187.321 66.8506 188.318 65.2552C188.937 64.258 190.034 63.1611 191.451 62.1041C193.067 60.9075 195.222 59.7907 197.097 59.2124C200.39 58.1953 201.846 59.0329 202.505 59.9104C204.221 62.2238 202.604 66.3321 198.155 70.939C194.883 74.3294 182.771 83.5032 172.396 83.5032V83.5431Z" fill="#6F95BD"/>
<path d="M139.974 133.68C137.26 133.68 134.846 133.481 132.611 133.062C130.417 132.663 128.381 132.065 126.546 131.307L126.346 131.227C124.95 130.629 123.653 129.911 122.515 129.073H122.475L122.176 128.794C120.859 127.837 119.722 126.72 118.665 125.384L118.445 125.085C116.071 121.834 114.834 117.845 114.754 113.219C114.614 107.575 116.17 101.073 119.363 93.8736C120.34 91.6599 121.438 89.4462 122.635 87.2923C128.282 77.0016 136.782 65.9531 147.217 55.3433C147.596 54.9444 147.955 54.5655 148.354 54.2065C153.622 48.9216 159.388 43.7164 165.493 38.7904L165.793 38.571C167.209 37.4143 168.646 36.2775 170.122 35.1408L170.581 34.7818C192.968 17.6506 217.251 5.50512 237.203 1.45665C251.27 -1.39523 262.204 -0.0390695 268.788 5.3456C269.866 6.20316 270.844 7.2003 271.682 8.31712C272.599 9.5536 273.298 10.7302 273.797 11.9268C275.932 16.7132 276.171 22.6563 274.515 29.6165L272.579 29.1578C274.136 22.6364 273.936 17.1121 271.981 12.7246C271.542 11.6676 270.923 10.6305 270.105 9.53366C269.367 8.55644 268.489 7.67896 267.551 6.90117C261.426 1.89542 251.07 0.678884 237.602 3.41111C217.929 7.39975 193.946 19.4056 171.818 36.3374L171.36 36.6963C169.763 37.9129 168.267 39.0895 166.77 40.326L166.471 40.5454C160.525 45.3716 154.899 50.4372 149.731 55.6424C149.332 56.0014 149.032 56.3205 148.713 56.6595C138.338 67.1895 129.958 78.0985 124.411 88.2296C123.254 90.3237 122.176 92.4975 121.218 94.6514C118.146 101.592 116.669 107.794 116.789 113.139C116.869 117.506 118.046 121.196 120.281 124.127L120.5 124.427C121.318 125.444 122.216 126.301 123.234 127.059H123.293L123.892 127.538C124.77 128.196 125.828 128.794 126.965 129.293L127.184 129.373C128.92 130.13 130.856 130.689 132.991 131.088C135.485 131.546 138.218 131.726 141.371 131.666C144.603 131.586 148.155 131.167 151.946 130.429C152.644 130.31 153.362 130.17 154.061 130.011C154.599 129.891 155.118 129.771 155.637 129.652L156.056 129.552L156.515 131.487L156.116 131.586C155.577 131.726 155.038 131.845 154.5 131.965C153.761 132.125 153.023 132.264 152.325 132.384C148.454 133.142 144.802 133.561 141.45 133.64C140.972 133.64 140.493 133.64 140.014 133.64L139.974 133.68Z" fill="black"/>
<path d="M155.756 110.446C149.989 110.446 145.679 108.791 143.185 105.54C138.975 100.056 140.532 90.7823 147.555 79.4546C154.419 68.406 165.692 56.5598 179.32 46.1295C208.191 24.0324 237.542 15.5365 246.141 26.7646C254.741 37.9926 238.858 64.0784 209.987 86.1755C196.359 96.6058 181.973 104.404 169.503 108.133C164.315 109.689 159.686 110.446 155.736 110.446H155.756ZM233.511 23.7531C220.702 23.7531 200.31 32.588 180.537 47.705C167.089 57.9957 155.975 69.6425 149.251 80.4916C142.786 90.9219 141.15 99.5972 144.762 104.324C148.373 109.05 157.192 109.728 168.944 106.218C181.195 102.569 195.342 94.8707 208.79 84.58C236.304 63.5399 252.346 38.1322 244.565 27.9612C242.37 25.1093 238.519 23.7531 233.511 23.7531Z" fill="black"/>
<path d="M149.271 142.615C148.932 142.615 148.593 142.615 148.253 142.615C146.059 142.575 143.944 142.376 141.988 142.017C138.237 141.379 134.985 140.142 132.331 138.367C130.635 137.231 129.159 135.874 127.962 134.299L122.435 128.974L123.712 127.458C124.669 128.176 125.767 128.795 126.964 129.313L127.183 129.393C128.919 130.151 130.855 130.709 132.99 131.108C135.484 131.567 138.217 131.746 141.37 131.686C144.602 131.607 148.154 131.188 151.945 130.45C152.643 130.33 153.361 130.191 154.06 130.031C154.598 129.911 155.117 129.792 155.636 129.672L156.055 129.572C156.733 129.413 157.432 129.233 158.11 129.054V129.014L158.748 128.874C158.748 128.874 158.748 128.874 158.768 128.874L159.367 128.695C159.367 128.695 159.407 128.695 159.427 128.695C160.325 128.456 161.123 128.216 161.921 127.957L164.116 127.259C164.395 127.179 164.615 127.099 164.834 127.04C165.512 126.82 166.091 126.621 166.67 126.421L167.288 126.202C168.426 125.783 169.483 125.384 170.501 125.005L171.219 126.86C170.181 127.259 169.144 127.638 168.126 128.017L167.328 128.296C166.73 128.495 166.131 128.715 165.512 128.914C165.213 129.014 164.934 129.114 164.654 129.193L163.876 129.453C163.876 129.453 163.816 129.453 163.796 129.453L163.477 129.552L162.5 129.852C161.662 130.111 160.844 130.35 160.005 130.57C159.806 130.629 159.606 130.689 159.427 130.729L158.748 130.968L158.709 130.909C157.97 131.108 157.212 131.307 156.474 131.467L156.075 131.567C155.536 131.706 154.997 131.826 154.459 131.946C153.72 132.105 152.982 132.245 152.284 132.364C148.413 133.122 144.762 133.541 141.41 133.621C138.117 133.701 135.224 133.501 132.61 133.023C131.134 132.763 129.737 132.404 128.44 131.966L129.438 132.943C130.595 134.439 131.912 135.655 133.429 136.672C135.843 138.288 138.836 139.424 142.327 140.023C144.183 140.362 146.198 140.561 148.293 140.581C151.805 140.661 155.676 140.322 159.766 139.584L160.125 141.538C156.294 142.216 152.643 142.575 149.271 142.575V142.615Z" fill="black"/>
<path d="M233.432 104.404L223.096 93.7945L223.934 93.1165C234.609 84.4212 244.046 75.2075 251.948 65.6945C262.862 52.5519 269.985 39.9279 272.559 29.1785L272.659 27.2041L274.155 28.6201L284.052 36.7769V37.2954C282.695 43.6573 279.822 50.5576 275.492 57.9366C266.573 73.1732 251.868 89.4669 234.11 103.846L233.412 104.424L233.432 104.404ZM226.049 93.974L233.591 101.712C250.85 87.6321 265.117 71.7573 273.796 56.9195C277.886 49.9394 280.64 43.4578 281.957 37.5945L274.135 31.1529C271.202 41.8624 264.099 54.1873 253.504 66.951C245.723 76.3043 236.484 85.3984 226.049 93.9541V93.974Z" fill="black"/>
<path d="M284.031 37.4137L282.076 36.9949C283.752 29.217 282.834 22.9748 279.363 18.4477L274.514 13.8009C275.951 18.2283 275.951 23.5332 274.514 29.6159L272.579 29.1572C274.135 22.6358 273.935 17.1115 271.98 12.724C271.541 11.667 270.923 10.6299 270.104 9.53306L271.601 8.2168L280.859 17.1314C284.81 22.2768 285.847 29.0575 284.031 37.4336V37.4137Z" fill="black"/>
<path d="M274.514 29.6158L272.579 29.1571C274.135 22.6357 273.935 17.1114 271.98 12.7239L273.796 11.9062C275.931 16.7126 276.19 22.6557 274.514 29.6158Z" fill="black"/>
<path d="M139.974 133.681C137.26 133.681 134.846 133.481 132.611 133.062C130.337 132.644 128.242 132.025 126.386 131.228L127.184 129.393C128.92 130.151 130.856 130.709 132.991 131.108C135.485 131.567 138.218 131.746 141.371 131.686C144.603 131.607 148.155 131.188 151.946 130.45C152.644 130.33 153.362 130.191 154.061 130.031C154.599 129.911 155.118 129.792 155.637 129.672L156.056 129.572C156.734 129.413 157.433 129.233 158.111 129.054V129.014L158.749 128.874C158.749 128.874 158.749 128.874 158.769 128.874L159.368 128.695C159.368 128.695 159.408 128.695 159.428 128.695C160.326 128.456 161.124 128.216 161.922 127.957L164.117 127.259C164.396 127.179 164.616 127.099 164.835 127.04C165.513 126.82 166.092 126.621 166.671 126.421L167.289 126.202C168.427 125.783 169.484 125.384 170.502 125.005L171.22 126.86C170.182 127.259 169.145 127.638 168.127 128.017L167.329 128.296C166.731 128.495 166.132 128.715 165.513 128.914C165.214 129.014 164.935 129.114 164.655 129.193L163.897 129.453C163.897 129.453 163.817 129.493 163.778 129.493L162.501 129.871C161.663 130.131 160.845 130.37 160.007 130.589C159.807 130.649 159.607 130.709 159.428 130.749L158.749 130.988L158.71 130.928C157.971 131.128 157.213 131.327 156.475 131.487L156.076 131.587C155.537 131.726 154.998 131.846 154.46 131.966C153.721 132.125 152.983 132.265 152.285 132.384C148.414 133.142 144.763 133.561 141.411 133.641C140.932 133.641 140.453 133.641 139.974 133.641V133.681Z" fill="black"/>
<path d="M279.463 18.5472L275.851 15.0571L277.128 13.5215C278.624 14.5984 279.882 15.815 280.959 17.211L279.463 18.5272V18.5472Z" fill="black"/>
<path d="M143.107 105.375L118.901 123.967L120.117 125.549L144.323 106.957L143.107 105.375Z" fill="black"/>
<path d="M223.913 94.6114L211.303 83.2039L212.66 81.748L216.252 84.9988L225.25 93.1356L223.913 94.6114Z" fill="black"/>
<path d="M159.548 141.678L153.043 134.039L154.559 132.743L160.326 139.524C180.318 135.934 204.88 123.829 227.826 106.278C229.322 105.142 230.719 104.065 232.036 102.968L224.493 95.2299C222.957 96.4664 221.381 97.7229 219.785 98.9394C204.601 110.546 188.519 119.94 173.295 126.062L172.237 126.461C172.038 126.541 171.779 126.641 171.539 126.74L171.08 126.9H171.02H170.881V125.923L170.182 125.185L170.482 124.905L170.821 124.866C171.04 124.786 171.24 124.706 171.459 124.626L172.537 124.207C187.581 118.145 203.483 108.871 218.528 97.3639C220.343 95.9679 222.159 94.5319 223.915 93.116L224.613 92.5376L234.949 103.147L234.111 103.845C232.514 105.182 230.838 106.498 229.003 107.894C205.598 125.803 180.478 138.088 160.086 141.618L159.528 141.718L159.548 141.678Z" fill="black"/>
<path d="M153.042 134.039L150.887 131.487L166.73 107.275V106.518L167.827 106.597L167.747 107.535L167.907 107.594H168.725V108.592H168.246L153.361 131.327L154.558 132.743L153.042 134.039Z" fill="black"/>
<path d="M145.294 84.244L119.973 93.251L120.642 95.1299L145.963 86.1229L145.294 84.244Z" fill="black"/>
<path d="M166.834 38.921L165.399 40.3071L175.426 50.674L176.86 49.2879L166.834 38.921Z" fill="black"/>
<path d="M236.541 1.88702L223.397 23.4946L225.102 24.5307L238.246 2.92311L236.541 1.88702Z" fill="black"/>
<path d="M267.545 5.27454L242.744 24.8237L243.98 26.3897L268.781 6.8405L267.545 5.27454Z" fill="black"/>
<path d="M273.176 28.4602L246.258 39.0586L246.989 40.9141L273.907 30.3158L273.176 28.4602Z" fill="black"/>
</svg>
