<svg width="31" height="31" viewBox="0 0 31 31" fill="none" xmlns="http://www.w3.org/2000/svg">
<path d="M22.6649 1.53267C22.3402 1.36979 21.9647 1.34386 21.6211 1.46059C21.2774 1.57732 20.9938 1.82715 20.8325 2.15512C20.6712 2.48308 20.6456 2.86232 20.7611 3.20941C20.8767 3.5565 21.1241 3.84299 21.4488 4.00588C23.9305 5.249 25.9232 7.30296 27.1033 9.8342C28.2834 12.3654 28.5817 15.2253 27.9496 17.9493C27.3175 20.6733 25.7922 23.1016 23.6215 24.8396C21.4507 26.5777 18.7619 27.5235 15.9918 27.5235C13.2217 27.5235 10.5329 26.5777 8.36212 24.8396C6.19135 23.1016 4.66607 20.6733 4.03399 17.9493C3.40191 15.2253 3.70016 12.3654 4.88029 9.8342C6.06043 7.30296 8.05314 5.249 10.5348 4.00588C10.8595 3.84226 11.1066 3.55506 11.2217 3.20746C11.3367 2.85985 11.3104 2.48032 11.1484 2.15236C10.9864 1.82439 10.702 1.57485 10.3578 1.45864C10.0137 1.34243 9.63791 1.36906 9.31319 1.53267C6.2802 3.05286 3.84504 5.5639 2.4031 8.65809C0.961164 11.7523 0.59713 15.2479 1.37011 18.5774C2.14308 21.9069 4.00767 24.8747 6.66113 26.999C9.31459 29.1233 12.6011 30.2792 15.987 30.2792C19.3729 30.2792 22.6594 29.1233 25.3129 26.999C27.9663 24.8747 29.8309 21.9069 30.6039 18.5774C31.3769 15.2479 31.0129 11.7523 29.5709 8.65809C28.129 5.5639 25.6938 3.05286 22.6608 1.53267H22.6649Z" fill="black"/>
<path d="M15.969 16.5616C16.3314 16.5616 16.679 16.4162 16.9352 16.1574C17.1915 15.8986 17.3355 15.5475 17.3355 15.1815V1.38014C17.3355 1.0141 17.1915 0.663059 16.9352 0.404233C16.679 0.145407 16.3314 0 15.969 0C15.6066 0 15.259 0.145407 15.0028 0.404233C14.7465 0.663059 14.6025 1.0141 14.6025 1.38014V15.1815C14.6025 15.5475 14.7465 15.8986 15.0028 16.1574C15.259 16.4162 15.6066 16.5616 15.969 16.5616Z" fill="black"/>
</svg>
