<svg width="1905" height="573" viewBox="0 0 1905 573" fill="none" xmlns="http://www.w3.org/2000/svg">
<path d="M322.843 303.366C328.495 317.247 331.649 326.227 332.306 330.306C332.991 334.369 331.817 337.212 328.786 338.833C327.298 339.628 325.718 339.888 324.047 339.613C322.376 339.337 321.098 338.372 320.214 336.719C319.521 335.424 319.378 333.764 319.784 331.74C320.436 328.52 320.804 326.126 320.887 324.558C320.983 322.948 320.815 320.415 320.385 316.96C319.94 313.477 319.216 309.771 318.214 305.842L314.824 307.654C312.371 308.966 310.646 310.278 309.647 311.592C308.662 312.863 308.17 314.561 308.172 316.686L306.435 316.818C305.548 312.508 305.309 308.88 305.717 305.933C306.139 302.943 306.913 300.846 308.04 299.641C309.168 298.435 311.619 296.823 315.394 294.804L342.965 280.06L348.182 289.816L338.923 294.767L344.697 307.254C344.92 307.737 345.252 308.392 345.694 309.219C347.669 312.912 349.266 315.335 350.486 316.49C351.719 317.603 352.942 317.835 354.155 317.187C356.166 316.111 356.225 313.404 354.33 309.066L355.86 308.248C357.716 311.72 358.433 315.147 358.008 318.528C357.596 321.867 355.778 324.398 352.554 326.122C349.909 327.537 347.546 327.791 345.466 326.883C343.413 325.961 341.451 323.75 339.58 320.25C338.209 317.687 336.829 314.509 335.439 310.717L331.11 298.945L322.843 303.366Z" fill="#6F95BD"/>
<path d="M1512.25 455.856L1522.49 474.386C1523.68 476.549 1525.92 477.94 1528.34 478.038L1549.16 478.869C1551.59 478.965 1553.85 477.753 1555.08 475.687L1565.66 457.991C1566.89 455.924 1566.92 453.321 1565.72 451.158L1555.48 432.627C1554.29 430.464 1552.05 429.074 1549.62 428.976L1528.81 428.145C1526.38 428.048 1524.12 429.261 1522.89 431.326L1512.31 449.023C1511.08 451.089 1511.05 453.693 1512.25 455.856Z" fill="#B6DBD1"/>
<path d="M1552.64 478.217C1551.6 478.778 1550.4 479.065 1549.16 479.015L1528.34 478.184C1525.87 478.087 1523.58 476.656 1522.36 474.451L1512.12 455.921C1510.9 453.718 1510.93 451.043 1512.18 448.938L1522.76 431.241C1524.02 429.135 1526.34 427.89 1528.81 427.991L1549.63 428.821C1552.1 428.921 1554.39 430.349 1555.61 432.554L1565.85 451.085C1567.07 453.287 1567.04 455.962 1565.79 458.068L1555.21 475.765C1554.58 476.817 1553.69 477.655 1552.64 478.217ZM1525.48 429.054C1524.47 429.592 1523.62 430.392 1523.02 431.4L1512.44 449.097C1511.23 451.113 1511.21 453.672 1512.38 455.783L1522.62 474.313C1523.78 476.424 1525.98 477.792 1528.35 477.887L1549.16 478.718C1551.53 478.813 1553.75 477.621 1554.95 475.605L1565.53 457.908C1566.74 455.893 1566.76 453.333 1565.59 451.223L1555.35 432.692C1554.19 430.582 1551.99 429.214 1549.62 429.119L1528.81 428.288C1527.62 428.24 1526.48 428.516 1525.48 429.054Z" fill="#B6DBD1"/>
<path d="M1530.7 439.075C1532.15 438.27 1533.74 438.382 1534.25 439.327C1534.31 439.451 1534.36 439.583 1534.38 439.72C1533.71 439.089 1532.35 439.097 1531.08 439.796C1529.82 440.495 1529.07 441.657 1529.23 442.572C1529.13 442.477 1529.04 442.367 1528.98 442.243C1528.47 441.298 1529.24 439.88 1530.7 439.075Z" fill="#485868"/>
<path d="M1531.09 439.748C1532.36 439.054 1533.72 439.046 1534.4 439.672C1534.55 440.58 1533.81 441.733 1532.54 442.427C1531.28 443.122 1529.91 443.132 1529.24 442.505C1529.08 441.597 1529.83 440.443 1531.09 439.748Z" fill="black"/>
<path d="M1518.92 445.874C1520.38 445.067 1521.97 445.179 1522.48 446.124C1522.54 446.248 1522.59 446.381 1522.61 446.518C1521.94 445.886 1520.58 445.895 1519.31 446.595C1518.04 447.296 1517.3 448.455 1517.46 449.369C1517.36 449.274 1517.27 449.165 1517.2 449.041C1516.7 448.096 1517.47 446.679 1518.92 445.874Z" fill="#485868"/>
<path d="M1519.32 446.547C1520.58 445.851 1521.95 445.843 1522.62 446.47C1522.78 447.378 1522.03 448.53 1520.77 449.226C1519.5 449.922 1518.14 449.929 1517.46 449.302C1517.31 448.394 1518.05 447.242 1519.32 446.547Z" fill="black"/>
<path d="M1544.58 435.484C1546.04 434.688 1546.81 433.286 1546.3 432.353C1545.8 431.42 1544.2 431.309 1542.74 432.105C1541.29 432.902 1540.52 434.304 1541.02 435.237C1541.53 436.17 1543.12 436.281 1544.58 435.484Z" fill="black"/>
<path d="M1535.21 446.886C1536.66 446.081 1538.25 446.193 1538.76 447.138C1538.82 447.262 1538.87 447.394 1538.89 447.531C1538.22 446.9 1536.86 446.908 1535.59 447.607C1534.33 448.306 1533.58 449.468 1533.74 450.383C1533.64 450.288 1533.55 450.178 1533.49 450.054C1532.98 449.109 1533.75 447.691 1535.21 446.886Z" fill="#485868"/>
<path d="M1535.6 447.56C1536.87 446.865 1538.23 446.857 1538.9 447.483C1539.06 448.391 1538.32 449.544 1537.05 450.238C1535.79 450.933 1534.42 450.943 1533.75 450.316C1533.59 449.408 1534.34 448.254 1535.6 447.56Z" fill="black"/>
<path d="M1526.29 431.444C1527.75 430.639 1529.34 430.754 1529.84 431.696C1529.91 431.82 1529.95 431.953 1529.98 432.09C1529.31 431.463 1527.94 431.467 1526.68 432.166C1525.42 432.865 1524.67 434.028 1524.83 434.94C1524.72 434.847 1524.64 434.737 1524.57 434.613C1524.07 433.671 1524.84 432.25 1526.29 431.444Z" fill="#485868"/>
<path d="M1526.69 432.118C1527.95 431.424 1529.32 431.419 1529.99 432.042C1530.15 432.95 1529.4 434.105 1528.14 434.8C1526.87 435.494 1525.5 435.501 1524.83 434.873C1524.68 433.968 1525.42 432.813 1526.69 432.118Z" fill="black"/>
<path d="M1529.8 475.33C1530.55 474.644 1530.22 473.088 1529.06 471.855C1527.9 470.621 1526.36 470.177 1525.61 470.863C1524.86 471.549 1525.2 473.104 1526.35 474.338C1527.51 475.571 1529.06 476.015 1529.8 475.33Z" fill="black"/>
<path d="M1521.36 460.713C1522.11 460.027 1521.78 458.471 1520.62 457.238C1519.46 456.004 1517.92 455.56 1517.17 456.246C1516.42 456.932 1516.75 458.488 1517.91 459.721C1519.07 460.955 1520.61 461.399 1521.36 460.713Z" fill="black"/>
<path d="M1540.98 471.02C1540.42 471.723 1540.75 473.117 1541.79 474.236C1542.89 475.42 1544.36 475.85 1545.08 475.194C1545.14 475.144 1545.18 475.087 1545.23 475.027C1545.18 475.307 1545.05 475.552 1544.85 475.733C1544.1 476.424 1542.55 475.973 1541.4 474.727C1540.24 473.483 1539.91 471.918 1540.67 471.227C1540.76 471.139 1540.87 471.071 1540.98 471.02Z" fill="#485868"/>
<path d="M1525.9 470.666C1525.33 471.369 1525.67 472.763 1526.71 473.882C1527.81 475.066 1529.28 475.496 1530 474.84C1530.05 474.79 1530.1 474.733 1530.14 474.673C1530.09 474.953 1529.97 475.198 1529.77 475.379C1529.02 476.07 1527.47 475.619 1526.31 474.373C1525.16 473.129 1524.83 471.564 1525.58 470.873C1525.68 470.785 1525.79 470.717 1525.9 470.666Z" fill="#485868"/>
<path d="M1517.44 456.06C1516.87 456.763 1517.21 458.157 1518.25 459.276C1519.35 460.46 1520.82 460.89 1521.54 460.234C1521.59 460.184 1521.64 460.127 1521.68 460.067C1521.63 460.347 1521.51 460.592 1521.31 460.773C1520.56 461.464 1519.01 461.013 1517.85 459.767C1516.7 458.523 1516.37 456.958 1517.12 456.267C1517.22 456.179 1517.33 456.111 1517.44 456.06Z" fill="#485868"/>
<path d="M1540.98 471.002C1541.8 470.648 1543.11 471.131 1544.12 472.217C1544.97 473.132 1545.37 474.224 1545.22 475.013C1545.18 475.073 1545.13 475.129 1545.07 475.179C1544.36 475.837 1542.89 475.406 1541.79 474.221C1540.74 473.101 1540.41 471.706 1540.98 471.002Z" fill="black"/>
<path d="M1536.23 460.186C1536.98 459.5 1536.65 457.945 1535.49 456.711C1534.33 455.478 1532.79 455.034 1532.04 455.719C1531.29 456.405 1531.63 457.961 1532.78 459.194C1533.94 460.428 1535.49 460.872 1536.23 460.186Z" fill="black"/>
<path d="M1552.86 464.587C1553.03 464.49 1553.21 464.435 1553.4 464.425C1554.43 464.365 1555.38 465.674 1555.53 467.346C1555.67 468.997 1554.96 470.386 1553.95 470.47C1554.68 470.051 1555.14 468.869 1555.03 467.502C1554.88 465.831 1553.93 464.526 1552.9 464.582C1552.89 464.583 1552.88 464.584 1552.86 464.587Z" fill="#485868"/>
<path d="M1548.19 456.486C1548.35 456.389 1548.53 456.334 1548.72 456.324C1549.75 456.264 1550.71 457.573 1550.85 459.245C1550.99 460.9 1550.28 462.29 1549.26 462.372C1550 461.955 1550.47 460.77 1550.35 459.401C1550.21 457.733 1549.25 456.425 1548.22 456.482C1548.21 456.482 1548.2 456.483 1548.19 456.486Z" fill="#485868"/>
<path d="M1543.87 449.001C1544.03 448.904 1544.21 448.849 1544.4 448.839C1545.43 448.782 1546.39 450.088 1546.53 451.76C1546.67 453.411 1545.96 454.8 1544.95 454.887C1545.68 454.471 1546.15 453.285 1546.03 451.916C1545.89 450.248 1544.93 448.94 1543.9 448.997C1543.89 448.997 1543.88 448.998 1543.87 449.001Z" fill="#485868"/>
<path d="M1560.21 451.73C1560.38 451.633 1560.56 451.575 1560.75 451.565C1561.78 451.508 1562.73 452.816 1562.88 454.487C1563.02 456.137 1562.31 457.527 1561.3 457.613C1562.03 457.196 1562.5 456.013 1562.38 454.645C1562.24 452.973 1561.28 451.664 1560.25 451.725C1560.24 451.725 1560.23 451.727 1560.21 451.73Z" fill="#485868"/>
<path d="M1555.8 444.086C1555.97 443.991 1556.14 443.934 1556.34 443.924C1557.37 443.867 1558.32 445.175 1558.47 446.844C1558.61 448.496 1557.9 449.886 1556.88 449.972C1557.62 449.555 1558.08 448.369 1557.97 447.004C1557.83 445.331 1556.87 444.023 1555.84 444.081C1555.82 444.082 1555.81 444.083 1555.8 444.086Z" fill="#485868"/>
<path d="M1551.32 436.323C1551.49 436.228 1551.66 436.172 1551.85 436.161C1552.89 436.104 1553.84 437.412 1553.98 439.081C1554.12 440.734 1553.42 442.123 1552.4 442.209C1553.14 441.792 1553.6 440.606 1553.49 439.241C1553.34 437.569 1552.39 436.26 1551.35 436.319C1551.34 436.319 1551.33 436.321 1551.32 436.323Z" fill="#485868"/>
<path d="M1552.87 464.606C1552.87 464.606 1552.89 464.602 1552.9 464.601C1553.94 464.544 1554.89 465.853 1555.03 467.527C1555.15 468.897 1554.69 470.082 1553.95 470.502C1553.94 470.505 1553.93 470.506 1553.92 470.507C1552.89 470.566 1551.93 469.255 1551.79 467.579C1551.67 466.211 1552.13 465.026 1552.87 464.606Z" fill="black"/>
<path d="M1548.19 456.506C1548.19 456.506 1548.21 456.501 1548.23 456.501C1549.26 456.444 1550.21 457.755 1550.36 459.427C1550.47 460.799 1550.01 461.986 1549.27 462.404C1549.26 462.408 1549.25 462.407 1549.24 462.409C1548.21 462.466 1547.26 461.155 1547.11 459.478C1547 458.111 1547.46 456.926 1548.19 456.506Z" fill="black"/>
<path d="M1543.87 449.02C1543.87 449.02 1543.89 449.015 1543.91 449.015C1544.94 448.958 1545.89 450.269 1546.03 451.941C1546.15 453.313 1545.69 454.502 1544.95 454.918C1544.94 454.923 1544.93 454.922 1544.92 454.923C1543.89 454.98 1542.93 453.669 1542.79 451.993C1542.68 450.625 1543.13 449.44 1543.87 449.02Z" fill="black"/>
<path d="M1560.22 451.748C1560.22 451.748 1560.24 451.743 1560.25 451.743C1561.29 451.682 1562.24 452.993 1562.38 454.669C1562.5 456.04 1562.04 457.226 1561.3 457.643C1561.29 457.649 1561.28 457.648 1561.27 457.648C1560.23 457.705 1559.28 456.397 1559.14 454.721C1559.02 453.353 1559.49 452.167 1560.22 451.748Z" fill="black"/>
<path d="M1555.81 444.105C1555.81 444.105 1555.83 444.101 1555.84 444.1C1556.88 444.042 1557.83 445.353 1557.97 447.029C1558.09 448.397 1557.63 449.586 1556.89 450.003C1556.88 450.006 1556.87 450.008 1556.86 450.008C1555.82 450.065 1554.87 448.754 1554.73 447.078C1554.61 445.713 1555.07 444.525 1555.81 444.105Z" fill="black"/>
<path d="M1551.33 436.342C1551.33 436.342 1551.35 436.338 1551.36 436.338C1552.4 436.279 1553.35 437.59 1553.49 439.266C1553.61 440.634 1553.15 441.823 1552.41 442.241C1552.4 442.244 1552.39 442.245 1552.37 442.245C1551.34 442.303 1550.39 440.991 1550.25 439.315C1550.13 437.95 1550.59 436.763 1551.33 436.342Z" fill="black"/>
<path d="M1532.35 455.512C1531.78 456.215 1532.11 457.609 1533.15 458.728C1534.26 459.913 1535.73 460.343 1536.44 459.686C1536.5 459.636 1536.55 459.58 1536.59 459.52C1536.54 459.8 1536.42 460.045 1536.22 460.226C1535.46 460.916 1533.92 460.466 1532.76 459.219C1531.61 457.976 1531.28 456.41 1532.03 455.72C1532.12 455.632 1532.23 455.564 1532.35 455.512Z" fill="#485868"/>
<path d="M1542.74 432.128C1544.2 431.319 1545.79 431.423 1546.29 432.362C1546.36 432.485 1546.41 432.617 1546.43 432.753C1545.76 432.128 1544.39 432.142 1543.13 432.845C1541.87 433.547 1541.12 434.708 1541.28 435.618C1541.18 435.524 1541.09 435.415 1541.02 435.292C1540.52 434.353 1541.29 432.937 1542.74 432.128Z" fill="#485868"/>
<path d="M781.286 502.587C619.37 486.246 468.866 457.524 357.515 421.658C245.151 385.495 183.263 345.313 183.263 308.554C183.263 268.64 249.055 227.328 368.481 192.266C502.596 152.888 694.22 124.255 922.643 109.462C1410.09 77.882 1899.32 144.077 1904.21 144.762L1904 146.25C1899.12 145.566 1410.03 79.3999 922.732 110.95C694.429 125.743 502.924 154.346 368.898 193.694C250.157 228.548 184.753 269.355 184.753 308.554C184.753 382.756 446.846 467.346 781.435 501.099L781.286 502.587Z" fill="#6E93BA"/>
<g opacity="0.66">
<path d="M1199.41 523.707C1001.45 512.065 815.877 493.07 676.878 470.203C492.797 439.923 454.152 414.05 454.152 397.704C454.152 393.178 456.297 388.801 460.528 384.693C503.196 343.158 762.78 324.46 1154.9 334.762C1504.85 343.932 1798.08 379.482 1904.21 396.989L1903.97 398.448C1797.87 380.941 1504.76 345.421 1154.87 336.25C763.138 325.978 503.971 344.498 461.601 385.764C457.668 389.575 455.671 393.595 455.671 397.704C455.671 443.02 782.416 497.714 1199.53 522.218L1199.44 523.707H1199.41Z" fill="#6E93BA"/>
</g>
<path d="M669.324 449.187L670.628 457.89L677.187 468.974L691.017 484.309L708.014 498.408L734.713 516.475L765.293 531.789L797.376 544.445L827.172 551.315L841.461 552.841L858.629 551.46L866.173 548.301L870.517 544.02L878.794 528.14L876.208 514.758C876.208 514.758 864.682 483.77 780.936 443.535C780.936 443.535 727.068 418.349 691.652 423.92C685.538 425.62 678.302 430.46 678.302 430.46L670.25 444.714L669.288 449.218L669.324 449.187Z" fill="#6F95BD"/>
<path d="M845.265 513.052C850.927 500.878 825.398 476.638 788.245 458.91C751.093 441.181 716.385 436.678 710.723 448.852C705.062 461.025 730.59 485.266 767.743 502.994C804.896 520.723 839.603 525.226 845.265 513.052Z" fill="black"/>
<path d="M767.413 491.752C753.014 486.23 728.266 471.511 725.59 458.569C725.032 455.862 725.739 453.376 727.647 451.399C733.475 445.314 749.096 444.761 761.488 447.356L766.519 450.101C752.966 447.252 733.752 448.154 729.159 452.938C727.773 454.396 727.292 456.057 727.697 458.035C730.329 470.792 758.901 487.409 772.798 491.204C786.261 494.882 789.608 492.258 790.314 491.378C791.012 490.518 790.675 489.67 790.56 489.434C789.391 486.948 785.119 483.007 778.28 479.785C772.255 476.947 768.229 477.177 767.624 477.736C767.687 478.048 768.916 479.43 771.416 480.605C773.968 481.823 775.901 481.917 776.257 481.647L778.151 482.613C777.793 483.362 776.911 484.223 774.636 483.95C773.386 483.806 771.918 483.339 770.463 482.661C769.007 481.983 767.752 481.142 766.864 480.298C765.284 478.756 765.364 477.54 765.722 476.791C766.269 475.61 767.976 475.042 770.536 475.233C772.316 475.364 775.242 475.911 779.209 477.792C785.625 480.804 790.835 484.984 792.485 488.422C793.167 489.858 792.958 491.528 791.943 492.793C790.142 495.028 785.251 496.964 772.164 493.383C770.779 492.995 769.152 492.467 767.397 491.794L767.413 491.752Z" fill="#6F95BD"/>
<path d="M761.688 529.478L759.634 528.764L764.453 517.313L769.27 503.132L771.381 503.706L766.531 517.967L761.688 529.478Z" fill="black"/>
<path d="M845.936 512.627L845.034 514.801L878.189 530.424L879.091 528.249L845.936 512.627Z" fill="black"/>
<path d="M782.791 511.532C777.702 509.587 772.506 507.38 767.278 504.891C733.344 488.833 708.641 467.017 708.555 453.043C708.539 451.494 708.83 450.037 709.413 448.716C710.563 446.118 712.806 444.133 716.087 442.79C729.425 437.329 758.499 443.175 788.447 457.391C826.827 475.59 852.248 500.252 846.312 513.566L845.968 514.243C845.242 515.583 844.256 516.7 842.975 517.632C833.767 524.549 809.761 521.866 782.763 511.545L782.791 511.532ZM772.255 452.941C748.769 443.963 727.21 440.647 716.817 444.931C714.099 446.048 712.279 447.631 711.373 449.637C710.921 450.665 710.706 451.734 710.726 452.967C710.808 465.91 735.539 487.344 768.228 502.829C799.984 517.883 831.64 523.467 841.814 515.791C842.819 515.049 843.594 514.193 844.117 513.217L844.392 512.661C849.57 500.895 823.546 476.565 787.501 459.504C782.384 457.082 777.248 454.899 772.219 452.976L772.255 452.941Z" fill="black"/>
<path d="M781.79 528.206C776.322 526.118 770.799 523.814 765.251 521.329C763.687 520.634 762.11 519.91 760.542 519.164C729.397 504.51 702.664 485.913 687.183 468.137C678.329 457.956 673.698 448.555 673.839 440.903C673.876 438.544 674.328 436.416 675.234 434.414C679.029 425.954 690.034 421.569 707.066 421.686L707.269 421.69C729.613 421.927 759.782 429.971 790.064 443.758C791.258 444.287 792.463 444.845 793.668 445.403C798.05 447.467 802.36 449.602 806.479 451.761C831.313 464.814 852.312 480.146 865.679 494.912L865.858 495.103C877.11 507.594 881.985 518.727 879.963 527.325C879.751 528.321 879.419 529.27 879.024 530.147L878.497 531.193C877.442 533.164 875.953 534.895 874.073 536.33C870.591 539.062 865.737 540.952 859.634 541.974L859.347 542.011C840.83 545.021 812.141 539.793 781.77 528.198L781.79 528.206ZM706.789 423.954C690.999 423.87 680.489 427.906 677.162 435.297C676.387 437.007 676.007 438.819 675.983 440.84C675.873 447.917 680.289 456.796 688.8 466.553C704.082 484.13 730.587 502.542 761.481 517.076C763.049 517.822 764.586 518.531 766.15 519.226C802.22 535.467 837.948 543.334 859.399 539.731L859.687 539.694C865.291 538.727 869.722 536.993 872.876 534.528C874.501 533.289 875.77 531.841 876.645 530.168L877.132 529.229C877.444 528.516 877.699 527.709 877.895 526.878C879.709 519.204 874.931 508.548 864.469 496.872L864.289 496.681C851.086 482.026 830.211 466.791 805.488 453.805C801.39 451.653 797.1 449.526 792.757 447.477C791.572 446.927 790.367 446.369 789.174 445.84C759.043 432.135 729.089 424.125 707.001 423.936L706.797 423.932L706.789 423.954Z" fill="black"/>
<path d="M775.833 538.782C770.746 536.823 765.614 534.674 760.41 532.348C758.474 531.479 756.527 530.581 754.587 529.661C734.669 520.212 716.292 508.983 701.46 497.217C699.736 495.836 698.071 494.478 696.474 493.121C695.468 492.264 694.482 491.415 693.531 490.53C692.417 489.533 691.283 488.528 690.237 487.532C686.024 483.561 682.314 479.587 679.187 475.763C669.021 463.197 665.558 452.225 669.166 444.074C669.297 443.778 669.449 443.49 669.6 443.202L675.059 432.18L676.983 433.144C676.211 434.873 675.834 436.705 675.813 438.748C675.714 445.903 680.14 454.874 688.659 464.729C703.956 482.483 730.47 501.071 761.364 515.736C762.932 516.488 764.468 517.203 766.033 517.904C802.101 534.289 837.817 542.209 859.247 538.548L859.535 538.51C865.133 537.527 869.559 535.771 872.707 533.276C874.329 532.022 875.595 530.557 876.467 528.866L878.339 529.908L872.983 540.772C865.086 558.617 823.882 557.333 775.837 538.833L775.833 538.782ZM673.672 439.803L671.547 444.101C671.364 444.475 671.237 444.698 671.114 444.972C667.891 452.258 671.258 462.378 680.844 474.226C683.88 477.99 687.554 481.876 691.695 485.794C692.741 486.79 693.835 487.78 694.949 488.777C695.887 489.633 696.874 490.482 697.84 491.324C699.417 492.673 701.082 494.031 702.787 495.404C717.494 507.074 735.72 518.219 755.506 527.593C757.446 528.513 759.353 529.396 761.289 530.265C814.613 554.234 862.817 558.41 871.067 539.788L873.065 535.712C869.669 538.137 865.104 539.839 859.493 540.793L859.206 540.831C837.385 544.44 801.366 536.478 765.126 520.002C763.561 519.301 761.985 518.57 760.417 517.818C729.272 503.032 702.53 484.257 687.033 466.302C678.566 456.492 673.972 447.358 673.664 439.824L673.672 439.803Z" fill="black"/>
<path d="M672.021 443.094L670.089 442.152L670.292 441.785L672.141 442.893L672.021 443.094Z" fill="black"/>
<path d="M876.832 531.398L876.337 532.354L878.224 533.337L878.719 532.382L876.832 531.398Z" fill="black"/>
<path d="M790.895 447.605L788.789 447.017L784.816 458.789L786.922 459.378L790.895 447.605Z" fill="black"/>
<path d="M855.908 552.166L853.92 551.396L857.86 541.476L830.75 521.845L832.029 519.997L860.504 540.596L855.908 552.166Z" fill="black"/>
<path d="M683.292 475.909L681.412 474.917L687.456 463.159L719.255 466.571L718.933 468.776L688.629 465.516L683.292 475.909Z" fill="black"/>
<path d="M676.951 431.756L676.05 433.931L709.771 449.817L710.672 447.641L676.951 431.756Z" fill="black"/>
<path d="M865.168 497.072L838.259 494.584L838.135 497.815L865.045 500.302L865.168 497.072Z" fill="black"/>
<path d="M1316.16 324.226L1315.35 329.634L1311.27 336.522L1302.68 346.051L1292.12 354.813L1275.53 366.04L1256.52 375.556L1236.59 383.421L1218.07 387.689L1209.19 388.638L1198.52 387.779L1193.84 385.817L1191.14 383.156L1185.99 373.288L1187.6 364.973C1187.6 364.973 1194.76 345.716 1246.8 320.714C1246.8 320.714 1280.28 305.063 1302.28 308.525C1306.08 309.582 1310.58 312.589 1310.58 312.589L1315.58 321.447L1316.18 324.246L1316.16 324.226Z" fill="#6F95BD"/>
<path d="M1206.83 363.912C1203.31 356.347 1219.17 341.284 1242.26 330.268C1265.35 319.251 1286.92 316.453 1290.43 324.018C1293.95 331.582 1278.09 346.646 1255 357.662C1231.91 368.679 1210.35 371.477 1206.83 363.912Z" fill="black"/>
<path d="M1255.21 350.677C1264.15 347.245 1279.53 338.099 1281.19 330.057C1281.54 328.374 1281.1 326.829 1279.92 325.601C1276.3 321.82 1266.59 321.476 1258.89 323.088L1255.76 324.794C1264.18 323.024 1276.12 323.585 1278.98 326.557C1279.84 327.463 1280.14 328.496 1279.89 329.724C1278.25 337.652 1260.5 347.978 1251.86 350.336C1243.49 352.621 1241.41 350.991 1240.97 350.444C1240.54 349.91 1240.75 349.383 1240.82 349.236C1241.55 347.691 1244.2 345.243 1248.45 343.24C1252.2 341.477 1254.7 341.619 1255.07 341.967C1255.04 342.161 1254.27 343.02 1252.72 343.75C1251.13 344.507 1249.93 344.565 1249.71 344.397L1248.53 344.997C1248.76 345.463 1249.3 345.998 1250.72 345.828C1251.49 345.739 1252.41 345.449 1253.31 345.027C1254.22 344.606 1255 344.083 1255.55 343.559C1256.53 342.601 1256.48 341.845 1256.26 341.38C1255.92 340.646 1254.86 340.293 1253.27 340.411C1252.16 340.493 1250.34 340.833 1247.88 342.002C1243.89 343.874 1240.65 346.471 1239.63 348.607C1239.2 349.5 1239.33 350.538 1239.96 351.324C1241.08 352.712 1244.12 353.915 1252.25 351.69C1253.11 351.449 1254.13 351.121 1255.22 350.703L1255.21 350.677Z" fill="#6F95BD"/>
<path d="M1258.76 374.12L1260.04 373.676L1257.05 366.56L1254.05 357.748L1252.74 358.105L1255.75 366.967L1258.76 374.12Z" fill="black"/>
<path d="M1206.41 363.648L1206.97 365L1186.37 374.708L1185.81 373.356L1206.41 363.648Z" fill="black"/>
<path d="M1245.65 362.968C1248.81 361.759 1252.04 360.388 1255.29 358.841C1276.38 348.862 1291.73 335.306 1291.78 326.622C1291.79 325.66 1291.61 324.754 1291.25 323.934C1290.53 322.319 1289.14 321.086 1287.1 320.251C1278.81 316.857 1260.75 320.49 1242.14 329.324C1218.29 340.633 1202.49 355.959 1206.18 364.232L1206.39 364.653C1206.84 365.485 1207.46 366.179 1208.25 366.758C1213.97 371.057 1228.89 369.389 1245.67 362.976L1245.65 362.968ZM1252.2 326.559C1266.79 320.98 1280.19 318.919 1286.65 321.582C1288.34 322.276 1289.47 323.259 1290.03 324.506C1290.31 325.145 1290.44 325.809 1290.43 326.575C1290.38 334.618 1275.01 347.937 1254.7 357.56C1234.97 366.914 1215.3 370.384 1208.97 365.615C1208.35 365.153 1207.87 364.621 1207.54 364.015L1207.37 363.669C1204.15 356.358 1220.33 341.239 1242.72 330.637C1245.9 329.132 1249.1 327.775 1252.22 326.581L1252.2 326.559Z" fill="black"/>
<path d="M1246.27 373.329C1249.67 372.032 1253.1 370.6 1256.55 369.056C1257.52 368.624 1258.5 368.174 1259.48 367.711C1278.83 358.605 1295.44 347.048 1305.06 336.002C1310.56 329.676 1313.44 323.834 1313.35 319.079C1313.33 317.613 1313.05 316.291 1312.49 315.047C1310.13 309.79 1303.29 307.065 1292.71 307.137L1292.58 307.14C1278.7 307.287 1259.95 312.286 1241.13 320.853C1240.39 321.182 1239.64 321.528 1238.89 321.875C1236.17 323.158 1233.49 324.485 1230.93 325.826C1215.5 333.938 1202.45 343.465 1194.14 352.641L1194.03 352.759C1187.04 360.521 1184.01 367.439 1185.27 372.782C1185.4 373.401 1185.61 373.991 1185.85 374.536L1186.18 375.186C1186.83 376.411 1187.76 377.486 1188.93 378.378C1191.09 380.076 1194.11 381.25 1197.9 381.885L1198.08 381.908C1209.59 383.778 1227.41 380.53 1246.29 373.325L1246.27 373.329ZM1292.88 308.546C1302.69 308.495 1309.22 311.003 1311.29 315.595C1311.77 316.658 1312.01 317.784 1312.02 319.04C1312.09 323.438 1309.35 328.955 1304.06 335.018C1294.56 345.94 1278.09 357.382 1258.89 366.413C1257.92 366.877 1256.96 367.317 1255.99 367.749C1233.58 377.842 1211.38 382.73 1198.05 380.491L1197.87 380.468C1194.38 379.867 1191.63 378.79 1189.67 377.258C1188.66 376.488 1187.87 375.588 1187.33 374.549L1187.03 373.965C1186.83 373.522 1186.67 373.021 1186.55 372.505C1185.43 367.736 1188.39 361.114 1194.9 353.859L1195.01 353.74C1203.21 344.633 1216.18 335.166 1231.55 327.097C1234.09 325.759 1236.76 324.438 1239.46 323.164C1240.19 322.822 1240.94 322.475 1241.68 322.147C1260.41 313.63 1279.02 308.653 1292.75 308.536L1292.87 308.533L1292.88 308.546Z" fill="black"/>
<path d="M1249.97 379.902C1253.14 378.684 1256.32 377.349 1259.56 375.904C1260.76 375.364 1261.97 374.806 1263.18 374.234C1275.55 368.362 1286.97 361.385 1296.19 354.073C1297.26 353.215 1298.3 352.371 1299.29 351.528C1299.91 350.995 1300.53 350.468 1301.12 349.918C1301.81 349.298 1302.51 348.673 1303.16 348.054C1305.78 345.587 1308.09 343.118 1310.03 340.741C1316.35 332.933 1318.5 326.114 1316.26 321.049C1316.18 320.866 1316.08 320.687 1315.99 320.508L1312.6 313.659L1311.4 314.257C1311.88 315.332 1312.11 316.471 1312.13 317.74C1312.19 322.186 1309.44 327.76 1304.14 333.884C1294.64 344.917 1278.16 356.468 1258.97 365.581C1257.99 366.048 1257.04 366.492 1256.06 366.928C1233.65 377.11 1211.46 382.031 1198.14 379.756L1197.96 379.733C1194.48 379.122 1191.73 378.031 1189.78 376.48C1188.77 375.701 1187.98 374.791 1187.44 373.74L1186.28 374.387L1189.6 381.139C1194.51 392.227 1220.12 391.43 1249.97 379.933L1249.97 379.902ZM1313.46 318.395L1314.78 321.066C1314.89 321.299 1314.97 321.437 1315.05 321.607C1317.05 326.135 1314.96 332.424 1309 339.786C1307.11 342.125 1304.83 344.54 1302.26 346.975C1301.61 347.594 1300.93 348.209 1300.24 348.829C1299.65 349.36 1299.04 349.888 1298.44 350.411C1297.46 351.249 1296.42 352.093 1295.37 352.946C1286.23 360.198 1274.9 367.124 1262.61 372.949C1261.4 373.52 1260.21 374.069 1259.01 374.609C1225.88 389.503 1195.92 392.099 1190.79 380.527L1189.55 377.994C1191.66 379.501 1194.5 380.559 1197.99 381.151L1198.17 381.175C1211.73 383.418 1234.11 378.47 1256.63 368.232C1257.6 367.796 1258.58 367.342 1259.55 366.874C1278.91 357.687 1295.52 346.02 1305.15 334.862C1310.42 328.766 1313.27 323.09 1313.46 318.409L1313.46 318.395Z" fill="black"/>
<path d="M1314.48 320.439L1315.68 319.854L1315.56 319.627L1314.41 320.315L1314.48 320.439Z" fill="black"/>
<path d="M1187.21 375.315L1187.52 375.907L1186.35 376.519L1186.04 375.926L1187.21 375.315Z" fill="black"/>
<path d="M1240.61 323.244L1241.92 322.878L1244.39 330.194L1243.08 330.559L1240.61 323.244Z" fill="black"/>
<path d="M1200.21 388.219L1201.45 387.74L1199 381.575L1215.85 369.377L1215.05 368.229L1197.36 381.029L1200.21 388.219Z" fill="black"/>
<path d="M1307.48 340.832L1308.65 340.215L1304.89 332.909L1285.13 335.029L1285.33 336.399L1304.16 334.374L1307.48 340.832Z" fill="black"/>
<path d="M1311.42 313.394L1311.98 314.746L1291.03 324.617L1290.47 323.266L1311.42 313.394Z" fill="black"/>
<path d="M1194.46 353.983L1211.18 352.437L1211.26 354.444L1194.54 355.99L1194.46 353.983Z" fill="black"/>
<path d="M593.893 121.24L594.409 124.685L597.006 129.073L602.48 135.144L609.209 140.725L619.779 147.878L631.885 153.94L644.586 158.951L656.381 161.67L662.038 162.274L668.835 161.727L671.821 160.477L673.541 158.782L676.818 152.496L675.794 147.198C675.794 147.198 671.231 134.93 638.078 119.002C638.078 119.002 616.752 109.032 602.732 111.237C600.312 111.91 597.447 113.826 597.447 113.826L594.259 119.469L593.879 121.252L593.893 121.24Z" fill="#6F95BD"/>
<path d="M663.544 146.522C665.785 141.703 655.679 132.107 640.971 125.089C626.263 118.07 612.523 116.288 610.281 121.107C608.04 125.926 618.146 135.522 632.854 142.541C647.562 149.559 661.302 151.342 663.544 146.522Z" fill="black"/>
<path d="M632.724 138.091C627.023 135.904 617.226 130.078 616.167 124.954C615.946 123.882 616.226 122.898 616.981 122.115C619.288 119.707 625.473 119.488 630.378 120.515L632.37 121.602C627.004 120.474 619.398 120.831 617.58 122.725C617.031 123.302 616.841 123.96 617.001 124.742C618.043 129.793 629.354 136.371 634.856 137.874C640.185 139.329 641.511 138.291 641.79 137.942C642.066 137.602 641.933 137.266 641.887 137.173C641.424 136.189 639.733 134.629 637.026 133.353C634.641 132.229 633.047 132.32 632.807 132.542C632.832 132.665 633.319 133.213 634.309 133.678C635.319 134.16 636.084 134.197 636.225 134.09L636.975 134.472C636.833 134.769 636.484 135.11 635.583 135.002C635.089 134.945 634.507 134.76 633.931 134.491C633.355 134.223 632.858 133.89 632.507 133.556C631.881 132.946 631.913 132.464 632.054 132.168C632.271 131.7 632.947 131.475 633.96 131.551C634.665 131.603 635.823 131.819 637.394 132.564C639.934 133.757 641.996 135.411 642.649 136.772C642.919 137.341 642.836 138.002 642.435 138.503C641.722 139.387 639.786 140.154 634.605 138.736C634.056 138.583 633.412 138.374 632.717 138.107L632.724 138.091Z" fill="#6F95BD"/>
<path d="M630.457 153.026L629.644 152.743L631.552 148.21L633.459 142.596L634.294 142.823L632.375 148.469L630.457 153.026Z" fill="black"/>
<path d="M663.809 146.355L663.452 147.216L676.576 153.4L676.933 152.54L663.809 146.355Z" fill="black"/>
<path d="M638.811 145.921C636.797 145.151 634.74 144.277 632.67 143.292C619.236 136.935 609.457 128.299 609.423 122.767C609.416 122.153 609.532 121.577 609.762 121.054C610.217 120.025 611.105 119.239 612.404 118.708C617.685 116.546 629.195 118.86 641.05 124.488C656.244 131.692 666.308 141.456 663.958 146.726L663.822 146.995C663.534 147.525 663.144 147.967 662.637 148.336C658.992 151.074 649.488 150.012 638.8 145.927L638.811 145.921ZM634.64 122.726C625.343 119.172 616.808 117.859 612.693 119.555C611.617 119.997 610.897 120.624 610.538 121.418C610.359 121.825 610.274 122.248 610.282 122.736C610.315 127.86 620.105 136.346 633.046 142.476C645.617 148.435 658.149 150.646 662.177 147.607C662.575 147.313 662.882 146.975 663.089 146.588L663.198 146.368C665.247 141.71 654.945 132.079 640.676 125.324C638.65 124.366 636.617 123.501 634.626 122.74L634.64 122.726Z" fill="black"/>
<path d="M638.415 152.522C636.25 151.696 634.064 150.783 631.868 149.8C631.248 149.524 630.624 149.238 630.003 148.943C617.674 143.141 607.091 135.779 600.962 128.742C597.457 124.711 595.623 120.99 595.68 117.96C595.694 117.027 595.873 116.184 596.232 115.392C597.734 112.043 602.091 110.307 608.833 110.353L608.914 110.355C617.759 110.448 629.702 113.633 641.691 119.091C642.163 119.3 642.64 119.521 643.117 119.742C644.852 120.559 646.558 121.404 648.189 122.259C658.02 127.427 666.333 133.496 671.625 139.342L671.696 139.417C676.15 144.362 678.08 148.77 677.28 152.173C677.196 152.567 677.064 152.943 676.908 153.29L676.699 153.705C676.282 154.485 675.692 155.17 674.948 155.738C673.57 156.82 671.648 157.568 669.232 157.972L669.118 157.987C661.788 159.179 650.43 157.109 638.407 152.519L638.415 152.522ZM608.724 111.251C602.473 111.218 598.312 112.815 596.995 115.741C596.688 116.418 596.538 117.136 596.528 117.936C596.485 120.737 598.233 124.252 601.602 128.115C607.652 135.073 618.145 142.362 630.375 148.116C630.996 148.411 631.604 148.692 632.223 148.967C646.503 155.396 660.647 158.511 669.139 157.085L669.253 157.07C671.471 156.687 673.225 156.001 674.474 155.025C675.117 154.534 675.62 153.961 675.966 153.299L676.159 152.927C676.282 152.645 676.384 152.325 676.461 151.996C677.179 148.958 675.288 144.74 671.146 140.118L671.075 140.042C665.848 134.24 657.584 128.209 647.797 123.068C646.174 122.216 644.476 121.374 642.757 120.563C642.288 120.345 641.81 120.124 641.338 119.915C629.41 114.489 617.552 111.318 608.808 111.244L608.727 111.242L608.724 111.251Z" fill="black"/>
<path d="M636.057 156.709C634.043 155.933 632.011 155.083 629.951 154.162C629.185 153.818 628.414 153.463 627.646 153.099C619.761 149.358 612.486 144.912 606.614 140.254C605.931 139.708 605.272 139.17 604.64 138.633C604.242 138.294 603.851 137.958 603.475 137.607C603.034 137.212 602.585 136.814 602.171 136.42C600.503 134.848 599.035 133.275 597.796 131.761C593.772 126.787 592.401 122.443 593.829 119.216C593.881 119.099 593.941 118.985 594.001 118.871L596.162 114.508L596.924 114.889C596.618 115.574 596.469 116.299 596.461 117.108C596.421 119.94 598.174 123.492 601.546 127.393C607.602 134.421 618.099 141.78 630.329 147.586C630.949 147.883 631.558 148.166 632.177 148.444C646.456 154.931 660.595 158.066 669.079 156.617L669.192 156.602C671.409 156.212 673.161 155.517 674.407 154.529C675.049 154.033 675.551 153.453 675.896 152.784L676.637 153.196L674.516 157.497C671.39 164.561 655.078 164.053 636.058 156.729L636.057 156.709ZM595.613 117.525L594.772 119.227C594.7 119.375 594.649 119.463 594.6 119.572C593.325 122.456 594.657 126.462 598.453 131.153C599.654 132.643 601.109 134.181 602.748 135.732C603.162 136.127 603.595 136.519 604.036 136.913C604.408 137.252 604.798 137.588 605.181 137.922C605.805 138.456 606.464 138.993 607.139 139.537C612.962 144.156 620.177 148.569 628.01 152.28C628.778 152.644 629.533 152.993 630.299 153.337C651.409 162.826 670.492 164.48 673.758 157.107L674.549 155.494C673.205 156.454 671.397 157.128 669.176 157.505L669.062 157.52C660.424 158.949 646.165 155.797 631.818 149.275C631.199 148.997 630.575 148.708 629.954 148.41C617.624 142.557 607.038 135.124 600.903 128.016C597.551 124.132 595.732 120.516 595.61 117.534L595.613 117.525Z" fill="black"/>
<path d="M594.963 118.826L594.196 118.453L594.276 118.31L595.01 118.748L594.963 118.826Z" fill="black"/>
<path d="M676.039 153.789L675.845 154.164L676.593 154.554L676.788 154.179L676.039 153.789Z" fill="black"/>
<path d="M642.02 120.614L641.186 120.381L639.614 125.041L640.448 125.274L642.02 120.614Z" fill="black"/>
<path d="M667.757 162.008L666.97 161.703L668.53 157.776L657.798 150.004L658.304 149.273L669.576 157.427L667.757 162.008Z" fill="black"/>
<path d="M599.422 131.819L598.678 131.426L601.07 126.772L613.659 128.122L613.531 128.995L601.534 127.705L599.422 131.819Z" fill="black"/>
<path d="M596.911 114.34L596.555 115.201L609.903 121.489L610.26 120.628L596.911 114.34Z" fill="black"/>
<path d="M671.423 140.197L660.77 139.212L660.721 140.491L671.374 141.475L671.423 140.197Z" fill="black"/>
<path d="M1238.46 537.351C1218.67 536.539 1199.88 546.716 1189.77 563.702C1188.87 565.208 1186.56 564.529 1186.63 562.771C1187.45 543.038 1177.25 524.294 1160.21 514.206C1158.7 513.305 1159.38 511.001 1161.14 511.075C1180.92 511.887 1199.72 501.71 1209.81 484.695C1210.72 483.189 1213.03 483.868 1212.95 485.626C1212.14 505.374 1222.34 524.132 1239.38 534.205C1240.89 535.106 1240.2 537.41 1238.44 537.337L1238.46 537.351Z" fill="white"/>
<path d="M1188.33 565.282C1188.1 565.282 1187.86 565.252 1187.62 565.178C1186.54 564.853 1185.83 563.878 1185.89 562.756C1186.69 543.2 1176.71 524.84 1159.84 514.856C1158.86 514.28 1158.42 513.157 1158.74 512.079C1159.07 511.001 1160.03 510.262 1161.17 510.336C1180.78 511.163 1199.17 501.164 1209.18 484.325C1209.75 483.351 1210.86 482.907 1211.96 483.232C1213.04 483.557 1213.75 484.532 1213.69 485.655C1212.89 505.225 1222.87 523.585 1239.76 533.57C1240.74 534.146 1241.18 535.268 1240.86 536.346C1240.53 537.425 1239.54 538.134 1238.43 538.075C1218.8 537.262 1200.41 547.232 1190.41 564.07C1189.95 564.824 1189.18 565.267 1188.33 565.267V565.282ZM1161.07 511.813C1160.55 511.813 1160.27 512.167 1160.16 512.492C1160.06 512.832 1160.12 513.305 1160.59 513.585C1177.94 523.851 1188.2 542.713 1187.37 562.815C1187.34 563.361 1187.71 563.657 1188.05 563.76C1188.39 563.864 1188.87 563.805 1189.15 563.332C1199.44 546.021 1218.34 535.8 1238.5 536.612C1239.05 536.627 1239.35 536.273 1239.45 535.933C1239.55 535.593 1239.49 535.121 1239.02 534.84C1221.67 524.575 1211.4 505.713 1212.23 485.596C1212.26 485.049 1211.89 484.739 1211.54 484.65C1211.2 484.547 1210.73 484.606 1210.45 485.079C1200.16 502.39 1181.26 512.625 1161.11 511.813C1161.1 511.813 1161.08 511.813 1161.07 511.813Z" fill="black"/>
<path d="M207.42 151.366C202.776 155.867 200.965 162.596 202.731 168.8C202.887 169.348 202.204 169.748 201.804 169.333C197.3 164.706 190.556 162.9 184.331 164.662C183.782 164.817 183.381 164.136 183.797 163.736C188.434 159.243 190.244 152.514 188.479 146.295C188.323 145.747 189.005 145.348 189.406 145.762C193.917 150.396 200.661 152.195 206.886 150.433C207.435 150.278 207.836 150.959 207.42 151.359V151.366Z" fill="white"/>
<path d="M202.205 169.873C201.967 169.873 201.73 169.777 201.544 169.592C197.115 165.039 190.556 163.285 184.442 165.017C184.027 165.136 183.604 164.965 183.389 164.588C183.174 164.218 183.241 163.766 183.545 163.462C188.108 159.043 189.866 152.499 188.123 146.392C188.004 145.977 188.174 145.555 188.545 145.34C188.916 145.126 189.369 145.192 189.673 145.496C194.103 150.049 200.661 151.803 206.782 150.071C207.198 149.952 207.621 150.123 207.836 150.493C208.051 150.863 207.992 151.314 207.68 151.618C203.117 156.037 201.359 162.582 203.095 168.689C203.214 169.103 203.043 169.525 202.672 169.74C202.524 169.829 202.368 169.866 202.205 169.866V169.873ZM189.161 163.618C193.962 163.618 198.628 165.535 202.078 169.074C202.167 169.163 202.256 169.133 202.301 169.103C202.345 169.074 202.42 169.015 202.383 168.896C200.572 162.53 202.405 155.704 207.168 151.092C207.257 151.003 207.227 150.915 207.198 150.87C207.168 150.826 207.109 150.752 206.99 150.789C200.602 152.603 193.769 150.767 189.139 146.021C189.05 145.933 188.961 145.962 188.916 145.992C188.872 146.021 188.798 146.081 188.835 146.199C190.645 152.573 188.82 159.391 184.057 164.003C183.968 164.092 183.997 164.181 184.027 164.225C184.057 164.269 184.116 164.343 184.235 164.306C185.86 163.847 187.522 163.625 189.161 163.625V163.618Z" fill="black"/>
<path d="M1666.88 287.058C1663.21 290.619 1661.77 295.943 1663.17 300.851C1663.29 301.284 1662.75 301.6 1662.44 301.272C1658.87 297.612 1653.54 296.183 1648.61 297.577C1648.18 297.7 1647.86 297.161 1648.19 296.845C1651.86 293.289 1653.29 287.965 1651.9 283.046C1651.77 282.612 1652.31 282.296 1652.63 282.624C1656.2 286.29 1661.53 287.714 1666.46 286.32C1666.89 286.197 1667.21 286.735 1666.88 287.052V287.058Z" fill="white"/>
<path d="M1662.75 301.699C1662.57 301.699 1662.38 301.623 1662.23 301.477C1658.73 297.875 1653.54 296.487 1648.7 297.857C1648.37 297.951 1648.04 297.816 1647.87 297.518C1647.7 297.225 1647.75 296.868 1647.99 296.627C1651.6 293.131 1652.99 287.953 1651.61 283.121C1651.52 282.793 1651.65 282.46 1651.95 282.29C1652.24 282.12 1652.6 282.173 1652.84 282.413C1656.34 286.015 1661.53 287.403 1666.38 286.032C1666.7 285.939 1667.04 286.073 1667.21 286.366C1667.38 286.659 1667.33 287.016 1667.09 287.256C1663.48 290.753 1662.09 295.93 1663.46 300.762C1663.55 301.09 1663.42 301.424 1663.12 301.594C1663.01 301.664 1662.88 301.694 1662.75 301.694V301.699ZM1652.43 296.75C1656.23 296.75 1659.93 298.267 1662.65 301.067C1662.73 301.137 1662.8 301.114 1662.83 301.09C1662.87 301.067 1662.92 301.02 1662.9 300.926C1661.46 295.889 1662.91 290.489 1666.68 286.841C1666.75 286.77 1666.73 286.7 1666.7 286.665C1666.68 286.63 1666.63 286.571 1666.54 286.6C1661.49 288.035 1656.08 286.583 1652.42 282.829C1652.35 282.758 1652.28 282.782 1652.24 282.805C1652.21 282.829 1652.15 282.875 1652.18 282.969C1653.61 288.012 1652.16 293.406 1648.4 297.055C1648.33 297.125 1648.35 297.196 1648.37 297.231C1648.4 297.266 1648.44 297.324 1648.54 297.295C1649.82 296.932 1651.14 296.756 1652.43 296.756V296.75Z" fill="black"/>
<path d="M1224.83 110.087C1224.83 110.087 1235.44 105.262 1238.66 112.744C1238.66 112.744 1240.49 101.668 1252.73 103.787C1252.73 103.787 1240.32 97.3737 1247.66 85.8152C1247.66 85.8152 1240.39 92.1154 1237.95 89.0141C1235.5 85.9127 1231.42 62.1601 1208.01 50.8808C1184.6 39.6015 1105.25 30.9153 1009.9 192.453L1029.32 205.294C1029.32 205.294 1067.21 129.176 1130.33 80.7049C1193.46 32.2335 1220.5 59.9018 1229.38 80.5781C1232.56 88.1615 1233.2 92.3174 1228.43 93.4768C1223.66 94.6362 1221.46 95.1797 1221.46 95.1797C1221.46 95.1797 1234.34 97.3105 1224.81 110.079L1224.83 110.087Z" fill="#FAE379"/>
<path d="M1029.71 206.932L1008.55 192.927L1009.04 192.084C1115.37 11.7925 1199.25 45.5496 1208.46 49.9947C1227.4 59.129 1233.89 76.239 1237.01 84.4591C1237.7 86.306 1238.32 87.9083 1238.73 88.4284C1238.96 88.7244 1239.27 88.8726 1239.71 88.8991C1241.9 89.086 1245.71 86.2223 1247 85.1058L1252.18 80.6124L1248.51 86.4044C1246.56 89.4536 1245.93 92.3812 1246.61 95.1143C1247.86 100.117 1253.14 102.918 1253.19 102.944L1259.07 106.005L1252.51 104.859C1248.94 104.238 1245.97 104.754 1243.72 106.376C1240.36 108.81 1239.65 112.917 1239.64 112.954L1239.05 116.41L1237.69 113.255C1234.91 106.78 1225.56 110.913 1225.18 111.095L1221.65 112.692L1223.97 109.571C1226.83 105.724 1227.85 102.596 1226.97 100.269C1225.76 97.0734 1221.27 96.2819 1221.23 96.2645L1216.5 95.4695L1221.21 94.2833C1221.21 94.2833 1223.4 93.7309 1228.19 92.5611C1229.78 92.1777 1230.28 91.5269 1230.51 91.065C1231.52 89.0783 1230.01 84.9123 1228.41 81.0682C1225.12 73.4091 1217.17 59.9673 1200.86 55.9776C1182.44 51.4704 1158.9 60.0847 1130.91 81.5863C1068.7 129.399 1030.58 205.131 1030.21 205.889L1029.68 206.942L1029.71 206.932ZM1011.29 192.252L1028.97 203.963C1033.82 194.591 1071.16 124.996 1129.74 79.9695C1158.25 58.0541 1182.36 49.3261 1201.43 53.9829C1218.58 58.1724 1226.88 72.2179 1230.32 80.2023C1232.5 85.3757 1233.67 89.3576 1232.35 91.954C1231.71 93.2473 1230.45 94.1073 1228.64 94.5416C1227.21 94.8849 1226.01 95.1774 1225.02 95.4102C1226.53 96.2065 1228.15 97.4661 1228.89 99.4762C1229.81 101.912 1229.29 104.846 1227.32 108.206C1230.94 107.246 1235.62 107.12 1238.33 110.354C1239 108.659 1240.28 106.41 1242.57 104.741C1244.42 103.411 1246.6 102.676 1249.11 102.581C1247.39 101.06 1245.42 98.758 1244.63 95.6986C1244.09 93.556 1244.2 91.3433 1244.98 89.0791C1243.26 90.1322 1241.2 91.0838 1239.49 90.9496C1238.52 90.8714 1237.7 90.452 1237.12 89.7165C1236.54 88.9537 1235.98 87.4689 1235.13 85.2238C1232.1 77.2301 1225.81 60.6269 1207.55 51.8238C1198.53 47.4746 1116.44 14.5075 1011.28 192.225L1011.29 192.252Z" fill="black"/>
<path d="M999.197 164.117C999.015 164.031 998.888 163.837 998.917 163.603C999.434 159.705 1000.45 155.884 1001.95 152.196C1002.06 151.933 1002.35 151.8 1002.61 151.901C1002.87 151.976 1003 152.287 1002.89 152.55C1001.43 156.139 1000.43 159.878 999.93 163.695C999.901 163.974 999.644 164.169 999.361 164.148C999.307 164.123 999.243 164.115 999.206 164.098L999.197 164.117Z" fill="black"/>
<path d="M1000.54 204.244C1000.42 204.184 1000.3 204.06 1000.26 203.906C998.08 193.24 995.608 181.138 998.485 169.565C998.551 169.3 998.825 169.113 999.106 169.179C999.387 169.245 999.549 169.504 999.474 169.787C996.644 181.132 999.108 193.116 1001.25 203.675C1001.32 203.954 1001.13 204.231 1000.86 204.282C1000.73 204.312 1000.63 204.288 1000.52 204.236L1000.54 204.244Z" fill="black"/>
<path d="M1049.58 182.774C1049.58 182.774 1049.54 182.757 1049.53 182.749C1049.28 182.611 1049.22 182.291 1049.38 182.054L1053.26 176.096C1053.42 175.86 1053.74 175.807 1053.95 175.927C1054.2 176.064 1054.26 176.385 1054.1 176.622L1050.22 182.579C1050.08 182.807 1049.8 182.876 1049.56 182.766L1049.58 182.774Z" fill="black"/>
<path d="M1024.47 208.156C1024.47 208.156 1024.32 208.061 1024.27 207.972C1024.12 207.742 1024.18 207.434 1024.42 207.276C1032.81 201.793 1040.07 194.448 1045.42 186.024C1045.57 185.778 1045.91 185.715 1046.11 185.855C1046.36 185.993 1046.42 186.315 1046.26 186.535C1040.84 195.06 1033.46 202.507 1024.95 208.091C1024.79 208.194 1024.61 208.198 1024.46 208.13L1024.47 208.156Z" fill="black"/>
<path d="M1005.33 213.101C1005.88 213.468 1006.57 213.572 1007.11 213.977C1007.83 214.517 1008.1 215.513 1008.64 216.242C1009.54 217.427 1011.07 217.855 1012.52 218.146C1014.85 218.639 1017.26 219.01 1019.65 218.601C1021.24 218.332 1022.77 217.712 1024.38 217.591C1026.31 217.444 1028.21 218.031 1030.13 218.135C1030.91 218.191 1031.9 217.982 1032.07 217.18C1032.16 216.733 1031.93 216.293 1031.92 215.848C1031.91 214.587 1033.55 214.112 1034.79 214.046C1036.69 213.956 1038.61 213.846 1040.52 213.764C1041.42 213.716 1042.34 213.657 1043.12 213.175C1043.89 212.693 1044.4 211.615 1043.96 210.818C1043.77 210.47 1043.46 210.245 1043.13 210.04C1040.68 208.418 1037.83 207.436 1034.9 207.115C1033.05 206.926 1031.16 207.025 1029.31 207.115C1024.05 207.395 1018.78 207.648 1013.54 208.197C1011.23 208.436 1008.18 208.359 1005.98 209.115C1004.45 209.643 1003.64 211.925 1005.33 213.054L1005.33 213.101Z" fill="black"/>
<path d="M1017.32 182.282C1017.07 182.163 1016.97 181.87 1017.1 181.616C1018.04 179.677 1019.2 177.84 1020.57 176.142C1020.75 175.914 1021.08 175.888 1021.29 176.053C1021.5 176.218 1021.54 176.53 1021.36 176.758C1020.05 178.393 1018.92 180.175 1018.01 182.041C1017.88 182.295 1017.58 182.401 1017.32 182.282Z" fill="black"/>
<path d="M1025.54 183.682C1025.54 183.682 1025.48 183.657 1025.45 183.64C1025.22 183.467 1025.19 183.163 1025.35 182.945C1028.42 178.972 1031.26 174.799 1033.81 170.517C1033.94 170.264 1034.29 170.183 1034.51 170.33C1034.77 170.449 1034.83 170.769 1034.69 170.996C1032.12 175.314 1029.26 179.541 1026.18 183.532C1026.03 183.732 1025.76 183.784 1025.54 183.682Z" fill="black"/>
<path d="M1038.89 163.54C1038.63 163.421 1038.54 163.11 1038.69 162.865L1041.1 158.452C1041.23 158.198 1041.53 158.11 1041.8 158.238C1042.06 158.357 1042.15 158.667 1042 158.912L1039.59 163.326C1039.47 163.561 1039.15 163.659 1038.91 163.548L1038.89 163.54Z" fill="black"/>
<path d="M1008.71 213.129C1015.65 216.49 1024.15 213.441 1027.69 206.319C1031.23 199.197 1028.47 190.7 1021.53 187.339C1014.59 183.979 1006.09 187.028 1002.55 194.149C999.004 201.271 1001.76 209.769 1008.71 213.129Z" fill="#FAE379"/>
<path d="M1008.23 214.073C1000.79 210.471 997.846 201.345 1001.63 193.73C1005.42 186.115 1014.56 182.837 1021.98 186.43C1029.4 190.024 1032.37 199.159 1028.58 206.774C1024.8 214.388 1015.66 217.666 1008.23 214.073ZM1021.07 188.265C1014.64 185.152 1006.73 187.99 1003.45 194.586C1000.17 201.182 1002.73 209.09 1009.17 212.202C1015.6 215.314 1023.51 212.477 1026.79 205.881C1030.07 199.285 1027.5 191.377 1021.07 188.265Z" fill="black"/>
<path d="M32.1325 431.014L16.3177 445.092C14.4716 446.735 13.6481 449.243 14.1534 451.67L18.4927 472.472C18.9999 474.901 20.7608 476.88 23.1121 477.664L43.2639 484.39C45.6173 485.176 48.2016 484.646 50.0477 483.003L65.8625 468.926C67.7085 467.283 68.5321 464.774 68.0268 462.347L63.6875 441.546C63.1802 439.117 61.4194 437.138 59.0681 436.354L38.9162 429.628C36.5629 428.842 33.9786 429.371 32.1325 431.014Z" fill="#FAE379"/>
<path d="M65.9644 469.041L50.1496 483.118C48.27 484.791 45.6145 485.335 43.2173 484.536L23.0654 477.81C20.6681 477.011 18.8592 474.978 18.3458 472.505L14.0045 451.702C13.4891 449.227 14.3377 446.652 16.2173 444.979L32.0321 430.902C33.9118 429.229 36.5672 428.685 38.9645 429.484L59.1164 436.21C61.5137 437.009 63.3226 439.042 63.836 441.515L68.1753 462.316C68.6906 464.79 67.8421 467.365 65.9624 469.038L65.9644 469.041ZM16.4176 445.204C14.6164 446.808 13.806 449.272 14.2996 451.641L18.6389 472.442C19.1325 474.811 20.8633 476.756 23.1581 477.522L43.31 484.248C45.6049 485.013 48.146 484.494 49.9473 482.891L65.7621 468.813C67.5634 467.21 68.3738 464.746 67.8802 462.377L63.5409 441.576C63.0473 439.207 61.3165 437.262 59.0217 436.496L38.8698 429.77C36.5749 429.005 34.0337 429.524 32.2325 431.127L16.4176 445.204Z" fill="black"/>
<path d="M53.7304 445.641C54.8716 446.916 55.159 448.513 54.3713 449.21C54.2681 449.301 54.1511 449.372 54.0245 449.424C54.468 448.63 54.1198 447.28 53.129 446.173C52.1383 445.066 50.8277 444.563 49.9831 444.909C50.0495 444.79 50.1345 444.683 50.2377 444.591C51.0253 443.895 52.5892 444.366 53.7304 445.641Z" fill="#485868"/>
<path d="M53.1324 446.183C54.1229 447.291 54.4709 448.643 54.0276 449.438C53.1833 449.784 51.8752 449.283 50.8848 448.175C49.8943 447.067 49.5443 445.713 49.9876 444.918C50.8319 444.572 52.142 445.075 53.1324 446.183Z" fill="black"/>
<path d="M44.4477 435.335C45.5909 436.612 45.8782 438.209 45.0906 438.906C44.9873 438.997 44.8703 439.069 44.7438 439.121C45.1872 438.327 44.8391 436.976 43.8463 435.867C42.8535 434.758 41.547 434.26 40.7024 434.605C40.7688 434.486 40.8537 434.379 40.9569 434.288C41.7446 433.591 43.3064 434.06 44.4477 435.335Z" fill="#485868"/>
<path d="M43.8492 435.876C44.8416 436.986 45.1897 438.338 44.7464 439.133C43.9021 439.479 42.594 438.978 41.6015 437.867C40.6091 436.757 40.2631 435.407 40.7064 434.613C41.5506 434.267 42.8587 434.768 43.8492 435.876Z" fill="black"/>
<path d="M63.8677 459.764C64.6542 459.067 64.3665 457.465 63.2252 456.186C62.0838 454.908 60.521 454.437 59.7346 455.135C58.9481 455.832 59.2358 457.434 60.3771 458.713C61.5185 459.991 63.0813 460.462 63.8677 459.764Z" fill="black"/>
<path d="M46.8637 451.826C48.0049 453.101 48.2923 454.698 47.5046 455.395C47.4014 455.486 47.2844 455.558 47.1578 455.609C47.6013 454.815 47.2531 453.465 46.2623 452.358C45.2716 451.251 43.961 450.748 43.1164 451.094C43.1828 450.975 43.2678 450.868 43.371 450.776C44.1586 450.08 45.7225 450.551 46.8637 451.826Z" fill="#485868"/>
<path d="M46.2652 452.368C47.2557 453.476 47.6037 454.828 47.1604 455.623C46.3161 455.969 45.0081 455.467 44.0176 454.359C43.0271 453.251 42.6771 451.897 43.1204 451.102C43.9647 450.756 45.2748 451.26 46.2652 452.368Z" fill="black"/>
<path d="M60.4384 439.6C61.5796 440.875 61.8647 442.473 61.0793 443.168C60.9761 443.26 60.8591 443.331 60.7325 443.383C61.1717 442.589 60.8278 441.239 59.8371 440.132C58.8463 439.025 57.5355 438.526 56.6932 438.87C56.7576 438.748 56.8425 438.641 56.9457 438.55C57.7311 437.855 59.2972 438.324 60.4384 439.6Z" fill="#485868"/>
<path d="M59.8407 440.141C60.8311 441.25 61.1749 442.601 60.7359 443.396C59.8916 443.742 58.5812 443.243 57.5908 442.135C56.6003 441.027 56.2526 439.671 56.6978 438.878C57.5399 438.534 58.8502 439.033 59.8407 440.141Z" fill="black"/>
<path d="M20.6807 451.03C21.6422 449.619 21.716 447.992 20.8455 447.395C19.9749 446.798 18.4897 447.457 17.5282 448.868C16.5666 450.278 16.4928 451.906 17.3634 452.503C18.2339 453.1 19.7191 452.44 20.6807 451.03Z" fill="black"/>
<path d="M33.5303 439.453C34.4918 438.042 34.5656 436.415 33.6951 435.818C32.8245 435.22 31.3393 435.88 30.3778 437.291C29.4162 438.701 29.3424 440.329 30.213 440.926C31.0835 441.523 32.5687 440.863 33.5303 439.453Z" fill="black"/>
<path d="M23.9329 462.784C23.092 462.37 21.7801 462.999 20.9155 464.272C20 465.619 19.9285 467.171 20.7587 467.741C20.8222 467.785 20.8904 467.821 20.9611 467.851C20.669 467.861 20.3941 467.791 20.1646 467.632C19.2915 467.032 19.3652 465.402 20.3292 463.987C21.2909 462.575 22.7748 461.913 23.6479 462.513C23.7587 462.588 23.8535 462.681 23.9329 462.784Z" fill="#485868"/>
<path d="M21.1091 447.638C20.2682 447.224 18.9564 447.853 18.0918 449.126C17.1763 450.473 17.1048 452.025 17.935 452.595C17.9985 452.639 18.0667 452.675 18.1374 452.705C17.8453 452.715 17.5704 452.645 17.3409 452.486C16.4678 451.886 16.5415 450.256 17.5055 448.841C18.4672 447.429 19.951 446.767 20.8242 447.367C20.9349 447.442 21.0298 447.535 21.1091 447.638Z" fill="#485868"/>
<path d="M33.9422 436.043C33.1012 435.629 31.7894 436.258 30.9248 437.531C30.0093 438.878 29.9378 440.43 30.768 440.999C30.8315 441.044 30.8997 441.08 30.9704 441.11C30.6783 441.12 30.4034 441.05 30.1739 440.891C29.3008 440.291 29.3745 438.66 30.3385 437.246C31.3002 435.833 32.784 435.172 33.6572 435.772C33.7679 435.847 33.8628 435.94 33.9422 436.043Z" fill="#485868"/>
<path d="M23.9344 462.778C24.4874 463.514 24.3242 464.918 23.4851 466.152C22.7781 467.191 21.7852 467.822 20.9623 467.845C20.8916 467.815 20.8233 467.779 20.7598 467.734C19.9294 467.165 20.0008 465.613 20.9164 464.266C21.7812 462.993 23.0933 462.364 23.9344 462.778Z" fill="black"/>
<path d="M37.1904 454.2C38.152 452.789 38.2258 451.162 37.3552 450.565C36.4847 449.968 34.9995 450.627 34.0379 452.038C33.0764 453.448 33.0026 455.076 33.8731 455.673C34.7437 456.27 36.2289 455.61 37.1904 454.2Z" fill="black"/>
<path d="M32.8758 473.271C33.0128 473.411 33.1121 473.578 33.1698 473.765C33.484 474.775 32.4133 476.001 30.7784 476.501C29.165 476.999 27.6038 476.596 27.2691 475.609C27.8699 476.25 29.1636 476.45 30.4995 476.042C32.1324 475.54 33.2009 474.315 32.8889 473.304C32.8854 473.29 32.8816 473.282 32.8758 473.271Z" fill="#485868"/>
<path d="M39.998 466.856C40.1349 466.997 40.2342 467.163 40.2919 467.35C40.6061 468.36 39.5354 469.586 37.9005 470.087C36.2829 470.584 34.7196 470.179 34.3872 469.189C34.9858 469.832 36.2835 470.037 37.6217 469.628C39.2523 469.127 40.323 467.901 40.011 466.889C40.0075 466.876 40.0037 466.867 39.998 466.856Z" fill="#485868"/>
<path d="M46.5783 460.929C46.7152 461.069 46.8146 461.236 46.8723 461.423C47.1842 462.435 46.1158 463.659 44.4809 464.159C42.8675 464.657 41.3062 464.254 40.9694 463.269C41.566 463.909 42.8638 464.11 44.202 463.7C45.8327 463.2 46.9034 461.973 46.5914 460.962C46.5879 460.948 46.5841 460.94 46.5783 460.929Z" fill="#485868"/>
<path d="M47.2902 477.852C47.4272 477.993 47.5287 478.157 47.5864 478.344C47.8984 479.356 46.8277 480.583 45.1948 481.085C43.5816 481.579 42.0202 481.18 41.6835 480.19C42.2821 480.833 43.5777 481.036 44.9139 480.624C46.5488 480.124 47.6195 478.897 47.3033 477.885C47.2998 477.872 47.296 477.863 47.2902 477.852Z" fill="#485868"/>
<path d="M54.0098 471.8C54.1464 471.945 54.246 472.107 54.3037 472.294C54.6157 473.306 53.5449 474.532 51.9143 475.033C50.2989 475.528 48.7374 475.13 48.4008 474.14C48.9994 474.783 50.2973 474.984 51.6312 474.574C53.2661 474.073 54.3368 472.847 54.0228 471.833C54.0193 471.82 54.0155 471.811 54.0098 471.8Z" fill="#485868"/>
<path d="M60.8345 465.654C60.9711 465.799 61.0707 465.961 61.1284 466.148C61.4404 467.16 60.3697 468.386 58.739 468.887C57.1236 469.382 55.5621 468.984 55.2255 467.994C55.8241 468.637 57.122 468.838 58.4559 468.428C60.0908 467.927 61.1615 466.701 60.8475 465.687C60.844 465.674 60.8402 465.665 60.8345 465.654Z" fill="#485868"/>
<path d="M32.8726 473.277C32.8726 473.277 32.8821 473.297 32.8856 473.31C33.1974 474.32 32.129 475.544 30.4964 476.046C29.1607 476.454 27.8674 476.254 27.2669 475.614C27.2611 475.603 27.2574 475.594 27.2538 475.581C26.9399 474.572 28.0105 473.347 29.6451 472.846C30.9787 472.437 32.272 472.637 32.8726 473.277Z" fill="black"/>
<path d="M39.9947 466.862C39.9947 466.862 40.0042 466.882 40.0077 466.895C40.3195 467.905 39.2488 469.131 37.6185 469.631C36.2806 470.041 34.9833 469.836 34.385 469.194C34.379 469.187 34.3774 469.176 34.3737 469.168C34.0619 468.157 35.1326 466.932 36.7671 466.431C38.1008 466.022 39.3941 466.222 39.9947 466.862Z" fill="black"/>
<path d="M46.5755 460.935C46.5755 460.935 46.585 460.954 46.5886 460.967C46.9003 461.978 45.8296 463.204 44.1993 463.704C42.8614 464.113 41.5639 463.913 40.9676 463.273C40.9596 463.264 40.958 463.253 40.9545 463.24C40.6428 462.23 41.7134 461.004 43.348 460.504C44.6817 460.094 45.975 460.294 46.5755 460.935Z" fill="black"/>
<path d="M47.2866 477.858C47.2866 477.858 47.2962 477.878 47.2997 477.891C47.6157 478.902 46.545 480.128 44.9105 480.628C43.5746 481.039 42.2793 480.837 41.681 480.195C41.6729 480.186 41.6714 480.175 41.6679 480.162C41.3562 479.152 42.4246 477.928 44.0591 477.428C45.3928 477.018 46.6881 477.221 47.2866 477.858Z" fill="black"/>
<path d="M54.0062 471.806C54.0062 471.806 54.0157 471.826 54.0192 471.839C54.333 472.852 53.2623 474.077 51.6278 474.578C50.2941 474.987 48.9965 474.787 48.3982 474.145C48.3925 474.134 48.3887 474.125 48.3852 474.112C48.0734 473.101 49.1441 471.876 50.7786 471.376C52.1101 470.968 53.4056 471.166 54.0062 471.806Z" fill="black"/>
<path d="M60.8309 465.66C60.8309 465.66 60.8404 465.679 60.8439 465.692C61.1577 466.705 60.087 467.931 58.4525 468.431C57.1188 468.841 55.8213 468.64 55.2229 467.998C55.2172 467.987 55.2134 467.979 55.2099 467.966C54.8981 466.955 55.9688 465.729 57.6033 465.229C58.9348 464.821 60.2303 465.02 60.8309 465.66Z" fill="black"/>
<path d="M37.6301 450.823C36.7892 450.409 35.4774 451.038 34.6128 452.312C33.6973 453.658 33.6258 455.21 34.456 455.78C34.5195 455.824 34.5877 455.86 34.6584 455.89C34.3663 455.9 34.0914 455.83 33.8619 455.671C32.9888 455.071 33.0625 453.441 34.0265 452.026C34.9882 450.614 36.472 449.952 37.3452 450.552C37.4559 450.627 37.5508 450.72 37.6301 450.823Z" fill="#485868"/>
<path d="M63.226 456.184C64.3672 457.459 64.6546 459.056 63.867 459.753C63.7637 459.844 63.6467 459.916 63.5202 459.968C63.9636 459.174 63.6154 457.823 62.6246 456.716C61.6338 455.609 60.3233 455.107 59.4787 455.452C59.5451 455.333 59.6301 455.226 59.7333 455.135C60.5209 454.438 62.0848 454.909 63.226 456.184Z" fill="#485868"/>
</svg>
