<svg width="94" height="77" viewBox="0 0 94 77" fill="none" xmlns="http://www.w3.org/2000/svg">
<path d="M62.9064 0.224697L31.0459 0.224697C27.3268 0.224697 23.892 2.20191 22.0325 5.40589L6.10445 32.8756C4.2449 36.0841 4.2449 40.034 6.10445 43.238L22.0325 70.7078C23.892 73.9162 27.3268 75.889 31.0459 75.889L62.9064 75.889C66.6255 75.889 70.0603 73.9117 71.9198 70.7078L87.8479 43.238C89.7074 40.0295 89.7074 36.0796 87.8479 32.8756L71.9198 5.40589C70.0603 2.19741 66.6255 0.224697 62.9064 0.224697Z" fill="#F4A97A"/>
<path d="M62.9062 76.1181L31.0456 76.1181C27.2588 76.1181 23.7293 74.0914 21.8337 70.8245L5.90562 43.3548C4.00997 40.0879 4.00997 36.0301 5.90562 32.7677L21.8337 5.29347C23.7293 2.02658 27.2588 -6.11765e-05 31.0456 -6.11967e-05L62.9062 -6.13663e-05C66.693 -6.13865e-05 70.2225 2.02658 72.1182 5.29347L88.0462 32.7632C89.9419 36.0301 89.9419 40.0879 88.0462 43.3503L72.1182 70.82C70.2225 74.0869 66.693 76.1136 62.9062 76.1136L62.9062 76.1181ZM31.0456 0.449305C27.4168 0.449305 24.0407 2.39057 22.2263 5.51815L6.29829 32.9879C4.48388 36.1155 4.48388 39.998 6.29829 43.1256L22.2263 70.5954C24.0407 73.7229 27.4168 75.6642 31.0456 75.6642L62.9062 75.6642C66.535 75.6642 69.9111 73.7229 71.7255 70.5954L87.6535 43.1256C89.468 39.998 89.468 36.1155 87.6535 32.9879L71.7255 5.51815C69.9111 2.39057 66.535 0.449305 62.9062 0.449305L31.0456 0.449305Z" fill="black"/>
<path d="M72.4885 38.0614C72.4885 40.6183 71.2067 42.6899 69.6225 42.6899C69.4148 42.6899 69.2117 42.6539 69.0177 42.5865C70.313 42.1372 71.2789 40.2813 71.2789 38.0614C71.2789 35.8415 70.313 33.9812 69.0177 33.5318C69.2117 33.4644 69.4148 33.4285 69.6225 33.4285C71.2067 33.4285 72.4885 35.5045 72.4885 38.0614Z" fill="#485868"/>
<path d="M71.2789 38.0614C71.2789 40.2813 70.313 42.1372 69.0177 42.5865C67.7223 42.1372 66.7563 40.2812 66.7563 38.0613C66.7563 35.8415 67.7223 33.9812 69.0177 33.5318C70.313 33.9812 71.2789 35.8415 71.2789 38.0614Z" fill="black"/>
<path d="M72.4885 17.2961C72.4885 19.8575 71.2067 21.929 69.6225 21.929C69.4148 21.929 69.2117 21.8931 69.0177 21.8257C70.313 21.3763 71.2789 19.5204 71.2789 17.2961C71.2789 15.0717 70.313 13.2203 69.0177 12.771C69.2117 12.7035 69.4148 12.6676 69.6225 12.6676C71.2067 12.6676 72.4885 14.7392 72.4885 17.2961Z" fill="#485868"/>
<path d="M71.2789 17.2961C71.2789 19.5204 70.313 21.3763 69.0177 21.8257C67.7223 21.3763 66.7563 19.5204 66.7563 17.296C66.7563 15.0716 67.7223 13.2203 69.0177 12.771C70.313 13.2203 71.2789 15.0762 71.2789 17.2961Z" fill="black"/>
<path d="M69.6223 63.9314C71.2052 63.9314 72.4884 61.8572 72.4884 59.2984C72.4884 56.7397 71.2052 54.6655 69.6223 54.6655C68.0395 54.6655 66.7563 56.7397 66.7563 59.2984C66.7563 61.8572 68.0395 63.9314 69.6223 63.9314Z" fill="black"/>
<path d="M58.6232 38.0614C58.6232 40.6183 57.3414 42.6899 55.7571 42.6899C55.5495 42.6899 55.3464 42.6539 55.1523 42.5865C56.4477 42.1372 57.4136 40.2813 57.4136 38.0614C57.4136 35.8415 56.4477 33.9812 55.1523 33.5318C55.3464 33.4644 55.5495 33.4285 55.7571 33.4285C57.3414 33.4285 58.6232 35.5045 58.6232 38.0614Z" fill="#485868"/>
<path d="M57.4136 38.0614C57.4136 40.2813 56.4477 42.1372 55.1523 42.5865C53.857 42.1372 52.891 40.2812 52.891 38.0613C52.891 35.8415 53.857 33.9812 55.1523 33.5318C56.4477 33.9812 57.4136 35.8415 57.4136 38.0614Z" fill="black"/>
<path d="M86.0335 38.0614C86.0335 40.6183 84.7471 42.6899 83.1674 42.6899C82.9598 42.6899 82.7567 42.6539 82.5626 42.5865C83.8535 42.1327 84.8239 40.2813 84.8239 38.0614C84.8239 35.8415 83.8535 33.9857 82.5626 33.5363C82.7567 33.4644 82.9598 33.4285 83.1674 33.4285C84.7471 33.4285 86.0335 35.5045 86.0335 38.0614Z" fill="#485868"/>
<path d="M84.8239 38.0614C84.8239 40.2813 83.8535 42.1327 82.5626 42.5865C81.2673 42.1372 80.2967 40.2813 80.2967 38.0614C80.2967 35.8415 81.2672 33.9812 82.5626 33.5363C83.8535 33.9857 84.8239 35.8415 84.8239 38.0614Z" fill="black"/>
<path d="M30.2467 10.9455C32.7408 10.3282 34.4531 8.58803 34.0712 7.05865C33.6893 5.52927 31.3579 4.78985 28.8638 5.40713C26.3697 6.02441 24.6574 7.76462 25.0393 9.294C25.4212 10.8234 27.7526 11.5628 30.2467 10.9455Z" fill="black"/>
<path d="M56.1955 10.9417C58.6896 10.3244 60.4019 8.58422 60.02 7.05484C59.6382 5.52546 57.3068 4.78604 54.8127 5.40332C52.3186 6.0206 50.6063 7.76081 50.9881 9.29019C51.37 10.8196 53.7014 11.559 56.1955 10.9417Z" fill="black"/>
<path d="M22.0594 27.2718C21.5269 25.9776 19.4236 25.3755 17.1804 25.9327C14.8063 26.5214 13.1769 28.175 13.5425 29.631C13.5696 29.7433 13.6102 29.8512 13.6599 29.9545C13.3214 29.6759 13.0822 29.3254 12.9829 28.921C12.5992 27.3887 14.3098 25.6496 16.8058 25.034C19.2972 24.4183 21.6262 25.1553 22.0098 26.6876C22.0594 26.8809 22.073 27.0786 22.0594 27.2718Z" fill="#485868"/>
<path d="M34.1196 7.59408C33.587 6.29991 31.4837 5.69775 29.2406 6.25497C26.8665 6.84364 25.2371 8.4973 25.6027 9.95325C25.6298 10.0656 25.6704 10.1734 25.7201 10.2768C25.3815 9.99819 25.1423 9.64768 25.043 9.24325C24.6594 7.71091 26.37 5.97187 28.8659 5.35624C31.3574 4.74061 33.6863 5.47757 34.07 7.0099C34.1196 7.20313 34.1332 7.40085 34.1196 7.59408Z" fill="#485868"/>
<path d="M60.0675 7.55379C59.5349 6.25962 57.4316 5.65747 55.1884 6.21468C52.8143 6.80335 51.185 8.45702 51.5506 9.91296C51.5776 10.0253 51.6183 10.1332 51.6679 10.2365C51.3294 9.9579 51.0902 9.60739 50.9909 9.20296C50.6072 7.67062 52.3179 5.93158 54.8138 5.31595C57.3052 4.70032 59.6342 5.43728 60.0178 6.96961C60.0675 7.16284 60.081 7.36056 60.0675 7.55379Z" fill="#485868"/>
<path d="M22.0594 27.2718C21.9466 28.6379 20.3621 30.0357 18.1867 30.5749C16.3542 31.0288 14.6077 30.7454 13.6599 29.9545C13.6102 29.8512 13.5696 29.7433 13.5425 29.631C13.1769 28.175 14.8063 26.5214 17.1804 25.9327C19.4236 25.3755 21.5269 25.9776 22.0594 27.2718Z" fill="black"/>
<path d="M45.4697 31.0128C47.9637 30.3955 49.676 28.6553 49.2942 27.1259C48.9123 25.5965 46.5809 24.8571 44.0868 25.4744C41.5927 26.0917 39.8804 27.8319 40.2623 29.3613C40.6442 30.8906 42.9756 31.6301 45.4697 31.0128Z" fill="black"/>
<path d="M21.5047 47.8939C21.5182 48.186 21.4641 48.4691 21.3422 48.7342C20.6878 50.1677 18.2595 50.4687 15.9215 49.4037C13.6107 48.3567 12.2566 46.3615 12.8659 44.9326C12.902 46.2402 14.1568 47.7456 16.066 48.6174C18.404 49.6779 20.8277 49.3768 21.4866 47.9433C21.4957 47.9253 21.5002 47.9119 21.5047 47.8939Z" fill="#485868"/>
<path d="M35.8846 47.8937C35.8982 48.1858 35.844 48.4689 35.7221 48.734C35.0677 50.1675 32.6394 50.4685 30.3015 49.4035C27.986 48.352 26.632 46.3524 27.2458 44.9234C27.2774 46.231 28.5322 47.7454 30.4459 48.6172C32.7793 49.6777 35.2076 49.3766 35.8666 47.9431C35.8756 47.9251 35.8801 47.9117 35.8846 47.8937Z" fill="#485868"/>
<path d="M49.1726 47.8938C49.1861 48.1859 49.132 48.469 49.0101 48.7341C48.3511 50.1676 45.9274 50.4686 43.5894 49.4036C41.2785 48.3566 39.9245 46.3614 40.5293 44.9324C40.5609 46.2356 41.8202 47.7455 43.7339 48.6173C46.0673 49.6778 48.4956 49.3767 49.1545 47.9432C49.1636 47.9252 49.1681 47.9117 49.1726 47.8938Z" fill="#485868"/>
<path d="M32.9735 67.4322C32.9871 67.7243 32.9374 68.0074 32.8156 68.2726C32.1566 69.706 29.7284 70.0071 27.3904 68.9466C25.084 67.8951 23.7255 65.9044 24.3348 64.4709C24.3664 65.7786 25.6211 67.2884 27.5348 68.1557C29.8728 69.2207 32.301 68.9196 32.9555 67.4817C32.9645 67.4637 32.969 67.4502 32.9735 67.4322Z" fill="#485868"/>
<path d="M46.5408 67.4322C46.5498 67.7288 46.5002 68.0074 46.3783 68.2726C45.7194 69.706 43.2911 70.0071 40.9577 68.9466C38.6468 67.8951 37.2882 65.9044 37.8975 64.4709C37.9291 65.7786 39.1884 67.2884 41.0976 68.1557C43.4356 69.2207 45.8638 68.9196 46.5228 67.4817C46.5318 67.4637 46.5363 67.4502 46.5408 67.4322Z" fill="#485868"/>
<path d="M60.3205 67.4322C60.3296 67.7288 60.2799 68.0074 60.158 68.2726C59.4991 69.706 57.0708 70.0071 54.7374 68.9466C52.4265 67.8951 51.0679 65.9044 51.6772 64.4709C51.7088 65.7786 52.9681 67.2884 54.8773 68.1557C57.2153 69.2207 59.6435 68.9196 60.3025 67.4817C60.3115 67.4637 60.316 67.4502 60.3205 67.4322Z" fill="#485868"/>
<path d="M21.5047 47.8939C21.5047 47.8939 21.4957 47.9253 21.4866 47.9433C20.8277 49.3768 18.404 49.6779 16.066 48.6174C14.1568 47.7456 12.902 46.2402 12.8659 44.9326C12.8704 44.9146 12.8743 44.9007 12.8833 44.8827C13.5377 43.4492 15.966 43.1482 18.304 44.2132C20.2132 45.0804 21.4686 46.5862 21.5047 47.8939Z" fill="black"/>
<path d="M35.8846 47.8937C35.8846 47.8937 35.8756 47.9251 35.8666 47.9431C35.2076 49.3766 32.7793 49.6777 30.4459 48.6172C28.5322 47.7454 27.2774 46.231 27.2458 44.9234C27.2458 44.9099 27.2542 44.8963 27.2587 44.8828C27.9176 43.4493 30.3459 43.1482 32.6839 44.2132C34.5931 45.0805 35.8485 46.586 35.8846 47.8937Z" fill="black"/>
<path d="M49.1726 47.8938C49.1726 47.8938 49.1636 47.9252 49.1545 47.9432C48.4956 49.3767 46.0673 49.6778 43.7339 48.6173C41.8202 47.7455 40.5609 46.2356 40.5293 44.9324C40.5293 44.9145 40.5374 44.9008 40.5465 44.8828C41.2054 43.4493 43.6337 43.1482 45.9717 44.2132C47.8809 45.0805 49.1365 46.5861 49.1726 47.8938Z" fill="black"/>
<path d="M32.9735 67.4322C32.9735 67.4322 32.9645 67.4637 32.9555 67.4817C32.301 68.9196 29.8728 69.2207 27.5348 68.1557C25.6211 67.2884 24.3664 65.7786 24.3348 64.4709C24.3348 64.4529 24.343 64.4392 24.352 64.4212C25.011 62.9877 27.4347 62.6866 29.7727 63.7516C31.6819 64.6189 32.9374 66.1291 32.9735 67.4322Z" fill="black"/>
<path d="M46.5408 67.4322C46.5408 67.4322 46.5318 67.4637 46.5228 67.4817C45.8638 68.9196 43.4356 69.2207 41.0976 68.1557C39.1884 67.2884 37.9291 65.7786 37.8975 64.4709C37.902 64.4529 37.9061 64.4392 37.9151 64.4212C38.5741 62.9877 41.0023 62.6866 43.3403 63.7516C45.245 64.6189 46.5047 66.1246 46.5408 67.4322Z" fill="black"/>
<path d="M60.3205 67.4322C60.3205 67.4322 60.3115 67.4637 60.3025 67.4817C59.6435 68.9196 57.2153 69.2207 54.8773 68.1557C52.9681 67.2884 51.7088 65.7786 51.6772 64.4709C51.6818 64.4529 51.6855 64.4392 51.6945 64.4212C52.3535 62.9877 54.7817 62.6866 57.1197 63.7516C59.0244 64.6189 60.2844 66.1246 60.3205 67.4322Z" fill="black"/>
<path d="M49.339 27.69C48.8065 26.3958 46.7032 25.7936 44.46 26.3508C42.0859 26.9395 40.4565 28.5932 40.8221 30.0491C40.8492 30.1615 40.8898 30.2693 40.9395 30.3727C40.601 30.0941 40.3618 29.7436 40.2625 29.3391C39.8788 27.8068 41.5894 26.0677 44.0854 25.4521C46.5768 24.8365 48.9057 25.5734 49.2894 27.1058C49.339 27.299 49.3526 27.4967 49.339 27.69Z" fill="#485868"/>
<path d="M72.4883 59.3028C72.4883 61.8597 71.2066 63.9314 69.6223 63.9314C69.4147 63.9314 69.2116 63.8953 69.0175 63.8279C70.3129 63.3785 71.2787 61.5227 71.2787 59.3028C71.2787 57.0829 70.3129 55.2225 69.0175 54.7732C69.2116 54.7058 69.4147 54.6698 69.6223 54.6698C71.2065 54.6698 72.4883 56.7459 72.4883 59.3028Z" fill="#485868"/>
<path d="M19.6757 17.607C14.972 17.4143 10.5076 19.8276 8.10474 23.8557C7.89013 24.2129 7.34131 24.0518 7.3589 23.635C7.5524 18.9555 5.12844 14.5106 1.07914 12.1183C0.720292 11.9047 0.882124 11.3583 1.30077 11.3758C6.00093 11.5684 10.4689 9.1551 12.8682 5.12006C13.0828 4.76279 13.6316 4.92391 13.614 5.34073C13.4206 10.0238 15.8445 14.4721 19.8938 16.8609C20.2527 17.0746 20.0908 17.621 19.6722 17.6035L19.6757 17.607Z" fill="white"/>
<path d="M7.76381 24.2304C7.70752 24.2304 7.65123 24.2234 7.59494 24.2059C7.33812 24.1288 7.16926 23.8976 7.18333 23.6314C7.3733 18.9939 5.00212 14.6402 0.991511 12.2724C0.759318 12.1358 0.653777 11.8696 0.731175 11.6139C0.808572 11.3582 1.03725 11.1831 1.30814 11.2006C5.96959 11.3967 10.339 9.02544 12.7173 5.03243C12.8545 4.80126 13.1183 4.69618 13.3787 4.77324C13.6355 4.8503 13.8043 5.08147 13.7903 5.34767C13.6003 9.98867 15.9715 14.3424 19.9856 16.7102C20.2178 16.8468 20.3233 17.113 20.2459 17.3687C20.1686 17.6244 19.9328 17.7925 19.669 17.7785C15.004 17.5859 10.6346 19.9502 8.25634 23.9432C8.14728 24.1218 7.96434 24.2269 7.76381 24.2269L7.76381 24.2304ZM1.28351 11.5508C1.16038 11.5508 1.09354 11.6349 1.06891 11.712C1.04428 11.7925 1.05836 11.9046 1.17093 11.9712C5.29412 14.4055 7.73215 18.8784 7.53514 23.6455C7.5281 23.775 7.61605 23.8451 7.69697 23.8696C7.77788 23.8941 7.89046 23.8801 7.9573 23.768C10.4024 19.663 14.895 17.2391 19.6866 17.4318C19.8167 17.4353 19.8871 17.3512 19.9117 17.2706C19.9364 17.1901 19.9223 17.078 19.8097 17.0115C15.6865 14.5771 13.245 10.1043 13.442 5.33366C13.449 5.20406 13.3611 5.13051 13.2802 5.10949C13.1992 5.08497 13.0867 5.09898 13.0198 5.21107C10.5748 9.31616 6.08217 11.7435 1.29407 11.5508C1.29055 11.5508 1.28703 11.5508 1.28351 11.5508Z" fill="black"/>
<path d="M90.6657 47.5274C89.5244 50.7753 90.3294 54.1633 92.7518 56.3045C92.9656 56.4937 92.7321 56.8594 92.432 56.7971C89.0666 56.1112 85.3136 57.2692 82.7112 59.8006C82.4816 60.0239 82.1145 59.848 82.2174 59.5587C83.3568 56.316 82.5518 52.928 80.1258 50.7804C79.9119 50.5913 80.1454 50.2256 80.4456 50.2879C83.8165 50.9748 87.5676 49.8137 90.17 47.2822C90.3996 47.0589 90.7667 47.2349 90.6638 47.5242L90.6657 47.5274Z" fill="white"/>
<path d="M92.7639 56.913C92.6478 56.9808 92.5074 57.0077 92.3702 56.9818C89.0597 56.3063 85.4105 57.4333 82.8551 59.9203C82.6816 60.0896 82.4319 60.1379 82.2318 60.0384C82.0336 59.942 81.9528 59.7303 82.0254 59.5139C83.1471 56.324 82.3632 53.0299 79.976 50.9234C79.8137 50.7805 79.7912 50.5517 79.9187 50.3541C80.0463 50.1564 80.2844 50.0554 80.5095 50.0979C83.82 50.7734 87.4692 49.6464 90.0282 47.1573C90.2017 46.988 90.4514 46.9397 90.6496 47.036C90.8479 47.1324 90.9323 47.342 90.8561 47.5606C89.7343 50.7504 90.5182 54.0445 92.9019 56.1532C93.0641 56.2961 93.0866 56.5248 92.9591 56.7225C92.9088 56.8028 92.8419 56.8631 92.762 56.9098L92.7639 56.913ZM84.8119 57.9742C87.1601 56.6017 89.9247 56.0851 92.5013 56.608C92.5672 56.6204 92.6033 56.5824 92.6177 56.557C92.632 56.5316 92.6534 56.4852 92.6055 56.4452C90.1205 54.2473 89.3022 50.8119 90.4736 47.4827C90.4949 47.4194 90.458 47.39 90.4323 47.3795C90.4067 47.3691 90.359 47.3545 90.3103 47.4042C87.641 50.0044 83.8371 51.1751 80.3802 50.4748C80.3143 50.4624 80.2782 50.5005 80.2639 50.5259C80.2495 50.5512 80.2281 50.5977 80.276 50.6376C82.7629 52.8387 83.583 56.2688 82.4116 59.598C82.3903 59.6613 82.4272 59.6907 82.4528 59.7012C82.4785 59.7117 82.5261 59.7263 82.5749 59.6765C83.2544 59.0162 84.0116 58.4462 84.8137 57.9774L84.8119 57.9742Z" fill="black"/>
</svg>
