<svg width="94" height="77" viewBox="0 0 94 77" fill="none" xmlns="http://www.w3.org/2000/svg">
<path d="M64.9694 0.224758H33.1088C29.3897 0.224758 25.9549 2.20197 24.0954 5.40595L8.16736 32.8757C6.30781 36.0842 6.30781 40.0341 8.16736 43.2381L24.0954 70.7078C25.9549 73.9163 29.3897 75.889 33.1088 75.889H64.9694C68.6885 75.889 72.1232 73.9118 73.9827 70.7078L89.9108 43.2381C91.7703 40.0296 91.7703 36.0797 89.9108 32.8757L73.9827 5.40595C72.1232 2.19747 68.6885 0.224758 64.9694 0.224758Z" fill="#FAE379"/>
<path d="M64.9691 76.1181H33.1085C29.3217 76.1181 25.7922 74.0915 23.8966 70.8246L7.96853 43.3548C6.07288 40.0879 6.07288 36.0302 7.96853 32.7678L23.8966 5.29353C25.7922 2.02664 29.3217 0 33.1085 0H64.9691C68.7559 0 72.2854 2.02664 74.1811 5.29353L90.1091 32.7633C92.0048 36.0302 92.0048 40.0879 90.1091 43.3503L74.1811 70.8201C72.2854 74.087 68.7559 76.1136 64.9691 76.1136V76.1181ZM33.1085 0.449366C29.4797 0.449366 26.1036 2.39063 24.2892 5.51822L8.3612 32.988C6.54679 36.1156 6.54679 39.9981 8.3612 43.1257L24.2892 70.5954C26.1036 73.723 29.4797 75.6643 33.1085 75.6643H64.9691C68.5979 75.6643 71.974 73.723 73.7884 70.5954L89.7165 43.1257C91.5309 39.9981 91.5309 36.1156 89.7165 32.988L73.7884 5.51822C71.974 2.39063 68.5979 0.449366 64.9691 0.449366H33.1085Z" fill="black"/>
<path d="M74.5514 38.0615C74.5514 40.6184 73.2696 42.6899 71.6854 42.6899C71.4778 42.6899 71.2747 42.654 71.0806 42.5866C72.3759 42.1372 73.3418 40.2813 73.3418 38.0615C73.3418 35.8416 72.3759 33.9812 71.0806 33.5319C71.2747 33.4645 71.4778 33.4285 71.6854 33.4285C73.2696 33.4285 74.5514 35.5046 74.5514 38.0615Z" fill="#485868"/>
<path d="M73.3418 38.0615C73.3418 40.2813 72.3759 42.1372 71.0806 42.5866C69.7852 42.1372 68.8192 40.2813 68.8192 38.0614C68.8192 35.8415 69.7852 33.9812 71.0806 33.5319C72.3759 33.9812 73.3418 35.8416 73.3418 38.0615Z" fill="black"/>
<path d="M74.5514 17.2961C74.5514 19.8575 73.2696 21.9291 71.6854 21.9291C71.4778 21.9291 71.2747 21.8931 71.0806 21.8257C72.3759 21.3764 73.3418 19.5205 73.3418 17.2961C73.3418 15.0718 72.3759 13.2204 71.0806 12.771C71.2747 12.7036 71.4778 12.6677 71.6854 12.6677C73.2696 12.6677 74.5514 14.7392 74.5514 17.2961Z" fill="#485868"/>
<path d="M73.3418 17.2961C73.3418 19.5205 72.3759 21.3764 71.0806 21.8257C69.7852 21.3764 68.8192 19.5204 68.8192 17.2961C68.8192 15.0717 69.7852 13.2204 71.0806 12.771C72.3759 13.2204 73.3418 15.0763 73.3418 17.2961Z" fill="black"/>
<path d="M71.6852 63.9315C73.2681 63.9315 74.5513 61.8572 74.5513 59.2985C74.5513 56.7398 73.2681 54.6655 71.6852 54.6655C70.1024 54.6655 68.8192 56.7398 68.8192 59.2985C68.8192 61.8572 70.1024 63.9315 71.6852 63.9315Z" fill="black"/>
<path d="M60.6861 38.0615C60.6861 40.6184 59.4043 42.6899 57.8201 42.6899C57.6124 42.6899 57.4093 42.654 57.2153 42.5866C58.5106 42.1372 59.4765 40.2813 59.4765 38.0615C59.4765 35.8416 58.5106 33.9812 57.2153 33.5319C57.4093 33.4645 57.6124 33.4285 57.8201 33.4285C59.4043 33.4285 60.6861 35.5046 60.6861 38.0615Z" fill="#485868"/>
<path d="M59.4765 38.0615C59.4765 40.2813 58.5106 42.1372 57.2153 42.5866C55.9199 42.1372 54.9539 40.2813 54.9539 38.0614C54.9539 35.8415 55.9199 33.9812 57.2153 33.5319C58.5106 33.9812 59.4765 35.8416 59.4765 38.0615Z" fill="black"/>
<path d="M88.0964 38.0615C88.0964 40.6184 86.81 42.6899 85.2303 42.6899C85.0227 42.6899 84.8196 42.654 84.6255 42.5866C85.9164 42.1327 86.8868 40.2813 86.8868 38.0615C86.8868 35.8416 85.9164 33.9857 84.6255 33.5364C84.8196 33.4645 85.0227 33.4285 85.2303 33.4285C86.81 33.4285 88.0964 35.5046 88.0964 38.0615Z" fill="#485868"/>
<path d="M86.8868 38.0615C86.8868 40.2813 85.9164 42.1327 84.6255 42.5866C83.3302 42.1372 82.3596 40.2813 82.3596 38.0614C82.3596 35.8416 83.3302 33.9812 84.6255 33.5364C85.9164 33.9857 86.8868 35.8416 86.8868 38.0615Z" fill="black"/>
<path d="M32.3096 10.9456C34.8037 10.3283 36.516 8.5881 36.1341 7.05871C35.7522 5.52933 33.4208 4.78992 30.9267 5.40719C28.4327 6.02447 26.7204 7.76468 27.1022 9.29406C27.4841 10.8234 29.8155 11.5629 32.3096 10.9456Z" fill="black"/>
<path d="M58.2584 10.9418C60.7525 10.3245 62.4648 8.58429 62.0829 7.0549C61.7011 5.52552 59.3697 4.78611 56.8756 5.40338C54.3815 6.02066 52.6692 7.76087 53.051 9.29025C53.4329 10.8196 55.7643 11.559 58.2584 10.9418Z" fill="black"/>
<path d="M24.1224 27.2719C23.5898 25.9777 21.4865 25.3756 19.2433 25.9328C16.8692 26.5214 15.2399 28.1751 15.6054 29.6311C15.6325 29.7434 15.6731 29.8512 15.7228 29.9546C15.3843 29.676 15.1451 29.3255 15.0458 28.9211C14.6621 27.3887 16.3727 25.6497 18.8687 25.034C21.3601 24.4184 23.6891 25.1554 24.0727 26.6877C24.1224 26.8809 24.1359 27.0787 24.1224 27.2719Z" fill="#485868"/>
<path d="M36.1825 7.59414C35.6499 6.29997 33.5467 5.69782 31.3035 6.25503C28.9294 6.8437 27.3 8.49737 27.6656 9.95331C27.6927 10.0657 27.7333 10.1735 27.783 10.2769C27.4445 9.99825 27.2052 9.64774 27.1059 9.24331C26.7223 7.71098 28.4329 5.97193 30.9289 5.3563C33.4203 4.74067 35.7492 5.47763 36.1329 7.00996C36.1825 7.20319 36.1961 7.40091 36.1825 7.59414Z" fill="#485868"/>
<path d="M62.1304 7.55385C61.5978 6.25968 59.4945 5.65753 57.2513 6.21474C54.8772 6.80341 53.2479 8.45708 53.6135 9.91302C53.6406 10.0254 53.6812 10.1332 53.7308 10.2366C53.3923 9.95796 53.1531 9.60745 53.0538 9.20302C52.6702 7.67069 54.3808 5.93164 56.8767 5.31601C59.3681 4.70038 61.6971 5.43734 62.0807 6.96968C62.1304 7.1629 62.1439 7.36062 62.1304 7.55385Z" fill="#485868"/>
<path d="M24.1224 27.2719C24.0095 28.638 22.4251 30.0357 20.2496 30.575C18.4171 31.0288 16.6706 30.7455 15.7228 29.9546C15.6731 29.8512 15.6325 29.7434 15.6054 29.6311C15.2399 28.1751 16.8692 26.5214 19.2433 25.9328C21.4865 25.3756 23.5898 25.9777 24.1224 27.2719Z" fill="black"/>
<path d="M47.5326 31.0128C50.0267 30.3956 51.739 28.6554 51.3571 27.126C50.9752 25.5966 48.6438 24.8572 46.1497 25.4745C43.6556 26.0917 41.9433 27.8319 42.3252 29.3613C42.7071 30.8907 45.0385 31.6301 47.5326 31.0128Z" fill="black"/>
<path d="M23.5676 47.8939C23.5812 48.186 23.527 48.4691 23.4051 48.7343C22.7507 50.1677 20.3224 50.4688 17.9845 49.4038C15.6736 48.3568 14.3195 46.3616 14.9288 44.9326C14.9649 46.2403 16.2197 47.7457 18.1289 48.6174C20.4669 49.6779 22.8906 49.3768 23.5496 47.9434C23.5586 47.9254 23.5631 47.9119 23.5676 47.8939Z" fill="#485868"/>
<path d="M37.9475 47.8937C37.9611 48.1858 37.9069 48.4689 37.785 48.7341C37.1306 50.1675 34.7023 50.4686 32.3644 49.4036C30.049 48.3521 28.6949 46.3524 29.3087 44.9234C29.3403 46.2311 30.5951 47.7454 32.5088 48.6172C34.8423 49.6777 37.2705 49.3766 37.9295 47.9432C37.9385 47.9252 37.943 47.9117 37.9475 47.8937Z" fill="#485868"/>
<path d="M51.2355 47.8938C51.249 48.1859 51.1949 48.469 51.073 48.7341C50.4141 50.1676 47.9903 50.4687 45.6523 49.4037C43.3414 48.3567 41.9874 46.3615 42.5922 44.9325C42.6238 46.2357 43.8831 47.7455 45.7968 48.6173C48.1302 49.6778 50.5585 49.3767 51.2174 47.9433C51.2265 47.9253 51.231 47.9118 51.2355 47.8938Z" fill="#485868"/>
<path d="M35.0365 67.4323C35.05 67.7244 35.0004 68.0075 34.8785 68.2726C34.2195 69.7061 31.7913 70.0072 29.4533 68.9467C27.1469 67.8951 25.7884 65.9045 26.3977 64.471C26.4293 65.7786 27.684 67.2885 29.5977 68.1558C31.9357 69.2208 34.3639 68.9197 35.0184 67.4817C35.0274 67.4638 35.0319 67.4503 35.0365 67.4323Z" fill="#485868"/>
<path d="M48.6037 67.4323C48.6128 67.7289 48.5631 68.0075 48.4412 68.2726C47.7823 69.7061 45.354 70.0072 43.0206 68.9467C40.7097 67.8951 39.3511 65.9045 39.9604 64.471C39.992 65.7786 41.2513 67.2885 43.1605 68.1558C45.4985 69.2208 47.9267 68.9197 48.5857 67.4817C48.5947 67.4638 48.5992 67.4503 48.6037 67.4323Z" fill="#485868"/>
<path d="M62.3834 67.4323C62.3925 67.7289 62.3428 68.0075 62.221 68.2726C61.562 69.7061 59.1337 70.0072 56.8003 68.9467C54.4894 67.8951 53.1308 65.9045 53.7402 64.471C53.7717 65.7786 55.031 67.2885 56.9402 68.1558C59.2782 69.2208 61.7064 68.9197 62.3654 67.4817C62.3744 67.4638 62.3789 67.4503 62.3834 67.4323Z" fill="#485868"/>
<path d="M23.5676 47.8939C23.5676 47.8939 23.5586 47.9254 23.5496 47.9434C22.8906 49.3768 20.4669 49.6779 18.1289 48.6174C16.2197 47.7457 14.9649 46.2403 14.9288 44.9326C14.9334 44.9146 14.9372 44.9007 14.9462 44.8828C15.6006 43.4493 18.0289 43.1482 20.3669 44.2132C22.2761 45.0805 23.5315 46.5863 23.5676 47.8939Z" fill="black"/>
<path d="M37.9475 47.8937C37.9475 47.8937 37.9385 47.9252 37.9295 47.9432C37.2705 49.3766 34.8423 49.6777 32.5088 48.6172C30.5951 47.7454 29.3403 46.2311 29.3087 44.9234C29.3087 44.91 29.3171 44.8963 29.3216 44.8828C29.9806 43.4494 32.4088 43.1483 34.7468 44.2133C36.656 45.0806 37.9114 46.5861 37.9475 47.8937Z" fill="black"/>
<path d="M51.2355 47.8938C51.2355 47.8938 51.2265 47.9253 51.2174 47.9433C50.5585 49.3767 48.1302 49.6778 45.7968 48.6173C43.8831 47.7455 42.6238 46.2357 42.5922 44.9325C42.5922 44.9145 42.6003 44.9008 42.6094 44.8828C43.2683 43.4494 45.6966 43.1483 48.0346 44.2133C49.9438 45.0806 51.1994 46.5862 51.2355 47.8938Z" fill="black"/>
<path d="M35.0365 67.4323C35.0365 67.4323 35.0274 67.4638 35.0184 67.4817C34.3639 68.9197 31.9357 69.2208 29.5977 68.1558C27.684 67.2885 26.4293 65.7786 26.3977 64.471C26.3977 64.453 26.4059 64.4392 26.4149 64.4212C27.0739 62.9878 29.4976 62.6867 31.8356 63.7517C33.7448 64.619 35.0003 66.1291 35.0365 67.4323Z" fill="black"/>
<path d="M48.6037 67.4323C48.6037 67.4323 48.5947 67.4638 48.5857 67.4817C47.9267 68.9197 45.4985 69.2208 43.1605 68.1558C41.2513 67.2885 39.992 65.7786 39.9604 64.471C39.965 64.453 39.969 64.4392 39.978 64.4212C40.637 62.9878 43.0652 62.6867 45.4032 63.7517C47.3079 64.619 48.5676 66.1246 48.6037 67.4323Z" fill="black"/>
<path d="M62.3834 67.4323C62.3834 67.4323 62.3744 67.4638 62.3654 67.4817C61.7064 68.9197 59.2782 69.2208 56.9402 68.1558C55.031 67.2885 53.7717 65.7786 53.7402 64.471C53.7447 64.453 53.7484 64.4392 53.7574 64.4212C54.4164 62.9878 56.8446 62.6867 59.1826 63.7517C61.0873 64.619 62.3473 66.1246 62.3834 67.4323Z" fill="black"/>
<path d="M51.402 27.69C50.8694 26.3958 48.7661 25.7937 46.5229 26.3509C44.1488 26.9396 42.5194 28.5932 42.885 30.0492C42.9121 30.1615 42.9527 30.2694 43.0024 30.3727C42.6639 30.0941 42.4247 29.7436 42.3254 29.3392C41.9417 27.8069 43.6523 26.0678 46.1483 25.4522C48.6397 24.8365 50.9687 25.5735 51.3523 27.1058C51.402 27.2991 51.4155 27.4968 51.402 27.69Z" fill="#485868"/>
<path d="M74.5513 59.3028C74.5513 61.8597 73.2695 63.9315 71.6852 63.9315C71.4776 63.9315 71.2745 63.8954 71.0804 63.828C72.3758 63.3786 73.3416 61.5227 73.3416 59.3028C73.3416 57.083 72.3758 55.2226 71.0804 54.7732C71.2745 54.7058 71.4776 54.6699 71.6852 54.6699C73.2694 54.6699 74.5513 56.746 74.5513 59.3028Z" fill="#485868"/>
<path d="M24.3371 18.4892C18.3026 18.242 12.575 21.3381 9.49228 26.5058C9.21696 26.9642 8.51286 26.7575 8.53542 26.2227C8.78366 20.2192 5.67388 14.5168 0.478882 11.4476C0.0185084 11.1735 0.226128 10.4725 0.763231 10.4949C6.79322 10.7421 12.5253 7.64595 15.6035 2.46925C15.8788 2.0109 16.5829 2.21761 16.5604 2.75235C16.3121 8.76038 19.4219 14.4673 24.6169 17.532C25.0773 17.8061 24.8697 18.5071 24.3326 18.4847L24.3371 18.4892Z" fill="white"/>
<path d="M9.05465 26.9866C8.98243 26.9866 8.91022 26.9776 8.838 26.9552C8.50852 26.8563 8.29187 26.5597 8.30993 26.2182C8.55365 20.2686 5.51158 14.683 0.366223 11.6453C0.0683337 11.47 -0.0670694 11.1285 0.0322269 10.8005C0.131523 10.4724 0.424898 10.2477 0.772435 10.2702C6.75278 10.5218 12.3585 7.47964 15.4096 2.35686C15.5856 2.06028 15.9241 1.92547 16.2581 2.02433C16.5876 2.12319 16.8043 2.41978 16.7862 2.76129C16.5425 8.71539 19.5846 14.301 24.7344 17.3387C25.0323 17.514 25.1677 17.8555 25.0684 18.1835C24.9691 18.5116 24.6667 18.7273 24.3282 18.7093C18.3434 18.4621 12.7376 21.4954 9.68653 26.6181C9.54662 26.8473 9.31192 26.9821 9.05465 26.9821V26.9866ZM0.740841 10.7196C0.58287 10.7196 0.497114 10.8274 0.465519 10.9263C0.433925 11.0296 0.451979 11.1734 0.59641 11.2588C5.88619 14.3819 9.01403 20.1203 8.76127 26.2362C8.75225 26.4024 8.86508 26.4923 8.96889 26.5238C9.0727 26.5552 9.21713 26.5373 9.30289 26.3935C12.4397 21.1269 18.2034 18.0173 24.3508 18.2644C24.5178 18.2689 24.6081 18.1611 24.6397 18.0577C24.6712 17.9544 24.6532 17.8106 24.5088 17.7252C19.219 14.6021 16.0866 8.86368 16.3394 2.74332C16.3484 2.57705 16.2356 2.48269 16.1318 2.45572C16.028 2.42427 15.8835 2.44224 15.7978 2.58604C12.6609 7.85261 6.89721 10.9667 0.754381 10.7196C0.749868 10.7196 0.745355 10.7196 0.740841 10.7196Z" fill="black"/>
<path d="M89.9182 50.6144C89.1059 54.438 90.4701 58.597 93.4531 61.3889C93.7165 61.6355 93.5087 62.057 93.1674 61.9562C89.3419 60.8408 85.3438 61.9183 82.8122 64.7521C82.5889 65.0021 82.1576 64.7583 82.2312 64.4178C83.0423 60.6004 81.6781 56.4415 78.69 53.6416C78.4267 53.3951 78.6345 52.9735 78.9758 53.0743C82.8075 54.1914 86.8031 53.11 89.3347 50.2762C89.558 50.0262 89.9894 50.2699 89.9157 50.6104L89.9182 50.6144Z" fill="white"/>
<path d="M93.5513 62.1244C93.432 62.1964 93.2802 62.2169 93.1245 62.1739C89.3613 61.0757 85.474 62.1246 82.9883 64.9088C82.8196 65.0984 82.5496 65.1354 82.314 64.9982C82.0808 64.8649 81.9618 64.6024 82.0121 64.3473C82.8109 60.5922 81.4831 56.5483 78.5438 53.8013C78.3441 53.615 78.2872 53.3369 78.4011 53.1091C78.5149 52.8814 78.7647 52.7798 79.0201 52.8504C82.7833 53.9485 86.6706 52.8996 89.1601 50.1132C89.3287 49.9236 89.5987 49.8866 89.8318 50.0198C90.065 50.1531 90.1877 50.4133 90.1338 50.6707C89.3349 54.4258 90.6627 58.4697 93.5983 61.2189C93.798 61.4053 93.8548 61.6834 93.741 61.9111C93.6965 62.0038 93.6308 62.0709 93.5488 62.1204L93.5513 62.1244ZM84.8858 62.7265C87.2972 61.27 90.2892 60.8825 93.2178 61.7338C93.2925 61.7545 93.3272 61.7116 93.3396 61.6822C93.3519 61.6528 93.3692 61.5985 93.3105 61.5462C90.2501 58.6805 88.8646 54.4633 89.699 50.5441C89.7137 50.4694 89.6688 50.4308 89.6389 50.416C89.609 50.4011 89.5542 50.3794 89.507 50.4353C86.911 53.3465 82.8582 54.435 78.9293 53.2944C78.8546 53.2737 78.8199 53.3166 78.8075 53.346C78.7951 53.3754 78.7779 53.4297 78.8365 53.482C81.8994 56.3517 83.2862 60.5627 82.4518 64.4818C82.4371 64.5565 82.482 64.5952 82.5119 64.61C82.5418 64.6248 82.5967 64.6465 82.6438 64.5906C83.3049 63.8514 84.0647 63.228 84.8884 62.7305L84.8858 62.7265Z" fill="black"/>
</svg>
