<svg width="180" height="257" viewBox="0 0 180 257" fill="none" xmlns="http://www.w3.org/2000/svg">
<g clip-path="url(#clip0_35_524)">
<path d="M177.968 221.468L177.927 221.393C177.771 221.055 177.587 220.73 177.383 220.399L177.363 220.365L166.026 198.847C161.738 186.856 133.743 177.599 99.8417 177.599C62.9772 177.599 35.4308 188.717 31.9646 202.054C31.3801 204.314 22.0824 220.771 22.0824 220.771L21.9668 220.994C20.9745 222.828 20.458 224.716 20.458 226.658C20.458 233.418 26.7516 239.636 37.3066 244.576C40.637 246.132 44.4022 247.567 48.5209 248.846C61.0538 252.744 76.9305 255.234 94.3501 255.674L94.2957 255.741C94.2957 255.741 94.3636 255.714 94.4588 255.674C96.2395 255.714 98.0338 255.741 99.8417 255.741C101.65 255.741 103.444 255.721 105.225 255.674C105.32 255.714 105.388 255.741 105.388 255.741L105.333 255.674C122.352 255.247 137.896 252.852 150.286 249.11V249.137C150.286 249.137 150.299 249.123 150.333 249.103C166.339 244.258 177.091 237.167 178.94 229.141C179.137 228.322 179.232 227.497 179.232 226.658C179.232 224.885 178.797 223.153 177.968 221.468ZM143.809 220.453C143.931 220.412 144.06 220.372 144.182 220.331H144.189L144.264 220.453H143.809Z" fill="#BEC6E5"/>
<path d="M99.8412 226.841C70.0859 226.841 43.5794 219.499 35.3827 208.99C33.6428 206.75 32.7593 204.422 32.7593 202.054C32.7593 188.385 62.8544 177.268 99.8412 177.268C136.828 177.268 166.93 188.385 166.93 202.054C166.93 206.074 164.313 210.046 159.352 213.557C147.757 221.752 124.954 226.841 99.8412 226.841ZM99.8412 177.931C63.2214 177.931 33.4253 188.751 33.4253 202.054C33.4253 204.267 34.2613 206.466 35.9129 208.584C43.994 218.944 70.283 226.177 99.8412 226.177C124.825 226.177 147.485 221.136 158.971 213.016C163.742 209.64 166.264 205.85 166.264 202.054C166.264 188.751 136.468 177.931 99.8412 177.931Z" fill="black"/>
<path d="M99.8417 217.185C124.42 217.185 144.345 209.577 144.345 200.193C144.345 190.809 124.42 183.202 99.8417 183.202C75.2629 183.202 55.3379 190.809 55.3379 200.193C55.3379 209.577 75.2629 217.185 99.8417 217.185Z" fill="#040404"/>
<path d="M99.8413 256.134C55.8541 256.134 20.0635 242.911 20.0635 226.658C20.0635 224.682 20.5868 222.713 21.6199 220.805L21.7354 220.588L22.4355 220.947L22.3199 221.17C21.348 222.97 20.8519 224.81 20.8519 226.651C20.8519 242.472 56.2891 255.342 99.8413 255.342C140.587 255.342 175.161 243.791 178.552 229.046C178.742 228.268 178.838 227.463 178.838 226.651C178.838 224.973 178.423 223.281 177.614 221.637L177.58 221.576C177.438 221.265 177.268 220.96 177.043 220.602L177.363 220.365L177.703 220.168C177.961 220.581 178.138 220.913 178.287 221.231L178.314 221.285C179.191 223.058 179.626 224.865 179.626 226.665C179.626 227.537 179.524 228.404 179.32 229.243C177.621 236.612 168.561 243.419 153.813 248.413C139.071 253.4 119.905 256.147 99.8413 256.147V256.134Z" fill="black"/>
<path d="M22.3201 221.177L21.6133 220.818L21.7288 220.595L33.3237 198.637L34.017 199.002L22.3201 221.177Z" fill="black"/>
<path d="M166.892 200.519L166.308 200.836L177.681 221.614L178.266 221.296L166.892 200.519Z" fill="black"/>
<path d="M100.134 233.98H99.5493V248.271H100.134V233.98Z" fill="black"/>
<path d="M100.141 233.979H99.5562C99.5562 228.458 105.231 226.259 105.292 226.238L105.503 226.786C105.449 226.807 100.147 228.871 100.147 233.986L100.141 233.979Z" fill="black"/>
<path d="M100.14 233.979H99.5559C99.5559 228.857 94.2546 226.8 94.2002 226.78L94.4109 226.231C94.4653 226.252 100.147 228.458 100.147 233.973L100.14 233.979Z" fill="black"/>
<path d="M94.4041 256.019L94.1934 255.471C94.2477 255.45 99.549 253.387 99.549 248.271H100.134C100.134 253.793 94.4584 255.992 94.3973 256.012L94.4041 256.019Z" fill="black"/>
<path d="M105.286 256.018C105.231 255.998 99.5493 253.792 99.5493 248.277H100.134C100.134 253.4 105.435 255.457 105.49 255.477L105.279 256.025L105.286 256.018Z" fill="black"/>
<path d="M67.1167 210.192L49.6475 217.943L49.8854 218.474L67.3547 210.723L67.1167 210.192Z" fill="black"/>
<path d="M133.582 210.173L133.317 210.692L149.201 218.736L149.466 218.217L133.582 210.173Z" fill="black"/>
<path d="M165.985 199.219H142.062V199.801H165.985V199.219Z" fill="black"/>
<path d="M33.7094 197.936L33.6831 198.517L55.7902 199.509L55.8165 198.928L33.7094 197.936Z" fill="black"/>
<path d="M47.2974 225.853L46.7197 225.758C47.6712 219.945 43.3826 215.452 43.3418 215.405L43.7632 214.999C43.9467 215.188 48.3033 219.742 47.3042 225.853H47.2974Z" fill="black"/>
<path d="M48.3576 249.089C48.1605 248.947 43.5049 245.523 44.9254 236.686L45.5031 236.781C44.1438 245.239 48.6499 248.582 48.6975 248.616L48.3576 249.089Z" fill="black"/>
<path d="M37.4425 244.874C37.3473 244.874 37.2929 244.874 37.2861 244.874L37.3201 244.292C37.5648 244.306 43.3283 244.542 44.5788 238.777L46.7129 225.765C47.6033 221.001 54.2911 219.817 54.5765 219.763L54.6785 220.338C54.6105 220.351 48.113 221.509 47.2974 225.86L45.1633 238.879C43.9196 244.603 38.4415 244.874 37.4492 244.874H37.4425Z" fill="black"/>
<path d="M151.516 226.144C150.51 220.027 155.016 215.71 155.063 215.669L155.464 216.095C155.424 216.136 151.142 220.25 152.093 226.049L151.516 226.144Z" fill="black"/>
<path d="M150.455 249.38L150.115 248.907C150.163 248.873 154.669 245.53 153.31 237.072L153.887 236.977C155.308 245.814 150.652 249.238 150.455 249.38Z" fill="black"/>
<path d="M161.363 245.158C160.371 245.158 154.893 244.894 153.649 239.183L151.508 226.144C150.693 221.793 144.189 220.636 144.127 220.629L144.229 220.054C144.515 220.101 151.203 221.292 152.093 226.049L154.227 239.082C155.478 244.833 161.241 244.597 161.486 244.583L161.52 245.165C161.52 245.165 161.459 245.165 161.363 245.165V245.158Z" fill="black"/>
<path d="M42.6211 123.277V171.043C42.6211 176.619 45.6116 181.768 50.4575 184.556L92.0048 208.436C96.8575 211.224 102.832 211.224 107.678 208.436L149.225 184.556C154.078 181.768 157.061 176.619 157.061 171.043V123.277C157.061 117.701 154.071 112.552 149.225 109.764L107.678 85.8839C102.825 83.096 96.8507 83.096 92.0048 85.8839L50.4575 109.764C45.6048 112.552 42.6211 117.701 42.6211 123.277Z" fill="#B6DBD1"/>
<path d="M99.848 210.858C97.0818 210.858 94.3089 210.148 91.8417 208.727L50.2944 184.847C45.3533 182.012 42.2881 176.72 42.2881 171.036V123.27C42.2881 117.593 45.3533 112.301 50.2944 109.459L91.8417 85.5793C96.7828 82.7372 102.92 82.7372 107.854 85.5793L149.402 109.459C154.343 112.301 157.408 117.586 157.408 123.27V171.036C157.408 176.713 154.343 182.005 149.402 184.847L107.854 208.727C105.387 210.148 102.614 210.858 99.848 210.858ZM99.848 84.1312C97.1974 84.1312 94.5467 84.8079 92.1815 86.168L50.6342 110.048C45.9038 112.768 42.9677 117.829 42.9677 123.27V171.036C42.9677 176.477 45.9038 181.538 50.6342 184.258L92.1815 208.138C96.9119 210.858 102.784 210.858 107.515 208.138L149.062 184.258C153.792 181.538 156.728 176.477 156.728 171.036V123.27C156.728 117.829 153.792 112.768 149.062 110.048L107.515 86.168C105.149 84.8079 102.499 84.1312 99.848 84.1312Z" fill="#B6DBD1"/>
<path d="M99.8481 108.911C103.715 108.911 106.849 110.832 106.849 113.208C106.849 113.519 106.794 113.823 106.692 114.114C106.013 112.172 103.206 110.724 99.8481 110.724C96.4906 110.724 93.6768 112.172 92.9971 114.114C92.8952 113.823 92.8408 113.519 92.8408 113.208C92.8408 110.832 95.9808 108.911 99.8481 108.911Z" fill="#485868"/>
<path d="M99.8485 110.724C103.206 110.724 106.013 112.172 106.693 114.114C106.013 116.056 103.206 117.504 99.8485 117.504C96.491 117.504 93.6772 116.056 92.9976 114.114C93.6772 112.172 96.491 110.724 99.8485 110.724Z" fill="black"/>
<path d="M68.4414 108.911C72.3154 108.911 75.4486 110.832 75.4486 113.208C75.4486 113.519 75.3942 113.823 75.2923 114.114C74.6126 112.172 71.8057 110.724 68.4414 110.724C65.0771 110.724 62.2769 112.172 61.5972 114.114C61.4953 113.823 61.4409 113.519 61.4409 113.208C61.4409 110.832 64.5741 108.911 68.4414 108.911Z" fill="#485868"/>
<path d="M68.4413 110.724C71.8056 110.724 74.6126 112.172 75.2922 114.114C74.6126 116.056 71.8056 117.504 68.4413 117.504C65.077 117.504 62.2768 116.056 61.5972 114.114C62.2768 112.172 65.0838 110.724 68.4413 110.724Z" fill="black"/>
<path d="M131.968 117.504C135.838 117.504 138.975 115.581 138.975 113.208C138.975 110.834 135.838 108.911 131.968 108.911C128.098 108.911 124.961 110.834 124.961 113.208C124.961 115.581 128.098 117.504 131.968 117.504Z" fill="black"/>
<path d="M99.8481 129.698C103.715 129.698 106.849 131.62 106.849 133.995C106.849 134.306 106.794 134.61 106.692 134.901C106.013 132.959 103.206 131.511 99.8481 131.511C96.4906 131.511 93.6768 132.959 92.9971 134.901C92.8952 134.61 92.8408 134.306 92.8408 133.995C92.8408 131.62 95.9808 129.698 99.8481 129.698Z" fill="#485868"/>
<path d="M99.8485 131.512C103.206 131.512 106.013 132.96 106.693 134.902C106.013 136.844 103.206 138.292 99.8485 138.292C96.491 138.292 93.6772 136.844 92.9976 134.902C93.6772 132.96 96.491 131.512 99.8485 131.512Z" fill="black"/>
<path d="M99.8481 88.6035C103.715 88.6035 106.849 90.532 106.849 92.9004C106.849 93.2116 106.794 93.5162 106.692 93.8071C106.006 91.8718 103.206 90.417 99.8481 90.417C96.4906 90.417 93.6836 91.8718 93.0039 93.8071C92.8952 93.5162 92.8408 93.2116 92.8408 92.9004C92.8408 90.532 95.9808 88.6035 99.8481 88.6035Z" fill="#485868"/>
<path d="M99.848 90.417C103.206 90.417 106.006 91.8718 106.692 93.8071C106.012 95.7492 103.206 97.204 99.848 97.204C96.4905 97.204 93.6768 95.7492 93.0039 93.8071C93.6836 91.8718 96.4905 90.417 99.848 90.417Z" fill="black"/>
<path d="M56.351 180.034C58.6641 179.461 59.7825 175.966 58.8489 172.227C57.9153 168.487 55.2832 165.92 52.9701 166.493C50.6569 167.065 49.5386 170.561 50.4722 174.3C51.4058 178.039 54.0378 180.606 56.351 180.034Z" fill="black"/>
<path d="M56.3446 141.13C58.6578 140.558 59.7761 137.062 58.8425 133.323C57.9089 129.584 55.2769 127.017 52.9637 127.589C50.6506 128.162 49.5322 131.657 50.4659 135.396C51.3995 139.136 54.0315 141.703 56.3446 141.13Z" fill="black"/>
<path d="M83.5296 184.515C81.5722 185.314 80.6615 188.467 81.5043 191.83C82.3946 195.389 84.8957 197.832 87.0978 197.284C87.2677 197.243 87.4309 197.183 87.5872 197.108C87.1658 197.616 86.6357 197.974 86.024 198.123C83.7063 198.698 81.0761 196.134 80.145 192.392C79.2138 188.656 80.3285 185.165 82.6461 184.59C82.9383 184.515 83.2374 184.495 83.5296 184.515Z" fill="#485868"/>
<path d="M53.7674 166.428C51.81 167.227 50.8993 170.38 51.7421 173.743C52.6324 177.302 55.1335 179.745 57.3356 179.197C57.5055 179.157 57.6687 179.096 57.825 179.021C57.4036 179.529 56.8735 179.887 56.2618 180.036C53.9441 180.611 51.3139 178.047 50.3828 174.305C49.4516 170.57 50.5663 167.078 52.8839 166.503C53.1761 166.428 53.4752 166.408 53.7674 166.428Z" fill="#485868"/>
<path d="M53.7132 127.526C51.7558 128.324 50.8451 131.478 51.6879 134.841C52.5782 138.4 55.0793 140.843 57.2814 140.295C57.4513 140.254 57.6145 140.193 57.7708 140.119C57.3494 140.626 56.8193 140.985 56.2076 141.134C53.8899 141.709 51.2597 139.144 50.3286 135.402C49.3974 131.667 50.5121 128.176 52.8297 127.6C53.1219 127.526 53.421 127.506 53.7132 127.526Z" fill="#485868"/>
<path d="M83.5297 184.515C85.5958 184.684 87.7096 187.059 88.5252 190.321C89.2116 193.068 88.7834 195.687 87.5872 197.108C87.4309 197.182 87.2678 197.243 87.0979 197.284C84.8958 197.832 82.3947 195.389 81.5043 191.83C80.6616 188.467 81.5723 185.314 83.5297 184.515Z" fill="black"/>
<path d="M86.7021 157.218C89.0152 156.645 90.1336 153.15 89.1999 149.411C88.2663 145.671 85.6343 143.104 83.3211 143.677C81.008 144.249 79.8897 147.745 80.8233 151.484C81.7569 155.223 84.3889 157.79 86.7021 157.218Z" fill="black"/>
<path d="M114.719 185.348C115.161 185.327 115.589 185.409 115.99 185.591C118.158 186.573 118.614 190.213 117.003 193.718C115.419 197.183 112.402 199.213 110.24 198.299C112.218 198.245 114.495 196.364 115.813 193.502C117.417 189.997 116.962 186.363 114.794 185.375C114.767 185.361 114.746 185.355 114.719 185.348Z" fill="#485868"/>
<path d="M114.719 163.789C115.16 163.769 115.589 163.85 115.99 164.033C118.158 165.014 118.613 168.654 117.002 172.16C115.412 175.631 112.387 177.661 110.226 176.741C112.204 176.693 114.494 174.812 115.813 171.943C117.417 168.445 116.961 164.804 114.793 163.816C114.766 163.803 114.746 163.796 114.719 163.789Z" fill="#485868"/>
<path d="M114.719 143.867C115.161 143.847 115.589 143.928 115.99 144.111C118.158 145.099 118.614 148.733 117.003 152.238C115.419 155.702 112.402 157.732 110.24 156.826C112.211 156.778 114.495 154.89 115.813 152.021C117.417 148.523 116.962 144.882 114.794 143.894C114.767 143.881 114.746 143.874 114.719 143.867Z" fill="#485868"/>
<path d="M144.27 168.153C144.712 168.133 145.14 168.207 145.541 168.39C147.709 169.378 148.165 173.018 146.561 176.524C144.97 179.981 141.96 182.018 139.792 181.105C141.769 181.057 144.053 179.176 145.365 176.307C146.975 172.802 146.52 169.161 144.345 168.18C144.318 168.167 144.298 168.16 144.27 168.153Z" fill="#485868"/>
<path d="M144.27 147.813C144.719 147.799 145.14 147.873 145.541 148.056C147.709 149.044 148.165 152.685 146.561 156.183C144.97 159.648 141.96 161.684 139.792 160.771C141.769 160.723 144.053 158.836 145.365 155.973C146.975 152.468 146.52 148.828 144.345 147.84C144.318 147.826 144.298 147.819 144.27 147.813Z" fill="#485868"/>
<path d="M144.27 127.154C144.719 127.14 145.14 127.215 145.541 127.397C147.709 128.385 148.165 132.026 146.561 135.524C144.97 138.989 141.96 141.026 139.792 140.112C141.769 140.065 144.053 138.177 145.365 135.315C146.975 131.809 146.52 128.169 144.345 127.181C144.318 127.167 144.298 127.161 144.27 127.154Z" fill="#485868"/>
<path d="M114.719 185.348C114.719 185.348 114.766 185.361 114.793 185.375C116.962 186.363 117.417 189.996 115.813 193.502C114.494 196.364 112.218 198.245 110.24 198.299C110.213 198.292 110.192 198.286 110.165 198.272C107.997 197.291 107.542 193.65 109.152 190.145C110.464 187.283 112.741 185.402 114.719 185.348Z" fill="black"/>
<path d="M114.719 163.789C114.719 163.789 114.766 163.803 114.793 163.816C116.962 164.804 117.417 168.445 115.813 171.943C114.494 174.812 112.204 176.693 110.226 176.741C110.206 176.741 110.185 176.727 110.165 176.72C107.997 175.732 107.542 172.092 109.152 168.587C110.464 165.724 112.741 163.843 114.719 163.789Z" fill="black"/>
<path d="M114.719 143.868C114.719 143.868 114.766 143.881 114.793 143.895C116.962 144.883 117.417 148.523 115.813 152.022C114.494 154.891 112.211 156.779 110.24 156.826C110.213 156.826 110.192 156.812 110.165 156.799C107.997 155.811 107.542 152.17 109.152 148.665C110.464 145.803 112.741 143.922 114.719 143.868Z" fill="black"/>
<path d="M144.27 168.153C144.27 168.153 144.318 168.167 144.345 168.18C146.52 169.162 146.975 172.802 145.364 176.307C144.053 179.176 141.769 181.057 139.791 181.105C139.764 181.105 139.744 181.091 139.716 181.078C137.548 180.09 137.093 176.456 138.704 172.951C140.015 170.089 142.299 168.207 144.27 168.153Z" fill="black"/>
<path d="M144.27 147.812C144.27 147.812 144.318 147.826 144.345 147.84C146.52 148.828 146.975 152.468 145.364 155.973C144.053 158.835 141.769 160.723 139.791 160.771C139.764 160.764 139.744 160.757 139.716 160.744C137.548 159.756 137.093 156.115 138.704 152.61C140.015 149.755 142.292 147.867 144.27 147.812Z" fill="black"/>
<path d="M144.27 127.154C144.27 127.154 144.318 127.167 144.345 127.181C146.52 128.169 146.975 131.809 145.364 135.314C144.053 138.177 141.769 140.065 139.791 140.112C139.764 140.105 139.744 140.099 139.716 140.085C137.548 139.097 137.093 135.457 138.704 131.951C140.015 129.096 142.292 127.208 144.27 127.154Z" fill="black"/>
<path d="M84.1615 143.61C82.2041 144.409 81.2933 147.562 82.1361 150.925C83.0265 154.485 85.5276 156.927 87.7297 156.379C87.8996 156.339 88.0627 156.278 88.219 156.203C87.7976 156.711 87.2675 157.069 86.6558 157.218C84.3382 157.793 81.7079 155.229 80.7768 151.487C79.8457 147.752 80.9603 144.26 83.2779 143.685C83.5702 143.61 83.8692 143.59 84.1615 143.61Z" fill="#485868"/>
<path d="M131.975 108.911C135.842 108.911 138.975 110.832 138.975 113.208C138.975 113.519 138.921 113.823 138.819 114.114C138.139 112.172 135.333 110.724 131.975 110.724C128.618 110.724 125.804 112.172 125.124 114.114C125.022 113.823 124.968 113.519 124.968 113.208C124.968 110.832 128.108 108.911 131.975 108.911Z" fill="#485868"/>
<path d="M65.7496 111.143L56.3364 106.38L60.7542 103.842L138.976 103.768L143.652 106.555L133.634 110.846L65.7496 111.143Z" fill="black"/>
<path d="M123.833 0.338379H75.8566C70.2562 0.338379 65.084 3.31574 62.2839 8.14041L38.2989 49.5054C35.4987 54.3368 35.4987 60.2847 38.2989 65.1094L62.2839 106.474C65.084 111.306 70.2562 114.276 75.8566 114.276H123.833C129.434 114.276 134.606 111.299 137.406 106.474L161.391 65.1094C164.191 60.278 164.191 54.33 161.391 49.5054L137.406 8.14041C134.606 3.30897 129.434 0.338379 123.833 0.338379Z" fill="#FAE379"/>
<path d="M123.833 114.621H75.8566C70.1543 114.621 64.8394 111.57 61.9848 106.65L37.9998 65.2853C35.1452 60.3659 35.1452 54.2556 37.9998 49.3429L61.9848 7.9712C64.8394 3.05179 70.1543 0 75.8566 0H123.833C129.536 0 134.851 3.05179 137.705 7.9712L161.69 49.3362C164.545 54.2556 164.545 60.3659 161.69 65.2785L137.705 106.644C134.851 111.563 129.536 114.615 123.833 114.615V114.621ZM75.8566 0.676672C70.3921 0.676672 65.3083 3.59989 62.5761 8.30953L38.5911 49.6745C35.8589 54.3841 35.8589 60.2306 38.5911 64.9402L62.5761 106.305C65.3083 111.015 70.3921 113.938 75.8566 113.938H123.833C129.298 113.938 134.382 111.015 137.114 106.305L161.099 64.9402C163.831 60.2306 163.831 54.3841 161.099 49.6745L137.114 8.30953C134.382 3.59989 129.298 0.676672 123.833 0.676672H75.8566Z" fill="black"/>
<path d="M138.262 57.3144C138.262 61.1646 136.332 64.2841 133.946 64.2841C133.634 64.2841 133.328 64.23 133.036 64.1285C134.986 63.4518 136.441 60.6571 136.441 57.3144C136.441 53.9716 134.986 51.1702 133.036 50.4935C133.328 50.392 133.634 50.3379 133.946 50.3379C136.332 50.3379 138.262 53.4641 138.262 57.3144Z" fill="#485868"/>
<path d="M136.441 57.314C136.441 60.6568 134.986 63.4514 133.035 64.1281C131.085 63.4514 129.63 60.6568 129.63 57.314C129.63 53.9713 131.085 51.1698 133.035 50.4932C134.986 51.1698 136.441 53.9713 136.441 57.314Z" fill="black"/>
<path d="M138.262 26.0449C138.262 29.9019 136.332 33.0214 133.946 33.0214C133.634 33.0214 133.328 32.9673 133.036 32.8658C134.986 32.1891 136.441 29.3944 136.441 26.0449C136.441 22.6954 134.986 19.9075 133.036 19.2308C133.328 19.1293 133.634 19.0752 133.946 19.0752C136.332 19.0752 138.262 22.1947 138.262 26.0449Z" fill="#485868"/>
<path d="M136.441 26.045C136.441 29.3946 134.986 32.1892 133.035 32.8659C131.085 32.1892 129.63 29.3946 129.63 26.045C129.63 22.6955 131.085 19.9076 133.035 19.231C134.986 19.9076 136.441 22.7023 136.441 26.045Z" fill="black"/>
<path d="M133.946 96.2704C136.33 96.2704 138.262 93.1469 138.262 89.2939C138.262 85.4409 136.33 82.3174 133.946 82.3174C131.563 82.3174 129.63 85.4409 129.63 89.2939C129.63 93.1469 131.563 96.2704 133.946 96.2704Z" fill="black"/>
<path d="M117.383 57.3144C117.383 61.1646 115.453 64.2841 113.067 64.2841C112.755 64.2841 112.449 64.23 112.157 64.1285C114.107 63.4518 115.562 60.6571 115.562 57.3144C115.562 53.9716 114.107 51.1702 112.157 50.4935C112.449 50.392 112.755 50.3379 113.067 50.3379C115.453 50.3379 117.383 53.4641 117.383 57.3144Z" fill="#485868"/>
<path d="M115.562 57.314C115.562 60.6568 114.107 63.4514 112.157 64.1281C110.206 63.4514 108.751 60.6568 108.751 57.314C108.751 53.9713 110.206 51.1698 112.157 50.4932C114.107 51.1698 115.562 53.9713 115.562 57.314Z" fill="black"/>
<path d="M158.659 57.3144C158.659 61.1646 156.722 64.2841 154.343 64.2841C154.03 64.2841 153.724 64.23 153.432 64.1285C155.376 63.445 156.837 60.6571 156.837 57.3144C156.837 53.9716 155.376 51.177 153.432 50.5003C153.724 50.392 154.03 50.3379 154.343 50.3379C156.722 50.3379 158.659 53.4641 158.659 57.3144Z" fill="#485868"/>
<path d="M156.837 57.3141C156.837 60.6568 155.376 63.4447 153.432 64.1282C151.482 63.4515 150.021 60.6568 150.021 57.3141C150.021 53.9713 151.482 51.1699 153.432 50.5C155.376 51.1767 156.837 53.9713 156.837 57.3141Z" fill="black"/>
<path d="M74.6531 16.4826C78.4088 15.553 80.9872 12.9326 80.4122 10.6296C79.8372 8.32656 76.3265 7.21313 72.5708 8.14264C68.8151 9.07216 66.2367 11.6926 66.8117 13.9956C67.3867 16.2986 70.8974 17.4121 74.6531 16.4826Z" fill="black"/>
<path d="M113.728 16.4767C117.484 15.5472 120.062 12.9267 119.487 10.6237C118.912 8.3207 115.401 7.20727 111.645 8.13679C107.89 9.0663 105.311 11.6868 105.886 13.9898C106.461 16.2928 109.972 17.4062 113.728 16.4767Z" fill="black"/>
<path d="M62.3245 41.0671C61.5225 39.1182 58.3553 38.2115 54.9774 39.0506C51.4024 39.937 48.9489 42.4272 49.4994 44.6196C49.5402 44.7888 49.6014 44.9512 49.6761 45.1068C49.1664 44.6873 48.8062 44.1594 48.6566 43.5504C48.0789 41.243 50.6548 38.6243 54.4133 37.6972C58.165 36.7702 61.672 37.8799 62.2497 40.1874C62.3245 40.4784 62.3449 40.7761 62.3245 41.0671Z" fill="#485868"/>
<path d="M80.4851 11.4357C79.6831 9.4869 76.516 8.58015 73.1381 9.41923C69.5631 10.3057 67.1095 12.7958 67.6601 14.9882C67.7008 15.1574 67.762 15.3198 67.8368 15.4754C67.327 15.0559 66.9668 14.5281 66.8173 13.9191C66.2396 11.6116 68.8155 8.99292 72.574 8.06588C76.3257 7.13884 79.8327 8.24859 80.4104 10.556C80.4851 10.847 80.5055 11.1447 80.4851 11.4357Z" fill="#485868"/>
<path d="M119.558 11.3752C118.756 9.42635 115.589 8.51961 112.211 9.35868C108.636 10.2451 106.183 12.7353 106.733 14.9277C106.774 15.0969 106.835 15.2593 106.91 15.4149C106.4 14.9954 106.04 14.4676 105.891 13.8585C105.313 11.5511 107.889 8.93238 111.647 8.00534C115.399 7.0783 118.906 8.18804 119.484 10.4955C119.558 10.7865 119.579 11.0842 119.558 11.3752Z" fill="#485868"/>
<path d="M62.3241 41.0673C62.1542 43.1244 59.7686 45.2288 56.4927 46.0408C53.7333 46.7243 51.103 46.298 49.6758 45.107C49.601 44.9514 49.5398 44.789 49.4991 44.6198C48.9485 42.4274 51.4021 39.9372 54.9771 39.0508C58.355 38.2117 61.5221 39.1185 62.3241 41.0673Z" fill="black"/>
<path d="M97.5765 46.7003C101.332 45.7708 103.911 43.1503 103.336 40.8473C102.761 38.5443 99.2498 37.4309 95.4941 38.3604C91.7384 39.2899 89.16 41.9104 89.735 44.2134C90.31 46.5164 93.8208 47.6298 97.5765 46.7003Z" fill="black"/>
<path d="M61.4884 72.1199C61.5088 72.5598 61.4273 72.9861 61.2438 73.3853C60.2583 75.5439 56.6017 75.9972 53.0811 74.3935C49.6013 72.8169 47.5623 69.8125 48.4798 67.6606C48.5342 69.6298 50.4237 71.8966 53.2986 73.2094C56.8192 74.8063 60.469 74.3529 61.4612 72.1943C61.4748 72.1673 61.4816 72.147 61.4884 72.1199Z" fill="#485868"/>
<path d="M83.1421 72.1198C83.1625 72.5596 83.0809 72.9859 82.8974 73.3851C81.9119 75.5437 78.2554 75.9971 74.7348 74.3934C71.2481 72.81 69.2092 69.7988 70.1335 67.647C70.1811 69.6161 72.0705 71.8965 74.9523 73.2092C78.4661 74.8062 82.1226 74.3528 83.1149 72.1942C83.1285 72.1671 83.1353 72.1468 83.1421 72.1198Z" fill="#485868"/>
<path d="M103.152 72.1199C103.172 72.5598 103.09 72.9861 102.907 73.3853C101.915 75.5439 98.2649 75.9972 94.7443 74.3935C91.2645 72.8169 89.2255 69.8125 90.1362 67.6606C90.1838 69.623 92.08 71.8966 94.9618 73.2094C98.4756 74.8063 102.132 74.3529 103.124 72.1943C103.138 72.1673 103.145 72.147 103.152 72.1199Z" fill="#485868"/>
<path d="M78.7585 101.542C78.7789 101.982 78.7041 102.408 78.5206 102.807C77.5283 104.966 73.8718 105.419 70.3512 103.822C66.8781 102.239 64.8324 99.2411 65.7499 97.0825C65.7975 99.0516 67.6869 101.325 70.5687 102.631C74.0893 104.235 77.7458 103.782 78.7313 101.616C78.7449 101.589 78.7517 101.569 78.7585 101.542Z" fill="#485868"/>
<path d="M99.1886 101.542C99.2022 101.988 99.1274 102.408 98.9439 102.807C97.9516 104.966 94.2951 105.419 90.7813 103.822C87.3015 102.239 85.2557 99.2411 86.1732 97.0825C86.2208 99.0516 88.117 101.325 90.992 102.631C94.5126 104.235 98.1691 103.782 99.1614 101.616C99.175 101.589 99.1818 101.569 99.1886 101.542Z" fill="#485868"/>
<path d="M119.939 101.542C119.952 101.988 119.877 102.408 119.694 102.807C118.702 104.966 115.045 105.419 111.531 103.822C108.051 102.239 106.006 99.2411 106.923 97.0825C106.971 99.0516 108.867 101.325 111.742 102.631C115.263 104.235 118.919 103.782 119.911 101.616C119.925 101.589 119.932 101.569 119.939 101.542Z" fill="#485868"/>
<path d="M61.4881 72.1198C61.4881 72.1198 61.4745 72.1671 61.4609 72.1942C60.4686 74.3528 56.8189 74.8062 53.2982 73.2092C50.4233 71.8965 48.5339 69.6296 48.4795 67.6605C48.4863 67.6334 48.4931 67.6131 48.5067 67.5861C49.4922 65.4275 53.1487 64.9741 56.6693 66.5778C59.5443 67.8838 61.4337 70.1506 61.4881 72.1198Z" fill="black"/>
<path d="M83.1419 72.1198C83.1419 72.1198 83.1283 72.1671 83.1147 72.1942C82.1224 74.3528 78.4659 74.8062 74.9521 73.2092C72.0703 71.8965 70.1809 69.6161 70.1333 67.647C70.1333 67.6267 70.1469 67.6064 70.1537 67.5861C71.146 65.4275 74.8025 64.9741 78.3231 66.5778C81.1981 67.8838 83.0875 70.1506 83.1419 72.1198Z" fill="black"/>
<path d="M103.151 72.1198C103.151 72.1198 103.138 72.1671 103.124 72.1942C102.132 74.3528 98.4751 74.8062 94.9613 73.2092C92.0795 71.8965 90.1833 69.6228 90.1357 67.6605C90.1357 67.6334 90.1493 67.6131 90.1629 67.5861C91.1552 65.4275 94.8118 64.9741 98.3324 66.5778C101.207 67.8838 103.097 70.1506 103.151 72.1198Z" fill="black"/>
<path d="M78.7581 101.542C78.7581 101.542 78.7445 101.589 78.7309 101.616C77.7454 103.781 74.0889 104.235 70.5683 102.631C67.6865 101.325 65.7971 99.0515 65.7495 97.0824C65.7495 97.0553 65.7631 97.035 65.7767 97.0079C66.769 94.8494 70.4187 94.396 73.9393 95.9997C76.8143 97.3057 78.7037 99.5793 78.7581 101.542Z" fill="black"/>
<path d="M99.1887 101.542C99.1887 101.542 99.1751 101.589 99.1615 101.616C98.1693 103.781 94.5127 104.235 90.9921 102.631C88.1172 101.325 86.2209 99.0515 86.1733 97.0824C86.1801 97.0553 86.1869 97.035 86.2005 97.0079C87.1928 94.8494 90.8494 94.396 94.37 95.9997C97.2381 97.3057 99.1344 99.5725 99.1887 101.542Z" fill="black"/>
<path d="M119.938 101.542C119.938 101.542 119.925 101.589 119.911 101.616C118.919 103.781 115.262 104.235 111.742 102.631C108.867 101.325 106.97 99.0515 106.923 97.0824C106.93 97.0553 106.936 97.035 106.95 97.0079C107.942 94.8494 111.599 94.396 115.119 95.9997C117.988 97.3057 119.884 99.5725 119.938 101.542Z" fill="black"/>
<path d="M103.403 41.6965C102.601 39.7476 99.4339 38.8409 96.056 39.68C92.4811 40.5664 90.0275 43.0566 90.578 45.249C90.6188 45.4182 90.68 45.5805 90.7547 45.7362C90.245 45.3166 89.8848 44.7888 89.7353 44.1798C89.1575 41.8724 91.7334 39.2537 95.4919 38.3266C99.2436 37.3996 102.751 38.5093 103.328 40.8168C103.403 41.1077 103.423 41.4055 103.403 41.6965Z" fill="#485868"/>
<path d="M138.262 89.3007C138.262 93.151 136.332 96.2704 133.946 96.2704C133.634 96.2704 133.328 96.2163 133.036 96.1148C134.986 95.4381 136.441 92.6435 136.441 89.3007C136.441 85.9579 134.986 83.1565 133.036 82.4799C133.328 82.3783 133.634 82.3242 133.946 82.3242C136.332 82.3242 138.262 85.4504 138.262 89.3007Z" fill="#485868"/>
<path d="M60.374 24.8611C51.287 24.489 42.6622 29.1512 38.0202 36.933C37.6056 37.6232 36.5453 37.3119 36.5793 36.5067C36.9531 27.4663 32.2703 18.8794 24.4475 14.2577C23.7542 13.8449 24.0669 12.7893 24.8757 12.8231C33.9558 13.1953 42.5875 8.53304 47.2227 0.737782C47.6373 0.0475766 48.6976 0.358846 48.6636 1.16409C48.2898 10.2112 52.9726 18.8049 60.7954 23.4198C61.4887 23.8326 61.176 24.8882 60.3672 24.8544L60.374 24.8611Z" fill="white"/>
<path d="M37.3609 37.657C37.2522 37.657 37.1434 37.6434 37.0347 37.6096C36.5385 37.4607 36.2123 37.0141 36.2395 36.4999C36.6065 27.5407 32.0256 19.1297 24.2775 14.5554C23.829 14.2915 23.6251 13.7772 23.7746 13.2832C23.9241 12.7893 24.3659 12.4509 24.8892 12.4848C33.8947 12.8637 42.336 8.28264 46.9304 0.568584C47.1955 0.12198 47.7052 -0.0810212 48.2082 0.0678466C48.7043 0.216714 49.0306 0.663318 49.0034 1.17759C48.6364 10.1435 53.2172 18.5545 60.9721 23.1288C61.4207 23.3927 61.6246 23.907 61.475 24.401C61.3255 24.8949 60.8702 25.2197 60.3604 25.1927C51.3482 24.8205 42.9069 29.388 38.3124 37.1021C38.1017 37.4472 37.7483 37.6502 37.3609 37.6502V37.657ZM24.8417 13.1614C24.6038 13.1614 24.4746 13.3239 24.4271 13.4727C24.3795 13.6284 24.4067 13.8449 24.6242 13.9735C32.5897 18.6763 37.2997 27.3174 36.9191 36.5269C36.9055 36.7773 37.0754 36.9126 37.2318 36.96C37.3881 37.0074 37.6056 36.9803 37.7347 36.7638C42.4583 28.8332 51.1375 24.1506 60.3944 24.5228C60.6459 24.5295 60.7818 24.3671 60.8294 24.2115C60.8769 24.0559 60.8498 23.8393 60.6323 23.7108C52.6667 19.0079 47.9499 10.3668 48.3305 1.15052C48.3441 0.900153 48.1742 0.758052 48.0179 0.717452C47.8616 0.670085 47.6441 0.697152 47.5149 0.913687C42.7913 8.84428 34.1121 13.5336 24.862 13.1614C24.8553 13.1614 24.8485 13.1614 24.8417 13.1614Z" fill="black"/>
<path d="M172.32 105.493C168.065 109.607 166.407 115.758 168.025 121.429C168.167 121.929 167.542 122.295 167.175 121.916C163.05 117.687 156.872 116.036 151.169 117.646C150.666 117.788 150.299 117.166 150.68 116.8C154.928 112.693 156.586 106.542 154.969 100.858C154.826 100.357 155.451 99.9917 155.818 100.371C159.95 104.607 166.128 106.251 171.831 104.64C172.334 104.498 172.701 105.121 172.32 105.486V105.493Z" fill="white"/>
<path d="M167.542 122.41C167.324 122.41 167.107 122.322 166.937 122.153C162.879 117.991 156.871 116.387 151.271 117.971C150.89 118.079 150.503 117.923 150.306 117.578C150.109 117.24 150.17 116.827 150.448 116.55C154.628 112.51 156.239 106.528 154.642 100.946C154.533 100.567 154.689 100.181 155.029 99.9848C155.369 99.7886 155.784 99.8495 156.062 100.127C160.12 104.288 166.128 105.892 171.735 104.309C172.116 104.2 172.503 104.356 172.7 104.694C172.897 105.033 172.843 105.446 172.558 105.723C168.378 109.763 166.767 115.744 168.357 121.327C168.466 121.706 168.31 122.092 167.97 122.288C167.834 122.369 167.691 122.403 167.542 122.403V122.41ZM155.593 116.692C159.991 116.692 164.266 118.444 167.426 121.679C167.508 121.76 167.589 121.733 167.63 121.706C167.671 121.679 167.739 121.625 167.705 121.517C166.046 115.697 167.725 109.458 172.089 105.243C172.17 105.161 172.143 105.08 172.116 105.04C172.089 104.999 172.034 104.931 171.925 104.965C166.074 106.623 159.814 104.945 155.573 100.607C155.491 100.526 155.41 100.553 155.369 100.58C155.328 100.607 155.26 100.661 155.294 100.77C156.953 106.596 155.281 112.828 150.917 117.044C150.836 117.125 150.863 117.206 150.89 117.247C150.917 117.287 150.972 117.355 151.08 117.321C152.569 116.902 154.091 116.699 155.593 116.699V116.692Z" fill="black"/>
</g>
<defs>
<clipPath id="clip0_35_524">
<rect width="179.252" height="257" fill="white" transform="translate(0.374023)"/>
</clipPath>
</defs>
</svg>
