<svg width="93" height="77" viewBox="0 0 93 77" fill="none" xmlns="http://www.w3.org/2000/svg">
<path d="M62.9384 0.224819L31.0779 0.224819C27.3588 0.224819 23.924 2.20203 22.0645 5.40601L6.13646 32.8758C4.27691 36.0842 4.27691 40.0342 6.13646 43.2381L22.0645 70.7079C23.924 73.9164 27.3588 75.8891 31.0779 75.8891L62.9385 75.8891C66.6575 75.8891 70.0923 73.9119 71.9519 70.7079L87.8799 43.2381C89.7394 40.0297 89.7394 36.0797 87.8799 32.8758L71.9519 5.40601C70.0923 2.19754 66.6575 0.224819 62.9384 0.224819Z" fill="#C3E1FF"/>
<path d="M62.9382 76.1182L31.0777 76.1182C27.2908 76.1182 23.7613 74.0915 21.8657 70.8246L5.93763 43.3549C4.04198 40.088 4.04198 36.0302 5.93763 32.7678L21.8657 5.29359C23.7613 2.0267 27.2908 6.07759e-05 31.0777 6.07394e-05L62.9382 6.04319e-05C66.725 6.03953e-05 70.2545 2.0267 72.1502 5.29359L88.0782 32.7633C89.9739 36.0302 89.9739 40.088 88.0782 43.3504L72.1502 70.8202C70.2545 74.087 66.725 76.1137 62.9382 76.1137L62.9382 76.1182ZM31.0777 0.449427C27.4488 0.449427 24.0727 2.39069 22.2583 5.51828L6.3303 32.988C4.51589 36.1156 4.51589 39.9981 6.3303 43.1257L22.2583 70.5955C24.0727 73.7231 27.4488 75.6643 31.0777 75.6643L62.9382 75.6643C66.567 75.6643 69.9431 73.7231 71.7575 70.5955L87.6856 43.1257C89.5 39.9981 89.5 36.1156 87.6856 32.988L71.7575 5.51828C69.9431 2.39069 66.567 0.449426 62.9382 0.449426L31.0777 0.449427Z" fill="black"/>
<path d="M72.5205 38.0615C72.5205 40.6184 71.2387 42.69 69.6545 42.69C69.4469 42.69 69.2438 42.6541 69.0497 42.5867C70.345 42.1373 71.3109 40.2814 71.3109 38.0615C71.3109 35.8417 70.345 33.9813 69.0497 33.5319C69.2438 33.4645 69.4469 33.4286 69.6545 33.4286C71.2387 33.4286 72.5205 35.5046 72.5205 38.0615Z" fill="#485868"/>
<path d="M71.3109 38.0615C71.3109 40.2814 70.345 42.1373 69.0497 42.5867C67.7543 42.1373 66.7883 40.2813 66.7883 38.0615C66.7883 35.8416 67.7543 33.9813 69.0497 33.5319C70.345 33.9813 71.3109 35.8417 71.3109 38.0615Z" fill="black"/>
<path d="M72.5205 17.2962C72.5205 19.8576 71.2387 21.9292 69.6545 21.9292C69.4469 21.9292 69.2438 21.8932 69.0497 21.8258C70.345 21.3764 71.3109 19.5206 71.3109 17.2962C71.3109 15.0718 70.345 13.2204 69.0497 12.7711C69.2438 12.7037 69.4469 12.6677 69.6545 12.6677C71.2387 12.6677 72.5205 14.7393 72.5205 17.2962Z" fill="#485868"/>
<path d="M71.3109 17.2962C71.3109 19.5206 70.345 21.3764 69.0497 21.8258C67.7543 21.3764 66.7883 19.5205 66.7883 17.2961C66.7883 15.0718 67.7543 13.2204 69.0497 12.7711C70.345 13.2204 71.3109 15.0763 71.3109 17.2962Z" fill="black"/>
<path d="M69.6543 63.9315C71.2372 63.9315 72.5204 61.8573 72.5204 59.2986C72.5204 56.7398 71.2372 54.6656 69.6543 54.6656C68.0715 54.6656 66.7883 56.7398 66.7883 59.2986C66.7883 61.8573 68.0715 63.9315 69.6543 63.9315Z" fill="black"/>
<path d="M58.6552 38.0615C58.6552 40.6184 57.3734 42.69 55.7892 42.69C55.5815 42.69 55.3784 42.6541 55.1844 42.5867C56.4797 42.1373 57.4456 40.2814 57.4456 38.0615C57.4456 35.8417 56.4797 33.9813 55.1844 33.5319C55.3784 33.4645 55.5815 33.4286 55.7892 33.4286C57.3734 33.4286 58.6552 35.5046 58.6552 38.0615Z" fill="#485868"/>
<path d="M57.4456 38.0615C57.4456 40.2814 56.4797 42.1373 55.1844 42.5867C53.889 42.1373 52.923 40.2813 52.923 38.0615C52.923 35.8416 53.889 33.9813 55.1844 33.5319C56.4797 33.9813 57.4456 35.8417 57.4456 38.0615Z" fill="black"/>
<path d="M86.0655 38.0615C86.0655 40.6184 84.7791 42.69 83.1994 42.69C82.9918 42.69 82.7887 42.6541 82.5946 42.5867C83.8855 42.1328 84.8559 40.2814 84.8559 38.0615C84.8559 35.8417 83.8855 33.9858 82.5946 33.5364C82.7887 33.4645 82.9918 33.4286 83.1994 33.4286C84.7791 33.4286 86.0655 35.5046 86.0655 38.0615Z" fill="#485868"/>
<path d="M84.8559 38.0615C84.8559 40.2814 83.8855 42.1328 82.5946 42.5867C81.2993 42.1373 80.3287 40.2814 80.3287 38.0615C80.3287 35.8416 81.2993 33.9813 82.5946 33.5364C83.8855 33.9858 84.8559 35.8417 84.8559 38.0615Z" fill="black"/>
<path d="M30.2787 10.9456C32.7728 10.3284 34.4851 8.58816 34.1032 7.05877C33.7213 5.52939 31.3899 4.78998 28.8958 5.40725C26.4018 6.02453 24.6895 7.76474 25.0713 9.29413C25.4532 10.8235 27.7846 11.5629 30.2787 10.9456Z" fill="black"/>
<path d="M56.2275 10.9418C58.7216 10.3246 60.4339 8.58435 60.052 7.05496C59.6702 5.52558 57.3388 4.78617 54.8447 5.40344C52.3506 6.02072 50.6383 7.76093 51.0201 9.29032C51.402 10.8197 53.7334 11.5591 56.2275 10.9418Z" fill="black"/>
<path d="M22.0915 27.2719C21.5589 25.9778 19.4556 25.3756 17.2124 25.9328C14.8383 26.5215 13.209 28.1752 13.5745 29.6311C13.6016 29.7435 13.6422 29.8513 13.6919 29.9547C13.3534 29.6761 13.1142 29.3255 13.0149 28.9211C12.6312 27.3888 14.3418 25.6497 16.8378 25.0341C19.3292 24.4185 21.6582 25.1554 22.0418 26.6878C22.0915 26.881 22.105 27.0787 22.0915 27.2719Z" fill="#485868"/>
<path d="M34.1516 7.5942C33.619 6.30003 31.5158 5.69788 29.2726 6.25509C26.8985 6.84376 25.2691 8.49743 25.6347 9.95337C25.6618 10.0657 25.7024 10.1736 25.7521 10.2769C25.4136 9.99831 25.1743 9.6478 25.075 9.24337C24.6914 7.71104 26.402 5.97199 28.898 5.35636C31.3894 4.74073 33.7183 5.47769 34.102 7.01003C34.1516 7.20325 34.1652 7.40097 34.1516 7.5942Z" fill="#485868"/>
<path d="M60.0995 7.55391C59.5669 6.25974 57.4636 5.65759 55.2204 6.2148C52.8463 6.80347 51.217 8.45714 51.5826 9.91308C51.6097 10.0254 51.6503 10.1333 51.6999 10.2366C51.3614 9.95802 51.1222 9.60751 51.0229 9.20308C50.6393 7.67075 52.3499 5.9317 54.8458 5.31607C57.3372 4.70044 59.6662 5.4374 60.0498 6.96974C60.0995 7.16296 60.113 7.36068 60.0995 7.55391Z" fill="#485868"/>
<path d="M22.0915 27.2719C21.9786 28.638 20.3942 30.0358 18.2187 30.575C16.3862 31.0289 14.6397 30.7455 13.6919 29.9547C13.6422 29.8513 13.6016 29.7435 13.5745 29.6311C13.209 28.1752 14.8383 26.5215 17.2124 25.9328C19.4556 25.3756 21.5589 25.9778 22.0915 27.2719Z" fill="black"/>
<path d="M45.5017 31.0129C47.9958 30.3956 49.7081 28.6554 49.3262 27.126C48.9443 25.5966 46.6129 24.8572 44.1188 25.4745C41.6247 26.0918 39.9124 27.832 40.2943 29.3614C40.6762 30.8908 43.0076 31.6302 45.5017 31.0129Z" fill="black"/>
<path d="M21.5367 47.894C21.5503 48.1861 21.4961 48.4692 21.3742 48.7343C20.7198 50.1678 18.2915 50.4689 15.9536 49.4039C13.6427 48.3568 12.2886 46.3617 12.8979 44.9327C12.934 46.2403 14.1888 47.7457 16.098 48.6175C18.436 49.678 20.8597 49.3769 21.5187 47.9434C21.5277 47.9255 21.5322 47.912 21.5367 47.894Z" fill="#485868"/>
<path d="M35.9166 47.8938C35.9302 48.1859 35.876 48.469 35.7541 48.7341C35.0997 50.1676 32.6714 50.4687 30.3335 49.4037C28.0181 48.3522 26.664 46.3525 27.2778 44.9235C27.3094 46.2311 28.5642 47.7455 30.4779 48.6173C32.8114 49.6778 35.2396 49.3767 35.8986 47.9432C35.9076 47.9253 35.9121 47.9118 35.9166 47.8938Z" fill="#485868"/>
<path d="M49.2046 47.8939C49.2181 48.186 49.164 48.4691 49.0421 48.7342C48.3832 50.1677 45.9594 50.4688 43.6214 49.4038C41.3105 48.3567 39.9565 46.3616 40.5613 44.9326C40.5929 46.2357 41.8522 47.7456 43.7659 48.6174C46.0993 49.6779 48.5276 49.3768 49.1865 47.9433C49.1956 47.9253 49.2001 47.9119 49.2046 47.8939Z" fill="#485868"/>
<path d="M33.0056 67.4324C33.0191 67.7245 32.9694 68.0075 32.8476 68.2727C32.1886 69.7062 29.7604 70.0072 27.4224 68.9467C25.116 67.8952 23.7575 65.9045 24.3668 64.471C24.3984 65.7787 25.6531 67.2886 27.5668 68.1558C29.9048 69.2208 32.3331 68.9198 32.9875 67.4818C32.9965 67.4638 33.001 67.4503 33.0056 67.4324Z" fill="#485868"/>
<path d="M46.5728 67.4324C46.5819 67.7289 46.5322 68.0075 46.4103 68.2727C45.7514 69.7062 43.3231 70.0072 40.9897 68.9467C38.6788 67.8952 37.3202 65.9045 37.9295 64.471C37.9611 65.7787 39.2204 67.2886 41.1296 68.1558C43.4676 69.2208 45.8958 68.9198 46.5548 67.4818C46.5638 67.4638 46.5683 67.4503 46.5728 67.4324Z" fill="#485868"/>
<path d="M60.3525 67.4324C60.3616 67.7289 60.3119 68.0075 60.1901 68.2727C59.5311 69.7062 57.1028 70.0072 54.7694 68.9467C52.4585 67.8952 51.0999 65.9045 51.7093 64.471C51.7409 65.7787 53.0001 67.2886 54.9093 68.1558C57.2473 69.2208 59.6755 68.9198 60.3345 67.4818C60.3435 67.4638 60.348 67.4503 60.3525 67.4324Z" fill="#485868"/>
<path d="M21.5367 47.894C21.5367 47.894 21.5277 47.9255 21.5187 47.9434C20.8597 49.3769 18.436 49.678 16.098 48.6175C14.1888 47.7457 12.934 46.2403 12.8979 44.9327C12.9025 44.9147 12.9063 44.9008 12.9153 44.8828C13.5697 43.4494 15.998 43.1483 18.336 44.2133C20.2452 45.0806 21.5006 46.5863 21.5367 47.894Z" fill="black"/>
<path d="M35.9166 47.8938C35.9166 47.8938 35.9076 47.9253 35.8986 47.9432C35.2396 49.3767 32.8114 49.6778 30.4779 48.6173C28.5642 47.7455 27.3094 46.2311 27.2778 44.9235C27.2778 44.91 27.2862 44.8964 27.2907 44.8829C27.9497 43.4494 30.3779 43.1484 32.7159 44.2134C34.6251 45.0806 35.8805 46.5861 35.9166 47.8938Z" fill="black"/>
<path d="M49.2046 47.8939C49.2046 47.8939 49.1956 47.9253 49.1865 47.9433C48.5276 49.3768 46.0993 49.6779 43.7659 48.6174C41.8522 47.7456 40.5929 46.2357 40.5613 44.9326C40.5613 44.9146 40.5694 44.9009 40.5785 44.8829C41.2374 43.4494 43.6657 43.1484 46.0037 44.2134C47.9129 45.0806 49.1685 46.5862 49.2046 47.8939Z" fill="black"/>
<path d="M33.0056 67.4324C33.0056 67.4324 32.9965 67.4638 32.9875 67.4818C32.3331 68.9198 29.9048 69.2208 27.5668 68.1558C25.6531 67.2886 24.3984 65.7787 24.3668 64.471C24.3668 64.4531 24.375 64.4393 24.384 64.4213C25.043 62.9878 27.4667 62.6867 29.8047 63.7517C31.7139 64.619 32.9695 66.1292 33.0056 67.4324Z" fill="black"/>
<path d="M46.5728 67.4324C46.5728 67.4324 46.5638 67.4638 46.5548 67.4818C45.8958 68.9198 43.4676 69.2208 41.1296 68.1558C39.2204 67.2886 37.9611 65.7787 37.9295 64.471C37.9341 64.4531 37.9381 64.4393 37.9471 64.4213C38.6061 62.9878 41.0343 62.6867 43.3723 63.7517C45.277 64.619 46.5367 66.1247 46.5728 67.4324Z" fill="black"/>
<path d="M60.3525 67.4324C60.3525 67.4324 60.3435 67.4638 60.3345 67.4818C59.6755 68.9198 57.2473 69.2208 54.9093 68.1558C53.0001 67.2886 51.7409 65.7787 51.7093 64.471C51.7138 64.4531 51.7175 64.4393 51.7265 64.4213C52.3855 62.9878 54.8137 62.6867 57.1517 63.7517C59.0564 64.619 60.3164 66.1247 60.3525 67.4324Z" fill="black"/>
<path d="M49.3711 27.6901C48.8385 26.3959 46.7352 25.7938 44.492 26.351C42.1179 26.9396 40.4886 28.5933 40.8541 30.0492C40.8812 30.1616 40.9218 30.2694 40.9715 30.3728C40.633 30.0942 40.3938 29.7437 40.2945 29.3393C39.9108 27.8069 41.6214 26.0679 44.1174 25.4522C46.6088 24.8366 48.9378 25.5736 49.3214 27.1059C49.3711 27.2991 49.3846 27.4968 49.3711 27.6901Z" fill="#485868"/>
<path d="M72.5204 59.3029C72.5204 61.8598 71.2386 63.9315 69.6543 63.9315C69.4467 63.9315 69.2436 63.8954 69.0495 63.828C70.3449 63.3787 71.3107 61.5228 71.3107 59.3029C71.3107 57.083 70.3449 55.2227 69.0495 54.7733C69.2436 54.7059 69.4467 54.6699 69.6543 54.6699C71.2385 54.6699 72.5204 56.746 72.5204 59.3029Z" fill="#485868"/>
<path d="M19.4556 55.6581C16.2243 60.7605 16.0418 67.2688 18.9759 72.5224C19.2351 72.99 18.7041 73.4964 18.2523 73.2095C13.1772 69.9927 6.6838 69.8347 1.42832 72.7991C0.960749 73.0607 0.457466 72.5304 0.745475 72.0765C3.97451 66.978 4.15923 60.4657 1.21518 55.2116C0.95589 54.744 1.48696 54.2376 1.93878 54.5245C7.01776 57.7435 13.515 57.9038 18.7666 54.9371C19.2342 54.6755 19.7375 55.2058 19.4494 55.6597L19.4556 55.6581Z" fill="white"/>
<path d="M19.1734 73.1418C19.1373 73.2043 19.0934 73.2624 19.0378 73.3137C18.7875 73.5496 18.4223 73.5889 18.1356 73.4025C13.1049 70.2166 6.7466 70.0583 1.54319 72.9955C1.24247 73.1658 0.879004 73.1123 0.644563 72.8623C0.410123 72.6123 0.362229 72.2459 0.555456 71.9562C3.76356 66.9029 3.93179 60.5271 1.02089 55.3233C0.852059 55.0226 0.904565 54.662 1.15718 54.4222C1.40754 54.1863 1.77271 54.147 2.05944 54.3334C7.09398 57.5215 13.4523 57.6798 18.658 54.7387C18.9587 54.5684 19.3222 54.6219 19.5566 54.8719C19.791 55.1219 19.8266 55.4916 19.6418 55.7758C16.4354 60.8353 16.2593 67.2066 19.1702 72.4103C19.2987 72.6461 19.2981 72.9167 19.1695 73.1395L19.1734 73.1418ZM0.928822 72.2082C0.849836 72.345 0.900357 72.4732 0.970175 72.55C1.04388 72.629 1.17744 72.6853 1.3236 72.6029C6.67317 69.5834 13.2067 69.7438 18.3768 73.0206C18.5163 73.1116 18.6505 73.0588 18.7297 72.9846C18.8088 72.9104 18.8655 72.7764 18.7838 72.6302C15.7913 67.2803 15.9801 60.734 19.2678 55.5338C19.3552 55.3914 19.307 55.2593 19.2332 55.1803C19.1595 55.1013 19.026 55.045 18.8798 55.1274C13.5303 58.1469 6.99448 57.9904 1.82046 54.7114C1.68098 54.6204 1.54284 54.6709 1.46759 54.7474C1.38844 54.8215 1.33179 54.9556 1.41345 55.1018C4.406 60.4517 4.22105 67.0002 0.935592 72.1965C0.933335 72.2004 0.931079 72.2043 0.928822 72.2082Z" fill="black"/>
<path d="M91.2849 13.4481C89.4599 17.025 89.7891 21.3213 92.1384 24.5786C92.3458 24.8663 92.0229 25.2393 91.6975 25.0795C88.0473 23.3028 83.6523 23.6303 80.3131 25.933C80.0186 26.1361 79.6375 25.8209 79.8014 25.5026C81.6235 21.9315 81.2943 17.6351 78.9418 14.3692C78.7344 14.0815 79.0574 13.7085 79.3828 13.8683C83.039 15.6479 87.4324 15.316 90.7716 13.0133C91.0661 12.8102 91.4472 13.1254 91.2833 13.4437L91.2849 13.4481Z" fill="white"/>
<path d="M92.0496 25.3125C91.9081 25.3612 91.7466 25.3536 91.5974 25.2837C88.0068 23.5349 83.7333 23.8547 80.4541 26.1173C80.2314 26.2715 79.9439 26.2587 79.7368 26.0826C79.5312 25.9107 79.4765 25.6336 79.5942 25.3942C81.3877 21.8816 81.0662 17.7039 78.7502 14.4982C78.5928 14.2807 78.6062 13.9996 78.7823 13.7984C78.9583 13.5972 79.2418 13.5434 79.4865 13.6581C83.0771 15.4069 87.3506 15.0871 90.6342 12.823C90.8569 12.6688 91.1444 12.6815 91.35 12.8534C91.5555 13.0253 91.6146 13.3008 91.4925 13.5417C89.6991 17.0544 90.0206 21.232 92.3321 24.4392C92.4895 24.6568 92.4761 24.9379 92.3001 25.1391C92.2303 25.2213 92.1452 25.2748 92.048 25.3082L92.0496 25.3125ZM82.9721 24.3347C85.8314 23.3516 89.0121 23.5143 91.8072 24.872C91.8788 24.9056 91.9256 24.8701 91.946 24.8437C91.9663 24.8173 91.9981 24.7675 91.9512 24.706C89.5413 21.3629 89.2052 17.0059 91.0777 13.34C91.1121 13.2699 91.0758 13.2241 91.0489 13.2043C91.0219 13.1845 90.9711 13.1535 90.9081 13.1994C87.4825 15.5657 83.0284 15.8941 79.2783 14.0741C79.2066 14.0406 79.1598 14.0761 79.1395 14.1025C79.1192 14.1288 79.0874 14.1786 79.1342 14.2401C81.5457 17.5876 81.8847 21.9387 80.0122 25.6046C79.9778 25.6747 80.014 25.7204 80.041 25.7403C80.068 25.7601 80.1188 25.7911 80.1818 25.7452C81.0536 25.1447 81.997 24.6748 82.9737 24.339L82.9721 24.3347Z" fill="black"/>
</svg>
