<svg width="57" height="38" viewBox="0 0 57 38" fill="none" xmlns="http://www.w3.org/2000/svg">
<path d="M40.7984 14.1635C40.7543 14.6566 40.6117 15.1914 40.3708 15.7192C40.0924 16.3304 39.7191 16.8548 39.2914 17.2367C39.2846 17.3027 39.2812 17.3652 39.2778 17.4312C39.7598 17.0319 40.1841 16.4519 40.4929 15.7783C40.7611 15.1879 40.9104 14.5907 40.9444 14.042C40.8935 14.0802 40.8459 14.1184 40.7984 14.1635Z" fill="#161E26"/>
<path d="M41.5691 13.6611C41.5114 13.6854 41.4537 13.7097 41.396 13.741C41.4876 14.4112 41.3519 15.2516 40.9751 16.078C40.5576 16.9948 39.9297 17.6858 39.3052 18.0122C39.312 18.0782 39.3221 18.1407 39.3357 18.2032C40.0213 17.8699 40.7002 17.1337 41.1448 16.1579C41.4571 15.4773 41.6064 14.7862 41.6064 14.1751C41.6064 13.9945 41.5928 13.8243 41.5691 13.6611Z" fill="#2C3C4C"/>
<path d="M42.1048 13.5669C42.1048 13.5669 42.0709 13.5635 42.0539 13.5635C41.9928 13.5635 41.9283 13.5669 41.8638 13.5808C42.1456 14.2892 42.0607 15.3727 41.5787 16.4318C41.0526 17.5812 40.2007 18.3799 39.437 18.5327C39.471 18.6091 39.5117 18.682 39.5524 18.748C40.3738 18.5431 41.2563 17.7201 41.796 16.536C42.1082 15.8519 42.2576 15.1574 42.2576 14.5393C42.2576 14.1816 42.2067 13.8517 42.1048 13.5669Z" fill="#435971"/>
<path d="M42.7091 13.8003C42.6446 13.7447 42.5768 13.6996 42.4987 13.6614C42.424 13.6266 42.3493 13.6023 42.2679 13.585C42.7668 14.2309 42.76 15.5261 42.183 16.7867C41.5653 18.1375 40.5029 19.0021 39.6646 18.8945C39.7596 19.0021 39.8682 19.0855 39.9938 19.1445C40.0108 19.1515 40.0311 19.1619 40.0481 19.1688C40.917 19.0264 41.8742 18.1687 42.4444 16.9117C42.76 16.2276 42.9094 15.5261 42.9094 14.908C42.9094 14.4948 42.8415 14.1163 42.7091 13.8003Z" fill="#597797"/>
<path d="M30.8735 30.9929C30.86 31.0241 30.8464 31.0554 30.8328 31.0866C30.8973 30.972 30.9584 30.854 31.0127 30.7324C31.0263 30.7046 31.0365 30.6803 31.0467 30.6526C30.9822 30.7637 30.9279 30.8748 30.8735 30.9929ZM30.9618 27.2078C30.9109 27.2008 30.86 27.1939 30.8057 27.1904C30.8668 27.2321 30.9211 27.2877 30.9686 27.3502C31.0161 27.3641 31.0636 27.3779 31.1111 27.3953C31.067 27.3259 31.0161 27.2634 30.9618 27.2078Z" fill="black"/>
<path d="M31.9736 29.4719C31.9295 29.9824 31.7801 30.5241 31.5425 31.0484C31.2608 31.6665 30.8773 32.1978 30.4462 32.5833C30.4394 32.6493 30.436 32.7118 30.436 32.7743C30.9248 32.3715 31.3525 31.7881 31.6647 31.1075C31.9329 30.5241 32.089 29.9164 32.1195 29.3504C32.072 29.3851 32.0211 29.4233 31.9736 29.4719ZM30.9621 27.2078C30.9112 27.2008 30.8603 27.1939 30.806 27.1904C30.8671 27.2321 30.9214 27.2877 30.9689 27.3502C31.0164 27.3641 31.064 27.3779 31.1115 27.3953C31.0674 27.3259 31.0164 27.2634 30.9621 27.2078Z" fill="#161E26"/>
<path d="M32.7613 29.1494C32.7579 29.0973 32.7511 29.0418 32.7409 28.9932C32.6832 29.014 32.6255 29.0383 32.5644 29.0696C32.5712 29.1008 32.5746 29.1355 32.578 29.1668C32.6459 29.8509 32.4932 30.6461 32.147 31.4066C31.8008 32.1636 31.3018 32.7956 30.7452 33.1776C30.6535 33.2401 30.5619 33.2957 30.4736 33.3443C30.4804 33.4102 30.494 33.4762 30.511 33.5387C30.623 33.4832 30.735 33.4137 30.8504 33.3373C31.4342 32.9345 31.9535 32.2747 32.3167 31.4865C32.6765 30.6982 32.836 29.8648 32.7613 29.1494Z" fill="#2C3C4C"/>
<path d="M33.4159 29.5102C33.3922 29.2879 33.3514 29.083 33.2835 28.899C33.2666 28.8955 33.2462 28.8955 33.2292 28.8955C33.1647 28.8955 33.1003 28.9025 33.0358 28.9129C33.107 29.0934 33.1546 29.3053 33.1783 29.5379C33.2462 30.2151 33.0969 31.0068 32.7507 31.7604C32.2246 32.9098 31.376 33.7085 30.6157 33.8613C30.6463 33.9411 30.6836 34.0106 30.7277 34.0765C31.5457 33.8717 32.4282 33.0417 32.9645 31.8645C33.3277 31.0693 33.4872 30.2359 33.4159 29.5102Z" fill="#435971"/>
<path d="M34.0677 29.8744C34.0406 29.6001 33.9828 29.3536 33.8912 29.1417C33.8233 29.0792 33.7487 29.0271 33.6672 28.9889C33.5925 28.9542 33.5145 28.9299 33.433 28.916C33.6197 29.1556 33.7419 29.4925 33.7826 29.9057C33.8505 30.5794 33.6977 31.3642 33.3549 32.1142C33.0121 32.8643 32.52 33.4859 31.9735 33.8679C31.573 34.1422 31.1827 34.2637 30.8398 34.2186C30.9281 34.3262 31.0401 34.4131 31.1657 34.4721C31.1894 34.4825 31.2166 34.4929 31.2404 34.4999C31.5289 34.4513 31.8309 34.3193 32.133 34.1109C32.727 33.7012 33.2531 33.0379 33.6163 32.2392C33.9828 31.4406 34.1424 30.6037 34.0677 29.8744Z" fill="#597797"/>
<path d="M16.9611 15.717C16.9034 15.5955 16.8423 15.474 16.7778 15.3594C16.7914 15.3906 16.805 15.4219 16.8186 15.4531C16.8763 15.5781 16.9374 15.6997 17.0052 15.8178C16.9917 15.783 16.9747 15.7518 16.9611 15.717Z" fill="black"/>
<path d="M17.3886 17.3073C16.9542 16.9218 16.574 16.3905 16.2923 15.7724C16.0513 15.2446 15.902 14.7029 15.8579 14.1889C15.8103 14.1438 15.7628 14.1056 15.7119 14.0674C15.7425 14.6334 15.8986 15.2446 16.1667 15.8314C16.479 16.5121 16.9101 17.092 17.3988 17.4983C17.3988 17.4358 17.3954 17.3732 17.3886 17.3073Z" fill="#161E26"/>
<path d="M17.0867 17.9018C16.53 17.5163 16.0345 16.8878 15.6883 16.1273C15.3387 15.3703 15.1859 14.5751 15.2572 13.891C15.2606 13.8562 15.264 13.825 15.2708 13.7903C15.2097 13.759 15.152 13.7347 15.0909 13.7139C15.0841 13.7625 15.0773 13.818 15.0705 13.8701C14.9993 14.5889 15.1554 15.4189 15.5186 16.2106C15.8784 16.9989 16.3977 17.6552 16.9849 18.058C17.1003 18.1379 17.2157 18.2073 17.3311 18.2629C17.3446 18.2004 17.3582 18.1379 17.365 18.0719C17.2734 18.0233 17.1817 17.9677 17.0867 17.9018Z" fill="#2C3C4C"/>
<path d="M15.0808 16.4845C14.738 15.7275 14.5852 14.9393 14.6531 14.2586C14.6769 14.026 14.7278 13.8141 14.7991 13.6336C14.7312 13.6232 14.6667 13.6162 14.6022 13.6162C14.5852 13.6162 14.5683 13.6162 14.5513 13.6197C14.4834 13.8037 14.4393 14.0086 14.4155 14.2343C14.3443 14.9566 14.5038 15.7935 14.867 16.5852C15.4066 17.7694 16.2891 18.5958 17.1105 18.8007C17.1512 18.7347 17.192 18.6618 17.2259 18.5854C16.4622 18.4361 15.6069 17.6339 15.0808 16.4845Z" fill="#435971"/>
<path d="M14.4766 16.8394C14.1338 16.0893 13.9811 15.3045 14.0523 14.6308C14.0931 14.2176 14.2119 13.8773 14.4019 13.6377C14.3205 13.6516 14.239 13.6794 14.1644 13.7141C14.0829 13.7523 14.0048 13.8044 13.9369 13.8669C13.8487 14.0822 13.791 14.3287 13.7638 14.5996C13.6892 15.3254 13.8521 16.1657 14.2153 16.9644C14.7889 18.2145 15.7426 19.0757 16.6082 19.2216C16.6285 19.2146 16.6489 19.2077 16.6693 19.1972C16.7948 19.1382 16.9068 19.0514 17.0019 18.9437C16.1635 19.0549 15.0944 18.1937 14.4766 16.8394Z" fill="#597797"/>
<path d="M30.9618 27.2082C30.9109 27.2012 30.86 27.1943 30.8057 27.1908C30.8668 27.2325 30.9211 27.2881 30.9686 27.3506C31.0161 27.3645 31.0637 27.3783 31.1112 27.3957C31.067 27.3263 31.0161 27.2638 30.9618 27.2082ZM29.2613 24.9962C22.8396 26.0414 16.5807 26.5206 11.5166 26.3609C11.5777 26.8471 11.7033 27.3158 11.8798 27.7638C12.4025 27.7742 12.9388 27.7812 13.4852 27.7812C18.2303 27.7812 23.7967 27.2915 29.4718 26.3678C31.2978 26.0727 33.1069 25.7358 34.8719 25.3608C34.8549 24.9163 34.9262 24.4128 35.0925 23.8989C33.1952 24.3051 31.2334 24.6767 29.2613 24.9962ZM41.5686 13.6583C41.5686 13.6583 41.5856 13.6583 41.5958 13.6514C41.5856 13.6514 41.5788 13.6548 41.5686 13.6583ZM39.8851 22.746C39.5219 22.8432 39.3047 23.2252 39.3997 23.5933C39.4778 23.9058 39.7527 24.1142 40.0548 24.1142C40.1125 24.1142 40.1702 24.1072 40.2279 24.0933C41.3718 23.7877 43.2419 23.2599 45.3192 22.555V21.1069C43.7307 21.6521 41.925 22.2008 39.8851 22.746Z" fill="#6F95BD"/>
<path d="M39.8853 22.7452C41.9252 22.2 43.7309 21.6513 45.3193 21.1061V12.2616C45.3193 10.2649 44.2739 8.4244 42.5768 7.43472L31.0808 0.729235C29.4142 -0.243078 27.3709 -0.243078 25.7044 0.729235L14.2083 7.43472C12.5146 8.4244 11.4692 10.2649 11.4692 12.2616V25.6343C11.4692 25.8774 11.4862 26.1205 11.5168 26.3601C16.5809 26.5198 22.8397 26.0406 29.2615 24.9954C31.2335 24.6759 33.1953 24.3044 35.0927 23.8981C35.1538 23.7071 35.2251 23.5161 35.3133 23.3251C36.0261 21.7625 37.3498 20.8492 38.2662 21.2867C39.1793 21.7277 39.3456 23.3494 38.6294 24.9121C37.9166 26.4747 36.5929 27.388 35.6765 26.9504C35.1741 26.7108 34.8992 26.1136 34.8721 25.36C33.1071 25.7351 31.298 26.0719 29.4719 26.3671C23.7969 27.2908 18.2304 27.7804 13.4854 27.7804C12.9389 27.7804 12.4026 27.7734 11.8799 27.763C12.3314 28.8708 13.129 29.8188 14.1778 30.4438L25.6705 37.2535C27.354 38.2501 29.4312 38.2501 31.1147 37.2535L42.6108 30.4438C44.2875 29.4472 45.3193 27.6172 45.3193 25.6343V22.5542C43.2421 23.2591 41.3719 23.787 40.2281 24.0925C40.1704 24.1064 40.1127 24.1134 40.055 24.1134C39.7529 24.1134 39.478 23.905 39.3999 23.5925C39.3049 23.2244 39.5221 22.8424 39.8853 22.7452ZM17.3649 18.0711C17.3581 18.1371 17.3446 18.1996 17.331 18.2621C17.3038 18.3767 17.2665 18.4844 17.2258 18.5851C17.1918 18.6615 17.1511 18.7344 17.1104 18.8004C17.0764 18.8525 17.0391 18.9011 17.0017 18.9427C16.9067 19.0504 16.7947 19.1372 16.6691 19.1962C16.6487 19.2067 16.6284 19.2136 16.608 19.2206C16.2211 19.3768 15.7391 19.2761 15.247 18.9358C14.7005 18.5573 14.2117 17.9392 13.8723 17.1926C13.5295 16.446 13.3802 15.6681 13.448 14.9979C13.499 14.4909 13.6687 14.102 13.9368 13.8659C14.0047 13.8034 14.0828 13.7513 14.1642 13.7131C14.2389 13.6784 14.3203 13.6506 14.4018 13.6367C14.4493 13.6263 14.5002 13.6193 14.5511 13.6193C14.5681 13.6159 14.5851 13.6159 14.6021 13.6159C14.6665 13.6159 14.731 13.6228 14.7989 13.6332C14.894 13.6471 14.9924 13.6749 15.0908 13.7131C15.1519 13.7339 15.2096 13.7582 15.2707 13.7895C15.3759 13.8381 15.4812 13.9006 15.5864 13.9735C15.6305 14.0048 15.6712 14.036 15.712 14.0673C15.7629 14.1055 15.8104 14.1437 15.8579 14.1888C16.2041 14.4909 16.5232 14.8938 16.7777 15.3591C16.8422 15.4737 16.9033 15.5952 16.961 15.7168C16.9746 15.7515 16.9916 15.7827 17.0051 15.8175C17.2258 16.3279 17.3513 16.8384 17.3887 17.3072C17.3955 17.3732 17.3989 17.4357 17.3989 17.4982C17.409 17.6996 17.3955 17.894 17.3649 18.0711ZM28.362 10.7684C26.6751 10.7684 25.3073 9.86551 25.3073 8.75429C25.3073 7.64308 26.6751 6.74022 28.362 6.74022C30.0489 6.74022 31.4168 7.63961 31.4168 8.75429C31.4168 9.86898 30.0489 10.7684 28.362 10.7684ZM25.3277 34.6317C24.4112 35.0693 23.0909 34.156 22.3747 32.5933C21.6619 31.0307 21.8249 29.4055 22.7413 28.968C23.6543 28.5305 24.9781 29.4437 25.6908 31.0064C26.407 32.569 26.2441 34.1942 25.3277 34.6317ZM30.962 27.2074C31.0163 27.263 31.0672 27.3255 31.1113 27.3949C31.0638 27.3776 31.0163 27.3637 30.9688 27.3498C30.9212 27.2873 30.8669 27.2317 30.8058 27.1901C30.8602 27.1935 30.9111 27.2005 30.962 27.2074ZM33.959 32.4683C33.2904 33.9372 32.0855 34.8262 31.2403 34.4998C31.2165 34.4928 31.1894 34.4824 31.1656 34.472C31.04 34.4129 30.928 34.3261 30.8398 34.2185C30.7957 34.1733 30.7617 34.1282 30.7278 34.0761C30.6837 34.0101 30.6463 33.9407 30.6158 33.8608C30.5716 33.7636 30.5343 33.6559 30.5106 33.5379C30.4936 33.4754 30.48 33.4094 30.4732 33.3434C30.4596 33.2948 30.4562 33.2427 30.4495 33.1906C30.4359 33.0552 30.4325 32.9163 30.4359 32.7739C30.4359 32.7114 30.4393 32.6489 30.4461 32.5829C30.48 32.1002 30.6124 31.5863 30.833 31.0862C30.8466 31.055 30.8602 31.0237 30.8737 30.9925C30.928 30.8744 30.9823 30.7633 31.0468 30.6522C31.3014 30.1799 31.6204 29.7702 31.9734 29.4715C32.021 29.4229 32.0719 29.3847 32.1194 29.35C32.1635 29.3152 32.2042 29.284 32.2484 29.2527C32.3536 29.1798 32.4622 29.1173 32.564 29.0687C32.6251 29.0374 32.6828 29.0131 32.7405 28.9923C32.8424 28.9541 32.9408 28.9263 33.0358 28.9124C33.1003 28.902 33.1648 28.8951 33.2293 28.8951C33.2463 28.8951 33.2666 28.8951 33.2836 28.8985C33.3345 28.8985 33.3854 28.9055 33.4329 28.9159C33.5144 28.9298 33.5925 28.9541 33.6671 28.9888C33.7486 29.027 33.8233 29.0791 33.8912 29.1416C34.1593 29.3743 34.3324 29.7667 34.3833 30.2737C34.4512 30.9439 34.3018 31.7252 33.959 32.4683ZM39.3795 18.3733C39.3626 18.3177 39.3456 18.2621 39.3354 18.2031C39.3218 18.1406 39.3116 18.0781 39.3049 18.0121C39.2777 17.8281 39.2709 17.6336 39.2777 17.4322C39.2811 17.3662 39.2845 17.3037 39.2913 17.2377C39.3354 16.7412 39.478 16.2064 39.7189 15.6786C40.0041 15.057 40.3842 14.5361 40.7983 14.1645C40.8458 14.1194 40.8933 14.0812 40.9442 14.043C41.0902 13.9214 41.2429 13.8207 41.3957 13.7409C41.4534 13.7096 41.5111 13.6853 41.5688 13.661C41.5688 13.661 41.5857 13.6506 41.5959 13.6506C41.6027 13.6471 41.6129 13.6402 41.6231 13.6402C41.7045 13.6089 41.786 13.5916 41.8641 13.5811C41.9286 13.5672 41.993 13.5638 42.0541 13.5638C42.0711 13.5638 42.0881 13.5638 42.1051 13.5672C42.1628 13.5672 42.2171 13.5742 42.268 13.5846C42.3494 13.602 42.4241 13.6263 42.4988 13.661C42.5768 13.6992 42.6447 13.7443 42.7092 13.7999C43.3677 14.3486 43.4186 15.7654 42.7907 17.1405C42.1118 18.6233 40.8967 19.5157 40.0482 19.1685C40.0312 19.1615 40.0108 19.1511 39.9939 19.1442C39.8683 19.0851 39.7597 19.0018 39.6646 18.8941C39.6239 18.849 39.59 18.8004 39.5526 18.7483C39.5119 18.6823 39.4712 18.6094 39.4372 18.533C39.4169 18.4809 39.3965 18.4288 39.3795 18.3733Z" fill="#6F95BD"/>
<path d="M6.71405 19.027C6.4527 19.027 6.20492 18.8742 6.09291 18.6137C5.94017 18.263 6.09291 17.8532 6.43572 17.697C6.59864 17.6241 6.76156 17.5511 6.92788 17.4782C7.27069 17.3254 7.6712 17.4886 7.82055 17.8428C7.96989 18.197 7.81036 18.6033 7.46416 18.7561C7.30463 18.829 7.14511 18.8985 6.98897 18.9714C6.90073 19.0131 6.80569 19.0304 6.71405 19.0304V19.027Z" fill="white"/>
<path d="M8.16678 27.5337C8.14302 27.5337 8.12266 27.5337 8.0989 27.5337C3.05176 27.0128 0.336421 25.7488 0.0275512 23.7764C-0.210041 22.2415 1.08993 20.6338 3.89352 19.0017C4.21936 18.8107 4.63345 18.9287 4.82013 19.2621C5.0068 19.5955 4.8914 20.0191 4.56556 20.2101C2.40008 21.4706 1.23248 22.693 1.36825 23.5576C1.51081 24.4813 3.39118 25.6481 8.23466 26.1482C8.60802 26.1864 8.87956 26.5267 8.84222 26.9086C8.80828 27.2663 8.51299 27.5337 8.16678 27.5337Z" fill="white"/>
<path d="M35.8936 25.1426C35.5542 25.219 35.2148 25.2919 34.872 25.3614C33.107 25.7364 31.2979 26.0733 29.4718 26.3684C23.7968 27.2921 18.2303 27.7818 13.4853 27.7818C12.9388 27.7818 12.4025 27.7748 11.8798 27.7644C11.4725 27.7505 11.0686 27.7366 10.6749 27.7192C10.3015 27.7019 10.013 27.3755 10.03 26.9935C10.0436 26.6115 10.3762 26.3198 10.736 26.3302C10.994 26.3406 11.2519 26.3511 11.5167 26.3615C16.5808 26.5212 22.8396 26.042 29.2614 24.9968C31.2334 24.6773 33.1952 24.3057 35.0926 23.8994C35.2657 23.8612 35.4388 23.823 35.6085 23.7848C35.9717 23.7085 36.3349 23.9446 36.4129 24.3196C36.4944 24.6947 36.2602 25.0627 35.8936 25.1426Z" fill="white"/>
<path d="M45.3192 22.5548C43.242 23.2597 41.3718 23.7876 40.2279 24.0931C40.1702 24.107 40.1125 24.114 40.0548 24.114C39.7528 24.114 39.4778 23.9056 39.3998 23.5931C39.3047 23.225 39.5219 22.843 39.8851 22.7458C41.925 22.2006 43.7307 21.6519 45.3192 21.1068C52.8814 18.5058 55.5289 16.0091 55.3388 14.7798C55.1793 13.738 52.9425 12.481 47.1487 12.0712C46.7719 12.0469 46.4902 11.7135 46.5173 11.3315C46.5411 10.9496 46.8635 10.6648 47.2403 10.6856C53.1699 11.1023 56.3469 12.408 56.6795 14.561C57.192 17.8495 50.587 20.7699 45.3192 22.5548Z" fill="white"/>
</svg>
