<svg width="473" height="283" viewBox="0 0 473 283" fill="none" xmlns="http://www.w3.org/2000/svg">
<g clip-path="url(#clip0_35_1277)">
<path d="M258.441 57.7523C255.647 74.6644 260.548 91.4347 268.943 106.448C283.8 132.133 311.658 149.7 341.241 152.766C316.92 151.74 293.166 141.025 275.918 123.721C262.48 110.627 253.835 92.7986 251.87 74.0971C251.171 67.725 252.94 66.9067 253.769 60.5128L260.406 56.5303L258.452 57.7523H258.441Z" fill="black"/>
<path d="M145.448 124.637L206.295 88.7615L210.17 86.4702L208.806 88.7615C208.806 88.7615 196.787 115.275 224.58 149.58C252.372 183.884 292.653 182.826 292.653 182.826L268.692 196.53L248.071 209.001L245.965 210.005L233.356 209.11C233.356 209.11 220.792 206.132 193.829 213.551C187.039 210.442 166.702 201.636 151.179 177.763C135.656 153.89 140.918 131.817 145.448 124.637Z" fill="#C3E1FF"/>
<path d="M293.274 181.178L245.866 209.617L246.427 210.552L293.836 182.114L293.274 181.178Z" fill="black"/>
<path d="M172.029 2.85862C140.612 4.24433 115.515 13.7697 115.974 24.1243V30.3981C116.432 40.7527 142.271 48.0195 173.688 46.6338C174.78 46.5901 175.86 46.5247 176.941 46.4592C206.83 44.5716 230.201 35.3627 229.754 25.3572V19.0943C229.295 8.73968 203.446 1.47292 172.029 2.85862Z" fill="#6F95BD"/>
<path d="M173.273 32.0593C194.092 31.0961 210.73 25.1427 210.435 18.762C210.139 12.3812 193.022 7.98942 172.203 8.95258C151.383 9.91574 134.745 15.8691 135.041 22.2499C135.336 28.6306 152.453 33.0224 173.273 32.0593Z" fill="black"/>
<path d="M164.278 28.0524C156.55 28.0524 147.162 26.7431 143.909 22.9242C143.025 21.8876 142.763 20.6547 143.166 19.3563C144.389 15.3956 151.343 11.6094 157.576 9.91821L160.545 10.0601C153.722 11.9149 145.164 16.574 144.203 19.6836C143.909 20.622 144.083 21.4512 144.738 22.215C148.919 27.1249 165.796 27.7796 172.979 26.2521C179.943 24.7791 180.86 22.8805 180.969 22.335C181.078 21.8113 180.74 21.5167 180.631 21.4403C179.517 20.6438 176.657 19.9127 172.804 20.0764C169.409 20.2292 167.63 21.2439 167.488 21.6258C167.564 21.7131 168.372 22.0622 169.878 21.9967C171.33 21.9313 172.225 21.5385 172.313 21.3421L173.393 21.3203C173.415 21.724 173.208 22.3023 172.116 22.6951C171.516 22.9133 170.741 23.0551 169.922 23.0879C169.103 23.1206 168.328 23.0551 167.739 22.8805C166.658 22.575 166.418 22.0295 166.396 21.6258C166.363 20.9929 167.018 20.3601 168.219 19.8691C169.049 19.5199 170.522 19.0944 172.749 18.9962C176.374 18.8435 179.714 19.4545 181.264 20.5674C181.908 21.0257 182.203 21.8004 182.039 22.575C181.755 23.9498 179.987 25.892 173.208 27.3323C171.112 27.7796 167.87 28.0633 164.278 28.0633V28.0524Z" fill="#6F95BD"/>
<path d="M168.295 33.1586C151.462 33.1586 137.806 29.6343 134.881 24.2879C134.52 23.6442 134.324 22.9568 134.291 22.2694C134.226 20.9164 134.793 19.5743 135.983 18.2759C140.83 12.9841 155.436 8.95787 172.334 8.25956C193.992 7.35395 211.218 12.0893 211.545 19.0397V19.3998C211.523 20.1199 211.316 20.8182 210.956 21.5056C207.834 27.4194 192.082 32.2857 173.491 33.0604C171.734 33.1368 169.998 33.1695 168.306 33.1695L168.295 33.1586ZM177.312 9.24156C175.686 9.24156 174.037 9.27429 172.367 9.33976C155.993 10.0162 141.365 13.9988 136.78 19.007C135.798 20.0762 135.317 21.1564 135.372 22.2148C135.394 22.7494 135.547 23.2514 135.83 23.7642C138.821 29.2088 154.988 32.744 173.437 31.9584C191.361 31.2164 207.081 26.4919 209.984 20.9819C210.279 20.4472 210.432 19.9126 210.443 19.3779V19.0833C210.159 13.4641 195.455 9.25247 177.312 9.25247V9.24156Z" fill="black"/>
<path d="M165.937 40.8073C140.895 40.8073 120.602 35.2863 116.279 26.9284C115.766 25.9464 115.482 24.9208 115.428 23.8733C115.199 18.6142 121.028 13.4533 131.857 9.33982C142.5 5.30273 156.757 2.7059 172.007 2.02941C204.22 0.610977 229.819 7.96503 230.299 18.7888V19.3343C230.267 20.4145 229.983 21.4729 229.459 22.4986C224.841 31.7729 201.393 39.3998 173.721 40.6218C171.09 40.7418 168.492 40.7964 165.948 40.7964L165.937 40.8073ZM179.724 2.95685C177.214 2.95685 174.648 3.01141 172.061 3.13143C156.92 3.797 142.784 6.37201 132.25 10.3655C122.054 14.2389 116.323 19.1379 116.53 23.8297C116.574 24.7244 116.803 25.5755 117.251 26.4265C121.759 35.1335 146.015 40.7746 173.666 39.5416C200.978 38.3305 224.023 30.9655 228.476 22.0185C228.935 21.1238 229.175 20.229 229.208 19.3343V18.8433C228.782 9.65624 207.222 2.96776 179.724 2.96776V2.95685Z" fill="black"/>
<path d="M165.839 47.081C137.424 47.081 115.865 40.0652 115.428 30.1471V23.8514L116.52 23.8296C116.564 24.7243 116.793 25.5754 117.24 26.4264C121.749 35.1334 146.005 40.7854 173.655 39.5415C200.968 38.3413 224.012 30.9654 228.466 22.0183C228.924 21.1236 229.164 20.2289 229.197 19.3342L230.289 19.3561V25.0953C230.769 35.8863 205.913 45.488 173.699 46.9174C171.025 47.0374 168.394 47.0919 165.828 47.0919L165.839 47.081ZM116.52 27.3648V30.1253C116.967 40.1416 142.599 47.1902 173.666 45.8154C204.734 44.4297 229.656 35.1443 229.208 25.1062V22.9676C224.056 32.0347 200.935 39.4324 173.71 40.6326C145.655 41.8656 121.814 36.3227 116.52 27.3648Z" fill="black"/>
<path d="M115.428 30.1582C115.417 29.9073 115.417 29.6672 115.428 29.4163L116.52 29.4708C116.52 29.6781 116.52 29.8963 116.52 30.1037L115.428 30.1582Z" fill="black"/>
<path d="M230.3 18.8215H229.208V19.3453H230.3V18.8215Z" fill="black"/>
<path d="M170.54 2.58481L169.464 2.76733L170.512 8.94202L171.588 8.7595L170.54 2.58481Z" fill="black"/>
<path d="M176.395 46.2409L175.773 39.9998L174.507 32.5148L175.577 32.3293L176.854 39.858L177.487 46.1318L176.395 46.2409Z" fill="black"/>
<path d="M223.859 33.3224L223.335 28.1614L206.393 25.7828L206.546 24.7026L224.339 27.2013L224.94 33.2133L223.859 33.3224Z" fill="black"/>
<path d="M129.325 41.0036H128.233V34.577L143.505 28.925L143.887 29.9507L129.325 35.3298V41.0036Z" fill="black"/>
<path d="M229.521 16.9913L210.905 18.0283L210.966 19.1177L229.582 18.0807L229.521 16.9913Z" fill="black"/>
<path d="M134.871 22.2588L115.938 23.3135L115.999 24.4029L134.931 23.3482L134.871 22.2588Z" fill="black"/>
<path d="M215.908 6.92001L203.127 11.8518L203.521 12.8697L216.301 7.93789L215.908 6.92001Z" fill="black"/>
<path d="M127.708 11.1828L127.546 12.2617L142.993 14.5857L143.155 13.5068L127.708 11.1828Z" fill="black"/>
<path d="M200.935 91.6638C197.835 89.6234 195.553 85.87 194.167 80.9164C191.656 71.9911 192.049 59.1379 195.782 45.2809C195.892 44.8444 196.012 44.408 196.143 43.9606C196.306 43.3496 196.492 42.7386 196.678 42.1276C197.18 40.48 197.715 38.8543 198.271 37.2722C199.549 33.6933 200.979 30.2891 202.54 27.0922C204.537 22.9678 206.742 19.2035 209.057 15.8974C210.967 13.1806 212.943 10.7801 214.951 8.71794C215.322 8.34696 215.683 7.9869 216.054 7.63774C216.119 7.58319 216.174 7.51772 216.239 7.47408C216.752 6.98308 217.276 6.51391 217.8 6.06655C218.313 5.63011 218.816 5.2264 219.329 4.84451C219.558 4.66994 219.787 4.50627 220.016 4.34261C220.235 4.18985 220.442 4.0371 220.66 3.89525C223.881 1.77851 227.079 0.643759 230.081 0.709226C230.823 0.720137 231.555 0.807425 232.275 0.971091L233.443 1.06929L236.707 1.36389H236.773C236.915 1.3748 237.057 1.36389 237.188 1.36389C237.995 1.36389 238.77 1.45118 239.546 1.62575C242.93 2.38953 245.637 4.76814 247.602 8.35787C252.307 16.9449 252.765 32.4713 248.18 49.5144C247.907 50.5618 247.602 51.6093 247.285 52.6567C245.648 58.0795 243.628 63.1859 241.358 67.834L230.212 74.4025L221.075 79.7925L205.869 88.7614L201.175 91.5328L200.946 91.6638H200.935Z" fill="#6F95BD"/>
<path d="M230.5 50.7941C235.872 33.8476 234.57 18.3185 227.593 16.1089C220.616 13.8994 210.605 25.846 205.233 42.7925C199.862 59.739 201.163 75.268 208.14 77.4776C215.117 79.6872 225.128 67.7405 230.5 50.7941Z" fill="black"/>
<path d="M211.895 61.2658C211.174 61.2658 210.443 61.0366 209.777 60.6002C208.566 59.7928 204.81 56.2249 207.19 44.2663C209.253 33.9118 216.327 21.3204 221.272 16.9669L223.684 16.5195C218.969 20.6657 210.247 34.5009 208.26 44.4737C206.47 53.4425 208.183 58.2107 210.389 59.6837C211.338 60.3165 212.408 60.3274 213.336 59.7164C217.713 56.8031 219.94 49.6346 220.213 47.496C220.519 45.041 220.093 43.1752 219.165 42.957C218.336 42.7497 216.851 44.7901 216.305 46.514C215.836 47.9979 216.065 48.6199 216.152 48.6853C216.272 48.6635 216.906 48.1616 217.375 46.6886L218.412 47.0159C217.822 48.8599 216.807 49.951 215.868 49.7328C215.661 49.6891 215.377 49.5473 215.17 49.1872C214.81 48.5544 214.842 47.496 215.257 46.1867C215.803 44.4737 217.582 41.4622 219.416 41.8986C220.977 42.2696 221.698 44.4737 221.294 47.6379C220.999 50.0056 218.696 57.4687 213.947 60.6329C213.314 61.0585 212.615 61.2658 211.906 61.2658H211.895Z" fill="#6F95BD"/>
<path d="M201.142 92.1767L200.859 91.9912C197.715 89.9399 195.28 86.0992 193.818 80.8947C191.198 71.5875 191.787 58.4943 195.433 44.9755C195.542 44.539 195.663 44.1026 195.794 43.6443C195.957 43.0442 196.132 42.4441 196.317 41.8331C196.82 40.1746 197.365 38.527 197.922 36.9231C199.199 33.3552 200.64 29.9073 202.212 26.6885C204.188 22.6078 206.393 18.8108 208.773 15.4174C210.683 12.7006 212.681 10.2674 214.722 8.17248C215.104 7.79059 215.465 7.43053 215.847 7.08137C216.36 6.59038 216.895 6.11029 217.429 5.65203C217.953 5.20467 218.467 4.79005 218.991 4.40817C219.22 4.23359 219.449 4.06992 219.689 3.89535L219.853 3.77533C220.017 3.6553 220.18 3.54619 220.344 3.43708C223.794 1.09121 227.123 -0.0762761 230.278 0.000101307C231.053 0.0110124 231.828 0.109212 232.581 0.272878C232.931 0.349255 233.269 0.447455 233.607 0.545654C234.022 0.687498 234.393 0.851164 234.775 1.03665C235.103 1.20032 235.441 1.36398 235.758 1.56038C235.911 1.64767 236.063 1.74587 236.227 1.85498C236.751 2.20413 237.253 2.58602 237.766 3.0552C237.919 3.18613 238.061 3.32797 238.192 3.46982C238.301 3.57893 238.41 3.68804 238.531 3.81897C238.771 4.06992 239 4.33179 239.218 4.62639C239.655 5.13921 240.07 5.73932 240.485 6.4158C240.747 6.81951 240.998 7.26686 241.271 7.79059L241.336 7.92153C241.467 8.18339 241.587 8.43435 241.707 8.6853C241.849 8.9799 241.98 9.29632 242.111 9.61274C242.242 9.91825 242.362 10.2347 242.482 10.562C242.613 10.8784 242.722 11.2167 242.832 11.5767C242.941 11.915 243.05 12.2532 243.148 12.6024C243.235 12.9188 243.323 13.2352 243.41 13.5625C243.465 13.7808 243.519 13.999 243.574 14.2281C243.628 14.4354 243.694 14.6864 243.748 14.9482L243.945 15.9193C244.01 16.2576 244.076 16.5958 244.131 16.9341L244.152 17.0868C244.414 18.6689 244.611 20.3601 244.72 22.0841C244.742 22.466 244.764 22.7824 244.775 23.0988C244.796 23.3279 244.807 23.5789 244.807 23.8517C244.818 24.0699 244.829 24.3318 244.829 24.5936V24.9755C244.862 25.9684 244.851 26.9722 244.829 27.9979C244.818 28.3579 244.807 28.7289 244.786 29.089C244.753 29.8746 244.709 30.6602 244.644 31.4676C244.622 31.8604 244.589 32.2859 244.545 32.7114C244.48 33.5407 244.393 34.4027 244.283 35.2755C244.251 35.5811 244.218 35.8756 244.174 36.1921L244.076 36.9122C243.803 38.8216 243.476 40.7529 243.094 42.6732L243.039 42.9569C242.963 43.3497 242.875 43.7534 242.788 44.1462L242.733 44.3863C242.646 44.79 242.548 45.2046 242.449 45.6192C242.34 46.1102 242.22 46.6121 242.089 47.114C241.991 47.5287 241.882 47.9324 241.773 48.3579L241.707 48.6088C241.412 49.7327 241.096 50.8456 240.747 51.9804C240.539 52.6678 240.321 53.3661 240.102 54.0425C239.961 54.5008 239.808 54.97 239.633 55.4283C239.524 55.7883 239.382 56.1811 239.251 56.5521L239.12 56.9231C238.989 57.2831 238.858 57.6323 238.727 57.9924C238.607 58.3197 238.487 58.647 238.356 58.9853C238.247 59.3017 238.116 59.6181 237.985 59.9454C237.701 60.6765 237.428 61.3639 237.133 62.0404C236.959 62.455 236.795 62.8478 236.62 63.2187C236.456 63.5897 236.325 63.8952 236.194 64.1898C236.053 64.5281 235.911 64.8663 235.736 65.2046C235.408 65.9465 235.037 66.6885 234.677 67.4304L234.612 67.5723C234.579 67.6377 234.546 67.7032 234.524 67.7687L234.317 68.1833C233.793 69.2417 233.302 70.18 232.832 71.0201C232.254 72.0676 231.675 73.0932 231.075 74.0752C230.977 74.2389 230.878 74.3917 230.78 74.5444V74.6972L230.507 74.8608L201.164 92.1549L201.142 92.1767ZM230.027 1.09121C227.178 1.09121 224.132 2.18231 220.966 4.35361C220.803 4.46272 220.65 4.57183 220.497 4.67003L220.322 4.79005C220.104 4.94281 219.875 5.10647 219.645 5.28105C219.132 5.66294 218.641 6.05574 218.139 6.48127C217.626 6.91771 217.102 7.38688 216.6 7.86697C216.229 8.21612 215.868 8.57619 215.508 8.93625C213.511 10.9875 211.546 13.3771 209.679 16.0393C207.343 19.389 205.16 23.1206 203.206 27.1577C201.645 30.3437 200.215 33.7589 198.959 37.2832C198.402 38.8653 197.868 40.491 197.376 42.1168C197.191 42.7387 197.005 43.3388 196.852 43.928C196.721 44.3754 196.601 44.8118 196.492 45.2373C192.901 58.5815 192.311 71.4675 194.877 80.5891C196.219 85.3791 198.392 88.9252 201.186 90.8674L229.819 73.9989C229.929 73.8352 230.027 73.6715 230.125 73.5079C230.715 72.5368 231.282 71.5221 231.861 70.4855C232.33 69.6563 232.81 68.7288 233.334 67.6705L233.531 67.2886C233.531 67.2886 233.585 67.1685 233.618 67.0813L233.684 66.9503C234.044 66.2084 234.404 65.4773 234.743 64.7245C234.906 64.3862 235.048 64.0698 235.19 63.7425C235.321 63.4479 235.452 63.1424 235.583 62.8478C235.791 62.3895 235.943 62.0185 236.107 61.6366C236.402 60.9274 236.675 60.2619 236.948 59.5635C237.09 59.2144 237.21 58.9089 237.319 58.5815C237.45 58.2433 237.57 57.916 237.69 57.5886C237.832 57.2286 237.952 56.8794 238.083 56.5303L238.214 56.1593C238.345 55.7992 238.465 55.4173 238.585 55.0464C238.749 54.5881 238.902 54.1298 239.044 53.6825C239.262 53.006 239.48 52.3186 239.688 51.6312C240.026 50.5183 240.343 49.4054 240.637 48.3033L240.703 48.0524C240.812 47.6378 240.921 47.2341 241.019 46.8194C241.15 46.3175 241.271 45.8374 241.38 45.3464C241.478 44.9209 241.576 44.5172 241.664 44.1244L241.718 43.8844C241.805 43.4916 241.882 43.0988 241.969 42.7169L242.024 42.4332C242.406 40.5347 242.733 38.6252 242.995 36.7376L243.094 36.0175C243.137 35.712 243.17 35.4283 243.203 35.1228C243.312 34.2608 243.399 33.4207 243.465 32.5805C243.508 32.1659 243.541 31.7513 243.563 31.3585C243.628 30.5511 243.672 29.7764 243.705 29.0017C243.727 28.6416 243.738 28.2816 243.748 27.9324C243.77 26.9286 243.781 25.9357 243.759 24.9646V24.5827C243.749 24.3427 243.738 24.0917 243.727 23.8517C243.727 23.5898 243.716 23.3607 243.694 23.1424C243.683 22.8042 243.661 22.4987 243.639 22.1932C243.53 20.4365 243.345 18.7889 243.083 17.2396L243.061 17.0868C243.006 16.7595 242.952 16.4321 242.886 16.1048L242.69 15.1446C242.635 14.9046 242.58 14.6755 242.526 14.4463C242.471 14.2063 242.428 13.999 242.373 13.8135C242.286 13.4971 242.198 13.1807 242.111 12.8751C242.013 12.5478 241.904 12.2096 241.805 11.8822C241.696 11.544 241.598 11.2276 241.467 10.9112C241.358 10.5838 241.238 10.2892 241.107 9.99463C240.987 9.68912 240.856 9.39452 240.725 9.11083C240.594 8.81623 240.463 8.55437 240.332 8.28159L240.277 8.16157C240.048 7.71422 239.819 7.32142 239.589 6.96135C239.196 6.3176 238.814 5.76114 238.4 5.27014C238.192 4.99736 237.985 4.75732 237.766 4.52819C237.657 4.40817 237.548 4.29906 237.439 4.18995C237.308 4.0481 237.188 3.93899 237.068 3.82988C236.598 3.40435 236.14 3.04429 235.67 2.73878C235.529 2.65149 235.387 2.55329 235.245 2.47691C234.939 2.29142 234.644 2.13867 234.339 1.99682C234 1.83316 233.651 1.6804 233.302 1.56038C233.018 1.47309 232.701 1.38581 232.385 1.32034C231.708 1.16758 230.998 1.0803 230.3 1.06938C230.223 1.06938 230.147 1.06938 230.07 1.06938L230.027 1.09121Z" fill="black"/>
<path d="M210.105 78.3633C209.592 78.3633 209.09 78.3088 208.598 78.1997C206.644 77.7523 205.029 76.4539 203.795 74.3371C200.247 68.2488 200.411 56.1812 204.221 43.6116C209.537 26.0339 219.777 13.6499 227.505 15.3956C229.459 15.843 231.075 17.1414 232.308 19.2581C235.856 25.3465 235.692 37.4141 231.894 49.9837C226.916 66.4485 217.626 78.3633 210.105 78.3633ZM225.988 16.3231C219.056 16.3231 210.028 28.1616 205.269 43.928C201.557 56.2248 201.35 67.9433 204.745 73.7916C205.826 75.6356 207.201 76.7703 208.849 77.1413C215.912 78.7561 225.791 66.4266 230.857 49.6782C234.568 37.3814 234.776 25.6629 231.381 19.8146C230.3 17.9706 228.924 16.8359 227.287 16.4649C226.872 16.3667 226.446 16.3231 226.01 16.3231H225.988Z" fill="black"/>
<path d="M228.422 76.0939L229.754 74.1081C229.874 73.9335 229.983 73.748 230.092 73.5734C230.791 72.4168 231.337 71.4567 231.839 70.5183C232.308 69.6891 232.789 68.7616 233.313 67.7033C233.4 67.5614 233.443 67.4414 233.498 67.3323C233.585 67.1795 233.629 67.0922 233.662 67.0159C234.033 66.2521 234.393 65.5101 234.732 64.7682C234.895 64.43 235.037 64.1135 235.168 63.7862C235.299 63.4807 235.43 63.1861 235.561 62.8806C235.769 62.4332 235.921 62.0513 236.074 61.6804C236.369 60.9711 236.642 60.3056 236.915 59.6073C237.057 59.2581 237.177 58.9526 237.286 58.6362C237.417 58.2979 237.537 57.9706 237.657 57.6433C237.799 57.2832 237.919 56.9341 238.05 56.5849L238.181 56.2139C238.312 55.8539 238.432 55.472 238.552 55.101C238.716 54.6427 238.869 54.1845 239.011 53.7371C239.229 53.0606 239.447 52.3732 239.655 51.6858C239.993 50.5729 240.31 49.46 240.605 48.358L240.659 48.1397C240.768 47.7142 240.877 47.2996 240.976 46.8741C241.107 46.3722 241.227 45.8921 241.336 45.4011C241.445 44.9646 241.532 44.55 241.631 44.1354L241.674 43.9281C241.762 43.5353 241.838 43.1316 241.925 42.7497L241.98 42.4769C242.362 40.5784 242.69 38.6689 242.952 36.7813L243.05 36.0612C243.093 35.7557 243.126 35.472 243.159 35.1665C243.268 34.3045 243.355 33.4644 243.421 32.6242C243.465 32.2096 243.497 31.795 243.519 31.4022C243.585 30.5948 243.628 29.8201 243.661 29.0454C243.683 28.6853 243.694 28.3253 243.705 27.9761C243.727 26.9723 243.738 25.9794 243.716 25.0083V24.6264C243.705 24.3864 243.694 24.1354 243.683 23.8954C243.683 23.6335 243.672 23.4044 243.65 23.1862C243.639 22.8479 243.617 22.5424 243.596 22.2369C243.486 20.4693 243.301 18.8327 243.039 17.2833C242.973 16.9014 242.908 16.5086 242.831 16.1485L242.635 15.1884C242.58 14.9483 242.526 14.7192 242.471 14.4901C242.428 14.25 242.373 14.0536 242.318 13.8681C242.231 13.5299 242.144 13.2244 242.056 12.9189C241.958 12.5806 241.871 12.2533 241.751 11.9369C241.642 11.5768 241.532 11.2604 241.412 10.944C241.303 10.6166 241.183 10.3111 241.063 10.0383C240.932 9.71101 240.812 9.42732 240.681 9.14364C240.55 8.83813 240.408 8.56535 240.266 8.29257L240.212 8.17255C239.982 7.73611 239.764 7.34331 239.535 6.99416C239.142 6.35041 238.76 5.80485 238.345 5.30295C238.137 5.03017 237.93 4.79013 237.712 4.56099C237.603 4.44097 237.493 4.33186 237.384 4.22275C237.253 4.08091 237.133 3.9718 237.013 3.86269C236.544 3.43716 236.085 3.07709 235.616 2.77158C235.474 2.68429 235.332 2.58609 235.19 2.50972C234.884 2.32423 234.59 2.17147 234.284 2.02963C233.946 1.86596 233.596 1.71321 233.247 1.59319C232.963 1.5059 232.647 1.41861 232.33 1.35314L232.494 0.272949L239.764 0.927613C243.301 1.72412 246.139 4.08091 248.246 7.94342C253.136 16.8578 253.366 32.7879 248.868 49.5036C248.595 50.5511 248.29 51.6095 247.973 52.6569C246.357 57.9924 244.338 63.1534 241.98 67.987L241.882 68.1288L241.467 67.736L241.205 67.6051L241.62 68.3034L228.411 76.083L228.422 76.0939ZM241.314 7.93251C241.445 8.18346 241.565 8.43442 241.685 8.70719C241.827 9.00179 241.969 9.3073 242.089 9.64555C242.209 9.92923 242.34 10.2566 242.449 10.5839C242.58 10.9003 242.69 11.2386 242.799 11.5986C242.919 11.915 243.017 12.2642 243.115 12.6243C243.203 12.9298 243.29 13.2462 243.377 13.5844C243.443 13.8136 243.497 14.0318 243.541 14.25C243.596 14.4573 243.661 14.7083 243.716 14.9701L243.912 15.9412C243.989 16.3122 244.054 16.7159 244.12 17.1196C244.382 18.7017 244.578 20.382 244.687 22.1169C244.709 22.4988 244.731 22.8152 244.742 23.1316C244.764 23.3607 244.775 23.6117 244.775 23.8845C244.785 24.1027 244.796 24.3646 244.796 24.6264V25.0083C244.829 26.0012 244.818 27.0159 244.796 28.0416C244.785 28.4016 244.775 28.7726 244.753 29.1327C244.72 29.9183 244.676 30.7039 244.611 31.5113C244.589 31.9041 244.556 32.3296 244.513 32.7552C244.447 33.5844 244.36 34.4464 244.251 35.3193C244.218 35.6248 244.185 35.9194 244.141 36.2358L244.043 36.9559C243.77 38.8653 243.443 40.7966 243.05 42.717L242.995 42.9897C242.919 43.3825 242.831 43.7862 242.744 44.1899L242.7 44.3973C242.602 44.8119 242.515 45.2374 242.406 45.6629C242.297 46.1539 242.176 46.6558 242.045 47.1578C241.947 47.5724 241.838 47.9979 241.718 48.4234L241.663 48.6417C241.369 49.7655 241.052 50.8784 240.703 52.0132C240.495 52.7006 240.277 53.3989 240.059 54.0754C239.917 54.5336 239.764 55.0028 239.589 55.4611C239.48 55.8211 239.338 56.2139 239.207 56.5849L239.076 56.9559C238.945 57.3159 238.814 57.6651 238.683 58.0252C238.563 58.3525 238.443 58.6907 238.312 59.0181C238.203 59.3345 238.072 59.6509 237.941 59.9782C237.657 60.7093 237.384 61.3858 237.09 62.0732C236.915 62.4878 236.751 62.8806 236.576 63.2516C236.413 63.6225 236.282 63.928 236.151 64.2226C236.009 64.5609 235.867 64.8991 235.692 65.2374C235.365 65.9793 234.994 66.7213 234.633 67.4632C234.601 67.5614 234.524 67.6924 234.448 67.8342C234.415 67.9215 234.339 68.0852 234.251 68.2379C233.738 69.2854 233.247 70.2237 232.767 71.0639C232.461 71.6312 232.123 72.2314 231.751 72.8642L241.041 67.3868C243.345 62.6514 245.32 57.5887 246.903 52.3623C247.22 51.3258 247.525 50.2783 247.787 49.2418C252.219 32.777 252.012 17.1633 247.263 8.48897C245.309 4.91015 242.711 2.73885 239.568 2.02963L235.878 1.7023C235.976 1.76776 236.074 1.83323 236.183 1.8987C236.707 2.24785 237.21 2.62974 237.723 3.09891C237.875 3.22984 238.017 3.37169 238.148 3.51353C238.258 3.62264 238.367 3.73175 238.487 3.86269C238.727 4.11364 238.956 4.37551 239.175 4.6701C239.611 5.19384 240.026 5.78303 240.441 6.45952C240.703 6.86323 240.954 7.32149 241.227 7.83431L241.281 7.96524L241.314 7.93251Z" fill="black"/>
<path d="M230.66 74.7082L230.212 74.4136H229.656V74.239L229.743 74.0972C229.863 73.9226 229.972 73.7371 230.081 73.5625C230.78 72.406 231.326 71.4458 231.828 70.5075C232.297 69.6782 232.778 68.7508 233.302 67.6924L233.52 67.256C233.575 67.1687 233.607 67.0923 233.64 67.005C234.011 66.2412 234.372 65.4993 234.71 64.7573C234.874 64.4191 235.016 64.1027 235.147 63.7753C235.278 63.4698 235.409 63.1752 235.54 62.8697C235.747 62.4224 235.9 62.0405 236.053 61.6695C236.347 60.9603 236.62 60.2947 236.893 59.5964C237.035 59.2472 237.155 58.9417 237.264 58.6253C237.395 58.2871 237.515 57.9597 237.636 57.6324C237.777 57.2723 237.898 56.9232 238.029 56.574L238.159 56.2031C238.29 55.843 238.411 55.4611 238.531 55.0901C238.694 54.6319 238.847 54.1736 238.989 53.7263C239.207 53.0498 239.426 52.3624 239.633 51.675C239.972 50.562 240.288 49.4491 240.583 48.3471L240.637 48.1289C240.747 47.7034 240.856 47.2887 240.954 46.8632C241.085 46.3613 241.205 45.8812 241.314 45.3902C241.423 44.9538 241.511 44.5391 241.609 44.1245L241.653 43.9172C241.74 43.5244 241.816 43.1207 241.904 42.7388L241.958 42.466C242.34 40.5675 242.668 38.6581 242.93 36.7705L243.028 36.0503C243.072 35.7448 243.105 35.4612 243.137 35.1556C243.246 34.2937 243.334 33.4535 243.399 32.6134C243.443 32.1987 243.476 31.7841 243.498 31.3913C243.563 30.5839 243.607 29.8092 243.639 29.0345C243.661 28.6745 243.672 28.3144 243.683 27.9653C243.705 26.9614 243.716 25.9685 243.694 24.9974V24.6156C243.683 24.3755 243.672 24.1246 243.661 23.8845C243.661 23.6227 243.65 23.3935 243.629 23.1753C243.618 22.8371 243.596 22.5316 243.574 22.226C243.465 20.4585 243.279 18.8218 243.017 17.2724L242.995 17.1306C242.941 16.8032 242.886 16.465 242.821 16.1377L242.624 15.1775C242.57 14.9375 242.515 14.7083 242.46 14.4792C242.417 14.2391 242.362 14.0427 242.308 13.8573C242.22 13.519 242.133 13.2135 242.046 12.908C241.947 12.5807 241.838 12.2424 241.74 11.9151C241.631 11.5768 241.533 11.2604 241.402 10.944C241.292 10.6167 241.172 10.3221 241.041 10.0275C240.921 9.72197 240.79 9.42737 240.659 9.14369C240.528 8.83818 240.386 8.5654 240.244 8.29262L240.19 8.1726C239.961 7.73616 239.742 7.34336 239.513 6.99421C239.131 6.37228 238.727 5.8049 238.312 5.30299C238.105 5.03022 237.898 4.80109 237.679 4.57195C237.57 4.45193 237.461 4.34282 237.352 4.23371C237.221 4.09187 237.101 3.98276 236.981 3.87365C236.511 3.44811 236.053 3.08805 235.583 2.78254C235.441 2.69525 235.299 2.59705 235.158 2.52067C234.852 2.33519 234.557 2.18243 234.251 2.04059L234.721 1.05859C235.048 1.22226 235.387 1.38593 235.703 1.58232C235.856 1.66961 236.009 1.76781 236.173 1.87692C236.697 2.22608 237.199 2.60796 237.712 3.07714C237.865 3.20807 238.007 3.34992 238.138 3.49176C238.247 3.60087 238.356 3.70998 238.476 3.84091C238.716 4.09187 238.945 4.35373 239.164 4.64833C239.6 5.18297 240.026 5.78308 240.43 6.43774C240.692 6.84145 240.954 7.29972 241.216 7.81254L241.271 7.94347C241.402 8.19442 241.522 8.44538 241.642 8.71815C241.784 9.01275 241.915 9.32917 242.046 9.64559C242.177 9.9511 242.297 10.2675 242.417 10.5949C242.548 10.9113 242.657 11.2495 242.766 11.6096C242.875 11.9478 242.984 12.2861 243.083 12.6352C243.17 12.9516 243.257 13.2681 243.345 13.5954C243.41 13.8245 243.465 14.0427 243.508 14.261C243.563 14.4683 243.629 14.7192 243.683 14.9811L243.88 15.9522C243.945 16.2904 244.011 16.6396 244.065 16.9778L244.087 17.1197C244.349 18.7018 244.545 20.3821 244.655 22.1169C244.676 22.4988 244.698 22.8152 244.709 23.1317C244.731 23.3608 244.742 23.6117 244.742 23.8845C244.753 24.1027 244.764 24.3646 244.764 24.6265V25.0084C244.797 26.0013 244.786 27.016 244.764 28.0416C244.753 28.4017 244.742 28.7727 244.72 29.1327C244.687 29.9183 244.644 30.7039 244.578 31.5113C244.556 31.9041 244.524 32.3297 244.48 32.7552C244.414 33.5844 244.327 34.4464 244.218 35.3193C244.185 35.6248 244.152 35.9194 244.109 36.2358L244.011 36.956C243.738 38.8654 243.41 40.7967 243.017 42.717L242.963 42.9898C242.886 43.3826 242.799 43.7863 242.712 44.19L242.668 44.3973C242.57 44.8119 242.482 45.2374 242.373 45.663C242.264 46.154 242.144 46.6559 242.013 47.1578C241.915 47.5724 241.806 47.998 241.685 48.4235L241.631 48.6417C241.336 49.7655 241.02 50.8785 240.67 52.0132C240.463 52.7006 240.245 53.3989 240.026 54.0754C239.884 54.5337 239.731 55.0028 239.557 55.4611C239.448 55.8212 239.306 56.214 239.175 56.5849L239.044 56.9559C238.913 57.316 238.782 57.6651 238.651 58.0252C238.531 58.3525 238.411 58.6908 238.28 59.0181C238.17 59.3345 238.039 59.651 237.908 59.9783C237.625 60.7093 237.352 61.3858 237.057 62.0732C236.882 62.4878 236.719 62.8806 236.544 63.2516C236.38 63.6226 236.249 63.9281 236.118 64.2227C235.976 64.5609 235.834 64.8992 235.66 65.2374C235.332 65.9794 234.961 66.7213 234.601 67.4633C234.579 67.5287 234.535 67.616 234.481 67.7142V67.736L234.23 68.2161C233.706 69.2745 233.214 70.2129 232.745 71.053C232.243 71.9805 231.664 72.9843 230.988 74.1081C230.846 74.3372 230.726 74.5227 230.605 74.7191L230.66 74.7082Z" fill="black"/>
<path d="M239.677 2.00783L236.838 1.74597L236.871 0.654861C237.919 0.622128 238.891 0.709417 239.851 0.927638L239.677 2.00783Z" fill="black"/>
<path d="M208.493 78.0699L205.335 88.6055L206.381 88.9186L209.539 78.3831L208.493 78.0699Z" fill="black"/>
<path d="M248.3 49.8964L241.085 49.0345L231.479 48.4235L231.544 47.3433L241.183 47.9434L248.431 48.8163L248.3 49.8964Z" fill="black"/>
<path d="M220.53 79.8473L219.788 71.4567L220.857 71.2603L220.868 71.3366L221.611 79.7491L220.53 79.8473Z" fill="black"/>
<path d="M202.166 69.0888L193.887 80.4204L194.769 81.0639L203.048 69.7323L202.166 69.0888Z" fill="black"/>
<path d="M196.014 44.5781L195.882 45.6611L204.009 46.6528L204.141 45.5697L196.014 44.5781Z" fill="black"/>
<path d="M215.664 8.48155L214.582 8.61963L216.184 21.1747L217.267 21.0366L215.664 8.48155Z" fill="black"/>
<path d="M229.734 0.394331L225.373 15.7278L226.423 16.0262L230.784 0.692701L229.734 0.394331Z" fill="black"/>
<path d="M232.788 20.8076L231.882 20.1966L240.484 7.49609L247.787 7.64885L247.765 8.73995L241.063 8.59811L232.788 20.8076Z" fill="black"/>
<path d="M180.478 233.126L182.77 236.966L187.999 240.916L197.475 245.466L208.205 248.827L224.274 252.187L241.642 253.507L259.206 253.289L274.576 250.791L281.606 248.761L289.433 244.811L292.38 241.876L293.603 239.028L294.443 229.972L290.645 224.178C290.645 224.178 279.237 211.827 232.003 209.012C232.003 209.012 201.754 207.528 186.133 216.955C183.578 218.93 181.1 222.596 181.1 222.596L180.052 230.845L180.467 233.147L180.478 233.126Z" fill="#6F95BD"/>
<path d="M67.8227 208.99L25.435 183.284C24.4198 182.673 23.8194 181.549 23.874 180.371C23.9177 179.258 23.3937 178.21 22.4876 177.577L8.13281 167.517C6.02598 166.044 3.13318 166.481 1.56125 168.51C-0.108936 170.66 0.33863 173.758 2.53279 175.351L70.4754 224.724C70.4754 224.724 70.8684 220.261 72.0255 218.025C72.0255 218.025 68.1066 210.54 67.8118 209.001L67.8227 208.99Z" fill="#C3E1FF"/>
<path d="M70.9337 225.728L2.20516 175.788C1.0262 174.926 0.251151 173.66 0.054659 172.209C-0.141833 170.758 0.229319 169.329 1.12445 168.172C2.88196 165.913 6.09133 165.422 8.43832 167.07L22.7932 177.13C23.8629 177.872 24.4633 179.094 24.4088 180.403C24.3651 181.385 24.8672 182.313 25.7078 182.826L68.3029 208.652L68.3466 208.892C68.5758 210.081 71.4249 215.701 72.5056 217.763L72.6366 218.014L72.5056 218.265C71.414 220.381 71.0101 224.724 71.0101 224.768L70.9228 225.728H70.9337ZM5.35994 167.19C4.08275 167.19 2.82738 167.757 1.98683 168.849C1.27728 169.765 0.971622 170.911 1.13537 172.067C1.29911 173.224 1.91042 174.228 2.84921 174.915L70.0386 223.731C70.2132 222.335 70.6281 219.727 71.4249 218.025C70.7045 216.65 67.8662 211.14 67.3532 209.339L25.162 183.753C23.983 183.033 23.2735 181.734 23.339 180.349C23.3826 179.421 22.946 178.548 22.1818 178.014L7.82701 167.954C7.08471 167.43 6.22233 167.179 5.38178 167.179L5.35994 167.19Z" fill="black"/>
<path d="M394.458 123.928C389.764 133.922 380.802 141.254 368.456 144.288C365.465 145.03 362.288 145.521 358.915 145.728C325.773 147.801 287.195 122.629 272.753 89.5033C258.3 56.3774 273.452 27.845 306.593 25.761C308.231 25.6628 309.879 25.6191 311.539 25.6519H311.582C328.874 25.9574 347.213 33.2241 362.583 44.8117C362.583 44.8117 362.605 44.8226 362.616 44.8444C362.779 44.9644 362.943 45.0954 363.096 45.2154C363.26 45.3463 363.412 45.4882 363.576 45.6191C354.559 39.1707 344.92 34.7844 335.543 32.4931C316.898 27.9432 299.28 31.6638 289.63 44.0261C274.543 63.3277 284.586 96.3664 312.073 117.828C336.853 137.174 367.342 140.513 384.153 126.83C385.998 125.346 387.668 123.644 389.153 121.746C394.644 114.708 396.805 105.848 395.986 96.3882C395.539 91.02 394.12 85.4553 391.827 79.9125C392.144 80.5999 392.461 81.2873 392.766 81.9856C399.665 97.8067 399.807 112.58 394.458 123.928Z" fill="#6F95BD"/>
<path d="M355.083 146.394C322.695 146.394 286.202 121.713 272.251 89.7216C264.871 72.8095 264.937 56.0828 272.436 43.8188C279.183 32.7768 291.3 26.1756 306.561 25.2155C308.318 25.1063 309.955 25.0736 311.549 25.1063C328.306 25.4009 346.951 32.384 362.768 44.2662H362.932L363.041 44.4844C363.15 44.5717 363.259 44.648 363.358 44.7353C363.521 44.8663 363.609 44.9426 363.685 45.0081L363.914 45.1936L363.259 46.0665C354.592 39.869 344.964 35.3627 335.412 33.0278C316.21 28.3469 299.258 32.5804 290.055 44.3644C282.872 53.5515 281.224 66.1974 285.405 79.9562C289.608 93.7914 299.203 107.081 312.401 117.392C336.788 136.432 366.818 140.218 383.804 126.405C385.605 124.953 387.264 123.273 388.716 121.407C393.945 114.708 396.27 106.066 395.44 96.4319C395.004 91.1509 393.617 85.6627 391.325 80.1199L392.329 79.6834C392.668 80.4145 392.973 81.091 393.268 81.7675C399.982 97.1629 400.582 112.22 394.949 124.157C390.091 134.49 380.736 141.833 368.586 144.812C365.519 145.575 362.277 146.066 358.947 146.263C357.67 146.339 356.382 146.383 355.083 146.383V146.394ZM310.469 26.1865C309.224 26.1865 307.969 26.2302 306.626 26.3066C291.736 27.2449 279.925 33.6715 273.364 44.3862C266.061 56.3447 266.018 72.7004 273.255 89.2852C287.042 120.894 323.088 145.303 355.072 145.303C356.349 145.303 357.616 145.259 358.882 145.182C362.146 144.986 365.323 144.506 368.325 143.753C380.147 140.851 389.251 133.726 393.967 123.688C397.94 115.253 398.726 105.193 396.346 94.5552C396.423 95.1553 396.477 95.7445 396.532 96.3337C397.394 106.241 394.993 115.144 389.589 122.073C388.083 124.004 386.369 125.75 384.502 127.245C367.135 141.385 336.536 137.599 311.746 118.243C298.362 107.79 288.647 94.3042 284.368 80.2617C280.078 66.1537 281.792 53.1587 289.204 43.677C298.679 31.5439 316.047 27.1576 335.674 31.9476C339.484 32.875 343.315 34.1516 347.082 35.7337C335.368 29.7654 323 26.3829 311.571 26.1756C311.2 26.1756 310.829 26.1756 310.458 26.1756L310.469 26.1865Z" fill="black"/>
<path d="M388.919 122.088C404.125 102.885 394.282 69.7794 366.934 48.1449C339.586 26.5105 305.089 24.5395 289.884 43.7425C274.678 62.9456 284.521 96.0509 311.869 117.685C339.217 139.32 373.714 141.291 388.919 122.088Z" fill="#C3E1FF"/>
<path d="M358.216 135.821C357.124 135.821 356.022 135.788 354.908 135.723C340.248 134.882 324.834 128.63 311.527 118.09C283.985 96.3118 274.084 62.793 289.444 43.3823C296.91 33.9551 309.125 29.2088 323.873 30.0599C338.534 30.9 353.948 37.152 367.254 47.6921C394.796 69.4706 404.697 102.989 389.338 122.4C382.439 131.118 371.468 135.821 358.216 135.821ZM320.566 31.0637C307.652 31.0637 296.987 35.6245 290.295 44.0697C275.307 63.0112 285.132 95.8317 312.193 117.239C325.336 127.626 340.521 133.813 354.963 134.631C369.339 135.461 381.238 130.867 388.476 121.724C403.464 102.782 393.639 69.9616 366.578 48.5541C353.434 38.1668 338.25 31.9802 323.808 31.1619C322.716 31.0964 321.625 31.0637 320.566 31.0637Z" fill="black"/>
<path d="M275.719 230.09C276.19 223.593 259.569 217.096 238.595 215.579C217.621 214.061 200.237 218.098 199.766 224.595C199.296 231.092 215.917 237.589 236.891 239.107C257.865 240.624 275.249 236.587 275.719 230.09Z" fill="black"/>
<path d="M234.699 234.217C226.817 234.217 212.309 231.838 208.653 226.415C207.888 225.281 207.768 224.026 208.314 222.793C209.973 219.007 217.32 216.028 223.706 215.046L226.61 215.417C219.623 216.486 210.628 220.251 209.318 223.229C208.925 224.135 209.002 224.975 209.559 225.804C213.161 231.151 229.841 233.726 237.166 233.028C244.261 232.351 245.375 230.573 245.549 230.049C245.724 229.536 245.407 229.209 245.309 229.121C244.294 228.194 241.532 227.146 237.679 226.874C234.284 226.634 232.406 227.441 232.221 227.801C232.308 227.932 233.149 228.347 234.557 228.445C235.998 228.554 236.936 228.259 237.057 228.074L238.137 228.183C238.104 228.587 237.842 229.132 236.707 229.405C236.085 229.558 235.299 229.601 234.48 229.547C233.662 229.492 232.908 229.329 232.33 229.1C231.293 228.674 231.107 228.107 231.14 227.703C231.184 227.07 231.893 226.514 233.149 226.154C234.022 225.903 235.517 225.641 237.755 225.804C241.368 226.055 244.621 227.048 246.041 228.325C246.63 228.86 246.837 229.656 246.586 230.409C246.139 231.74 244.163 233.475 237.264 234.13C236.533 234.195 235.659 234.239 234.699 234.239V234.217Z" fill="#6F95BD"/>
<path d="M239.36 253.289L238.268 253.278L238.366 247.005L237.952 239.421L239.043 239.356L239.458 246.983L239.36 253.289Z" fill="black"/>
<path d="M275.764 229.166L275.7 230.255L294.313 231.341L294.377 230.252L275.764 229.166Z" fill="black"/>
<path d="M245.495 240.152C242.711 240.152 239.83 240.054 236.882 239.836C217.768 238.461 202.049 232.951 199.516 226.743C199.232 226.055 199.112 225.357 199.156 224.67C199.243 223.317 199.963 222.051 201.295 220.894C206.71 216.192 221.676 213.846 238.552 215.079C260.177 216.65 276.748 223.306 276.279 230.245L276.235 230.605C276.126 231.325 275.853 231.991 275.406 232.624C272.229 237.272 260.254 240.163 245.484 240.163L245.495 240.152ZM230.005 215.853C217.157 215.853 206.24 218.047 202.027 221.724C200.924 222.684 200.335 223.699 200.258 224.746C200.225 225.281 200.313 225.793 200.542 226.339C202.889 232.089 218.554 237.425 236.97 238.756C254.861 240.054 271.017 237.152 274.521 232.002C274.871 231.5 275.089 230.987 275.165 230.463L275.198 230.169C275.58 224.048 258.78 217.643 238.476 216.181C235.594 215.973 232.745 215.875 229.994 215.875L230.005 215.853Z" fill="black"/>
<path d="M248.028 247.823C245.037 247.823 241.98 247.736 238.88 247.572C238.006 247.528 237.122 247.474 236.238 247.408C218.707 246.175 202.583 242.433 191.995 237.141C185.936 234.108 182.039 230.703 180.74 227.266C180.336 226.208 180.172 225.182 180.249 224.135C180.554 219.716 185.041 215.886 193.217 213.038L193.315 213.006C204.057 209.307 219.94 207.757 236.904 208.75C237.57 208.783 238.247 208.827 238.923 208.87C241.39 209.045 243.836 209.263 246.194 209.525C260.417 211.118 273.211 214.38 282.25 218.69L282.37 218.745C289.99 222.4 294.312 226.535 294.88 230.714C294.956 231.194 294.967 231.674 294.935 232.133L294.869 232.689C294.716 233.748 294.312 234.773 293.668 235.733C292.489 237.545 290.503 239.214 287.763 240.709L287.632 240.774C279.303 245.27 264.631 247.823 248.017 247.823H248.028ZM193.49 214.097C185.914 216.748 181.602 220.338 181.329 224.2C181.264 225.095 181.406 225.968 181.755 226.874C182.967 230.049 186.667 233.257 192.486 236.159C202.944 241.396 218.925 245.095 236.314 246.317C237.199 246.383 238.061 246.437 238.934 246.481C259.108 247.583 277.621 245.008 287.25 239.749L287.381 239.683C289.891 238.298 291.703 236.77 292.773 235.133C293.33 234.304 293.679 233.442 293.799 232.547L293.865 232.045C293.887 231.674 293.865 231.271 293.81 230.867C293.308 227.135 289.116 223.197 282.021 219.771L281.901 219.716C272.96 215.428 260.243 212.187 246.084 210.605C243.737 210.343 241.303 210.125 238.858 209.951C238.192 209.907 237.515 209.863 236.849 209.831C219.973 208.849 204.199 210.376 193.588 214.053L193.49 214.086V214.097Z" fill="black"/>
<path d="M247.318 254.053C244.534 254.053 241.696 253.977 238.792 253.835C237.712 253.78 236.62 253.715 235.528 253.638C224.317 252.853 213.532 251.02 204.352 248.347C203.282 248.03 202.245 247.714 201.241 247.386C200.607 247.179 199.985 246.972 199.374 246.743C198.664 246.492 197.944 246.241 197.267 245.979C194.549 244.942 192.071 243.818 189.899 242.662C182.814 238.843 179.223 234.588 179.517 230.376C179.528 230.223 179.55 230.071 179.572 229.918L180.249 224.124L181.34 224.222C181.275 225.117 181.417 225.99 181.766 226.895C182.978 230.071 186.678 233.278 192.497 236.181C202.954 241.418 218.936 245.117 236.325 246.339C237.21 246.404 238.072 246.459 238.945 246.503C259.118 247.605 277.632 245.03 287.26 239.77L287.391 239.705C289.902 238.319 291.714 236.792 292.784 235.155C293.341 234.326 293.69 233.464 293.81 232.569L294.891 232.711L294.236 238.417C293.592 247.637 273.615 254.075 247.329 254.075L247.318 254.053ZM180.925 227.725L180.663 229.983C180.642 230.18 180.62 230.3 180.609 230.442C180.347 234.206 183.742 238.101 190.423 241.702C192.54 242.847 194.986 243.938 197.66 244.964C198.337 245.226 199.035 245.477 199.745 245.728C200.345 245.946 200.968 246.153 201.579 246.361C202.572 246.688 203.609 247.004 204.668 247.321C213.772 249.972 224.47 251.794 235.605 252.569C236.696 252.646 237.766 252.711 238.847 252.766C268.626 254.282 292.467 247.932 293.144 238.308L293.384 236.17C292.184 237.817 290.295 239.345 287.773 240.72L287.642 240.785C277.818 246.088 259.151 248.696 238.88 247.583C238.006 247.539 237.122 247.485 236.238 247.419C218.707 246.186 202.583 242.444 191.995 237.152C186.209 234.26 182.399 231.009 180.925 227.736V227.725Z" fill="black"/>
<path d="M180.674 229.918L179.583 229.83L179.615 229.634L180.696 229.809L180.674 229.918Z" fill="black"/>
<path d="M293.876 232.055L293.817 232.575L294.901 232.699L294.961 232.178L293.876 232.055Z" fill="black"/>
<path d="M237.42 209.251L236.33 209.31L236.667 215.564L237.757 215.505L237.42 209.251Z" fill="black"/>
<path d="M287.992 245.848L286.9 245.837L286.966 240.654L270.406 236.355L270.679 235.297L288.068 239.803L287.992 245.848Z" fill="black"/>
<path d="M192.093 242.727L191.012 242.596L191.744 236.214L207.572 232.34L207.823 233.398L192.737 237.086L192.093 242.727Z" fill="black"/>
<path d="M180.827 223.637L180.763 224.727L199.693 225.827L199.756 224.738L180.827 223.637Z" fill="black"/>
<path d="M282.011 218.684L268.754 222.138L269.029 223.194L282.286 219.74L282.011 218.684Z" fill="black"/>
<path d="M358.129 135.777C343.282 135.777 326.482 129.776 311.735 118.265C298.351 107.812 288.636 94.326 284.357 80.2835C280.067 66.1755 281.78 53.1804 289.193 43.6987C298.668 31.5656 316.036 27.1794 335.663 31.9693C345.313 34.3261 355.039 38.876 363.805 45.1172L364.132 45.2481V45.3463L364.667 45.7282C365.453 46.3065 366.25 46.8957 367.036 47.5176C378.531 56.4974 387.264 67.6049 392.307 79.6507L392.34 79.7161C394.676 85.368 396.084 90.9654 396.543 96.3555C397.405 106.263 395.004 115.166 389.6 122.095C388.094 124.026 386.38 125.772 384.513 127.266C377.472 132.995 368.259 135.777 358.15 135.777H358.129ZM320.566 31.1619C307.685 31.1619 296.79 35.7446 290.066 44.3752C282.883 53.5623 281.235 66.2082 285.416 79.9671C289.618 93.8023 299.214 107.092 312.411 117.403C336.798 136.443 366.829 140.229 383.814 126.415C385.616 124.964 387.275 123.284 388.727 121.418C393.956 114.719 396.281 106.077 395.451 96.4428C395.014 91.1618 393.628 85.6736 391.336 80.1307L391.259 79.9998V79.9562C386.292 68.1395 377.69 57.2175 366.381 48.3796C365.595 47.7686 364.82 47.1903 364.034 46.612L363.663 46.3392L363.281 46.0664C354.614 39.869 344.985 35.3627 335.434 33.0277C330.292 31.773 325.303 31.1619 320.588 31.1619H320.566Z" fill="black"/>
<path d="M337.42 120.96C335.554 120.96 333.632 120.818 331.678 120.513C312.073 117.545 290.371 96.192 284.073 79.0834L285.099 78.7015C291.168 95.1772 312.913 116.563 331.842 119.432C345.531 121.506 353.838 116.017 358.412 111.053C365.06 103.819 366.698 94.6971 365.41 89.2743C361.556 73.1478 348.5 68.1178 344.188 68.1069H344.156C338.992 68.1069 334.931 71.1729 333.818 75.9301C332.672 80.8183 336.503 85.8046 339.647 87.0921C341.034 87.6595 342.256 87.6922 343.217 87.2012C343.959 86.8194 344.483 86.132 344.68 85.2591C345.116 83.3933 344.046 80.7965 341.219 79.6399L341.634 78.6252C345.029 80.0109 346.284 83.2078 345.749 85.51C345.477 86.6993 344.756 87.6377 343.719 88.1723C342.857 88.6197 341.372 88.9688 339.243 88.1069C335.663 86.6448 331.46 81.2111 332.759 75.6792C333.993 70.4091 338.468 67.0049 344.156 67.0049H344.188C348.74 67.0049 362.462 72.2531 366.468 89.0125C368.128 95.9628 365.148 105.325 359.22 111.773C353.696 117.774 346.099 120.938 337.431 120.938L337.42 120.96Z" fill="black"/>
<path d="M364.002 46.5902C363.587 46.2629 363.183 45.9574 362.768 45.6519L363.412 44.7681C363.827 45.0736 364.253 45.4009 364.667 45.7282L363.991 46.5793L364.002 46.5902Z" fill="black"/>
<path d="M240.233 216.301L240.189 215.21H240.2L240.233 216.301Z" fill="black"/>
<path d="M208.271 218.548H208.26V217.457L208.271 218.548Z" fill="black"/>
<path d="M109.009 137.959V137.403L108.638 137.021L109.009 137.392L108.998 136.868H109.009V137.403L109.402 137.796L109.249 137.948L109.009 137.959Z" fill="black"/>
<path d="M214.264 193.846L214.744 193.595L215.268 193.42L214.264 193.846Z" fill="black"/>
<path d="M209.7 233.889L208.947 233.104L209.853 233.682L209.362 233.431L209.853 233.693L209.7 233.889Z" fill="black"/>
<path d="M209.875 233.638L209.482 233.508H208.794L208.849 233.257L209.471 233.475L209.886 233.508H209.569L209.886 233.606L209.875 233.638Z" fill="black"/>
<path d="M123.124 137.534L116.618 141.386L116.574 141.407H116.552C89.4692 156.541 81.7405 172.635 88.3121 198.549C78.8477 172.449 87.6025 148.292 108.649 137.589H108.682C109.042 137.501 109.38 137.425 109.741 137.349H109.752C114.162 136.988 118.637 137.065 123.124 137.534Z" fill="black"/>
<path d="M87.7991 198.734C78.4329 172.918 86.6965 148.161 108.365 137.119L108.573 137.043L109.741 136.803C114.063 136.454 118.594 136.508 123.179 136.988L124.816 137.163L116.782 141.909C90.1351 156.792 82.2973 172.635 88.8361 198.418L87.7881 198.734H87.7991ZM108.791 138.134C91.2268 147.125 82.723 165.39 85.6486 185.826C84.4478 166.732 93.803 153.497 116.279 140.938L121.388 137.916C117.437 137.588 113.54 137.578 109.784 137.883L108.78 138.123L108.791 138.134Z" fill="black"/>
<path d="M194.319 253.125C193.26 254.26 192.147 255.34 190.957 256.366C183.796 262.596 174.321 266.83 162.946 268.292C141.834 270.998 118.801 263.578 100.123 249.819C98.595 248.696 97.0994 247.539 95.6367 246.328C88.1372 240.141 81.4892 232.907 76.1621 224.899C74.6775 222.662 73.2912 220.36 72.0249 218.014C70.8568 215.864 69.7871 213.671 68.8264 211.434C53.2381 175.373 70.1036 142.346 106.498 137.676C107.328 137.566 109.489 137.403 109.489 137.403C109.478 137.403 108.66 137.588 108.649 137.588C78.258 144.419 65.3332 173.868 79.7972 206.23C80.2994 207.354 80.8234 208.467 81.391 209.558C81.4347 209.678 81.4892 209.787 81.5547 209.896C88.3119 223.175 98.7805 234.828 111.116 243.72C111.531 244.037 111.956 244.331 112.382 244.626C130.088 257.032 151.408 263.775 170.871 261.56C174.954 261.091 178.786 260.25 182.322 259.072C182.333 259.072 182.355 259.061 182.366 259.061C186.809 257.588 190.804 255.58 194.319 253.125Z" fill="#6F95BD"/>
<path d="M154.126 269.394C135.972 269.394 116.629 262.651 99.8068 250.256C98.1803 249.067 96.7066 247.91 95.2984 246.743C87.5807 240.381 80.9982 233.126 75.7147 225.193C74.2083 222.924 72.811 220.6 71.5557 218.265C70.3658 216.082 69.2851 213.846 68.3354 211.642C60.4757 193.453 60.5958 174.893 68.6629 160.72C76.0968 147.67 89.5128 139.291 106.433 137.119C107.241 137.01 109.249 136.857 109.435 136.846C109.457 136.846 109.468 136.846 109.49 136.846L109.533 137.938C109.533 137.938 109.511 137.938 109.479 137.938L109.184 138.014C108.955 138.068 108.835 138.09 108.769 138.101C95.1784 141.156 84.5896 149.012 78.9678 160.229C72.4508 173.235 72.9202 189.481 80.2995 205.979C80.8672 207.255 81.3693 208.303 81.8824 209.274C81.937 209.427 81.9806 209.503 82.0243 209.58L82.1007 209.743C88.6505 222.542 98.7916 234.129 111.433 243.251C111.847 243.567 112.273 243.862 112.688 244.146C130.994 256.966 152.172 263.109 170.806 260.981C174.801 260.523 178.622 259.694 182.148 258.516L182.257 258.483C186.547 257.054 190.499 255.09 194.003 252.635L198.238 249.678L194.712 253.453C193.599 254.642 192.486 255.722 191.307 256.737C183.884 263.196 174.092 267.364 163.012 268.794C160.086 269.165 157.117 269.35 154.115 269.35L154.126 269.394ZM101.946 138.985C87.5588 141.942 76.1732 149.743 69.6126 161.276C61.7092 175.144 61.611 193.355 69.3397 211.227C70.2785 213.409 71.3482 215.602 72.5163 217.763C73.7607 220.065 75.1471 222.367 76.6317 224.604C81.8496 232.449 88.3666 239.618 95.9971 245.913C97.3944 247.07 98.8462 248.205 100.462 249.383C119.838 263.655 142.588 270.354 162.892 267.757C173.568 266.382 183.01 262.422 190.226 256.301C187.813 257.599 185.248 258.701 182.552 259.596L182.443 259.629C178.862 260.818 174.998 261.658 170.948 262.116C152.052 264.266 130.602 258.057 112.088 245.084C111.662 244.789 111.225 244.484 110.799 244.168C97.9838 234.926 87.7007 223.164 81.0855 210.169L81.0418 210.081C80.9873 209.972 80.9327 209.874 80.889 209.754C80.3978 208.827 79.8847 207.757 79.3062 206.459C71.7958 189.645 71.3264 173.071 77.9962 159.771C82.8212 150.147 91.1939 142.924 101.946 138.996V138.985Z" fill="black"/>
<path d="M199.559 246.23C198.053 248.696 196.296 250.998 194.32 253.126C190.805 255.581 186.809 257.588 182.366 259.061C182.356 259.061 182.334 259.072 182.323 259.072C178.786 260.25 174.954 261.091 170.872 261.56C151.408 263.775 130.089 257.032 112.383 244.626C111.957 244.331 111.531 244.037 111.116 243.72C98.7809 234.828 88.3123 223.175 81.5551 209.907C81.4896 209.787 81.435 209.678 81.3914 209.558C80.8237 208.467 80.2997 207.354 79.7976 206.23C65.3336 173.868 78.2584 144.419 108.649 137.588C87.6027 148.292 78.8479 172.449 88.3123 198.548C88.6943 199.607 89.1091 200.665 89.5458 201.724C90.1025 203.066 90.7029 204.397 91.347 205.706C91.8491 206.743 92.3731 207.768 92.9298 208.783C98.3115 218.668 105.855 227.441 114.686 234.577C116.007 235.646 117.349 236.672 118.714 237.643C120.733 239.105 122.818 240.491 124.947 241.778C130.613 245.215 136.617 248.03 142.773 250.092H142.784C153.657 253.747 164.999 255.09 175.828 253.54C184.189 252.34 191.471 249.536 197.464 245.466C198.14 245.728 198.85 245.979 199.559 246.23Z" fill="#6F95BD"/>
<path d="M163.437 262.52C146.506 262.52 128.178 256.355 112.077 245.073C111.651 244.779 111.214 244.473 110.789 244.157C97.9729 234.915 87.6898 223.153 81.0746 210.158L81.0309 210.071C80.9763 209.961 80.9217 209.863 80.8781 209.743C80.3868 208.816 79.8738 207.746 79.2952 206.448C71.7849 189.634 71.3155 173.06 77.9853 159.76C83.76 148.248 94.6107 140.185 108.518 137.054L112.764 136.104L108.889 138.079C87.7116 148.849 79.6445 173.082 88.8142 198.363L88.8469 198.461C89.2181 199.476 89.622 200.491 90.0368 201.516C90.5935 202.858 91.1939 204.189 91.8271 205.466C92.3619 206.557 92.875 207.561 93.399 208.521C98.5842 218.057 106.062 226.917 115.024 234.151C116.378 235.242 117.72 236.268 119.03 237.195C121.05 238.657 123.135 240.043 125.231 241.309C130.896 244.746 136.824 247.517 142.86 249.547L142.959 249.579C154.039 253.3 165.37 254.489 175.751 253.006C183.873 251.838 191.066 249.154 197.158 245.019L197.398 244.855L197.66 244.953C198.337 245.215 199.035 245.466 199.745 245.706L200.378 245.935L200.029 246.513C198.522 248.968 196.743 251.325 194.723 253.497L194.636 253.573C191.023 256.093 186.962 258.112 182.541 259.574L182.432 259.607C178.851 260.796 174.987 261.636 170.937 262.094C168.481 262.378 165.97 262.509 163.437 262.509V262.52ZM82.1116 209.776C88.6613 222.575 98.8025 234.162 111.444 243.284C111.858 243.6 112.284 243.895 112.699 244.178C131.005 256.999 152.183 263.142 170.817 261.014C174.812 260.556 178.633 259.727 182.159 258.548L182.268 258.516C186.536 257.097 190.477 255.133 193.97 252.7C195.76 250.758 197.365 248.685 198.751 246.503C198.348 246.361 197.944 246.208 197.551 246.066C191.372 250.201 184.102 252.896 175.926 254.075C165.413 255.581 153.929 254.391 142.718 250.627L142.62 250.594C136.474 248.543 130.438 245.728 124.685 242.225C122.567 240.949 120.449 239.541 118.419 238.068C117.098 237.13 115.734 236.093 114.369 234.98C105.309 227.659 97.7327 218.679 92.482 209.023C91.9471 208.041 91.4232 207.026 90.8883 205.924C90.2551 204.637 89.6438 203.284 89.0762 201.909C88.6395 200.84 88.2138 199.781 87.8317 198.723L87.799 198.625C79.0332 174.359 85.845 151.053 104.708 139.192C93.0824 142.804 84.0547 150.169 79.0005 160.229C72.4835 173.235 72.9529 189.481 80.3323 205.979C80.8999 207.255 81.4021 208.303 81.9151 209.274C81.9806 209.427 82.0134 209.503 82.057 209.58L82.1334 209.743L82.1116 209.776Z" fill="black"/>
<path d="M100.124 249.82C88.8035 251.62 76.228 244.091 71.9161 232.864C70.8463 230.071 70.3878 227.31 70.4642 224.702C70.5406 222.313 71.0755 220.043 72.0252 218.014C73.2915 220.36 74.6779 222.662 76.1625 224.899C76.3699 226.59 76.8065 228.314 77.4724 230.049C80.5181 237.992 87.69 244.08 95.637 246.328C97.0998 247.539 98.5953 248.696 100.124 249.82Z" fill="#6F95BD"/>
<path d="M96.7831 250.627C86.238 250.627 75.3545 243.306 71.4138 233.06C70.344 230.267 69.8418 227.452 69.9291 224.691C70.0056 222.226 70.5514 219.901 71.5448 217.785L72.0032 216.803L72.5163 217.763C73.7607 220.065 75.1471 222.367 76.6317 224.604L76.7081 224.713V224.844C76.9264 226.492 77.3522 228.183 77.9962 229.863C80.889 237.414 87.7117 243.524 95.8006 245.815L95.9971 245.924C97.3944 247.081 98.8462 248.216 100.462 249.394L101.51 250.169L100.222 250.376C99.0864 250.562 97.9402 250.649 96.7831 250.649V250.627ZM72.0906 219.258C71.4356 220.96 71.0754 222.793 71.0099 224.713C70.9334 227.332 71.4138 230.005 72.429 232.667C76.457 243.142 88.0282 250.431 98.7152 249.449C97.5472 248.565 96.4447 247.703 95.3858 246.819C87.024 244.419 79.9721 238.068 76.9701 230.245C76.3151 228.521 75.8676 226.797 75.6493 225.095C74.383 223.186 73.1931 221.233 72.1015 219.269L72.0906 219.258Z" fill="black"/>
<path d="M108.387 246.939H108.376V245.848L108.387 246.939Z" fill="black"/>
<path d="M95.6371 246.328C87.6901 244.08 80.5182 237.992 77.4725 230.049C76.8067 228.314 76.37 226.59 76.1626 224.899C81.4897 232.907 88.1377 240.141 95.6371 246.328Z" fill="black"/>
<path d="M108.387 246.939H108.376V245.848L108.387 246.939Z" fill="black"/>
<path d="M214.264 193.846L214.744 193.595L215.268 193.42L214.264 193.846Z" fill="black"/>
<path d="M394.469 123.928C388.814 139.912 374.448 151.085 353.871 152.853C349.898 153.191 345.859 153.169 341.798 152.809C340.117 152.657 338.425 152.449 336.733 152.176H336.7C305.905 147.343 274.936 123.83 262.513 93.7696C251.335 66.6883 258.409 42.073 278.08 30.4418C278.08 30.4309 278.113 30.4309 278.123 30.42C284.368 26.732 291.878 24.3534 300.469 23.6115C321.515 21.8112 344.363 30.2563 362.593 44.8117C347.223 33.2241 328.884 25.9574 311.593 25.6519H311.549C309.89 25.6191 308.241 25.6628 306.604 25.761C273.462 27.845 258.311 56.3774 272.764 89.5033C287.206 122.629 325.784 147.801 358.925 145.728C362.298 145.521 365.475 145.03 368.466 144.288C380.812 141.254 389.775 133.922 394.469 123.928Z" fill="#6F95BD"/>
<path d="M348.151 153.639C346.033 153.639 343.894 153.54 341.743 153.355C339.997 153.191 338.272 152.984 336.634 152.722C304.912 147.747 274.237 123.589 262 93.9878C250.997 67.3212 257.175 42.2148 277.73 30.0163L277.861 29.9399C284.346 26.121 291.932 23.8079 300.414 23.0768C320.97 21.3202 343.752 29.0888 362.932 44.397L362.266 45.259C346.59 33.4423 328.12 26.5029 311.582 26.2083C309.966 26.1756 308.361 26.2083 306.637 26.3174C291.747 27.2558 279.935 33.6824 273.375 44.397C266.072 56.3555 266.028 72.7112 273.266 89.296C287.599 122.171 326.002 147.234 358.893 145.193C362.156 144.997 365.333 144.517 368.335 143.764C380.157 140.862 389.261 133.737 393.977 123.699L394.982 124.113C389.01 140.993 374.044 151.675 353.915 153.398C352.026 153.562 350.094 153.639 348.151 153.639ZM278.331 30.9328C258.234 42.8368 252.23 67.4194 263.015 93.5622C275.111 122.837 305.447 146.721 336.787 151.642C338.436 151.904 340.128 152.111 341.852 152.275C345.913 152.635 349.941 152.646 353.827 152.318C370.071 150.922 382.875 143.589 390.124 131.805C384.895 138.123 377.494 142.64 368.597 144.822C365.53 145.586 362.287 146.077 358.958 146.274C325.653 148.358 286.769 122.989 272.261 89.7216C264.882 72.8094 264.948 56.0828 272.447 43.8187C279.193 32.7768 291.31 26.1756 306.571 25.2154C308.329 25.1063 309.966 25.0736 311.56 25.1063C318.666 25.2372 326.1 26.5575 333.523 28.947C322.465 24.9317 311.189 23.2405 300.513 24.157C292.216 24.8772 284.793 27.1248 278.462 30.8564L278.32 30.9328H278.331Z" fill="black"/>
<path d="M209.035 86.8958C203.468 101.898 205.684 115.668 211.022 128.358C220.682 151.304 242.176 170.169 265.428 178.385C274.117 181.451 283.047 183.044 291.692 182.804H291.703L341.798 152.809C340.117 152.657 338.425 152.449 336.733 152.177H336.7C304.279 151.118 270.264 127.223 257.71 95.33C252.776 82.7823 251.826 70.7147 254.272 60.2183L246.532 64.7791L241.511 67.7469H241.5L241.358 67.8342L230.212 74.4026L221.075 79.7927L205.869 88.7616L201.175 91.533L200.946 91.6639L141.125 126.928" fill="#C3E1FF"/>
<path d="M289.946 183.382C281.966 183.382 273.659 181.876 265.243 178.909C240.943 170.322 219.973 151.031 210.52 128.576C204.472 114.206 203.653 100.96 208.02 88.1286L141.398 127.398L140.841 126.459L255.101 59.1052L254.807 60.3491C252.307 71.0747 253.486 83.0986 258.223 95.1335C270.482 126.285 304.235 150.573 336.722 151.631C338.436 151.893 340.128 152.111 341.853 152.264L343.523 152.417L291.867 183.349H291.714C291.136 183.36 290.546 183.371 289.968 183.371L289.946 183.382ZM209.472 87.2776C204.723 100.218 205.389 113.595 211.513 128.161C220.857 150.343 241.576 169.394 265.603 177.883C274.467 181.014 283.189 182.487 291.54 182.269L340.095 153.191C338.916 153.06 337.759 152.897 336.635 152.722C303.766 151.653 269.598 127.07 257.186 95.5372C252.547 83.7533 251.27 71.9584 253.453 61.3311L209.461 87.2776H209.472Z" fill="black"/>
<path d="M258.176 57.2859L253.502 60.0398L254.056 60.9797L258.73 58.2258L258.176 57.2859Z" fill="black"/>
<path d="M190.16 242.171C182.912 247.997 171.112 251.794 157.794 251.794C152.489 251.794 147.413 251.194 142.784 250.092H142.773C136.616 248.03 130.612 245.215 124.947 241.778C122.818 240.491 120.733 239.105 118.714 237.643C117.349 236.672 116.007 235.646 114.686 234.577C105.854 227.441 98.3113 218.668 92.9296 208.783C92.3729 207.768 91.8489 206.743 91.3468 205.706C90.7027 204.397 90.1023 203.066 89.5456 201.724C89.1089 200.665 88.6941 199.607 88.3121 198.559C81.7405 172.635 89.4692 156.541 116.552 141.418H116.574L116.618 141.385L123.124 137.534H123.135L125.46 136.17L132.785 131.849L145.011 124.637C143.766 127.026 142.762 129.569 142.02 132.242C141.463 134.206 141.059 136.235 140.786 138.319C140.655 138.319 140.524 138.319 140.393 138.298C140.513 138.33 140.644 138.363 140.775 138.396C140.655 139.334 140.568 140.294 140.513 141.265C140 149.089 141.419 157.643 145 166.481C153.569 187.605 172.378 205.019 193.392 213.551C185.761 216.203 181.078 219.869 180.783 224.168L180.118 229.918C180.096 230.081 180.074 230.234 180.063 230.398C179.779 234.522 183.545 238.603 190.16 242.171Z" fill="#C3E1FF"/>
<path d="M157.794 252.34C152.565 252.34 147.489 251.762 142.718 250.638L142.598 250.605C136.453 248.554 130.416 245.739 124.663 242.236C122.545 240.96 120.428 239.552 118.397 238.079C117.076 237.141 115.712 236.104 114.347 234.991C105.287 227.67 97.7109 218.69 92.4602 209.034C91.9253 208.052 91.4013 207.037 90.8664 205.935C90.2333 204.648 89.622 203.295 89.0543 201.92C88.6177 200.851 88.192 199.792 87.8099 198.734L87.7771 198.603C81.1182 172.275 89.1198 156.104 116.301 140.927L146.386 123.186L145.502 124.877C144.269 127.245 143.275 129.765 142.555 132.373C142.02 134.25 141.616 136.279 141.332 138.374L141.299 138.603C141.19 139.465 141.114 140.36 141.059 141.276C140.535 149.274 142.031 157.676 145.502 166.252C153.667 186.372 172.094 204.288 193.588 213.016L194.931 213.562L193.566 214.042C185.936 216.694 181.591 220.294 181.329 224.179L180.663 229.95C180.641 230.147 180.62 230.267 180.609 230.409C180.347 234.173 183.742 238.068 190.422 241.669L191.143 242.062L190.499 242.575C182.912 248.674 170.686 252.318 157.794 252.318V252.34ZM142.904 249.558C147.609 250.681 152.619 251.249 157.783 251.249C170.075 251.249 181.722 247.899 189.167 242.247C182.563 238.537 179.233 234.435 179.517 230.354C179.528 230.201 179.55 230.049 179.572 229.896L180.248 224.102C180.532 219.956 184.549 216.301 191.896 213.518C170.391 204.386 152.729 186.972 144.498 166.688C140.961 157.959 139.433 149.394 139.968 141.233C140.022 140.24 140.11 139.269 140.23 138.33H140.328L140.339 138.265H140.241C140.524 136.094 140.939 134.031 141.485 132.1C142.064 130.016 142.806 127.987 143.712 126.044L116.782 141.92C90.135 156.803 82.2972 172.646 88.836 198.428C89.2072 199.465 89.6111 200.502 90.0368 201.527C90.5935 202.869 91.1939 204.2 91.8271 205.477C92.3619 206.568 92.875 207.572 93.399 208.532C98.5842 218.068 106.062 226.928 115.024 234.162C116.378 235.253 117.72 236.279 119.03 237.206C121.05 238.668 123.135 240.054 125.231 241.32C130.907 244.768 136.846 247.539 142.904 249.569V249.558Z" fill="black"/>
<path d="M197.464 245.466C191.471 249.536 184.189 252.34 175.828 253.54C164.999 255.089 153.657 253.747 142.784 250.092C147.413 251.194 152.489 251.794 157.794 251.794C171.112 251.794 182.912 247.997 190.161 242.171C192.311 243.327 194.756 244.429 197.464 245.466Z" fill="black"/>
<path d="M166.844 254.708C158.929 254.708 150.71 253.322 142.621 250.605L142.926 249.558C147.631 250.681 152.642 251.249 157.805 251.249C170.457 251.249 182.432 247.692 189.833 241.745L190.117 241.516L190.434 241.691C192.562 242.836 194.997 243.927 197.671 244.953L198.643 245.324L197.78 245.913C191.558 250.147 184.201 252.885 175.915 254.075C172.957 254.5 169.933 254.708 166.844 254.708ZM152.478 252.133C160.436 253.747 168.339 254.053 175.762 252.995C183.491 251.882 190.401 249.394 196.296 245.586C194.091 244.702 192.049 243.775 190.226 242.815C182.618 248.783 170.533 252.329 157.805 252.329C156.004 252.329 154.235 252.263 152.478 252.133Z" fill="black"/>
<path d="M394.076 272.875C394.076 278.461 375.016 283 351.503 283C344.189 283 337.311 282.564 331.297 281.789C330.762 281.724 330.238 281.647 329.725 281.582C327.301 281.233 325.042 280.829 322.957 280.392C322.575 280.305 322.203 280.218 321.832 280.13C321.33 279.934 320.85 279.716 320.402 279.487C318.295 278.385 316.691 276.901 315.708 275.013L313.121 271.478C313.121 271.478 313.121 271.467 313.099 271.467C312.466 270.834 311.942 270.147 311.527 269.372C311.549 269.372 311.571 269.35 311.593 269.329C315.304 266.961 322.662 265.008 332.05 263.862C336.667 263.295 341.776 262.924 347.18 262.793C348.599 262.76 350.04 262.738 351.503 262.738C357.867 262.738 363.903 263.066 369.318 263.666C370.955 263.84 372.527 264.048 374.034 264.277C376.402 264.626 378.608 265.03 380.627 265.477C380.693 265.499 380.747 265.51 380.802 265.521C388.978 267.365 394.076 269.983 394.076 272.875Z" fill="black"/>
<path d="M428.222 277.108C452.952 277.108 473 272.741 473 267.354C473 261.966 452.952 257.599 428.222 257.599C403.491 257.599 383.443 261.966 383.443 267.354C383.443 272.741 403.491 277.108 428.222 277.108Z" fill="black"/>
<path d="M411.52 230.092C411.52 230.267 411.52 230.452 411.52 230.627V230.78C411.444 232.187 411.127 233.693 410.603 235.253C410.472 235.613 410.341 235.984 410.188 236.355C408.442 240.698 405.09 245.444 400.418 250.223C397.285 253.453 393.552 256.672 389.338 259.792C386.686 261.756 383.836 263.677 380.813 265.521C380.452 265.739 380.092 265.957 379.732 266.175C378.684 266.808 377.614 267.419 376.533 268.041C376.053 268.314 375.562 268.565 375.082 268.838C374.503 269.154 373.925 269.449 373.346 269.765C365.814 273.715 358.314 276.715 351.317 278.734C344.32 280.752 337.825 281.789 332.29 281.8C331.963 281.8 331.635 281.8 331.308 281.789C327.651 281.713 324.441 281.167 321.843 280.131C321.341 279.934 320.861 279.716 320.413 279.487C318.306 278.385 316.702 276.901 315.719 275.013L313.132 271.478C313.132 271.478 313.132 271.467 313.11 271.467C312.477 270.834 311.953 270.147 311.538 269.372C311.506 269.318 311.473 269.263 311.44 269.198C310.763 267.899 310.403 266.481 310.348 264.942C310.327 264.604 310.327 264.266 310.348 263.917C310.501 260.414 312.095 256.421 314.911 252.242C320.664 243.655 331.515 234.25 345.389 226.492H345.4C346.427 225.913 347.474 225.346 348.533 224.79C362.954 217.239 377.265 213.137 388.137 212.777C395.757 212.526 401.706 214.119 404.828 217.643C405.363 218.221 405.8 218.854 406.16 219.541L406.357 219.814L408.758 223.088C408.966 223.295 409.151 223.502 409.326 223.72L409.37 223.775L409.959 224.571L410.079 224.746C410.199 224.942 410.319 225.15 410.428 225.357H410.439C410.614 225.706 410.767 226.055 410.898 226.404C411.334 227.55 411.542 228.783 411.542 230.092H411.52Z" fill="#6F95BD"/>
<path d="M364.794 255.642C382.2 246.454 393.516 233.718 390.07 227.196C386.624 220.674 369.72 222.836 352.314 232.024C334.908 241.212 323.592 253.948 327.038 260.47C330.484 266.992 347.388 264.831 364.794 255.642Z" fill="black"/>
<path d="M330.62 263.786C330.445 263.786 330.281 263.786 330.118 263.786L328.709 262.225C335.27 262.465 351.732 258.308 361.24 252.045C370.235 246.121 372.789 240.982 372.254 238.385C372.047 237.414 371.392 236.781 370.399 236.606C365.061 235.69 357.681 239.618 355.738 241.08C353.227 242.967 352.299 244.68 352.681 245.411C352.845 245.717 353.533 245.826 354.483 245.684C355.454 245.542 356.611 245.16 357.506 244.691C359.111 243.851 359.46 243.164 359.46 243.033C359.362 243.011 358.511 242.956 357.015 243.742L356.513 242.782C357.386 242.324 358.205 242.04 358.882 241.974C359.919 241.887 360.312 242.302 360.443 242.564C360.585 242.825 360.716 243.393 360.028 244.178C359.591 244.68 358.893 245.182 358.02 245.651C357.015 246.175 355.727 246.601 354.636 246.753C352.736 247.037 351.994 246.437 351.71 245.902C350.968 244.473 352.223 242.345 355.083 240.196C357.212 238.603 364.82 234.522 370.584 235.526C372.025 235.777 373.018 236.737 373.324 238.156C373.968 241.232 371.283 246.732 361.84 252.951C352.245 259.268 337.704 263.786 330.631 263.786H330.62Z" fill="#6F95BD"/>
<path d="M327.989 276.421C322.465 276.421 317.859 275.395 314.628 273.267C313.94 272.831 313.285 272.296 312.706 271.707C311.975 270.965 311.396 270.18 310.938 269.307C308.078 263.873 310.447 256.159 317.597 247.583C324.649 239.138 335.532 230.823 348.25 224.168C360.956 217.501 373.99 213.289 384.95 212.285C396.074 211.282 403.759 213.715 406.619 219.149C407.001 219.88 407.274 220.6 407.437 221.342C410.396 232.875 394 251.347 369.307 264.288C354.286 272.165 339.233 276.41 327.989 276.41V276.421ZM389.709 213.158C388.236 213.158 386.686 213.235 385.059 213.377C374.241 214.359 361.36 218.538 348.774 225.139C336.187 231.74 325.413 239.956 318.459 248.292C311.604 256.497 309.29 263.786 311.92 268.805C312.324 269.59 312.837 270.289 313.492 270.943C314.016 271.478 314.595 271.947 315.228 272.351C324.572 278.505 347.103 274.708 368.805 263.327C392.668 250.812 409.173 232.493 406.389 221.604C406.237 220.938 405.996 220.316 405.658 219.661C403.431 215.406 397.831 213.158 389.709 213.158Z" fill="black"/>
<path d="M336.602 264.899C331.548 264.899 327.858 263.524 326.363 260.676C322.684 253.66 333.939 240.752 351.994 231.292C360.52 226.819 369.209 223.884 376.457 223C383.88 222.105 388.956 223.502 390.757 226.928C392.559 230.354 390.812 235.319 385.856 240.916C381.02 246.372 373.652 251.849 365.126 256.312C354.396 261.942 344.025 264.899 336.602 264.899ZM380.529 223.829C379.306 223.829 377.986 223.917 376.588 224.08C369.471 224.942 360.923 227.845 352.507 232.253C335.292 241.276 323.994 253.802 327.334 260.163C330.675 266.524 347.398 264.364 364.613 255.34C373.03 250.932 380.278 245.553 385.026 240.185C389.6 235.035 391.325 230.376 389.775 227.43C388.542 225.084 385.245 223.829 380.518 223.829H380.529Z" fill="black"/>
<path d="M332.137 282.193C327.225 282.193 323.186 281.396 320.151 279.814C317.902 278.647 316.243 277.065 315.217 275.111L312.663 271.631L313.492 270.933C314.005 271.456 314.584 271.936 315.217 272.34C316.571 273.224 318.186 273.911 320.042 274.391C322.542 275.046 325.5 275.341 328.819 275.275C340.139 275.068 354.712 270.714 368.805 263.317L368.947 263.24C369.067 263.175 369.198 263.109 369.318 263.033L369.471 262.946H369.503C369.94 262.716 370.366 262.487 370.791 262.247L371.315 261.953C371.599 261.8 371.883 261.636 372.167 261.484C376.97 258.788 381.468 255.864 385.528 252.787C392.253 247.714 397.765 242.28 401.466 237.097C402.176 236.104 402.831 235.09 403.42 234.097C404.075 233.006 404.643 231.882 405.134 230.758L405.298 230.376C405.538 229.776 405.756 229.165 405.953 228.554C406.75 225.979 406.891 223.633 406.367 221.593C406.226 220.927 405.985 220.305 405.636 219.651L406.553 219.072L410.832 224.888C411.061 225.324 411.225 225.684 411.367 226.055C411.891 227.452 412.12 228.99 412.033 230.649C411.957 232.089 411.64 233.649 411.083 235.275L411.007 235.483C410.898 235.788 410.789 236.094 410.658 236.41C408.911 240.774 405.494 245.63 400.767 250.452C397.678 253.628 393.999 256.814 389.84 259.912L389.633 260.076C386.609 262.302 383.356 264.462 379.983 266.492C378.924 267.125 377.854 267.736 376.763 268.357C376.479 268.521 376.195 268.674 375.9 268.838L375.311 269.165C374.918 269.383 374.525 269.59 374.132 269.798L373.564 270.103C358.926 277.774 343.872 282.182 332.257 282.193H332.115H332.137ZM315.654 273.868L316.156 274.544C317.116 276.366 318.612 277.796 320.664 278.854C323.546 280.349 327.41 281.102 332.148 281.102H332.29C343.73 281.091 358.609 276.726 373.095 269.132L373.662 268.827C374.055 268.619 374.437 268.412 374.83 268.205L375.431 267.877C375.715 267.725 375.999 267.572 376.271 267.408C377.352 266.797 378.422 266.186 379.47 265.553C382.745 263.589 385.889 261.505 388.836 259.345L389.022 259.192C393.224 256.072 396.936 252.875 400.025 249.689C404.643 244.964 407.983 240.229 409.686 236.006C409.806 235.701 409.915 235.406 410.024 235.122L410.101 234.926C410.614 233.398 410.92 231.936 410.985 230.605C411.061 229.1 410.865 227.703 410.396 226.459C410.265 226.121 410.123 225.804 409.959 225.477L407.688 222.4C407.983 224.364 407.765 226.546 407.044 228.881C406.848 229.514 406.619 230.158 406.357 230.802L406.182 231.194C405.68 232.362 405.079 233.529 404.413 234.653C403.813 235.679 403.136 236.715 402.405 237.741C398.639 243.011 393.039 248.521 386.238 253.66C382.133 256.759 377.592 259.716 372.756 262.433C372.473 262.596 372.189 262.749 371.894 262.913L371.37 263.207C370.89 263.469 370.409 263.731 369.918 263.993L369.787 264.059C369.689 264.113 369.591 264.168 369.492 264.211L369.351 264.288C355.105 271.762 340.357 276.159 328.873 276.366C325.467 276.421 322.411 276.126 319.802 275.45C318.284 275.057 316.898 274.522 315.675 273.857L315.654 273.868Z" fill="black"/>
<path d="M327.989 276.421C322.465 276.421 317.859 275.395 314.627 273.267L315.228 272.362C324.561 278.515 347.092 274.718 368.805 263.338C392.668 250.823 409.173 232.504 406.389 221.614L407.448 221.342C410.406 232.885 394.01 251.358 369.318 264.298C354.297 272.176 339.244 276.421 328 276.421H327.989Z" fill="black"/>
<path d="M409.97 225.542L408.3 223.273L409.129 222.564C409.861 223.306 410.439 224.091 410.898 224.964L409.97 225.542Z" fill="black"/>
<path d="M326.332 260.57L311.184 268.559L311.694 269.524L326.841 261.535L326.332 260.57Z" fill="black"/>
<path d="M376.064 268.205L372.003 262.269L366.141 254.806L367.004 254.129L372.876 261.625L376.97 267.583L376.064 268.205Z" fill="black"/>
<path d="M331.81 281.931L328.153 275.766L339.364 263.72L340.161 264.462L329.506 275.908L332.749 281.374L331.81 281.931Z" fill="black"/>
<path d="M329.529 249.184L314.673 251.748L314.859 252.823L329.714 250.259L329.529 249.184Z" fill="black"/>
<path d="M345.754 226.087L344.852 226.701L349.414 233.391L350.316 232.776L345.754 226.087Z" fill="black"/>
<path d="M387.835 212.28L378.517 222.979L379.34 223.695L388.658 212.997L387.835 212.28Z" fill="black"/>
<path d="M404.633 217.093L389.066 225.548L389.588 226.507L405.155 218.051L404.633 217.093Z" fill="black"/>
<path d="M409.752 236.573L405.451 231.576L389.873 234.806L389.655 233.747L405.854 230.376L410.581 235.853L409.752 236.573Z" fill="black"/>
<path d="M464.616 214.719C463.907 218.101 462.335 221.844 460.021 225.782C455.327 233.802 447.511 242.662 437.511 250.747C436.605 251.5 435.677 252.22 434.728 252.94C428.145 257.981 421.432 262.105 415.046 265.204C408.649 268.303 402.568 270.376 397.263 271.292C394.982 271.696 392.842 271.882 390.877 271.838C389.698 271.816 388.574 271.707 387.537 271.522C385.561 271.183 383.858 270.55 382.45 269.601C381.587 269.023 380.823 268.325 380.19 267.506L377.112 264.528L377.024 264.429H377.003C377.003 264.429 376.992 264.429 376.992 264.418C376.282 263.906 375.671 263.316 375.136 262.618C373.804 260.872 373.149 258.745 373.106 256.29C373.04 253.246 373.892 249.743 375.584 245.935C376.086 244.779 376.675 243.589 377.341 242.378C380.376 236.846 384.917 230.889 390.703 225.019C390.888 224.822 391.085 224.615 391.292 224.419C394.13 221.571 397.263 218.745 400.647 216.006C401.477 215.33 402.306 214.675 403.158 214.02C403.245 213.944 403.333 213.878 403.431 213.813C416.083 204.124 429.204 197.806 439.64 195.69C446.932 194.217 452.903 194.784 456.473 197.708C457.029 198.167 457.532 198.679 457.968 199.247L461.047 202.215L461.09 202.247L463.023 204.113C465.075 206.797 465.533 210.452 464.605 214.719H464.616Z" fill="#6F95BD"/>
<path d="M463.022 204.113L461.09 202.247C461.833 202.771 462.477 203.393 463.022 204.113Z" fill="#6F95BD"/>
<path d="M424.513 241.168C439.729 229.52 448.426 215.33 443.938 209.474C439.451 203.619 423.479 208.315 408.264 219.963C393.048 231.612 384.351 245.802 388.839 251.657C393.326 257.513 409.298 252.817 424.513 241.168Z" fill="black"/>
<path d="M404.075 240.076C404.075 240.076 403.987 240.076 403.944 240.076C402.514 240.054 401.4 239.28 400.898 237.948C399.806 235.079 401.542 229.361 409.697 221.92C418.211 214.14 432.304 207.179 438.734 206.372L440.677 207.55C434.4 208.336 418.812 215.079 410.428 222.717C402.677 229.798 400.996 235.133 401.913 237.545C402.252 238.45 402.983 238.952 403.955 238.963C403.998 238.963 404.031 238.963 404.075 238.963C409.336 238.963 415.755 234.108 417.382 232.417C419.499 230.223 420.133 228.434 419.663 227.801C419.467 227.528 418.79 227.539 417.906 227.812C417.01 228.096 415.919 228.652 415.144 229.23C413.736 230.278 413.506 230.987 413.528 231.107C413.583 231.085 414.347 231.085 415.755 230.038L416.41 230.911C415.635 231.489 414.882 231.882 414.249 232.046C413.255 232.296 412.808 231.947 412.633 231.707C412.458 231.467 412.24 230.944 412.786 230.071C413.124 229.525 413.725 228.925 414.5 228.347C415.384 227.692 416.563 227.081 417.589 226.765C419.39 226.208 420.187 226.666 420.547 227.146C421.486 228.412 420.602 230.66 418.168 233.18C416.377 235.035 409.751 240.054 404.075 240.054V240.076Z" fill="#6F95BD"/>
<path d="M386.336 267.506C384.851 267.506 383.531 267.397 382.308 267.168C381.107 266.95 379.994 266.623 378.989 266.208L378.88 266.164C378.116 265.837 377.407 265.444 376.784 264.986H376.763L376.599 264.833C375.878 264.309 375.256 263.698 374.678 262.967L374.557 262.804C373.258 261.025 372.582 258.843 372.538 256.312C372.462 253.224 373.313 249.667 375.06 245.728C375.594 244.517 376.195 243.306 376.85 242.127C379.939 236.497 384.589 230.452 390.299 224.648C390.506 224.43 390.703 224.222 390.921 224.026C393.803 221.134 396.958 218.287 400.298 215.592L400.462 215.472C401.237 214.839 402.023 214.217 402.83 213.595L403.082 213.398C415.33 204.026 428.615 197.381 439.531 195.166C447.227 193.606 453.209 194.348 456.811 197.294C457.401 197.763 457.936 198.308 458.394 198.919C458.896 199.596 459.278 200.24 459.551 200.894C460.719 203.513 460.85 206.765 459.944 210.573L458.885 210.322C459.737 206.754 459.628 203.731 458.558 201.331C458.318 200.753 457.979 200.185 457.532 199.585C457.128 199.05 456.647 198.57 456.134 198.145C452.783 195.406 447.118 194.741 439.749 196.235C428.986 198.418 415.864 204.986 403.758 214.25L403.507 214.446C402.634 215.111 401.815 215.755 400.997 216.432L400.833 216.552C397.58 219.192 394.501 221.964 391.674 224.811C391.456 225.008 391.292 225.182 391.117 225.368C385.441 231.129 380.856 237.097 377.821 242.64C377.188 243.786 376.599 244.975 376.075 246.153C374.394 249.95 373.586 253.344 373.651 256.268C373.695 258.658 374.339 260.676 375.562 262.28L375.682 262.444C376.129 263 376.621 263.469 377.177 263.884H377.21L377.538 264.146C378.018 264.506 378.596 264.833 379.219 265.106L379.339 265.15C380.288 265.564 381.347 265.87 382.515 266.088C383.88 266.339 385.375 266.437 387.1 266.404C388.869 266.361 390.812 266.132 392.886 265.728C393.268 265.662 393.661 265.586 394.043 265.499C394.338 265.433 394.621 265.368 394.905 265.302L395.135 265.248L395.386 266.306L395.167 266.361C394.873 266.437 394.578 266.503 394.283 266.568C393.879 266.655 393.475 266.732 393.093 266.797C390.975 267.212 388.978 267.441 387.144 267.485C386.882 267.485 386.62 267.485 386.358 267.485L386.336 267.506Z" fill="black"/>
<path d="M394.971 254.795C391.816 254.795 389.458 253.889 388.094 252.111C385.79 249.11 386.642 244.037 390.484 237.839C394.239 231.794 400.407 225.313 407.863 219.607C423.659 207.517 439.716 202.869 444.421 209.012C449.126 215.155 440.437 229.427 424.641 241.516C417.185 247.223 409.315 251.489 402.492 253.529C399.654 254.38 397.121 254.795 394.96 254.795H394.971ZM437.511 207.365C430.503 207.365 419.347 212.198 408.529 220.469C401.171 226.099 395.091 232.471 391.412 238.407C387.875 244.113 386.98 248.859 388.956 251.445C390.932 254.031 395.757 254.402 402.186 252.482C408.889 250.485 416.629 246.273 423.986 240.643C439.04 229.132 447.816 215.232 443.559 209.667C442.358 208.107 440.251 207.365 437.511 207.365Z" fill="black"/>
<path d="M391.423 272.394C391.237 272.394 391.052 272.394 390.866 272.394C389.666 272.373 388.508 272.264 387.439 272.067C385.386 271.718 383.607 271.041 382.155 270.07C381.227 269.448 380.42 268.707 379.765 267.845L376.741 264.931L377.439 264.102C377.963 264.495 378.564 264.833 379.219 265.117L379.339 265.16C380.289 265.575 381.347 265.881 382.515 266.099C383.88 266.35 385.375 266.448 387.1 266.415C388.869 266.372 390.812 266.142 392.886 265.739C393.268 265.673 393.661 265.597 394.043 265.51C394.338 265.444 394.622 265.379 394.905 265.313L395.135 265.259C395.506 265.171 395.888 265.073 396.259 264.975V264.953L396.608 264.877C396.608 264.877 396.608 264.877 396.619 264.877L396.947 264.779C396.947 264.779 396.968 264.779 396.979 264.779C397.471 264.648 397.907 264.517 398.344 264.375L399.545 263.993C399.698 263.949 399.818 263.906 399.938 263.873C400.309 263.753 400.625 263.644 400.942 263.535L401.28 263.415C401.903 263.186 402.481 262.967 403.038 262.76L403.431 263.775C402.863 263.993 402.296 264.2 401.739 264.408L401.302 264.56C400.975 264.669 400.647 264.789 400.309 264.899C400.145 264.953 399.992 265.008 399.839 265.051L399.414 265.193C399.414 265.193 399.381 265.193 399.37 265.193L399.195 265.248L398.661 265.411C398.202 265.553 397.754 265.684 397.296 265.804C397.187 265.837 397.078 265.87 396.979 265.891L396.608 266.022L396.586 265.99C396.183 266.099 395.768 266.208 395.364 266.295L395.145 266.35C394.851 266.426 394.556 266.492 394.261 266.557C393.857 266.644 393.453 266.721 393.071 266.786C390.954 267.201 388.956 267.43 387.122 267.474C385.321 267.517 383.738 267.408 382.308 267.146C381.5 267.004 380.736 266.808 380.027 266.568L380.572 267.103C381.205 267.921 381.926 268.587 382.756 269.143C384.076 270.027 385.714 270.649 387.624 270.976C388.639 271.162 389.742 271.271 390.888 271.282C392.809 271.325 394.927 271.14 397.165 270.736L397.361 271.805C395.266 272.176 393.268 272.373 391.423 272.373V272.394Z" fill="black"/>
<path d="M437.468 251.489L431.813 245.684L432.271 245.313C438.112 240.556 443.275 235.515 447.598 230.311C453.569 223.12 457.466 216.213 458.874 210.332L458.929 209.252L459.748 210.027L465.162 214.49V214.773C464.42 218.254 462.848 222.029 460.479 226.066C455.599 234.402 447.554 243.317 437.839 251.183L437.457 251.5L437.468 251.489ZM433.429 245.782L437.555 250.016C446.997 242.313 454.803 233.627 459.551 225.51C461.789 221.691 463.295 218.145 464.016 214.937L459.737 211.413C458.132 217.272 454.246 224.015 448.449 230.998C444.192 236.115 439.138 241.091 433.429 245.771V245.782Z" fill="black"/>
<path d="M465.151 214.839L464.081 214.61C464.998 210.354 464.496 206.939 462.597 204.462L459.944 201.92C460.73 204.342 460.73 207.245 459.944 210.573L458.885 210.322C459.737 206.754 459.628 203.731 458.558 201.331C458.318 200.753 457.979 200.185 457.532 199.585L458.35 198.865L463.416 203.742C465.577 206.557 466.145 210.267 465.151 214.85V214.839Z" fill="black"/>
<path d="M459.944 210.573L458.885 210.322C459.737 206.754 459.627 203.731 458.558 201.331L459.551 200.884C460.719 203.513 460.861 206.765 459.944 210.573Z" fill="black"/>
<path d="M386.336 267.506C384.852 267.506 383.531 267.397 382.308 267.168C381.064 266.939 379.918 266.601 378.902 266.164L379.339 265.16C380.289 265.575 381.348 265.881 382.516 266.099C383.88 266.35 385.376 266.448 387.1 266.415C388.869 266.372 390.812 266.142 392.886 265.739C393.268 265.673 393.661 265.597 394.043 265.51C394.338 265.444 394.622 265.379 394.906 265.313L395.135 265.259C395.506 265.171 395.888 265.073 396.259 264.975V264.953L396.608 264.877C396.608 264.877 396.608 264.877 396.619 264.877L396.947 264.779C396.947 264.779 396.969 264.779 396.98 264.779C397.471 264.648 397.907 264.517 398.344 264.375L399.545 263.993C399.698 263.949 399.818 263.906 399.938 263.873C400.309 263.753 400.626 263.644 400.942 263.535L401.281 263.415C401.903 263.186 402.481 262.967 403.038 262.76L403.431 263.775C402.863 263.993 402.296 264.2 401.739 264.408L401.302 264.56C400.975 264.669 400.647 264.789 400.309 264.899C400.145 264.953 399.992 265.008 399.84 265.051L399.425 265.193C399.425 265.193 399.381 265.215 399.359 265.215L398.661 265.422C398.202 265.564 397.755 265.695 397.296 265.815C397.187 265.848 397.078 265.881 396.98 265.902L396.608 266.033L396.587 266.001C396.183 266.11 395.768 266.219 395.364 266.306L395.146 266.361C394.851 266.437 394.556 266.502 394.261 266.568C393.858 266.655 393.454 266.732 393.072 266.797C390.954 267.212 388.956 267.441 387.122 267.484C386.86 267.484 386.598 267.484 386.336 267.484V267.506Z" fill="black"/>
<path d="M462.652 204.517L460.676 202.607L461.374 201.767C462.193 202.357 462.881 203.022 463.47 203.786L462.652 204.506V204.517Z" fill="black"/>
<path d="M388.05 252.021L374.807 262.193L375.472 263.058L388.716 252.886L388.05 252.021Z" fill="black"/>
<path d="M432.26 246.132L425.361 239.89L426.104 239.094L428.069 240.872L432.992 245.324L432.26 246.132Z" fill="black"/>
<path d="M397.045 271.882L393.486 267.703L394.316 266.994L397.471 270.703C408.409 268.739 421.847 262.116 434.4 252.515C435.219 251.893 435.983 251.303 436.704 250.703L432.577 246.47C431.737 247.146 430.874 247.834 430.001 248.499C421.694 254.85 412.895 259.989 404.566 263.338L403.988 263.557C403.879 263.6 403.737 263.655 403.606 263.709L403.355 263.797H403.322H403.245V263.262L402.863 262.858L403.027 262.705L403.213 262.684C403.333 262.64 403.442 262.596 403.562 262.553L404.151 262.324C412.382 259.007 421.083 253.933 429.313 247.637C430.307 246.874 431.3 246.088 432.261 245.313L432.643 244.997L438.297 250.802L437.839 251.183C436.966 251.914 436.049 252.635 435.044 253.398C422.24 263.196 408.496 269.918 397.34 271.849L397.034 271.903L397.045 271.882Z" fill="black"/>
<path d="M393.486 267.703L392.307 266.306L400.975 253.06V252.646L401.575 252.689L401.531 253.202L401.619 253.235H402.066V253.78H401.804L393.661 266.219L394.316 266.994L393.486 267.703Z" fill="black"/>
<path d="M389.247 240.46L375.394 245.387L375.76 246.415L389.613 241.488L389.247 240.46Z" fill="black"/>
<path d="M401.032 215.663L400.247 216.421L405.733 222.093L406.517 221.335L401.032 215.663Z" fill="black"/>
<path d="M439.169 195.402L431.978 207.223L432.91 207.79L440.101 195.968L439.169 195.402Z" fill="black"/>
<path d="M456.131 197.255L442.562 207.95L443.238 208.807L456.807 198.112L456.131 197.255Z" fill="black"/>
<path d="M459.212 209.94L444.485 215.739L444.885 216.754L459.612 210.955L459.212 209.94Z" fill="black"/>
<path d="M146.321 217.937L142.009 212.94L123.32 223.633L119.882 219.651L122.698 192.373L130.351 187.998L144.061 203.906L148.548 201.342L153.1 206.612L148.613 209.176L152.925 214.173L146.332 217.948L146.321 217.937ZM137.468 207.659L129.586 198.516L129.106 198.789L127.6 212.657L127.971 213.082L137.468 207.648V207.659Z" fill="black"/>
<path d="M191.787 191.227L188.436 187.517C184.321 182.946 184.332 179.323 188.622 174.01L193.894 167.572C195.684 165.27 195.914 163.95 194.375 162.247C192.595 160.273 190.412 159.847 185.783 162.575C180.62 165.63 180.347 167.976 182.934 170.845L183.393 171.347L177.214 174.992L176.756 174.49C172.226 169.46 171.843 162.684 181.22 157.152C189.702 152.133 196.361 153.66 200.793 158.57C204.941 163.175 203.719 167.397 199.876 171.631L195.139 176.803C193.108 179.192 192.464 180.698 194.309 182.749L201.066 177.752L212.07 171.249L216.775 176.475L191.776 191.249L191.787 191.227Z" fill="black"/>
<path d="M238.072 143.971C231.675 135.69 232.155 127.408 240.659 122.28C249.13 117.163 258.07 119.771 264.467 128.041C270.897 136.355 270.351 144.626 261.88 149.732C253.365 154.872 244.501 152.286 238.072 143.971ZM258.125 131.871C253.693 126.143 250.156 125.073 245.146 128.085C240.102 131.129 239.982 134.413 244.414 140.142C248.846 145.87 252.339 146.972 257.383 143.928C262.382 140.905 262.546 137.599 258.125 131.871Z" fill="black"/>
</g>
<defs>
<clipPath id="clip0_35_1277">
<rect width="473" height="283" fill="white"/>
</clipPath>
</defs>
</svg>
