<svg width="24" height="20" viewBox="0 0 24 20" fill="none" xmlns="http://www.w3.org/2000/svg">
<path d="M22.9999 9.99189C22.9946 8.44233 22.4533 6.94548 21.4619 5.74378C21.7995 4.36815 21.6923 2.924 21.1618 1.61162C21.0546 1.35863 20.8403 1.16362 20.5777 1.08456C20.2026 0.958062 18.7824 0.720885 15.8886 2.5656C14.6453 2.24409 13.3591 2.09124 12.073 2.11233C10.7868 2.09124 9.50068 2.24409 8.25204 2.5656C5.28316 0.67872 3.73978 0.984415 3.42896 1.07402C3.16101 1.15835 2.94665 1.35336 2.84483 1.61162C2.31429 2.91873 2.20175 4.36288 2.53401 5.73324C1.5158 6.92967 0.969188 8.45287 1.00134 10.013C1.26929 22.3936 23.0428 21.5978 22.9999 9.99189Z" stroke="white" stroke-width="1.6" stroke-miterlimit="10" stroke-linejoin="round"/>
</svg>
