<svg width="188" height="42" viewBox="0 0 188 42" fill="none" xmlns="http://www.w3.org/2000/svg">
<g clip-path="url(#clip0_21_1903)">
<path d="M69.3345 21.0019C69.3345 16.0739 72.0918 12.8268 77.0962 12.8268C82.1006 12.8268 84.858 16.0739 84.858 21.0019C84.858 25.93 82.0781 29.177 77.0962 29.177C72.1143 29.177 69.3345 25.953 69.3345 21.0019ZM81.1253 21.0019C81.1253 17.5899 80.0373 16.2849 77.0925 16.2849C74.1476 16.2849 73.0634 17.5899 73.0634 21.0019C73.0634 24.414 74.1288 25.7189 77.0925 25.7189C80.0561 25.7189 81.1253 24.414 81.1253 21.0019Z" fill="#6F95BD"/>
<path d="M85.3232 28.9429L89.9563 23.1359V22.9478L85.3232 17.0679H89.5624L92.6423 21.0748H92.8261L95.816 17.0679H100.01L95.3771 22.8749V23.0898L100.01 28.9429H95.771L92.6911 24.9628H92.5073L89.5174 28.9429H85.3232Z" fill="#6F95BD"/>
<path d="M100.498 21.0019C100.498 16.047 103.788 12.8268 109.115 12.8268C113.981 12.8268 117.061 15.1489 117.061 18.9639V19.152H113.193V18.9639C113.193 17.114 112.011 16.2389 109.021 16.2389C105.499 16.2389 104.178 17.4709 104.178 21.0019C104.178 24.533 105.454 25.765 108.856 25.765C112.259 25.765 113.512 25.1969 113.605 23.182H108.346V20.5529H117.079V28.9429H113.861V25.5309H113.677C113.144 27.6149 111.523 29.1809 108.162 29.1809C103.413 29.1809 100.494 25.9569 100.494 21.0058L100.498 21.0019Z" fill="white"/>
<path d="M118.336 26.0029C118.336 24.2489 119.611 23.1589 122.087 22.8979L127.069 22.376V21.9269C127.069 20.3878 126.398 19.958 124.544 19.958C122.691 19.958 122.065 20.4339 122.065 21.7811V21.877H118.565V21.8041C118.565 18.8641 120.973 16.8261 124.796 16.8261C128.619 16.8261 130.494 18.8641 130.494 21.9691V28.9391H127.249V26.214H127.065C126.533 28.064 124.912 29.177 122.339 29.177C119.765 29.177 118.332 27.9911 118.332 26.0029H118.336ZM123.34 26.6669C125.704 26.6669 126.975 26.0989 127.069 24.414L123.036 24.8899C122.204 24.9628 121.832 25.1969 121.832 25.7688C121.832 26.4098 122.32 26.6708 123.336 26.6708L123.34 26.6669Z" fill="white"/>
<path d="M132.257 28.9429V17.0679H135.476V20.6719H135.66C135.937 18.6799 137.097 16.8338 140.015 16.8338C142.701 16.8338 144.071 18.5149 144.326 20.7218H144.536C144.813 18.7068 145.995 16.8338 148.985 16.8338C151.975 16.8338 153.434 18.8488 153.434 21.5508V28.9467H149.96V22.7368C149.96 20.7678 149.289 20.0348 147.297 20.0348C145.189 20.0348 144.588 20.8868 144.588 22.9517V28.9467H141.114V22.7368C141.114 20.7678 140.443 20.0348 138.451 20.0348C136.343 20.0348 135.742 20.8868 135.742 22.9517V28.9467H132.269L132.257 28.9429Z" fill="white"/>
<path d="M155.194 28.9429V13.0648H158.668V20.2228H158.852C159.245 18.2309 160.66 16.8338 163.417 16.8338C166.891 16.8338 168.838 19.2288 168.838 23.0208C168.838 26.8128 166.868 29.1847 163.256 29.1847C160.57 29.1847 159.039 27.9987 158.623 25.6537H158.413V28.9468H155.194V28.9429ZM162.051 25.9339C164.299 25.9339 165.319 25.1739 165.319 23.0169C165.319 20.8599 164.299 20.077 162.074 20.077C159.849 20.077 158.668 20.8369 158.668 22.898V23.086C158.668 25.1471 159.849 25.93 162.051 25.93V25.9339Z" fill="white"/>
<path d="M170.278 28.9429V13.0648H173.752V28.9429H170.278Z" fill="white"/>
<path d="M175.234 23.0169C175.234 19.2249 177.852 16.83 181.675 16.83C185.498 16.83 188 18.868 188 22.5909C188 23.0169 187.955 23.324 187.906 23.727H178.453C178.546 25.5501 179.379 26.333 181.626 26.333C183.69 26.333 184.406 25.788 184.406 24.7671V24.5291H187.88V24.7901C187.88 27.3731 185.423 29.1732 181.743 29.1732C177.875 29.1732 175.234 27.2311 175.234 23.0092V23.0169ZM178.501 21.854H184.665C184.571 20.2881 183.645 19.601 181.608 19.601C179.571 19.601 178.666 20.3111 178.505 21.854H178.501Z" fill="white"/>
<path d="M45.0923 15.6555C45.0435 16.2005 44.8859 16.7916 44.6196 17.375C44.312 18.0505 43.8993 18.63 43.4266 19.0522C43.4191 19.1251 43.4154 19.1942 43.4116 19.2671C43.9443 18.8258 44.4133 18.1848 44.7546 17.4402C45.051 16.7877 45.2161 16.1276 45.2536 15.5212C45.1973 15.5634 45.1448 15.6056 45.0923 15.6555Z" fill="#161E26"/>
<path d="M45.9441 15.099C45.8803 15.1258 45.8166 15.1527 45.7528 15.1872C45.8541 15.928 45.704 16.8568 45.2876 17.7703C44.8262 18.7835 44.1322 19.5473 43.4419 19.9081C43.4494 19.981 43.4607 20.0501 43.4757 20.1192C44.2334 19.7507 44.9837 18.937 45.4752 17.8585C45.8203 17.1063 45.9854 16.3425 45.9854 15.667C45.9854 15.4674 45.9704 15.2794 45.9441 15.099Z" fill="#2C3C4C"/>
<path d="M46.5365 14.9954C46.5365 14.9954 46.499 14.9915 46.4803 14.9915C46.4127 14.9915 46.3415 14.9954 46.2702 15.0107C46.5815 15.7937 46.4878 16.9911 45.9551 18.1618C45.3736 19.4322 44.432 20.3149 43.5879 20.4838C43.6254 20.5682 43.6704 20.6488 43.7154 20.7218C44.6233 20.4953 45.5987 19.5857 46.1951 18.2769C46.5403 17.5208 46.7053 16.7532 46.7053 16.07C46.7053 15.6747 46.6491 15.3101 46.5365 14.9954Z" fill="#435971"/>
<path d="M47.2044 15.2525C47.1331 15.1911 47.0581 15.1412 46.9718 15.099C46.8893 15.0606 46.8067 15.0337 46.7167 15.0146C47.2682 15.7284 47.2607 17.16 46.6229 18.5533C45.9402 20.0463 44.766 21.0019 43.8394 20.883C43.9444 21.0019 44.0644 21.0941 44.2032 21.1593C44.222 21.167 44.2445 21.1785 44.2633 21.1862C45.2236 21.0288 46.2815 20.0808 46.9118 18.6914C47.2607 17.9353 47.4257 17.16 47.4257 16.4769C47.4257 16.0201 47.3507 15.6018 47.2044 15.2525Z" fill="#597797"/>
<path d="M34.1229 34.2548C34.1079 34.2893 34.0929 34.3239 34.0779 34.3584C34.1491 34.2317 34.2167 34.1013 34.2767 33.9669C34.2917 33.9362 34.3029 33.9094 34.3142 33.8786C34.2429 34.0015 34.1829 34.1243 34.1229 34.2548ZM34.2204 30.0713C34.1641 30.0636 34.1079 30.0559 34.0479 30.0521C34.1154 30.0982 34.1754 30.1596 34.2279 30.2286C34.2804 30.244 34.333 30.2593 34.3855 30.2785C34.3367 30.2018 34.2804 30.1327 34.2204 30.0713Z" fill="black"/>
<path d="M35.3386 32.5737C35.2898 33.1379 35.1247 33.7366 34.8621 34.3162C34.5508 34.9994 34.1268 35.5866 33.6504 36.0126C33.6429 36.0855 33.6392 36.1546 33.6392 36.2237C34.1794 35.7785 34.6521 35.1337 34.9972 34.3814C35.2935 33.7366 35.4661 33.065 35.4999 32.4394C35.4474 32.4778 35.3911 32.52 35.3386 32.5737ZM34.2206 30.0713C34.1644 30.0636 34.1081 30.0559 34.0481 30.0521C34.1156 30.0982 34.1756 30.1596 34.2281 30.2286C34.2807 30.244 34.3332 30.2593 34.3857 30.2785C34.3369 30.2018 34.2807 30.1327 34.2206 30.0713Z" fill="#161E26"/>
<path d="M36.2091 32.2168C36.2054 32.1592 36.1979 32.0978 36.1866 32.044C36.1229 32.0671 36.0591 32.0939 35.9916 32.1285C35.9991 32.163 36.0028 32.2014 36.0066 32.2359C36.0816 32.992 35.9128 33.871 35.5301 34.7115C35.1475 35.5482 34.596 36.2467 33.9808 36.6689C33.8795 36.738 33.7782 36.7994 33.6807 36.8531C33.6882 36.9261 33.7032 36.999 33.7219 37.0681C33.8457 37.0067 33.9695 36.9299 34.0971 36.8455C34.7423 36.4002 35.3163 35.671 35.7177 34.7998C36.1154 33.9285 36.2917 33.0074 36.2091 32.2168Z" fill="#2C3C4C"/>
<path d="M36.9328 32.6159C36.9066 32.3703 36.8616 32.1438 36.7865 31.9404C36.7678 31.9366 36.7453 31.9366 36.7265 31.9366C36.6552 31.9366 36.584 31.9443 36.5127 31.9558C36.5915 32.1554 36.644 32.3895 36.6702 32.6466C36.7453 33.3951 36.5802 34.2701 36.1976 35.103C35.6161 36.3734 34.6782 37.2562 33.8379 37.425C33.8717 37.5133 33.9129 37.5901 33.9617 37.663C34.8658 37.4365 35.8412 36.5192 36.4339 35.2181C36.8353 34.3392 37.0116 33.4181 36.9328 32.6159Z" fill="#435971"/>
<path d="M37.6531 33.0189C37.6231 32.7157 37.5593 32.4432 37.458 32.2091C37.383 32.14 37.3004 32.0824 37.2104 32.0402C37.1279 32.0018 37.0416 31.975 36.9516 31.9596C37.1579 32.2245 37.2929 32.5967 37.338 33.0535C37.413 33.7981 37.2442 34.6655 36.8653 35.4945C36.4864 36.3235 35.9424 37.0105 35.3384 37.4327C34.8958 37.7359 34.4643 37.8703 34.0854 37.8204C34.183 37.9393 34.3068 38.0353 34.4456 38.1005C34.4718 38.1121 34.5019 38.1236 34.5281 38.1312C34.847 38.0775 35.1809 37.9317 35.5147 37.7014C36.1713 37.2485 36.7527 36.5154 37.1541 35.6327C37.5593 34.7499 37.7356 33.8249 37.6531 33.0189Z" fill="#597797"/>
<path d="M18.746 17.3711C18.6823 17.2368 18.6147 17.1024 18.5435 16.9758C18.5585 17.0103 18.5735 17.0449 18.5885 17.0794C18.6522 17.2176 18.7198 17.3519 18.7948 17.4824C18.7798 17.444 18.761 17.4095 18.746 17.3711Z" fill="black"/>
<path d="M19.2184 19.129C18.7383 18.7029 18.3181 18.1157 18.0067 17.4325C17.7404 16.8491 17.5753 16.2504 17.5265 15.6824C17.474 15.6325 17.4215 15.5903 17.3652 15.548C17.399 16.1736 17.5716 16.8491 17.8679 17.4978C18.2131 18.25 18.6895 18.891 19.2297 19.34C19.2297 19.271 19.226 19.2019 19.2184 19.129Z" fill="#161E26"/>
<path d="M18.8847 19.7853C18.2694 19.3592 17.7217 18.6646 17.3391 17.824C16.9527 16.9873 16.7839 16.1084 16.8626 15.3523C16.8664 15.3139 16.8701 15.2794 16.8776 15.241C16.8101 15.2064 16.7463 15.1796 16.6788 15.1566C16.6713 15.2103 16.6638 15.2717 16.6563 15.3293C16.5775 16.1237 16.7501 17.041 17.1515 17.9161C17.5491 18.7874 18.1231 19.5128 18.7721 19.958C18.8997 20.0463 19.0272 20.123 19.1548 20.1844C19.1698 20.1153 19.1848 20.0463 19.1923 19.9733C19.091 19.9196 18.9897 19.8582 18.8847 19.7853Z" fill="#2C3C4C"/>
<path d="M16.6677 18.2193C16.2888 17.3826 16.12 16.5114 16.195 15.7591C16.2213 15.502 16.2776 15.2678 16.3563 15.0683C16.2813 15.0567 16.21 15.0491 16.1388 15.0491C16.12 15.0491 16.1012 15.0491 16.0825 15.0529C16.0074 15.2563 15.9587 15.4828 15.9324 15.7322C15.8536 16.5306 16.03 17.4555 16.4314 18.3306C17.0278 19.6394 18.0032 20.5529 18.9111 20.7793C18.9561 20.7064 19.0011 20.6258 19.0386 20.5414C18.1945 20.3763 17.2492 19.4897 16.6677 18.2193Z" fill="#435971"/>
<path d="M15.9998 18.6108C15.6209 17.7818 15.4521 16.9144 15.5309 16.1698C15.5759 15.7131 15.7072 15.3369 15.9173 15.0721C15.8272 15.0875 15.7372 15.1182 15.6547 15.1566C15.5646 15.1988 15.4784 15.2563 15.4033 15.3254C15.3058 15.5634 15.242 15.8359 15.212 16.1353C15.1295 16.9374 15.3095 17.8662 15.7109 18.749C16.3449 20.1307 17.3991 21.0825 18.3557 21.2437C18.3782 21.2361 18.4007 21.2284 18.4232 21.2169C18.562 21.1516 18.6858 21.0557 18.7909 20.9367C17.8643 21.0595 16.6826 20.1077 15.9998 18.6108Z" fill="#597797"/>
<path d="M34.2206 30.0713C34.1643 30.0636 34.108 30.0559 34.048 30.0521C34.1155 30.0982 34.1755 30.1596 34.2281 30.2287C34.2806 30.244 34.3331 30.2594 34.3856 30.2785C34.3368 30.2018 34.2806 30.1327 34.2206 30.0713ZM32.3411 27.6264C25.2433 28.7817 18.3257 29.3114 12.7285 29.1348C12.796 29.6721 12.9348 30.1903 13.1299 30.6854C13.7076 30.6969 14.3004 30.7046 14.9044 30.7046C20.1489 30.7046 26.3012 30.1634 32.5737 29.1425C34.5919 28.8162 36.5915 28.4439 38.5422 28.0294C38.5235 27.5382 38.6022 26.9816 38.7861 26.4136C36.689 26.8627 34.5207 27.2733 32.3411 27.6264ZM45.9438 15.0951C45.9438 15.0951 45.9626 15.0951 45.9738 15.0875C45.9626 15.0875 45.9551 15.0913 45.9438 15.0951ZM44.0831 25.1394C43.6817 25.2468 43.4416 25.669 43.5466 26.0759C43.6329 26.4213 43.9368 26.6516 44.2707 26.6516C44.3345 26.6516 44.3982 26.6439 44.462 26.6285C45.7262 26.2908 47.7933 25.7074 50.0892 24.9283V23.3278C48.3335 23.9304 46.3377 24.5368 44.0831 25.1394Z" fill="#6F95BD"/>
<path d="M44.0829 25.1394C46.3375 24.5368 48.3333 23.9304 50.089 23.3278V13.5522C50.089 11.3453 48.9335 9.31116 47.0578 8.21731L34.3516 0.805995C32.5097 -0.268665 30.2513 -0.268665 28.4093 0.805995L15.7032 8.21731C13.8312 9.31116 12.6758 11.3453 12.6758 13.5522V28.3326C12.6758 28.6013 12.6945 28.87 12.7283 29.1348C18.3255 29.3113 25.2431 28.7817 32.3409 27.6264C34.5205 27.2733 36.6888 26.8627 38.7858 26.4136C38.8534 26.2025 38.9322 25.9914 39.0297 25.7803C39.8175 24.0532 41.2806 23.0438 42.2935 23.5274C43.3026 24.0148 43.4864 25.8072 42.6949 27.5343C41.9071 29.2614 40.444 30.2709 39.4311 29.7873C38.8759 29.5224 38.572 28.8623 38.542 28.0294C36.5913 28.4439 34.5917 28.8162 32.5735 29.1425C26.301 30.1634 20.1487 30.7046 14.9041 30.7046C14.3002 30.7046 13.7074 30.6969 13.1297 30.6854C13.6286 31.9097 14.5102 32.9575 15.6694 33.6484L28.3718 41.1748C30.2326 42.2763 32.5284 42.2763 34.3892 41.1748L47.0953 33.6484C48.9485 32.5468 50.089 30.5242 50.089 28.3326V24.9283C47.7931 25.7074 45.726 26.2908 44.4618 26.6285C44.398 26.6439 44.3342 26.6516 44.2705 26.6516C43.9366 26.6516 43.6327 26.4213 43.5464 26.0758C43.4414 25.669 43.6815 25.2468 44.0829 25.1394ZM19.192 19.9733C19.1845 20.0462 19.1695 20.1153 19.1545 20.1844C19.1245 20.3111 19.0833 20.43 19.0382 20.5414C19.0007 20.6258 18.9557 20.7064 18.9107 20.7793C18.8732 20.8369 18.8319 20.8906 18.7906 20.9367C18.6856 21.0557 18.5618 21.1516 18.423 21.2169C18.4005 21.2284 18.378 21.236 18.3555 21.2437C17.9278 21.4164 17.3951 21.3051 16.8511 20.929C16.2472 20.5106 15.7069 19.8275 15.3318 19.0023C14.9529 18.1771 14.7878 17.3174 14.8629 16.5766C14.9191 16.0163 15.1067 15.5864 15.4031 15.3254C15.4781 15.2563 15.5644 15.1988 15.6544 15.1565C15.737 15.1182 15.827 15.0875 15.917 15.0721C15.9696 15.0606 16.0258 15.0529 16.0821 15.0529C16.1009 15.0491 16.1196 15.0491 16.1384 15.0491C16.2096 15.0491 16.2809 15.0567 16.3559 15.0683C16.461 15.0836 16.5698 15.1143 16.6786 15.1565C16.7461 15.1796 16.8099 15.2064 16.8774 15.241C16.9937 15.2947 17.11 15.3638 17.2263 15.4444C17.2751 15.4789 17.3201 15.5135 17.3651 15.548C17.4214 15.5902 17.4739 15.6325 17.5264 15.6824C17.909 16.0163 18.2617 16.4615 18.543 16.9758C18.6143 17.1024 18.6818 17.2368 18.7456 17.3711C18.7606 17.4095 18.7794 17.444 18.7944 17.4824C19.0382 18.0466 19.177 18.6108 19.2183 19.1289C19.2258 19.2019 19.2296 19.2709 19.2296 19.34C19.2408 19.5626 19.2258 19.7776 19.192 19.9733ZM31.3467 11.9019C29.4823 11.9019 27.9704 10.904 27.9704 9.67577C27.9704 8.44759 29.4823 7.44969 31.3467 7.44969C33.2112 7.44969 34.723 8.44375 34.723 9.67577C34.723 10.9078 33.2112 11.9019 31.3467 11.9019ZM27.9929 38.2771C26.98 38.7607 25.5207 37.7513 24.7292 36.0241C23.9414 34.297 24.1214 32.5008 25.1343 32.0172C26.1435 31.5336 27.6065 32.543 28.3943 34.2701C29.1859 35.9973 29.0058 37.7935 27.9929 38.2771ZM34.2203 30.0713C34.2804 30.1327 34.3366 30.2018 34.3854 30.2785C34.3329 30.2593 34.2804 30.244 34.2278 30.2286C34.1753 30.1596 34.1153 30.0981 34.0478 30.0521C34.1078 30.0559 34.1641 30.0636 34.2203 30.0713ZM37.5329 35.886C36.7938 37.5095 35.4621 38.492 34.528 38.1312C34.5017 38.1235 34.4717 38.112 34.4454 38.1005C34.3066 38.0353 34.1828 37.9393 34.0853 37.8203C34.0365 37.7704 33.999 37.7206 33.9615 37.663C33.9127 37.5901 33.8715 37.5133 33.8377 37.425C33.7889 37.3176 33.7477 37.1986 33.7214 37.0681C33.7026 36.999 33.6876 36.9261 33.6801 36.8531C33.6651 36.7994 33.6614 36.7418 33.6539 36.6843C33.6389 36.5346 33.6351 36.3811 33.6389 36.2237C33.6389 36.1546 33.6426 36.0855 33.6501 36.0126C33.6876 35.4791 33.8339 34.9111 34.0778 34.3584C34.0928 34.3239 34.1078 34.2893 34.1228 34.2548C34.1828 34.1243 34.2428 34.0015 34.3141 33.8786C34.5955 33.3567 34.9481 32.9038 35.3383 32.5737C35.3908 32.52 35.4471 32.4777 35.4996 32.4394C35.5483 32.401 35.5934 32.3664 35.6421 32.3319C35.7584 32.2513 35.8785 32.1822 35.991 32.1285C36.0585 32.0939 36.1223 32.0671 36.1861 32.044C36.2986 32.0018 36.4074 31.9711 36.5125 31.9558C36.5838 31.9443 36.655 31.9366 36.7263 31.9366C36.7451 31.9366 36.7676 31.9366 36.7863 31.9404C36.8426 31.9404 36.8989 31.9481 36.9514 31.9596C37.0414 31.975 37.1277 32.0018 37.2102 32.0402C37.3003 32.0824 37.3828 32.14 37.4578 32.2091C37.7542 32.4662 37.9455 32.8999 38.0018 33.4603C38.0768 34.201 37.9118 35.0646 37.5329 35.886ZM43.5239 20.3072C43.5052 20.2458 43.4864 20.1844 43.4752 20.1192C43.4602 20.0501 43.4489 19.981 43.4414 19.9081C43.4114 19.7047 43.4039 19.4897 43.4114 19.2671C43.4151 19.1942 43.4189 19.1251 43.4264 19.0522C43.4752 18.5033 43.6327 17.9123 43.8991 17.3289C44.2142 16.6419 44.6344 16.0662 45.092 15.6555C45.1446 15.6056 45.1971 15.5634 45.2533 15.5212C45.4147 15.3868 45.5835 15.2755 45.7523 15.1872C45.8161 15.1527 45.8798 15.1258 45.9436 15.099C45.9436 15.099 45.9624 15.0875 45.9736 15.0875C45.9811 15.0836 45.9924 15.0759 46.0036 15.0759C46.0937 15.0414 46.1837 15.0222 46.27 15.0107C46.3413 14.9953 46.4125 14.9915 46.4801 14.9915C46.4988 14.9915 46.5176 14.9915 46.5363 14.9953C46.6001 14.9953 46.6601 15.003 46.7164 15.0145C46.8064 15.0337 46.889 15.0606 46.9715 15.099C47.0578 15.1412 47.1328 15.1911 47.2041 15.2525C47.9319 15.8589 47.9881 17.4248 47.2941 18.9447C46.5438 20.5836 45.2008 21.57 44.263 21.1861C44.2442 21.1785 44.2217 21.167 44.2029 21.1593C44.0641 21.094 43.9441 21.0019 43.839 20.8829C43.794 20.833 43.7565 20.7793 43.7152 20.7217C43.6702 20.6488 43.6252 20.5682 43.5877 20.4838C43.5652 20.4262 43.5427 20.3686 43.5239 20.3072Z" fill="#6F95BD"/>
<path d="M7.42043 21.0288C7.13157 21.0288 6.85771 20.8599 6.73391 20.5721C6.5651 20.1844 6.73391 19.7315 7.11281 19.5588C7.29288 19.4782 7.47295 19.3976 7.65677 19.317C8.03566 19.1481 8.47833 19.3285 8.6434 19.72C8.80846 20.1115 8.63214 20.5605 8.2495 20.7294C8.07318 20.81 7.89686 20.8868 7.72429 20.9674C7.62676 21.0134 7.52172 21.0326 7.42043 21.0326V21.0288Z" fill="white"/>
<path d="M9.02593 30.4321C8.99967 30.4321 8.97716 30.4321 8.9509 30.4321C3.3725 29.8563 0.371345 28.4593 0.029963 26.2793C-0.232638 24.5828 1.20417 22.8058 4.30286 21.0019C4.663 20.7908 5.12068 20.9213 5.32701 21.2898C5.53334 21.6582 5.40579 22.1265 5.04565 22.3376C2.65222 23.7308 1.36173 25.0818 1.51178 26.0375C1.66935 27.0584 3.74765 28.348 9.10096 28.9007C9.51362 28.9429 9.81374 29.319 9.77247 29.7412C9.73495 30.1365 9.40858 30.4321 9.02593 30.4321Z" fill="white"/>
<path d="M39.6713 27.7876C39.2961 27.8721 38.921 27.9527 38.5421 28.0294C36.5913 28.4439 34.5918 28.8162 32.5735 29.1425C26.3011 30.1634 20.1488 30.7046 14.9042 30.7046C14.3002 30.7046 13.7075 30.6969 13.1298 30.6854C12.6796 30.67 12.2332 30.6547 11.798 30.6355C11.3854 30.6163 11.0665 30.2555 11.0853 29.8333C11.1003 29.4111 11.4679 29.0887 11.8656 29.1002C12.1507 29.1118 12.4358 29.1233 12.7284 29.1348C18.3256 29.3113 25.2432 28.7817 32.341 27.6264C34.5205 27.2733 36.6889 26.8626 38.7859 26.4136C38.9773 26.3714 39.1686 26.3292 39.3562 26.2869C39.7576 26.2025 40.159 26.4635 40.2453 26.878C40.3353 27.2925 40.0764 27.6993 39.6713 27.7876Z" fill="white"/>
<path d="M50.0892 24.9283C47.7933 25.7074 45.7262 26.2908 44.462 26.6285C44.3982 26.6439 44.3344 26.6516 44.2707 26.6516C43.9368 26.6516 43.6329 26.4213 43.5466 26.0759C43.4416 25.669 43.6817 25.2468 44.0831 25.1394C46.3377 24.5368 48.3335 23.9304 50.0892 23.3278C58.4474 20.4531 61.3735 17.6935 61.1634 16.3348C60.9871 15.1834 58.5149 13.794 52.1112 13.3411C51.6948 13.3143 51.3834 12.9458 51.4134 12.5236C51.4397 12.1014 51.7961 11.7867 52.2125 11.8098C58.7663 12.2703 62.2776 13.7134 62.6453 16.093C63.2117 19.7277 55.9114 22.9555 50.0892 24.9283Z" fill="white"/>
</g>
<defs>
<clipPath id="clip0_21_1903">
<rect width="188" height="42" fill="white"/>
</clipPath>
</defs>
</svg>
