<svg width="54" height="54" viewBox="0 0 54 54" fill="none" xmlns="http://www.w3.org/2000/svg">
<path d="M27 51C40.2548 51 51 40.2548 51 27C51 13.7452 40.2548 3 27 3C13.7452 3 3 13.7452 3 27C3 40.2548 13.7452 51 27 51Z" stroke="white" stroke-width="5.18919" stroke-linecap="square" stroke-linejoin="round"/>
<path d="M27 43C28.6569 43 30.0001 41.6569 30.0001 40C30.0001 38.3431 28.6569 37 27 37C25.3432 37 24 38.3431 24 40C24 41.6569 25.3432 43 27 43Z" fill="white"/>
<path d="M27 31V29C28.3845 29 29.7379 28.5895 30.889 27.8203C32.0402 27.0511 32.9374 25.9579 33.4672 24.6788C33.997 23.3998 34.1356 21.9923 33.8655 20.6344C33.5954 19.2765 32.9288 18.0292 31.9497 17.0503C30.9708 16.0713 29.7235 15.4046 28.3657 15.1345C27.0078 14.8644 25.6003 15.003 24.3213 15.5329C23.0422 16.0627 21.9489 16.9599 21.1798 18.111C20.4106 19.2622 20 20.6156 20 22.0001" stroke="white" stroke-width="5.18919" stroke-linecap="square" stroke-linejoin="round"/>
</svg>
