<?xml version="1.0" encoding="UTF-8"?>
<svg id="Layer_2" data-name="Layer 2" xmlns="http://www.w3.org/2000/svg" viewBox="0 0 719.64 753.76">
  <defs>
    <style>
      .cls-1 {
        fill: #ef6a17;
      }

      .cls-2 {
        fill: #bdc6e5;
      }

      .cls-3 {
        fill: #dcdc03;
      }
    </style>
  </defs>
  <g id="Layer_1-2" data-name="Layer 1">
    <g id="anim-roulette">
      <g>
        <path class="cls-1" d="m360.3,710.91c0,2.71,1.84,8.11,5.44,8.11h-10.88c3.6,0,5.44-5.39,5.44-8.11"/>
        <path d="m365.74,719.52h-10.88v-1c3.19,0,4.94-5.02,4.94-7.61h1c0,2.58,1.74,7.61,4.94,7.61v1Zm-8.21-1h5.53c-1.32-1.07-2.24-2.84-2.77-4.57-.52,1.73-1.45,3.5-2.77,4.57Z"/>
      </g>
      <g id="rot-grup">
        <g>
          <path class="cls-2" d="m450.93,707.16c-46.89,12.3-94.79,15.05-142.37,8.17-45.95-6.64-89.67-21.94-129.94-45.48-40.27-23.53-75.06-54.11-103.41-90.88-29.35-38.07-50.46-81.15-62.77-128.05C.14,404.03-2.61,356.13,4.27,308.56c6.64-45.95,21.94-89.67,45.48-129.94,23.53-40.27,54.11-75.06,90.88-103.41,38.07-29.35,81.15-50.47,128.05-62.77C315.57.14,363.47-2.61,411.04,4.27c45.95,6.64,89.67,21.94,129.94,45.48,40.27,23.53,75.06,54.11,103.41,90.88,29.35,38.07,50.46,81.15,62.77,128.05,12.3,46.89,15.05,94.79,8.17,142.37-6.64,45.95-21.94,89.67-45.48,129.94-23.53,40.27-54.11,75.06-90.88,103.41-38.07,29.35-81.15,50.47-128.05,62.77Z"/>
          <path d="m268.83,13.02C315.64.74,363.46-2,410.96,4.86c45.88,6.63,89.52,21.91,129.72,45.4,40.2,23.49,74.94,54.02,103.23,90.73,29.3,38.01,50.38,81.02,62.66,127.83,12.28,46.82,15.03,94.63,8.16,142.13-6.63,45.88-21.91,89.52-45.4,129.72-23.49,40.2-54.02,74.94-90.73,103.23-38.01,29.3-81.02,50.38-127.83,62.66-46.81,12.28-94.63,15.03-142.13,8.16-45.88-6.63-89.52-21.91-129.72-45.4-40.2-23.49-74.94-54.02-103.23-90.73-29.3-38.01-50.38-81.02-62.66-127.83C.74,403.96-2,356.14,4.86,308.64c6.63-45.88,21.91-89.52,45.4-129.72,23.49-40.2,54.02-74.94,90.73-103.23,38.01-29.3,81.02-50.38,127.83-62.66m-.3-1.16C76.36,62.27-38.55,258.92,11.86,451.08c50.41,192.16,247.06,307.07,439.22,256.66,192.16-50.41,307.07-247.06,256.66-439.22C657.33,76.36,460.68-38.55,268.52,11.86h0Z"/>
        </g>
        <g>
          <line class="cls-1" x1="451.45" y1="707.17" x2="423.36" y2="600.11"/>
          <rect x="436.9" y="598.3" width="1" height="110.68" transform="translate(-151.55 132.39) rotate(-14.7)"/>
        </g>
        <g>
          <line class="cls-1" x1="521.68" y1="680.63" x2="471.95" y2="581.75"/>
          <rect x="496.32" y="575.85" width="1" height="110.68" transform="translate(-230.63 290.53) rotate(-26.7)"/>
        </g>
        <g>
          <line class="cls-1" x1="584.87" y1="640.06" x2="515.66" y2="553.68"/>
          <rect x="549.76" y="541.53" width="1" height="110.68" transform="translate(-252.37 475.1) rotate(-38.7)"/>
        </g>
        <g>
          <line class="cls-1" x1="638.24" y1="587.25" x2="552.59" y2="517.15"/>
          <rect x="594.91" y="496.86" width="1" height="110.68" transform="translate(-209.03 663.19) rotate(-50.7)"/>
        </g>
        <g>
          <line class="cls-1" x1="679.46" y1="524.5" x2="581.1" y2="473.73"/>
          <rect x="629.78" y="443.77" width="1" height="110.68" transform="translate(-102.32 830.27) rotate(-62.7)"/>
        </g>
        <g>
          <line class="cls-1" x1="706.73" y1="454.54" x2="599.97" y2="425.34"/>
          <rect x="652.85" y="384.6" width="1" height="110.68" transform="translate(56.6 954.05) rotate(-74.7)"/>
        </g>
        <g>
          <line class="cls-1" x1="718.87" y1="380.45" x2="608.37" y2="374.07"/>
          <rect x="663.12" y="321.92" width="1" height="110.68" transform="translate(248.78 1018.06) rotate(-86.7)"/>
        </g>
        <g>
          <line class="cls-1" x1="715.33" y1="305.45" x2="605.92" y2="322.19"/>
          <rect x="605.28" y="313.32" width="110.68" height="1" transform="translate(-39.87 103.54) rotate(-8.7)"/>
        </g>
        <g>
          <line class="cls-1" x1="24.34" y1="486.72" x2="127.88" y2="447.6"/>
          <rect x="20.77" y="466.66" width="110.68" height="1" transform="translate(-160.21 57.06) rotate(-20.7)"/>
        </g>
        <g>
          <line class="cls-1" x1="5.2" y1="414.21" x2="114.61" y2="397.47"/>
          <rect x="4.56" y="405.34" width="110.68" height="1" transform="translate(-60.7 13.73) rotate(-8.7)"/>
        </g>
        <g>
          <line class="cls-1" x1="1.55" y1="339.31" x2="112.05" y2="345.68"/>
          <rect x="56.3" y="287.16" width="1" height="110.68" transform="translate(-288.4 379.49) rotate(-86.7)"/>
        </g>
        <g>
          <line class="cls-1" x1="13.56" y1="265.29" x2="120.32" y2="294.49"/>
          <rect x="66.44" y="224.55" width="1" height="110.68" transform="translate(-220.69 270.6) rotate(-74.7)"/>
        </g>
        <g>
          <line class="cls-1" x1="40.69" y1="195.38" x2="139.05" y2="246.14"/>
          <rect x="89.37" y="165.42" width="1" height="110.68" transform="translate(-147.52 199.37) rotate(-62.7)"/>
        </g>
        <g>
          <line class="cls-1" x1="81.77" y1="132.64" x2="167.42" y2="202.74"/>
          <rect x="124.1" y="112.35" width="1" height="110.68" transform="translate(-84.09 157.89) rotate(-50.7)"/>
        </g>
        <g>
          <line class="cls-1" x1="134.99" y1="79.81" x2="204.2" y2="166.19"/>
          <rect x="169.09" y="67.66" width="1" height="110.68" transform="translate(-39.67 133.04) rotate(-38.7)"/>
        </g>
        <g>
          <line class="cls-1" x1="198.04" y1="39.2" x2="247.77" y2="138.08"/>
          <rect x="222.4" y="33.3" width="1" height="110.68" transform="translate(-16.06 109.61) rotate(-26.7)"/>
        </g>
        <g>
          <line class="cls-1" x1="268.15" y1="12.59" x2="296.23" y2="119.65"/>
          <rect x="281.69" y="10.77" width="1" height="110.68" transform="translate(-7.54 73.77) rotate(-14.7)"/>
        </g>
        <g>
          <line class="cls-1" x1="342.26" y1="1.13" x2="347.47" y2="111.69"/>
          <rect x="344.36" y="1.07" width="1" height="110.68" transform="translate(-2.27 16.31) rotate(-2.7)"/>
        </g>
        <g>
          <line class="cls-1" x1="417.13" y1="5.33" x2="399.24" y2="114.56"/>
          <rect x="352.84" y="59.45" width="110.68" height="1" transform="translate(283.06 453.08) rotate(-80.7)"/>
        </g>
        <g>
          <line class="cls-1" x1="489.49" y1="25.01" x2="449.29" y2="128.13"/>
          <rect x="414.05" y="76.07" width="110.68" height="1" transform="translate(227.54 486.08) rotate(-68.7)"/>
        </g>
        <g>
          <line class="cls-1" x1="556.18" y1="59.3" x2="495.41" y2="151.81"/>
          <rect x="470.46" y="105.06" width="110.68" height="1" transform="translate(148.9 487.07) rotate(-56.7)"/>
        </g>
        <g>
          <line class="cls-1" x1="614.28" y1="106.71" x2="535.61" y2="184.57"/>
          <rect x="519.61" y="145.14" width="110.68" height="1" transform="translate(63.83 446.53) rotate(-44.7)"/>
        </g>
        <g>
          <line class="cls-1" x1="661.26" y1="165.17" x2="568.12" y2="224.96"/>
          <rect x="559.35" y="194.56" width="110.68" height="1" transform="translate(-7.96 363) rotate(-32.7)"/>
        </g>
        <g>
          <line class="cls-1" x1="695.06" y1="232.11" x2="591.52" y2="271.23"/>
          <rect x="587.95" y="251.17" width="110.68" height="1" transform="translate(-47.43 243.63) rotate(-20.7)"/>
        </g>
        <g>
          <line class="cls-1" x1="58.08" y1="553.8" x2="151.22" y2="494"/>
          <rect x="49.31" y="523.4" width="110.68" height="1" transform="translate(-266.28 139.4) rotate(-32.67)"/>
        </g>
        <g>
          <line class="cls-1" x1="105.02" y1="612.39" x2="183.69" y2="534.54"/>
          <rect x="89.02" y="572.97" width="110.68" height="1" transform="translate(-361.75 267.59) rotate(-44.72)"/>
        </g>
        <g>
          <line class="cls-1" x1="163.12" y1="659.95" x2="223.89" y2="567.44"/>
          <rect x="138.17" y="613.2" width="110.68" height="1" transform="translate(-425.75 438.81) rotate(-56.73)"/>
        </g>
        <g>
          <line class="cls-1" x1="229.84" y1="694.39" x2="270.05" y2="591.27"/>
          <rect x="194.61" y="642.33" width="110.68" height="1" transform="translate(-439.76 641.96) rotate(-68.68)"/>
        </g>
        <g>
          <line class="cls-1" x1="302.27" y1="714.2" x2="320.15" y2="604.97"/>
          <rect x="255.87" y="659.09" width="110.68" height="1" transform="translate(-389.95 860.29) rotate(-80.71)"/>
        </g>
        <g>
          <line class="cls-1" x1="377.23" y1="718.52" x2="372.01" y2="607.96"/>
          <rect x="374.12" y="607.9" width="1" height="110.68" transform="translate(-31.43 18.76) rotate(-2.75)"/>
        </g>
        <g>
          <circle class="cls-3" cx="474.44" cy="661.8" r="21"/>
          <path d="m479.85,682.61c-4.74,1.24-9.73.83-14.26-1.21-5.23-2.36-9.23-6.62-11.26-12-2.03-5.37-1.85-11.21.52-16.45s6.62-9.23,12-11.26c5.37-2.04,11.21-1.85,16.45.52,5.23,2.36,9.23,6.62,11.26,12h0c2.03,5.37,1.85,11.21-.52,16.45s-6.62,9.23-12,11.26c-.72.27-1.45.5-2.18.7Zm-10.58-40.65c-.7.18-1.39.41-2.08.66-5.12,1.94-9.18,5.75-11.44,10.74-2.25,4.99-2.43,10.56-.49,15.68,1.94,5.12,5.75,9.18,10.74,11.44s10.56,2.43,15.68.49c10.57-4,15.92-15.85,11.93-26.42h0c-1.94-5.12-5.75-9.18-10.74-11.44-4.32-1.95-9.08-2.34-13.6-1.16Z"/>
        </g>
        <g>
          <circle class="cls-3" cx="534.74" cy="631.47" r="21"/>
          <path d="m540.17,652.29c-3.24.85-6.65.93-10.02.19-5.61-1.22-10.41-4.56-13.51-9.39-3.1-4.83-4.14-10.58-2.91-16.19,1.22-5.61,4.56-10.41,9.39-13.51,4.83-3.1,10.58-4.14,16.19-2.91,5.61,1.22,10.41,4.56,13.51,9.39,6.4,9.98,3.5,23.3-6.48,29.71-1.93,1.24-4.02,2.15-6.18,2.72Zm-10.62-40.66c-2.06.54-4.05,1.41-5.89,2.59-4.61,2.96-7.79,7.53-8.95,12.88s-.18,10.83,2.78,15.44c2.96,4.61,7.53,7.79,12.88,8.95,5.35,1.17,10.83.18,15.44-2.78,4.61-2.96,7.79-7.53,8.95-12.88,1.17-5.35.18-10.83-2.78-15.44-2.96-4.61-7.53-7.79-12.88-8.95-3.21-.7-6.46-.62-9.55.19Z"/>
        </g>
        <g>
          <circle class="cls-3" cx="587.42" cy="589.27" r="21"/>
          <path d="m592.91,610.05c-7.19,1.89-15.18,0-20.77-5.66-4.04-4.08-6.25-9.49-6.22-15.24.03-5.74,2.29-11.13,6.38-15.17,8.43-8.34,22.07-8.27,30.41.16,4.04,4.08,6.25,9.49,6.22,15.24-.03,5.74-2.29,11.13-6.38,15.17-2.77,2.74-6.11,4.58-9.63,5.5Zm-10.72-40.6c-3.36.88-6.54,2.63-9.19,5.24-3.89,3.85-6.05,8.99-6.08,14.46-.03,5.48,2.08,10.63,5.93,14.53,7.95,8.03,20.96,8.1,28.99.15,3.89-3.85,6.05-8.99,6.08-14.46.03-5.48-2.08-10.63-5.93-14.53h0c-5.34-5.39-12.95-7.2-19.81-5.4Z"/>
        </g>
        <g>
          <circle class="cls-1" cx="630.17" cy="537.04" r="21"/>
          <path d="m635.65,557.83c-.37.1-.74.19-1.12.26-5.62,1.16-11.36.07-16.16-3.08s-8.08-7.99-9.25-13.61c-1.16-5.62-.07-11.36,3.08-16.16,3.15-4.8,7.99-8.09,13.61-9.25,5.62-1.16,11.36-.07,16.16,3.08s8.08,7.99,9.25,13.61c1.16,5.62.07,11.36-3.08,16.16-2.94,4.48-7.34,7.64-12.49,8.99Zm-10.71-40.61c-4.9,1.29-9.1,4.3-11.91,8.57-3.01,4.58-4.05,10.05-2.94,15.41s4.24,9.97,8.82,12.98c4.58,3.01,10.05,4.05,15.41,2.94,5.37-1.12,9.97-4.24,12.98-8.82,3.01-4.58,4.05-10.05,2.94-15.41s-4.24-9.97-8.82-12.98h0c-4.58-3.01-10.05-4.05-15.41-2.94-.36.08-.72.16-1.07.25Z"/>
        </g>
        <g>
          <circle class="cls-3" cx="661.13" cy="477.06" r="21"/>
          <path d="m666.54,497.87c-4.36,1.14-8.95.89-13.22-.78-5.35-2.09-9.57-6.13-11.88-11.39-2.31-5.26-2.43-11.1-.34-16.45,2.09-5.35,6.13-9.57,11.39-11.88,5.26-2.31,11.1-2.43,16.45-.34h0c5.35,2.09,9.57,6.13,11.88,11.39,2.31,5.26,2.43,11.1.34,16.45-2.09,5.35-6.13,9.57-11.39,11.88-1.06.46-2.13.84-3.23,1.13Zm-10.57-40.66c-1.04.27-2.07.63-3.08,1.07-5.01,2.2-8.87,6.22-10.86,11.32-1.99,5.1-1.87,10.67.33,15.69,2.2,5.01,6.22,8.87,11.32,10.86,5.1,1.99,10.67,1.87,15.69-.33,5.01-2.2,8.87-6.22,10.86-11.32,1.99-5.1,1.87-10.67-.33-15.69-2.2-5.01-6.22-8.87-11.32-10.86h0c-4.08-1.59-8.46-1.83-12.61-.75Z"/>
        </g>
        <g>
          <circle class="cls-3" cx="678.94" cy="411.95" r="21"/>
          <path d="m684.37,432.75c-2.82.74-5.84.91-8.9.41-11.7-1.92-19.66-12.99-17.74-24.69,1.92-11.7,12.99-19.66,24.69-17.74,5.67.93,10.63,4.01,13.98,8.67,3.35,4.66,4.69,10.35,3.76,16.02-1.41,8.64-7.83,15.24-15.79,17.33Zm-10.6-40.64c-7.6,1.99-13.71,8.29-15.06,16.52-1.83,11.16,5.76,21.72,16.92,23.54,11.16,1.83,21.72-5.76,23.54-16.92.88-5.4-.39-10.83-3.58-15.28-3.2-4.45-7.93-7.38-13.33-8.27h0c-2.92-.48-5.8-.31-8.49.39Z"/>
        </g>
        <g>
          <circle class="cls-1" cx="682.83" cy="344.56" r="21"/>
          <path d="m688.33,365.35c-1.45.38-2.95.61-4.49.68-11.84.56-21.93-8.62-22.49-20.46-.56-11.84,8.62-21.93,20.46-22.49,5.74-.27,11.23,1.71,15.48,5.57,4.25,3.87,6.74,9.15,7.01,14.89.27,5.74-1.71,11.24-5.57,15.48-2.83,3.11-6.43,5.28-10.4,6.32Zm-10.71-40.62c-9.16,2.4-15.73,10.97-15.27,20.79.53,11.29,10.15,20.04,21.44,19.51,5.47-.26,10.51-2.63,14.2-6.68,3.69-4.05,5.57-9.29,5.31-14.76-.26-5.47-2.63-10.51-6.68-14.2-4.05-3.69-9.29-5.57-14.76-5.31h0c-1.46.07-2.88.29-4.24.65Z"/>
        </g>
        <g>
          <circle class="cls-3" cx="71.86" cy="504.84" r="21"/>
          <path d="m77.28,525.66c-3.98,1.04-8.17.92-12.17-.4-5.45-1.8-9.88-5.62-12.46-10.75-5.33-10.59-1.04-23.54,9.55-28.87,10.59-5.32,23.54-1.04,28.87,9.55,2.58,5.13,3.01,10.96,1.21,16.41-1.8,5.45-5.62,9.88-10.75,12.46-1.37.69-2.79,1.23-4.25,1.61Zm-10.61-40.65c-1.36.36-2.71.86-4.01,1.52-10.1,5.08-14.18,17.43-9.1,27.53,2.46,4.89,6.68,8.53,11.88,10.25,5.2,1.72,10.75,1.31,15.65-1.15h0c4.89-2.46,8.53-6.68,10.25-11.88,1.72-5.2,1.31-10.76-1.15-15.65-4.42-8.79-14.35-13.02-23.51-10.62Z"/>
        </g>
        <g>
          <circle class="cls-3" cx="47.91" cy="441.82" r="21"/>
          <path d="m48.88,463.31c-4.11.19-8.18-.8-11.82-2.92-4.96-2.9-8.49-7.55-9.95-13.11-3.01-11.47,3.87-23.24,15.34-26.25,11.47-3,23.24,3.87,26.25,15.34,1.46,5.55.66,11.34-2.23,16.3-2.9,4.96-7.55,8.49-13.11,9.95-1.49.39-2.99.62-4.49.69Zm-1.93-41.97c-1.41.07-2.83.28-4.24.65-10.93,2.87-17.5,14.1-14.63,25.03,1.39,5.3,4.76,9.73,9.49,12.5,4.73,2.76,10.25,3.52,15.54,2.13h0c5.3-1.39,9.73-4.76,12.5-9.49,2.76-4.73,3.52-10.25,2.13-15.55-2.5-9.52-11.33-15.72-20.79-15.28Z"/>
        </g>
        <g>
          <circle class="cls-3" cx="37.59" cy="375.19" r="21"/>
          <path d="m34.08,396.41c-4.06-.66-7.84-2.48-10.95-5.32-4.25-3.87-6.74-9.15-7.01-14.89-.56-11.84,8.62-21.93,20.46-22.49,11.84-.55,21.93,8.62,22.49,20.46.27,5.74-1.71,11.23-5.57,15.48-3.87,4.25-9.15,6.74-14.89,7.01-1.53.07-3.05-.02-4.53-.26Zm6.84-41.45c-1.39-.23-2.82-.31-4.28-.25-11.29.53-20.04,10.15-19.51,21.44.26,5.47,2.63,10.51,6.68,14.2,4.05,3.68,9.29,5.57,14.76,5.31h0c5.47-.26,10.51-2.63,14.2-6.68,3.69-4.05,5.57-9.29,5.31-14.76-.46-9.83-7.81-17.74-17.16-19.27Z"/>
        </g>
        <g>
          <circle class="cls-3" cx="41.35" cy="307.88" r="21"/>
          <path d="m33.5,327.9c-3.83-1.49-7.15-4.06-9.61-7.48-3.35-4.66-4.69-10.35-3.76-16.02,1.92-11.7,12.99-19.66,24.69-17.74,11.7,1.92,19.66,12.99,17.74,24.69-.93,5.67-4.01,10.63-8.67,13.99-4.66,3.35-10.35,4.69-16.02,3.76-1.52-.25-2.98-.65-4.38-1.19Zm15.31-39.12c-1.31-.51-2.69-.89-4.14-1.13-11.15-1.83-21.72,5.76-23.54,16.92-.88,5.4.39,10.83,3.58,15.28,3.2,4.45,7.93,7.38,13.34,8.27h0c5.4.88,10.83-.39,15.28-3.58,4.45-3.19,7.38-7.93,8.27-13.34,1.59-9.71-3.96-18.97-12.78-22.41Z"/>
        </g>
        <g>
          <circle class="cls-3" cx="59.02" cy="242.82" r="21"/>
          <path d="m47.18,260.77c-3.44-2.26-6.15-5.46-7.84-9.31-2.31-5.26-2.43-11.1-.34-16.45,4.31-11.04,16.8-16.53,27.84-12.22,11.04,4.31,16.53,16.8,12.22,27.84-2.09,5.35-6.13,9.57-11.39,11.88-5.26,2.31-11.1,2.43-16.45.34-1.43-.56-2.78-1.26-4.04-2.08Zm23.1-35.09c-1.18-.77-2.45-1.44-3.81-1.97-10.53-4.11-22.44,1.12-26.55,11.65-1.99,5.1-1.87,10.67.33,15.69,2.2,5.01,6.22,8.87,11.32,10.86h0c5.1,1.99,10.67,1.87,15.69-.33,5.01-2.2,8.87-6.22,10.86-11.32,3.57-9.17.07-19.38-7.84-24.58Z"/>
        </g>
        <g>
          <circle class="cls-3" cx="89.84" cy="182.85" r="21"/>
          <path d="m74.52,197.95c-2.89-2.92-4.88-6.62-5.74-10.74-1.16-5.62-.07-11.36,3.08-16.16,6.51-9.91,19.87-12.67,29.77-6.17,9.9,6.51,12.67,19.87,6.17,29.77-3.15,4.8-7.99,8.08-13.61,9.25-5.62,1.16-11.36.07-16.16-3.08-1.28-.84-2.46-1.81-3.51-2.87Zm29.89-29.51c-.99-1-2.1-1.91-3.32-2.72-9.45-6.21-22.18-3.57-28.39,5.88-3.01,4.58-4.05,10.05-2.94,15.41,1.11,5.36,4.24,9.97,8.82,12.98h0c4.58,3.01,10.05,4.05,15.41,2.94,5.36-1.11,9.97-4.24,12.98-8.82,5.4-8.22,4.1-18.94-2.56-25.67Z"/>
        </g>
        <g>
          <circle class="cls-3" cx="132.44" cy="130.6" r="21"/>
          <path d="m114.32,142.19c-2.22-3.46-3.4-7.49-3.38-11.69.03-5.74,2.3-11.13,6.38-15.17,8.43-8.34,22.07-8.27,30.4.16,8.33,8.43,8.27,22.07-.16,30.41-4.08,4.04-9.49,6.25-15.24,6.22-5.74-.03-11.13-2.3-15.17-6.38-1.08-1.09-2.03-2.28-2.84-3.54Zm35.38-22.65c-.76-1.19-1.65-2.31-2.68-3.35-7.95-8.03-20.96-8.1-28.99-.15-3.89,3.85-6.05,8.99-6.08,14.46-.03,5.47,2.08,10.63,5.93,14.53h0c3.85,3.89,8.99,6.05,14.46,6.08,5.48.03,10.63-2.08,14.53-5.93,6.99-6.92,7.95-17.67,2.84-25.64Z"/>
        </g>
        <g>
          <circle class="cls-1" cx="184.98" cy="88.35" r="21"/>
          <path d="m164.85,95.91c-1.45-3.85-1.77-8.03-.87-12.14,1.22-5.61,4.56-10.41,9.39-13.51,9.98-6.4,23.3-3.5,29.71,6.48,6.4,9.98,3.5,23.3-6.48,29.71-4.83,3.1-10.58,4.14-16.2,2.91-5.61-1.22-10.41-4.56-13.51-9.39-.83-1.29-1.51-2.65-2.04-4.05Zm39.31-14.8c-.5-1.32-1.14-2.6-1.93-3.83-6.11-9.51-18.81-12.28-28.33-6.18-4.61,2.96-7.79,7.53-8.95,12.88-1.17,5.35-.18,10.83,2.78,15.44h0c2.96,4.61,7.53,7.79,12.88,8.95,5.35,1.17,10.83.18,15.44-2.78,8.28-5.32,11.45-15.64,8.1-24.49Z"/>
        </g>
        <g>
          <circle class="cls-3" cx="245.15" cy="57.95" r="21"/>
          <path d="m223.89,61.16c-.62-4.06-.06-8.22,1.67-12.06,2.36-5.23,6.62-9.23,12-11.26,11.09-4.19,23.52,1.42,27.71,12.51,4.18,11.09-1.42,23.52-12.51,27.71-5.37,2.03-11.21,1.85-16.45-.52-5.23-2.36-9.23-6.62-11.26-12-.54-1.44-.93-2.91-1.15-4.39Zm41.53-6.31c-.21-1.39-.57-2.78-1.09-4.15-3.99-10.57-15.85-15.93-26.42-11.93-5.12,1.94-9.18,5.75-11.44,10.74-2.25,4.99-2.43,10.56-.49,15.68h0c1.94,5.12,5.75,9.18,10.74,11.44,4.99,2.25,10.56,2.43,15.68.49,9.2-3.48,14.45-12.91,13.02-22.27Z"/>
        </g>
        <g>
          <circle class="cls-3" cx="310.34" cy="40.72" r="21"/>
          <path d="m288.87,39.44c.24-4.1,1.65-8.06,4.14-11.45,3.4-4.63,8.4-7.66,14.08-8.52,11.72-1.79,22.71,6.28,24.5,18,1.79,11.72-6.28,22.71-18,24.5-5.68.87-11.35-.53-15.98-3.93-4.63-3.4-7.66-8.4-8.52-14.08-.23-1.52-.3-3.04-.22-4.53Zm41.94,2.47c.08-1.41.02-2.84-.2-4.29-1.71-11.17-12.19-18.87-23.37-17.16-5.41.83-10.18,3.71-13.42,8.13-3.24,4.41-4.57,9.82-3.74,15.24h0c.83,5.41,3.71,10.18,8.13,13.42,4.41,3.24,9.82,4.57,15.24,3.74,9.73-1.49,16.82-9.63,17.37-19.08Z"/>
        </g>
        <g>
          <circle class="cls-3" cx="377.67" cy="37.42" r="21"/>
          <path d="m356.94,31.71c1.08-3.96,3.29-7.54,6.43-10.34,4.29-3.82,9.81-5.74,15.54-5.41,11.83.68,20.91,10.87,20.23,22.7-.69,11.83-10.87,20.91-22.7,20.23-5.73-.33-10.99-2.87-14.81-7.16-3.82-4.29-5.74-9.81-5.41-15.54.09-1.53.33-3.03.73-4.48Zm40.51,11.13c.37-1.36.61-2.77.69-4.23.65-11.28-8-20.99-19.29-21.65-5.47-.32-10.73,1.52-14.82,5.16-4.09,3.64-6.51,8.66-6.83,14.13h0c-.32,5.47,1.52,10.73,5.16,14.82,3.64,4.09,8.66,6.51,14.13,6.83,9.82.57,18.46-5.92,20.95-15.05Z"/>
        </g>
        <g>
          <circle class="cls-1" cx="444.23" cy="48.2" r="21"/>
          <path d="m425.13,38.29c1.89-3.65,4.78-6.69,8.44-8.77,4.99-2.85,10.79-3.58,16.33-2.06,11.43,3.13,18.19,14.98,15.06,26.41-3.13,11.43-14.98,18.19-26.41,15.06-5.54-1.52-10.16-5.1-13-10.09-2.85-4.99-3.58-10.79-2.06-16.33.41-1.48.96-2.9,1.65-4.23Zm37.31,19.31c.65-1.25,1.17-2.59,1.56-4,2.98-10.9-3.46-22.2-14.36-25.18-5.28-1.44-10.81-.75-15.57,1.97-4.76,2.71-8.17,7.12-9.62,12.4h0c-1.44,5.28-.75,10.81,1.97,15.57,2.71,4.76,7.12,8.17,12.4,9.62,9.49,2.6,19.28-1.95,23.63-10.37Z"/>
        </g>
        <g>
          <circle class="cls-3" cx="507.08" cy="72.57" r="21"/>
          <path d="m490.47,58.92c2.6-3.18,6.07-5.55,10.08-6.83,5.47-1.75,11.29-1.26,16.4,1.38,10.53,5.44,14.68,18.43,9.24,28.97-5.44,10.53-18.43,14.68-28.97,9.24-5.1-2.63-8.87-7.1-10.62-12.57-1.75-5.47-1.26-11.29,1.38-16.4.7-1.36,1.54-2.63,2.49-3.8Zm32.48,26.65c.89-1.09,1.68-2.29,2.35-3.59,5.18-10.04,1.23-22.43-8.81-27.62-4.87-2.51-10.42-2.98-15.63-1.31-5.22,1.66-9.47,5.26-11.98,10.13h0c-2.51,4.87-2.98,10.42-1.31,15.63,1.66,5.22,5.26,9.47,10.13,11.98,8.74,4.51,19.27,2.1,25.26-5.23Z"/>
        </g>
        <g>
          <circle class="cls-3" cx="563.5" cy="109.48" r="21"/>
          <path d="m550.09,92.67c3.21-2.57,7.09-4.16,11.28-4.58,5.71-.57,11.31,1.12,15.75,4.76,9.17,7.51,10.53,21.08,3.02,30.26-7.51,9.17-21.08,10.53-30.26,3.02-4.44-3.64-7.21-8.79-7.78-14.5-.57-5.71,1.12-11.31,4.76-15.75.97-1.19,2.05-2.26,3.22-3.2Zm26.23,32.82c1.1-.88,2.12-1.89,3.05-3.02,7.16-8.75,5.87-21.69-2.88-28.85-4.24-3.47-9.57-5.08-15.02-4.54-5.45.54-10.36,3.18-13.83,7.41h0c-3.47,4.24-5.08,9.57-4.54,15.02.54,5.45,3.18,10.36,7.41,13.83,7.61,6.23,18.41,6.06,25.8.14Z"/>
        </g>
        <g>
          <circle class="cls-3" cx="611.01" cy="157.32" r="21"/>
          <path d="m601.39,138.08c3.67-1.85,7.8-2.6,11.98-2.14,5.71.63,10.83,3.45,14.42,7.93,7.41,9.25,5.92,22.81-3.34,30.22-9.25,7.41-22.81,5.92-30.22-3.34-3.59-4.48-5.22-10.09-4.59-15.8.63-5.71,3.45-10.83,7.93-14.42,1.2-.96,2.48-1.78,3.82-2.45Zm18.83,37.55c1.26-.63,2.47-1.4,3.61-2.32,8.82-7.07,10.25-19.99,3.18-28.82-3.42-4.27-8.31-6.96-13.75-7.56-5.44-.6-10.79.95-15.07,4.38h0c-4.27,3.42-6.96,8.31-7.56,13.75-.6,5.44.95,10.79,4.38,15.07,6.15,7.68,16.75,9.75,25.21,5.5Z"/>
        </g>
        <g>
          <circle class="cls-3" cx="647.54" cy="213.99" r="21"/>
          <path d="m642.12,193.17c3.98-1.04,8.17-.92,12.17.4,5.45,1.8,9.88,5.62,12.46,10.75,5.33,10.59,1.04,23.54-9.55,28.87-10.59,5.32-23.54,1.04-28.87-9.55-2.58-5.13-3.01-10.96-1.21-16.41,1.8-5.45,5.62-9.88,10.75-12.46,1.37-.69,2.79-1.23,4.25-1.61Zm10.61,40.65c1.36-.36,2.71-.86,4.01-1.52,10.1-5.08,14.18-17.43,9.1-27.53-2.46-4.89-6.68-8.53-11.88-10.25-5.2-1.72-10.75-1.31-15.65,1.15h0c-4.89,2.46-8.53,6.68-10.25,11.88-1.72,5.2-1.31,10.76,1.15,15.65,4.42,8.79,14.35,13.02,23.51,10.62Z"/>
        </g>
        <g>
          <circle class="cls-3" cx="671.48" cy="277.01" r="21"/>
          <path d="m670.51,255.52c4.11-.19,8.18.8,11.82,2.92,4.96,2.9,8.49,7.55,9.95,13.11,3.01,11.47-3.87,23.24-15.34,26.25-11.47,3-23.24-3.87-26.25-15.34-1.46-5.55-.66-11.34,2.23-16.3,2.9-4.96,7.55-8.49,13.11-9.95,1.49-.39,2.99-.62,4.49-.69Zm1.93,41.97c1.41-.07,2.83-.28,4.24-.65,10.93-2.87,17.5-14.1,14.63-25.03-1.39-5.3-4.76-9.73-9.49-12.5-4.73-2.76-10.25-3.52-15.54-2.13h0c-5.3,1.39-9.73,4.76-12.5,9.49-2.76,4.73-3.52,10.25-2.13,15.55,2.5,9.52,11.33,15.72,20.79,15.28Z"/>
        </g>
        <g>
          <circle class="cls-3" cx="108.33" cy="561.64" r="21"/>
          <path d="m113.81,582.43c-7.97,2.09-16.79-.51-22.27-7.35-3.59-4.48-5.22-10.09-4.59-15.8s3.45-10.83,7.93-14.42c4.48-3.59,10.09-5.22,15.8-4.59,5.71.63,10.83,3.45,14.42,7.93,7.41,9.25,5.92,22.81-3.34,30.22h0c-2.42,1.94-5.13,3.27-7.96,4.01Zm-10.7-40.63c-2.74.72-5.33,2.01-7.61,3.84-4.27,3.42-6.96,8.31-7.56,13.75-.6,5.44.95,10.79,4.38,15.07,7.07,8.82,20,10.25,28.82,3.18h0c8.82-7.07,10.25-19.99,3.18-28.82-3.42-4.27-8.31-6.96-13.75-7.56-2.54-.28-5.06-.09-7.46.54Z"/>
        </g>
        <g>
          <circle class="cls-3" cx="155.8" cy="609.62" r="21"/>
          <path d="m161.29,630.4c-6.44,1.69-13.57.38-19.1-4.14-9.17-7.51-10.53-21.08-3.02-30.26,7.51-9.17,21.08-10.53,30.26-3.02,9.17,7.51,10.53,21.08,3.02,30.26-2.98,3.64-6.92,6.05-11.16,7.16Zm-10.71-40.6c-4.04,1.06-7.79,3.36-10.64,6.83-7.16,8.75-5.87,21.69,2.88,28.85,8.75,7.16,21.69,5.87,28.85-2.88,7.16-8.75,5.87-21.69-2.88-28.85-5.27-4.32-12.07-5.56-18.21-3.95Z"/>
        </g>
        <g>
          <circle class="cls-3" cx="212.22" cy="646.68" r="21"/>
          <path d="m217.65,667.49c-5.14,1.35-10.53.76-15.29-1.7-5.1-2.63-8.88-7.1-10.62-12.57-1.75-5.47-1.26-11.29,1.38-16.4,2.63-5.1,7.1-8.87,12.57-10.62,5.47-1.75,11.29-1.26,16.4,1.38,5.1,2.63,8.88,7.1,10.62,12.57,1.75,5.47,1.26,11.29-1.38,16.4h0c-2.63,5.1-7.1,8.87-12.57,10.62-.37.12-.74.22-1.11.32Zm-10.61-40.64c-.35.09-.7.19-1.06.31-5.22,1.67-9.47,5.26-11.98,10.13-2.51,4.86-2.98,10.42-1.31,15.63,1.66,5.22,5.26,9.47,10.13,11.98s10.42,2.97,15.63,1.31c5.22-1.67,9.47-5.26,11.98-10.13h0c2.51-4.86,2.98-10.42,1.31-15.63s-5.26-9.47-10.13-11.98c-4.54-2.34-9.68-2.91-14.58-1.62Z"/>
        </g>
        <g>
          <circle class="cls-3" cx="275.11" cy="671.2" r="21"/>
          <path d="m280.53,692.02c-3.6.95-7.41.93-11.1-.08-5.54-1.52-10.16-5.1-13-10.09-2.85-4.99-3.58-10.79-2.06-16.33,1.52-5.54,5.1-10.16,10.09-13s10.79-3.58,16.33-2.06c5.54,1.52,10.16,5.1,13,10.09,2.85,4.99,3.58,10.79,2.06,16.33-1.52,5.54-5.1,10.16-10.09,13-1.67.95-3.42,1.66-5.23,2.14Zm-10.6-40.66c-1.72.45-3.4,1.13-4.99,2.04-4.76,2.71-8.17,7.12-9.62,12.4-1.44,5.28-.75,10.81,1.97,15.57,2.71,4.76,7.12,8.17,12.4,9.62,5.28,1.45,10.81.75,15.57-1.97,4.76-2.71,8.17-7.12,9.62-12.4s.75-10.81-1.97-15.57c-2.71-4.76-7.12-8.17-12.4-9.62-3.52-.96-7.15-.97-10.58-.07Z"/>
        </g>
        <g>
          <circle class="cls-1" cx="341.72" cy="682.11" r="21"/>
          <path d="m347.2,702.91c-2.16.57-4.42.8-6.72.66-11.84-.68-20.91-10.87-20.23-22.7.33-5.73,2.87-10.99,7.16-14.82,4.29-3.82,9.81-5.74,15.54-5.41,5.73.33,11,2.87,14.81,7.16,3.82,4.29,5.74,9.81,5.41,15.54-.33,5.73-2.87,11-7.16,14.82-2.57,2.29-5.59,3.9-8.82,4.75Zm-10.71-40.63c-3.09.81-5.96,2.34-8.41,4.53-4.09,3.64-6.51,8.66-6.83,14.13-.32,5.47,1.52,10.73,5.16,14.82,3.64,4.09,8.66,6.51,14.13,6.83,5.47.31,10.73-1.52,14.82-5.16,4.09-3.64,6.51-8.66,6.83-14.13.32-5.47-1.52-10.73-5.16-14.82-3.64-4.09-8.66-6.51-14.13-6.83-2.19-.13-4.35.09-6.41.63Z"/>
        </g>
        <g>
          <circle class="cls-3" cx="409.15" cy="678.93" r="21"/>
          <path d="m414.64,699.72c-.73.19-1.48.35-2.24.46-5.68.87-11.35-.53-15.98-3.92-4.63-3.4-7.66-8.4-8.52-14.08-.87-5.68.53-11.35,3.93-15.98,3.4-4.63,8.4-7.66,14.08-8.52,5.68-.87,11.35.53,15.98,3.92s7.66,8.4,8.52,14.08c.87,5.68-.53,11.35-3.93,15.98-2.94,4.01-7.09,6.81-11.83,8.06Zm-10.74-40.61c-4.52,1.19-8.47,3.86-11.28,7.68-3.24,4.41-4.57,9.82-3.74,15.24.83,5.41,3.71,10.18,8.13,13.42,4.41,3.24,9.82,4.57,15.24,3.74,5.41-.83,10.18-3.71,13.42-8.13,3.24-4.41,4.57-9.83,3.74-15.24h0c-.83-5.41-3.71-10.18-8.13-13.42-4.41-3.24-9.82-4.57-15.24-3.74-.73.11-1.44.26-2.14.44Z"/>
        </g>
        <g>
          <path class="cls-1" d="m518.02,673.35c1.22,2.42,5.29,6.41,8.5,4.8l-9.72,4.89c3.21-1.62,2.43-7.26,1.22-9.68"/>
          <path d="m517.03,683.48l-.45-.89h0c2.85-1.44,2.15-6.71.99-9.01l.89-.45c.54,1.07,1.78,2.64,3.34,3.73,1.18.82,2.91,1.63,4.49.85h0s.45.89.45.89l-9.71,4.88s0,0,0,0Zm2.36-7.42c.31,1.78.28,3.78-.42,5.32l4.92-2.48c-.85-.19-1.74-.6-2.65-1.24-.65-.45-1.28-1.01-1.85-1.61Z"/>
        </g>
        <g>
          <path class="cls-1" d="m579.77,633.71c1.7,2.12,6.5,5.17,9.31,2.93l-8.49,6.8c2.81-2.25.87-7.61-.82-9.73"/>
          <path d="m580.91,643.82l-.63-.78h0c1.38-1.1,1.36-3.02,1.1-4.43-.34-1.88-1.25-3.66-2-4.59l.78-.62c.75.93,2.29,2.21,4.04,2.95,1.32.56,3.19,1,4.56-.1l.63.78s0,0,0,0l-8.48,6.79h0Zm.77-7.74c.31.77.55,1.58.69,2.35.2,1.1.21,2.08.02,2.93l4.28-3.43c-.87,0-1.83-.23-2.85-.66-.72-.31-1.46-.72-2.14-1.19Z"/>
        </g>
        <g>
          <path class="cls-1" d="m631.93,582.09c2.1,1.72,7.44,3.71,9.72.93l-6.89,8.42c2.28-2.78-.73-7.62-2.83-9.34"/>
          <path d="m635.15,591.75l-.77-.63c2.02-2.47-.76-7-2.76-8.64l.63-.77c.93.76,2.7,1.68,4.57,2.05,1.41.27,3.32.31,4.44-1.05h0s.77.63.77.63c0,0,0,0,0,0l-6.89,8.41Zm-.86-7.73c1,1.5,1.79,3.34,1.78,5.03l3.49-4.27c-.85.18-1.83.16-2.93-.05-.77-.15-1.58-.4-2.34-.72Z"/>
        </g>
        <g>
          <path class="cls-1" d="m672.22,520.76c2.41,1.24,8.05,2.08,9.7-1.11l-4.99,9.66c1.65-3.2-2.3-7.31-4.71-8.55"/>
          <path d="m677.37,529.54l-.89-.46h0c.8-1.57,0-3.31-.8-4.49-1.08-1.57-2.63-2.83-3.69-3.38l.46-.89c1.06.55,2.99,1.09,4.89,1.05,1.44-.02,3.32-.38,4.13-1.95h0s.89.45.89.45c0,0,0,0,0,0l-4.99,9.66h0Zm-2.45-7.38c.59.58,1.14,1.21,1.59,1.86.63.92,1.03,1.81,1.21,2.67l2.52-4.88c-.8.35-1.76.54-2.87.56-.79.01-1.63-.06-2.44-.21Z"/>
        </g>
        <g>
          <path class="cls-1" d="m698.88,452.39c2.62.72,8.3.36,9.25-3.11l-2.87,10.49c.95-3.47-3.77-6.67-6.38-7.38"/>
          <path d="m705.74,459.91l-.96-.26c.47-1.7-.68-3.24-1.72-4.23-1.38-1.32-3.16-2.22-4.32-2.54l.26-.96c1.15.32,3.15.44,5.01.01,1.4-.33,3.17-1.07,3.63-2.77l.96.26s0,0,0,0l-2.87,10.49h0Zm-3.93-6.71c.7.44,1.37.95,1.94,1.49.81.77,1.39,1.56,1.74,2.36l1.45-5.29c-.71.51-1.62.88-2.7,1.14-.77.18-1.6.28-2.43.3Z"/>
        </g>
        <g>
          <path class="cls-1" d="m710.73,379.98c2.71.16,8.2-1.37,8.4-4.96l-.63,10.86c.21-3.59-5.07-5.74-7.78-5.9"/>
          <path d="m719.01,385.9l-1-.06c.1-1.76-1.34-3.03-2.56-3.78-1.62-1-3.55-1.52-4.75-1.59l.06-1c2.58.15,7.69-1.3,7.88-4.49l1,.06-.63,10.86h0Zm-5.24-5.75c.78.28,1.54.65,2.21,1.06.95.58,1.68,1.24,2.19,1.94l.32-5.5c-1.14,1.25-2.95,2.09-4.72,2.5Z"/>
        </g>
        <g>
          <path class="cls-1" d="m707.28,306.68c2.68-.41,7.73-3.05,7.19-6.6l1.65,10.75c-.54-3.56-6.15-4.56-8.83-4.15"/>
          <path d="m716.61,310.75l-.99.15c-.27-1.74-1.94-2.68-3.29-3.17-1.8-.64-3.79-.74-4.97-.56l-.15-.99c2.55-.39,7.25-2.87,6.77-6.03l.99-.15,1.64,10.75Zm-6.33-4.53c.82.12,1.64.31,2.38.58,1.05.37,1.9.86,2.55,1.45l-.83-5.45c-.86,1.46-2.47,2.65-4.1,3.42Z"/>
        </g>
        <g>
          <path class="cls-1" d="m31.96,483.84c-2.54.96-6.93,4.59-5.66,7.95l-3.84-10.17c1.27,3.37,6.97,3.18,9.5,2.22"/>
          <path d="m25.83,491.97l-3.84-10.17.93-.35c1.13,2.99,6.45,2.85,8.86,1.93l.35.94c-1.12.42-2.81,1.49-4.06,2.93-.94,1.09-1.93,2.73-1.31,4.37l-.93.35Zm-1.96-8.03l1.95,5.15c.27-.83.78-1.67,1.51-2.51.52-.59,1.14-1.17,1.79-1.67-1.8.12-3.79-.12-5.25-.97Z"/>
        </g>
        <g>
          <path class="cls-1" d="m13.25,412.98c-2.68.41-7.73,3.05-7.19,6.6l-1.65-10.75c.54,3.56,6.15,4.56,8.83,4.15"/>
          <path d="m5.57,419.66l-1.64-10.75.99-.15c.48,3.16,5.71,4.13,8.26,3.73l.15.99c-1.18.18-3.06.88-4.58,2.03-1.15.87-2.46,2.26-2.19,4.01l-.99.15Zm-.25-8.26l.83,5.45c.44-.75,1.11-1.47,2-2.14.63-.47,1.35-.91,2.1-1.26-1.78-.26-3.68-.9-4.93-2.04Z"/>
        </g>
        <g>
          <path class="cls-1" d="m9.69,339.78c-2.71-.16-8.2,1.37-8.4,4.96l.63-10.86c-.21,3.59,5.07,5.74,7.78,5.9"/>
          <path d="m.78,344.71l.63-10.86,1,.06c-.18,3.19,4.73,5.22,7.31,5.37l-.06,1c-1.19-.07-3.17.22-4.9,1.03-1.3.61-2.88,1.7-2.98,3.46l-1-.06Zm1.47-8.13l-.32,5.5c.59-.64,1.39-1.21,2.4-1.68.71-.33,1.51-.61,2.32-.8-1.69-.62-3.41-1.65-4.4-3.02Z"/>
        </g>
        <g>
          <path class="cls-1" d="m21.42,267.44c-2.62-.72-8.3-.36-9.25,3.11l2.87-10.49c-.95,3.47,3.77,6.67,6.38,7.38"/>
          <path d="m11.68,270.41l2.87-10.49.96.26c-.84,3.08,3.54,6.09,6.03,6.77l-.26.96c-1.15-.32-3.15-.44-5.01-.01-1.4.32-3.17,1.07-3.63,2.77l-.96-.26Zm3.13-7.65l-1.45,5.32c.71-.51,1.61-.89,2.7-1.14.77-.18,1.61-.28,2.43-.3-1.53-.96-2.99-2.32-3.68-3.87Z"/>
        </g>
        <g>
          <path class="cls-1" d="m47.93,199.12c-2.41-1.24-8.05-2.08-9.7,1.11l4.99-9.66c-1.65,3.2,2.3,7.31,4.71,8.55"/>
          <path d="m37.79,200l4.99-9.66.89.46c-1.47,2.84,2.2,6.7,4.49,7.88l-.46.89c-1.06-.55-2.99-1.09-4.89-1.05-1.44.03-3.32.39-4.13,1.95l-.89-.46Zm4.65-6.83l-2.53,4.9c.8-.35,1.76-.54,2.87-.56.79-.01,1.63.06,2.44.21-1.29-1.25-2.44-2.89-2.79-4.55Z"/>
        </g>
        <g>
          <path class="cls-1" d="m88.07,137.8c-2.1-1.72-7.44-3.71-9.72-.93l6.89-8.42c-2.28,2.78.73,7.62,2.83,9.34"/>
          <path d="m77.97,136.56l6.89-8.42.77.63c-2.02,2.47.76,7.01,2.76,8.64l-.63.77c-.93-.76-2.7-1.68-4.57-2.05-1.41-.27-3.33-.31-4.44,1.05l-.77-.63Zm5.97-5.72l-3.49,4.26c.85-.18,1.83-.16,2.93.05.77.15,1.58.4,2.35.72-1-1.5-1.79-3.34-1.78-5.03Z"/>
        </g>
        <g>
          <path class="cls-1" d="m140.09,86.17c-1.7-2.12-6.5-5.17-9.31-2.93l8.49-6.8c-2.81,2.25-.87,7.61.82,9.73"/>
          <path d="m130.46,82.85l8.49-6.8.63.78c-2.49,2-.71,7.01.9,9.02l-.78.63c-.75-.93-2.29-2.21-4.04-2.95-1.32-.56-3.19-1-4.56.1l-.63-.78Zm7.03-4.35l-4.3,3.45c.87,0,1.83.23,2.85.66.73.31,1.46.72,2.14,1.19-.67-1.67-1.06-3.64-.7-5.29Z"/>
        </g>
        <g>
          <path class="cls-1" d="m201.7,46.48c-1.22-2.42-5.29-6.41-8.5-4.8l9.72-4.89c-3.21,1.62-2.43,7.26-1.22,9.68"/>
          <path d="m192.97,41.23l9.72-4.89.45.89c-2.85,1.44-2.16,6.71-.99,9.01l-.89.45c-.54-1.07-1.78-2.64-3.34-3.73-1.18-.82-2.91-1.64-4.49-.85l-.45-.89Zm7.78-2.79l-4.92,2.48c.85.19,1.74.6,2.65,1.24.65.45,1.28,1.01,1.85,1.61-.31-1.78-.28-3.78.42-5.32Z"/>
        </g>
        <g>
          <path class="cls-1" d="m270.21,20.47c-.69-2.62-3.84-7.37-7.32-6.46l10.52-2.76c-3.48.91-3.89,6.6-3.2,9.22"/>
          <path d="m262.77,13.52l10.52-2.76.25.97c-3.09.81-3.51,6.11-2.85,8.61l-.97.25c-.3-1.16-1.19-2.95-2.49-4.34-.98-1.05-2.51-2.21-4.21-1.76l-.25-.97Zm8.19-1.11l-5.33,1.4c.79.36,1.58.95,2.34,1.76.54.58,1.04,1.25,1.48,1.96.07-1.8.51-3.75,1.52-5.12Z"/>
        </g>
        <g>
          <path class="cls-1" d="m342.64,9.27c-.13-2.71-2.22-8.01-5.81-7.84l10.86-.51c-3.59.17-5.18,5.64-5.05,8.35"/>
          <path d="m336.8.93l10.86-.51.05,1c-3.19.15-4.7,5.25-4.57,7.83l-1,.05c-.06-1.19-.55-3.13-1.54-4.76-.74-1.23-1.99-2.68-3.75-2.6l-.05-1Zm8.24.61l-5.5.26c.7.52,1.35,1.26,1.92,2.21.41.68.76,1.44,1.04,2.22.44-1.75,1.28-3.56,2.55-4.69Z"/>
        </g>
        <g>
          <path class="cls-1" d="m415.81,13.37c.44-2.68-.51-8.3-4.06-8.88l10.73,1.76c-3.55-.58-6.24,4.44-6.68,7.12"/>
          <path d="m411.84,4l10.73,1.76-.16.99c-3.15-.52-5.69,4.16-6.1,6.71l-.99-.16c.19-1.18.11-3.18-.51-4.98-.47-1.36-1.39-3.04-3.13-3.32l.16-.99Zm7.94,2.31l-5.44-.89c.58.65,1.06,1.51,1.42,2.56.26.75.44,1.57.55,2.39.79-1.62,2-3.22,3.47-4.06Z"/>
        </g>
        <g>
          <path class="cls-1" d="m486.53,32.6c.98-2.53,1.23-8.22-2.12-9.53l10.13,3.95c-3.35-1.31-7.03,3.05-8.01,5.58"/>
          <path d="m484.59,22.61l10.13,3.95-.36.93c-2.98-1.16-6.43,2.89-7.36,5.29l-.93-.36c.43-1.11.77-3.09.53-4.98-.18-1.43-.73-3.26-2.37-3.9l.36-.93Zm7.28,3.91l-5.13-2c.43.76.72,1.7.85,2.8.1.78.11,1.63.04,2.45,1.11-1.42,2.62-2.73,4.24-3.25Z"/>
        </g>
        <g>
          <path class="cls-1" d="m551.71,66.11c1.49-2.27,2.91-7.78-.1-9.76l9.09,5.97c-3.01-1.98-7.51,1.52-8.99,3.79"/>
          <path d="m551.89,55.93l9.09,5.97-.55.84c-2.67-1.75-6.89,1.49-8.3,3.65l-.84-.55c.66-1,1.39-2.86,1.56-4.76.12-1.43-.04-3.34-1.51-4.31l.55-.84Zm6.31,5.34l-4.61-3.03c.26.83.35,1.81.25,2.92-.07.79-.23,1.61-.47,2.41,1.38-1.15,3.13-2.13,4.82-2.3Z"/>
        </g>
        <g>
          <path class="cls-1" d="m608.49,112.44c1.93-1.91,4.47-7.01,1.94-9.57l7.65,7.73c-2.53-2.56-7.66-.07-9.59,1.84"/>
          <path d="m610.78,102.52l7.65,7.73-.71.7c-2.25-2.27-7.05.02-8.88,1.84l-.7-.71c.85-.84,1.96-2.51,2.51-4.33.42-1.37.66-3.28-.58-4.53l.71-.7Zm5.06,6.54l-3.88-3.92c.09.87-.03,1.84-.36,2.91-.23.75-.56,1.53-.96,2.26,1.59-.84,3.51-1.43,5.19-1.25Z"/>
        </g>
        <g>
          <path class="cls-1" d="m654.41,169.57c2.28-1.46,5.83-5.93,3.88-8.95l5.88,9.15c-1.94-3.03-7.48-1.66-9.76-.2"/>
          <path d="m658.71,160.34l5.88,9.15-.84.54c-1.73-2.69-6.9-1.44-9.07-.05l-.54-.84c1.01-.65,2.43-2.04,3.36-3.71.7-1.26,1.33-3.07.37-4.55l.84-.54Zm3.59,7.44l-2.98-4.64c-.1.87-.42,1.79-.95,2.77-.38.69-.87,1.38-1.41,2.01,1.73-.49,3.73-.67,5.34-.14Z"/>
        </g>
        <g>
          <path class="cls-1" d="m64.93,549.4c-2.28,1.46-5.83,5.93-3.88,8.95l-5.88-9.15c1.94,3.03,7.48,1.66,9.76.2"/>
          <path d="m60.63,558.62h0s0,0,0,0l-5.87-9.15.84-.54c1.73,2.69,6.89,1.44,9.07.05l.54.84c-1.01.65-2.43,2.04-3.36,3.71-.7,1.26-1.33,3.07-.37,4.55l-.84.54Zm-3.59-7.45l2.98,4.64c.1-.87.42-1.79.95-2.77.38-.69.87-1.38,1.41-2.01-1.73.48-3.73.67-5.34.14Z"/>
        </g>
        <g>
          <path class="cls-1" d="m110.81,606.67c-1.93,1.91-4.47,7.01-1.94,9.57l-7.65-7.73c2.53,2.56,7.66.07,9.59-1.84"/>
          <path d="m108.52,616.58h0s-7.64-7.73-7.64-7.73c0,0,0,0,0,0l.71-.7c1.24,1.25,3.15,1.02,4.52.63,1.83-.54,3.51-1.63,4.36-2.47l.7.71c-.85.84-1.96,2.51-2.51,4.33-.42,1.38-.66,3.28.58,4.53l-.71.7Zm-5.04-6.52l3.86,3.9c-.09-.87.03-1.84.36-2.91.23-.75.56-1.53.96-2.25-.73.39-1.51.71-2.26.93-1.07.32-2.04.42-2.91.33Z"/>
        </g>
        <g>
          <path class="cls-1" d="m167.6,653.14c-1.49,2.27-2.91,7.78.1,9.76l-9.09-5.97c3.01,1.98,7.51-1.52,8.99-3.79"/>
          <path d="m167.42,663.32l-9.09-5.97h0s.55-.84.55-.84c2.67,1.75,6.89-1.49,8.3-3.65l.84.55c-.66,1-1.39,2.86-1.56,4.76-.12,1.43.04,3.34,1.51,4.31h0s-.55.84-.55.84Zm-6.31-5.34l4.61,3.03c-.26-.83-.35-1.81-.25-2.92.07-.79.23-1.61.47-2.41-1.38,1.15-3.13,2.13-4.82,2.3Z"/>
        </g>
        <g>
          <path class="cls-1" d="m232.8,686.8c-.98,2.53-1.23,8.22,2.12,9.53l-10.13-3.95c3.35,1.31,7.03-3.05,8.01-5.58"/>
          <path d="m234.74,696.79h0s0,0,0,0l-10.13-3.95.36-.93h0c2.98,1.16,6.42-2.89,7.36-5.29l.93.36c-.94,2.4-1.14,7.72,1.84,8.88l-.36.93Zm-7.28-3.91l5.16,2.01c-.84-1.47-1.06-3.47-.92-5.26-1.11,1.42-2.62,2.74-4.24,3.25Z"/>
        </g>
        <g>
          <path class="cls-1" d="m303.58,706.16c-.44,2.68.51,8.3,4.06,8.88l-10.73-1.76c3.55.58,6.24-4.44,6.68-7.12"/>
          <path d="m307.56,715.53s0,0,0,0l-10.73-1.76s0,0,0,0l.16-.99c1.74.29,3.15-1.01,4.03-2.15,1.16-1.51,1.88-3.38,2.07-4.56l.99.16c-.19,1.18-.11,3.18.51,4.98.47,1.36,1.39,3.04,3.13,3.32h0s-.16.99-.16.99Zm-7.91-2.31l5.41.89c-.58-.65-1.05-1.51-1.42-2.56-.26-.74-.44-1.56-.55-2.39-.36.74-.8,1.46-1.28,2.09-.68.88-1.41,1.54-2.16,1.98Z"/>
        </g>
        <g>
          <path class="cls-1" d="m376.84,710.39c.13,2.71,2.22,8.01,5.81,7.84l-10.86.51c3.59-.17,5.18-5.64,5.05-8.35"/>
          <path d="m382.68,718.73l-10.86.51s0,0,0,0l-.05-1c3.19-.14,4.7-5.25,4.57-7.83l1-.05c.06,1.19.55,3.13,1.54,4.77.74,1.23,1.99,2.68,3.75,2.6l.05,1Zm-8.24-.61l5.5-.26c-.7-.52-1.35-1.26-1.92-2.21-.41-.67-.76-1.44-1.04-2.22-.44,1.75-1.28,3.56-2.55,4.69Z"/>
        </g>
        <g>
          <circle class="cls-1" cx="610.06" cy="531.05" r="5.82"/>
          <path d="m611.66,537.16c-3.37.88-6.84-1.14-7.72-4.51s1.14-6.84,4.51-7.72,6.84,1.14,7.72,4.51-1.14,6.84-4.51,7.72Zm-2.96-11.27c-2.84.74-4.54,3.66-3.8,6.5s3.66,4.54,6.5,3.8,4.54-3.66,3.8-6.5-3.66-4.54-6.5-3.8Z"/>
        </g>
        <g>
          <circle class="cls-1" cx="649.79" cy="546.21" r="4.07"/>
          <path d="m650.95,550.63c-2.43.64-4.94-.82-5.57-3.26s.82-4.94,3.26-5.57,4.94.82,5.57,3.26-.82,4.93-3.26,5.57Zm-2.06-7.86c-1.9.5-3.04,2.45-2.54,4.35s2.45,3.04,4.35,2.54,3.04-2.45,2.54-4.35-2.45-3.04-4.35-2.54Z"/>
        </g>
        <path d="m611.7,559.86c-1.29.34-2.38.3-3.06-.35-1.87-1.79.74-6.86,3.26-10.81.1-.16.21-.32.31-.47.1-.16.19-.3.3-.45l.66.46c-.1.14-.19.28-.27.42-.12.17-.22.33-.31.47-3.25,5.08-4.52,8.74-3.39,9.81,1.13,1.07,4.74-.35,9.66-3.8.15-.1.29-.21.43-.31l.46-.33c4.56-3.33,9.83-8.04,14.82-13.25,5.01-5.22,9.48-10.68,12.6-15.38.11-.15.21-.3.3-.45l.3-.46c3.24-5.07,4.5-8.74,3.38-9.81-1.13-1.07-4.74.35-9.66,3.8-.15.1-.29.21-.43.31-.16.11-.31.22-.45.33l-.48-.64c.15-.12.31-.23.47-.34.13-.1.29-.22.44-.32,3.83-2.69,8.79-5.52,10.67-3.72,1.87,1.78-.74,6.87-3.26,10.82l-.3.46c-.1.16-.21.31-.32.47-3.14,4.73-7.65,10.23-12.69,15.48-5.02,5.24-10.33,9.98-14.93,13.35l-.46.32c-.13.1-.29.22-.44.32-2.44,1.71-5.34,3.48-7.61,4.08Z"/>


<animateTransform
      attributeName="transform"
      attributeType="XML"
      type="rotate"
      from="0 360 360"
      to="360 360 360"
      dur="40s"
      repeatCount="indefinite" />


      </g>
      <g>
        <g>
          <path class="cls-1" d="m387.57,743.46l-.07-1c71.64-5.02,140.2-30.02,198.28-72.31l.59.81c-58.23,42.4-126.98,67.46-198.8,72.5Z"/>
          <path class="cls-1" d="m89.14,631.15l-.7.71c-21.61-21.57-40.44-45.48-56.2-71.23-6.02-9.84-11.6-19.95-16.71-30.29h0s.87-.49.87-.49c18.44,37.33,42.94,71.56,72.74,101.3Z"/>
          <g>
            <path class="cls-1" d="m360.3,705.3l-9.31,35.92c-.96,3.69.36,7.59,3.35,9.96h0c3.49,2.76,8.42,2.76,11.92,0h0c2.99-2.36,4.3-6.27,3.35-9.96l-9.31-35.92Z"/>
            <path d="m360.3,753.76c-2.21,0-4.42-.73-6.27-2.19-3.14-2.48-4.53-6.59-3.52-10.47l9.79-37.79,9.79,37.79c1,3.88-.38,7.99-3.52,10.47-1.85,1.46-4.06,2.19-6.27,2.19Zm0-46.46l-8.82,34.06c-.91,3.5.34,7.2,3.17,9.44,3.33,2.63,7.97,2.63,11.29,0,2.83-2.24,4.08-5.94,3.17-9.44l-8.82-34.06Z"/>
          </g>
        </g>
        <path d="m360.3,748.75c-4.57,0-8.59-3.08-9.77-7.48l.97-.26c1.06,3.97,4.69,6.74,8.81,6.74s7.74-2.77,8.8-6.73l.97.26c-1.17,4.4-5.19,7.47-9.76,7.47Z"/>
        <rect x="359.8" y="705.3" width="1" height="42.95"/>
      </g>
    </g>
  </g>
</svg>