<svg width="23" height="19" viewBox="0 0 23 19" fill="none" xmlns="http://www.w3.org/2000/svg">
<path d="M19.8529 5.23146C19.8655 5.41733 19.8655 5.60005 19.8655 5.78592C19.8655 11.4598 15.5302 18 7.60578 18C5.26577 18 2.9732 17.3321 1 16.072C1.34151 16.1129 1.68303 16.1318 2.02454 16.135C3.96612 16.135 5.85078 15.4891 7.37494 14.2951C-0.0277066 10.8549 1.31938 3.74447 2.46092 1.78177C4.64915 4.46276 7.87773 6.09466 11.3403 6.26794C10.9925 4.7778 11.4668 3.2152 12.5862 2.16612C14.3222 0.54052 17.0512 0.62558 18.6829 2.352C20.694 2.3772 22 3.00728 22 3.00728C22 3.00728 21.2537 4.46591 19.8497 5.23146H19.8529Z" stroke="white" stroke-width="1.6" stroke-miterlimit="10" stroke-linejoin="round"/>
</svg>
